<svg width="99" height="100" viewBox="0 0 99 100" fill="none" xmlns="http://www.w3.org/2000/svg">
<path d="M69.4902 67.0635C71.4441 65.1334 72.5624 62.8923 72.5624 60.5022C72.5624 53.2546 62.2808 47.3794 49.5977 47.3794C36.9146 47.3794 26.6328 53.2546 26.6328 60.5022C26.6328 62.8923 27.7511 65.1334 29.7051 67.0635C33.6758 63.1411 41.0974 60.5022 49.5977 60.5022C58.0979 60.5022 65.5194 63.1411 69.4902 67.0635Z" fill="url(#paint0_linear_265_41226)" fill-opacity="0.5"/>
<path d="M49.5977 73.6247C62.2808 73.6247 72.5624 67.7494 72.5624 60.502V73.6247C72.5624 80.8722 62.2808 86.7474 49.5977 86.7474C36.9146 86.7474 26.6328 80.8722 26.6328 73.6247V60.502C26.6328 67.7494 36.9146 73.6247 49.5977 73.6247Z" fill="url(#paint1_linear_265_41226)"/>
<path d="M69.4902 49.8399C71.4441 47.9097 72.5624 45.6687 72.5624 43.2786C72.5624 36.031 62.2808 30.1558 49.5977 30.1558C36.9146 30.1558 26.6328 36.031 26.6328 43.2786C26.6328 45.6687 27.7511 47.9097 29.7051 49.8399C33.6758 45.9175 41.0974 43.2786 49.5977 43.2786C58.0979 43.2786 65.5194 45.9175 69.4902 49.8399Z" fill="url(#paint2_linear_265_41226)" fill-opacity="0.5"/>
<path d="M49.5977 56.4011C62.2808 56.4011 72.5624 50.5258 72.5624 43.2783V56.4011C72.5624 63.6486 62.2808 69.5238 49.5977 69.5238C36.9146 69.5238 26.6328 63.6486 26.6328 56.4011V43.2783C26.6328 50.5258 36.9146 56.4011 49.5977 56.4011Z" fill="url(#paint3_linear_265_41226)"/>
<path d="M69.4902 32.6163C71.4441 30.6861 72.5624 28.4451 72.5624 26.0549C72.5624 18.8074 62.2808 12.9321 49.5977 12.9321C36.9146 12.9321 26.6328 18.8074 26.6328 26.0549C26.6328 28.4451 27.7511 30.6861 29.7051 32.6163C33.6758 28.6938 41.0974 26.0549 49.5977 26.0549C58.0979 26.0549 65.5194 28.6938 69.4902 32.6163Z" fill="url(#paint4_linear_265_41226)" fill-opacity="0.5"/>
<path d="M49.5977 39.1775C62.2808 39.1775 72.5624 33.3021 72.5624 26.0547V39.1775C72.5624 46.4249 62.2808 52.3002 49.5977 52.3002C36.9146 52.3002 26.6328 46.4249 26.6328 39.1775V26.0547C26.6328 33.3021 36.9146 39.1775 49.5977 39.1775Z" fill="url(#paint5_linear_265_41226)"/>
<defs>
<linearGradient id="paint0_linear_265_41226" x1="26.6328" y1="48.0686" x2="72.7533" y2="48.5628" gradientUnits="userSpaceOnUse">
<stop stop-color="white"/>
<stop offset="1"/>
</linearGradient>
<linearGradient id="paint1_linear_265_41226" x1="26.6328" y1="76.3595" x2="66.4715" y2="57.8091" gradientUnits="userSpaceOnUse">
<stop stop-color="#041035"/>
<stop offset="1" stop-color="#1727FF"/>
</linearGradient>
<linearGradient id="paint2_linear_265_41226" x1="26.6328" y1="30.845" x2="72.7533" y2="31.3391" gradientUnits="userSpaceOnUse">
<stop stop-color="white"/>
<stop offset="1"/>
</linearGradient>
<linearGradient id="paint3_linear_265_41226" x1="26.6328" y1="59.1358" x2="66.4715" y2="40.5854" gradientUnits="userSpaceOnUse">
<stop stop-color="#041035"/>
<stop offset="1" stop-color="#1727FF"/>
</linearGradient>
<linearGradient id="paint4_linear_265_41226" x1="26.6328" y1="13.6213" x2="72.7533" y2="14.1155" gradientUnits="userSpaceOnUse">
<stop stop-color="white"/>
<stop offset="1"/>
</linearGradient>
<linearGradient id="paint5_linear_265_41226" x1="26.6328" y1="41.9122" x2="66.4715" y2="23.3618" gradientUnits="userSpaceOnUse">
<stop stop-color="#041035"/>
<stop offset="1" stop-color="#1727FF"/>
</linearGradient>
</defs>
</svg>
