<svg width="104" height="104" viewBox="0 0 104 104" fill="none" xmlns="http://www.w3.org/2000/svg">
<path d="M48.9558 54.4353H55.0828C58.949 54.4353 62.0837 57.5691 62.0837 61.4353C62.0837 65.3016 58.949 68.4363 55.0828 68.4363H48.9558C45.0896 68.4362 41.9558 65.3015 41.9558 61.4353C41.9559 57.5691 45.0896 54.4354 48.9558 54.4353Z" stroke="#2837FF" stroke-width="1.8"/>
<circle cx="52.0194" cy="46.1366" r="4.92064" stroke="#2837FF" stroke-width="1.8"/>
<circle cx="52.0199" cy="51.6" r="17.1064" stroke="#2837FF" stroke-width="1.8"/>
<path d="M15.2327 51.5999C15.2327 50.5649 14.685 49.4358 14.0898 48.8406C13.358 48.1089 12.3655 47.6977 11.3306 47.6977C10.2957 47.6977 9.30319 48.1089 8.5714 48.8406C7.83961 49.5724 7.42851 50.5649 7.42851 51.5999C7.42851 52.6348 7.83961 53.6273 8.5714 54.3591C9.30319 55.0908 10.2957 55.502 11.3306 55.502C12.3655 55.502 13.358 55.0908 14.0898 54.3591C14.8216 53.6273 15.2327 52.6348 15.2327 51.5999ZM15.2327 51.5999H25.1599" stroke="#2837FF" stroke-width="1.8" stroke-linecap="round" stroke-linejoin="round"/>
<path d="M52.02 14.8128C53.0549 14.8128 54.1841 14.265 54.7792 13.6699C55.511 12.9381 55.9221 11.9456 55.9221 10.9107C55.9221 9.87579 55.511 8.88326 54.7792 8.15148C54.0474 7.41969 53.0549 7.00859 52.02 7.00859C50.9851 7.00859 49.9926 7.41969 49.2608 8.15148C48.529 8.88326 48.1179 9.87579 48.1179 10.9107C48.1179 11.9456 48.529 12.9381 49.2608 13.6699C49.9926 14.4017 50.9851 14.8128 52.02 14.8128ZM52.02 14.8128L52.02 24.74" stroke="#2837FF" stroke-width="1.8" stroke-linecap="round" stroke-linejoin="round"/>
<path d="M88.8068 51.5999C88.8068 50.5649 89.3546 49.4358 89.9497 48.8406C90.6815 48.1089 91.674 47.6977 92.7089 47.6977C93.7438 47.6977 94.7364 48.1089 95.4682 48.8406C96.1999 49.5724 96.611 50.5649 96.611 51.5999C96.611 52.6348 96.1999 53.6273 95.4682 54.3591C94.7364 55.0908 93.7438 55.502 92.7089 55.502C91.674 55.502 90.6815 55.0908 89.9497 54.3591C89.2179 53.6273 88.8068 52.6348 88.8068 51.5999ZM88.8068 51.5999H78.8796" stroke="#2837FF" stroke-width="1.8" stroke-linecap="round" stroke-linejoin="round"/>
<path d="M52.02 88.3871C53.0549 88.3871 54.1841 88.9349 54.7792 89.5301C55.511 90.2618 55.9221 91.2544 55.9221 92.2893C55.9221 93.3242 55.511 94.3167 54.7792 95.0485C54.0474 95.7803 53.0549 96.1914 52.02 96.1914C50.9851 96.1914 49.9926 95.7803 49.2608 95.0485C48.529 94.3167 48.1179 93.3242 48.1179 92.2893C48.1179 91.2544 48.529 90.2618 49.2608 89.5301C49.9926 88.7983 50.9851 88.3871 52.02 88.3871ZM52.02 88.3871L52.02 78.46" stroke="#2837FF" stroke-width="1.8" stroke-linecap="round" stroke-linejoin="round"/>
<circle cx="15.9307" cy="15.9307" r="15.0307" stroke="#2837FF" stroke-width="1.8"/>
<path d="M35.7009 34.2111L26.1038 26.5996" stroke="#2837FF" stroke-width="1.8" stroke-linecap="round" stroke-linejoin="round"/>
<circle cx="15.7432" cy="15.7432" r="14.8432" transform="matrix(1 0 0 -1 0.42041 102.797)" stroke="#2837FF" stroke-width="1.8"/>
<path d="M35.7012 68.9888L26.217 76.5107" stroke="#2837FF" stroke-width="1.8" stroke-linecap="round" stroke-linejoin="round"/>
<path d="M3.52148 94.1364L11.0049 84.8511L16.5487 92.2654M22.0925 99.6797L16.5487 92.2654M16.5487 92.2654L22.0925 86.7911L28.3289 92.2654" stroke="#2837FF" stroke-width="1.2" stroke-linecap="round" stroke-linejoin="round"/>
<circle cx="15.511" cy="15.511" r="14.611" transform="matrix(-1 0 0 1 103.62 0.901123)" stroke="#2837FF" stroke-width="1.8"/>
<path d="M68.8605 34.2111L78.2048 26.8" stroke="#2837FF" stroke-width="1.8" stroke-linecap="round" stroke-linejoin="round"/>
<circle cx="88.1093" cy="86.788" r="14.611" transform="rotate(180 88.1093 86.788)" stroke="#2837FF" stroke-width="1.8"/>
<path d="M68.8605 68.9889L78.2048 76.3999" stroke="#2837FF" stroke-width="1.8" stroke-linecap="round" stroke-linejoin="round"/>
<path d="M85.0808 9.80005H90.9608C93.2008 9.80005 95.0208 11.62 95.0208 13.86V19.74C95.0208 20.8168 94.593 21.8495 93.8316 22.6109C93.0702 23.3723 92.0375 23.8 90.9608 23.8H85.0808C82.8408 23.8 81.0208 21.98 81.0208 19.74V13.86C81.0208 12.7833 81.4485 11.7506 82.2099 10.9892C82.9713 10.2278 84.004 9.80005 85.0808 9.80005ZM84.9408 11.2C84.2724 11.2 83.6314 11.4655 83.1588 11.9381C82.6863 12.4107 82.4208 13.0517 82.4208 13.72V19.88C82.4208 21.273 83.5478 22.4 84.9408 22.4H91.1008C91.7691 22.4 92.4101 22.1345 92.8827 21.662C93.3553 21.1894 93.6208 20.5484 93.6208 19.88V13.72C93.6208 12.327 92.4938 11.2 91.1008 11.2H84.9408ZM91.6958 12.25C91.9278 12.25 92.1504 12.3422 92.3145 12.5063C92.4786 12.6704 92.5708 12.893 92.5708 13.125C92.5708 13.3571 92.4786 13.5797 92.3145 13.7438C92.1504 13.9079 91.9278 14 91.6958 14C91.4637 14 91.2411 13.9079 91.077 13.7438C90.9129 13.5797 90.8208 13.3571 90.8208 13.125C90.8208 12.893 90.9129 12.6704 91.077 12.5063C91.2411 12.3422 91.4637 12.25 91.6958 12.25ZM88.0208 13.3C88.949 13.3 89.8392 13.6688 90.4956 14.3252C91.152 14.9816 91.5208 15.8718 91.5208 16.8C91.5208 17.7283 91.152 18.6185 90.4956 19.2749C89.8392 19.9313 88.949 20.3 88.0208 20.3C87.0925 20.3 86.2023 19.9313 85.5459 19.2749C84.8895 18.6185 84.5208 17.7283 84.5208 16.8C84.5208 15.8718 84.8895 14.9816 85.5459 14.3252C86.2023 13.6688 87.0925 13.3 88.0208 13.3ZM88.0208 14.7C87.4638 14.7 86.9297 14.9213 86.5358 15.3151C86.142 15.709 85.9208 16.2431 85.9208 16.8C85.9208 17.357 86.142 17.8911 86.5358 18.285C86.9297 18.6788 87.4638 18.9 88.0208 18.9C88.5777 18.9 89.1118 18.6788 89.5057 18.285C89.8995 17.8911 90.1208 17.357 90.1208 16.8C90.1208 16.2431 89.8995 15.709 89.5057 15.3151C89.1118 14.9213 88.5777 14.7 88.0208 14.7Z" fill="#2837FF"/>
<path d="M17.1631 12.185H10.967C10.5562 12.185 10.1622 12.3482 9.87167 12.6387C9.58117 12.9292 9.41797 13.3232 9.41797 13.734V16.832C9.41797 17.2429 9.58117 17.6369 9.87167 17.9274C10.1622 18.2179 10.5562 18.3811 10.967 18.3811H11.7415V21.4791C11.7415 21.6845 11.8231 21.8815 11.9684 22.0268C12.1136 22.172 12.3106 22.2536 12.516 22.2536H14.065C14.2705 22.2536 14.4675 22.172 14.6127 22.0268C14.758 21.8815 14.8396 21.6845 14.8396 21.4791V18.3811H17.1631L21.0356 21.4791V9.08691L17.1631 12.185ZM19.4866 18.0713L17.9376 16.832H10.967V13.734H17.9376L19.4866 12.4948V18.0713ZM24.5209 15.283C24.5209 16.6074 23.7774 17.8079 22.5847 18.3811V12.185C23.7697 12.7658 24.5209 13.9663 24.5209 15.283Z" fill="#2837FF"/>
<path d="M85.2053 84.7673C85.2054 83.8848 86.1604 83.3339 86.9241 83.7751L91.262 86.2791C92.026 86.7203 92.026 87.8232 91.262 88.2644L86.9241 90.7693C86.1602 91.21 85.2053 90.6584 85.2053 89.7761V84.7673Z" fill="#2837FF" stroke="#2837FF" stroke-width="0.6"/>
<circle cx="14.4179" cy="79.5663" r="1.9519" stroke="#2837FF" stroke-width="1.2"/>
</svg>
