<svg width="99" height="100" viewBox="0 0 99 100" fill="none" xmlns="http://www.w3.org/2000/svg">
<path d="M84.4569 65.8898L49.3945 45.6465L14.3322 65.8898L49.3945 86.1331L84.4569 65.8898Z" fill="url(#paint0_linear_265_41241)"/>
<path d="M84.4569 57.7921L49.3945 37.5488L14.3322 57.7921L49.3945 78.0354L84.4569 57.7921Z" fill="url(#paint1_linear_265_41241)" fill-opacity="0.5"/>
<path d="M84.4569 49.6947L49.3945 29.4514L14.3322 49.6947L49.3945 69.938L84.4569 49.6947Z" fill="url(#paint2_linear_265_41241)"/>
<path d="M84.4569 41.5975L49.3945 21.3542L14.3322 41.5975L49.3945 61.8408L84.4569 41.5975Z" fill="url(#paint3_linear_265_41241)" fill-opacity="0.5"/>
<path d="M84.4569 33.5001L49.3945 13.2568L14.3322 33.5001L49.3945 53.7434L84.4569 33.5001Z" fill="url(#paint4_linear_265_41241)"/>
<defs>
<linearGradient id="paint0_linear_265_41241" x1="28.2099" y1="57.8775" x2="57.3214" y2="87.1065" gradientUnits="userSpaceOnUse">
<stop stop-color="#041035"/>
<stop offset="1" stop-color="#1727FF"/>
</linearGradient>
<linearGradient id="paint1_linear_265_41241" x1="48.1669" y1="38.2576" x2="65.6116" y2="68.7516" gradientUnits="userSpaceOnUse">
<stop stop-color="white"/>
<stop offset="1"/>
</linearGradient>
<linearGradient id="paint2_linear_265_41241" x1="28.2099" y1="41.6824" x2="57.3214" y2="70.9115" gradientUnits="userSpaceOnUse">
<stop stop-color="#041035"/>
<stop offset="1" stop-color="#1727FF"/>
</linearGradient>
<linearGradient id="paint3_linear_265_41241" x1="48.1669" y1="22.063" x2="65.6116" y2="52.557" gradientUnits="userSpaceOnUse">
<stop stop-color="white"/>
<stop offset="1"/>
</linearGradient>
<linearGradient id="paint4_linear_265_41241" x1="28.2099" y1="25.4878" x2="57.3214" y2="54.7169" gradientUnits="userSpaceOnUse">
<stop stop-color="#041035"/>
<stop offset="1" stop-color="#1727FF"/>
</linearGradient>
</defs>
</svg>
