<svg width="104" height="104" viewBox="0 0 104 104" fill="none" xmlns="http://www.w3.org/2000/svg">
<path d="M95.962 45.8105C95.4593 41.9204 94.4569 38.1869 93.0212 34.6766C91.5172 30.9994 89.5378 27.567 87.1594 24.456M95.956 57.4351C94.9167 65.4129 91.7755 72.7303 87.1061 78.8133M79.0215 86.9452C76.5907 88.8338 73.9598 90.4772 71.166 91.8382C66.897 93.9178 62.2478 95.3381 57.3507 95.9665M45.8501 95.9665C41.9287 95.4633 38.1662 94.4523 34.6307 93.0016C30.8412 91.4468 27.3125 89.3868 24.1282 86.9055M16.1642 78.9037C13.7841 75.8192 11.7977 72.4154 10.2803 68.7674C8.79328 65.1923 7.75668 61.3828 7.2414 57.4097M7.22339 45.9307C7.72421 41.9707 8.74272 38.1722 10.209 34.6049C11.7253 30.9158 13.7205 27.4742 16.1171 24.3572M24.1907 16.2456C27.0721 14.0085 30.2343 12.1158 33.6155 10.6294C37.4733 8.93353 41.6162 7.76652 45.9524 7.22021M57.2483 7.22021C61.0426 7.69824 64.6889 8.65153 68.1257 10.0186C72.0373 11.5744 75.6774 13.6663 78.9556 16.2034" stroke="#2837FF" stroke-width="1.2"/>
<path d="M93.4454 46.1384C92.9712 42.469 92.0256 38.9473 90.6714 35.6361C89.2527 32.1675 87.3856 28.9299 85.1421 25.9953M93.4398 57.1036C92.4594 64.6289 89.4963 71.5311 85.0919 77.269M77.4659 84.9397C75.1729 86.7211 72.6913 88.2713 70.056 89.5551C66.0292 91.5167 61.6437 92.8565 57.0244 93.4492M46.1762 93.4492C42.4773 92.9746 38.9282 92.0209 35.5933 90.6525C32.0188 89.1859 28.6902 87.2428 25.6866 84.9022M18.1743 77.3543C15.9292 74.4448 14.0555 71.2341 12.6242 67.7931C11.2216 64.4208 10.2438 60.8274 9.75771 57.0796M9.74072 46.2518C10.2131 42.5165 11.1739 38.9334 12.5569 35.5685C13.9872 32.0887 15.8692 28.8423 18.1299 25.9022M25.7456 18.2507C28.4635 16.1405 31.4463 14.3552 34.6357 12.9531C38.2746 11.3534 42.1825 10.2526 46.2727 9.7373M56.9279 9.7373C60.5069 10.1882 63.9464 11.0874 67.1882 12.3769C70.8779 13.8445 74.3115 15.8177 77.4037 18.2109" stroke="#2837FF" stroke-width="1.2"/>
<path d="M66.7935 51.5994C66.7935 55.629 65.1928 59.4936 62.3434 62.3429C59.4941 65.1923 55.6295 66.793 51.5999 66.793C47.5703 66.793 43.7057 65.1923 40.8564 62.3429C38.007 59.4936 36.4063 55.629 36.4062 51.5994C36.4063 47.5698 38.007 43.7052 40.8564 40.8559C43.7057 38.0065 47.5703 36.4058 51.5999 36.4058C55.6295 36.4058 59.4941 38.0065 62.3434 40.8559C65.1928 43.7052 66.7935 47.5698 66.7935 51.5994Z" stroke="#2837FF" stroke-width="1.54876"/>
<path d="M69.6705 51.5994C69.6705 56.392 67.7666 60.9883 64.3777 64.3772C60.9888 67.7661 56.3925 69.67 51.5999 69.67C46.8073 69.67 42.2109 67.7661 38.8221 64.3772C35.4332 60.9883 33.5293 56.392 33.5293 51.5994C33.5293 46.8068 35.4332 42.2105 38.8221 38.8216C42.2109 35.4327 46.8073 33.5288 51.5999 33.5288C56.3925 33.5288 60.9888 35.4327 64.3777 38.8216C67.7666 42.2105 69.6705 46.8068 69.6705 51.5994Z" stroke="#2837FF" stroke-width="1.54876"/>
<path d="M58.3429 81.8247C53.1391 82.9791 47.725 82.7669 42.6276 81.2087C42.9793 79.3989 43.9571 76.3 43.2381 74.6023C42.519 72.9047 41.3097 71.4603 39.765 70.4538C38.2203 69.4473 36.4105 68.9246 34.567 68.9526C32.7236 68.9806 29.7564 70.7833 28.2429 71.8362C26.8804 70.2521 25.6821 68.5338 24.6665 66.7077C23.0954 63.8889 22.0114 60.9295 21.3913 57.9271L21.5046 57.8639C22.8802 57.0977 25.2375 55.9679 26.0678 54.6301C26.8981 53.2923 27.3737 51.7649 27.4498 50.1922C27.5258 48.6195 27.1998 47.0534 26.5024 45.6417C25.805 44.23 23.5597 43.045 22.2644 42.1497C23.787 37.4436 26.4178 33.1721 29.9354 29.6946C31.3545 30.6473 34.2349 32.3629 35.9426 32.4333C37.6504 32.5037 39.3443 32.1004 40.837 31.2678C42.3301 30.436 43.5641 29.2074 44.4022 27.7178C45.2404 26.2282 44.4247 23.3618 44.3607 21.6538C49.1683 20.4907 54.185 20.4994 58.9886 21.6792C59.0693 23.2628 58.3811 26.0246 59.2256 27.3667C60.07 28.7088 61.2448 29.8116 62.6375 30.5697C64.0302 31.3278 65.5942 31.7157 67.1797 31.6964C68.7653 31.677 71.4934 30.0257 72.8671 29.2338C75.1479 31.3949 77.0856 33.8914 78.6131 36.6372C79.6505 38.4983 80.4751 40.4216 81.0951 42.3775C79.4037 43.1111 76.7699 44.3583 75.7766 45.9115C74.7834 47.4647 74.2762 49.279 74.3199 51.1221C74.3636 52.9652 74.9563 54.7534 76.022 56.2578C77.0878 57.7622 79.7779 58.8887 81.5022 59.5413C80.1464 64.696 77.4794 69.412 73.7608 73.2306C72.3268 71.8898 69.2786 69.8649 67.3299 69.6266C65.3812 69.3884 63.4071 69.7751 61.6923 70.7309C59.9775 71.6868 58.6105 73.1625 57.7883 74.9452C56.9661 76.728 57.9566 79.8999 58.3429 81.8247Z" stroke="#2837FF" stroke-width="1.54876" stroke-linejoin="round"/>
<path d="M47.376 49.2913L44.6055 51.5998L47.376 53.9083C47.4679 53.9836 47.544 54.0763 47.5998 54.1812C47.6557 54.286 47.6902 54.4009 47.7015 54.5192C47.7127 54.6374 47.7005 54.7567 47.6654 54.8702C47.6303 54.9837 47.5731 55.0891 47.4971 55.1804C47.421 55.2717 47.3277 55.347 47.2224 55.402C47.1171 55.4571 47.002 55.4907 46.8836 55.501C46.7653 55.5113 46.6461 55.4981 46.5328 55.4621C46.4196 55.4261 46.3147 55.3681 46.224 55.2913L42.624 52.2913C42.5226 52.2068 42.441 52.1011 42.3851 51.9816C42.3291 51.8621 42.3 51.7318 42.3 51.5998C42.3 51.4678 42.3291 51.3375 42.3851 51.218C42.441 51.0985 42.5226 50.9928 42.624 50.9083L46.224 47.9083C46.4077 47.7578 46.6434 47.686 46.8797 47.7085C47.1161 47.7309 47.334 47.8459 47.486 48.0284C47.638 48.2108 47.7117 48.4459 47.6911 48.6825C47.6705 48.9191 47.5572 49.1379 47.376 49.2913ZM60.576 50.9083L56.976 47.9083C56.8853 47.8315 56.7804 47.7735 56.6672 47.7375C56.554 47.7015 56.4347 47.6883 56.3164 47.6986C56.198 47.7089 56.0829 47.7425 55.9776 47.7976C55.8723 47.8526 55.779 47.9279 55.703 48.0192C55.6269 48.1105 55.5697 48.2159 55.5346 48.3294C55.4995 48.4429 55.4873 48.5622 55.4985 48.6805C55.5098 48.7987 55.5443 48.9136 55.6002 49.0184C55.6561 49.1233 55.7321 49.216 55.824 49.2913L58.5945 51.5998L55.824 53.9083C55.7321 53.9836 55.6561 54.0763 55.6002 54.1812C55.5443 54.286 55.5098 54.4009 55.4985 54.5192C55.4873 54.6374 55.4995 54.7567 55.5346 54.8702C55.5697 54.9837 55.6269 55.0891 55.703 55.1804C55.779 55.2717 55.8723 55.347 55.9776 55.402C56.0829 55.4571 56.198 55.4907 56.3164 55.501C56.4347 55.5113 56.554 55.4981 56.6672 55.4621C56.7804 55.4261 56.8853 55.3681 56.976 55.2913L60.576 52.2913C60.6774 52.2068 60.759 52.1011 60.815 51.9816C60.8709 51.8621 60.9 51.7318 60.9 51.5998C60.9 51.4678 60.8709 51.3375 60.815 51.218C60.759 51.0985 60.6774 50.9928 60.576 50.9083ZM54.3075 44.1538C54.1964 44.1134 54.0784 44.0953 53.9603 44.1005C53.8422 44.1057 53.7263 44.1341 53.6192 44.1841C53.5121 44.2341 53.4159 44.3047 53.336 44.3919C53.2562 44.4791 53.1944 44.5812 53.154 44.6923L48.354 57.8923C48.2726 58.1166 48.2837 58.364 48.3846 58.5801C48.4856 58.7963 48.6683 58.9635 48.8925 59.0451C48.9909 59.0814 49.0951 59.0999 49.2 59.0998C49.3848 59.0998 49.5651 59.043 49.7165 58.937C49.8678 58.831 49.9829 58.681 50.046 58.5073L54.846 45.3073C54.8864 45.1962 54.9045 45.0782 54.8993 44.9601C54.8941 44.842 54.8657 44.7261 54.8157 44.619C54.7657 44.5119 54.6951 44.4157 54.6079 44.3358C54.5207 44.256 54.4186 44.1942 54.3075 44.1538Z" fill="#2837FF"/>
<circle cx="51.5999" cy="6.63603" r="5.73623" stroke="#2837FF" stroke-width="1.2"/>
<circle cx="51.6003" cy="6.63623" r="2.50108" fill="#2837FF" stroke="#2837FF" stroke-width="1.2"/>
<circle cx="51.5999" cy="96.5633" r="5.73623" stroke="#2837FF" stroke-width="1.2"/>
<circle cx="51.6003" cy="96.563" r="2.50108" fill="#2837FF" stroke="#2837FF" stroke-width="1.2"/>
<circle cx="83.4075" cy="20.014" r="5.73623" stroke="#2837FF" stroke-width="1.2"/>
<circle cx="83.408" cy="20.0142" r="2.50108" fill="#2837FF" stroke="#2837FF" stroke-width="1.2"/>
<circle cx="96.0799" cy="51.5999" r="5.73623" stroke="#2837FF" stroke-width="1.2"/>
<circle cx="96.0803" cy="51.5996" r="2.50108" fill="#2837FF" stroke="#2837FF" stroke-width="1.2"/>
<circle cx="7.11846" cy="51.5999" r="5.73623" stroke="#2837FF" stroke-width="1.2"/>
<circle cx="7.11866" cy="51.5996" r="2.50108" fill="#2837FF" stroke="#2837FF" stroke-width="1.2"/>
<circle cx="19.7908" cy="20.014" r="5.73623" stroke="#2837FF" stroke-width="1.2"/>
<circle cx="19.7913" cy="20.0142" r="2.50108" fill="#2837FF" stroke="#2837FF" stroke-width="1.2"/>
<circle cx="83.4075" cy="83.1761" r="5.73623" stroke="#2837FF" stroke-width="1.2"/>
<circle cx="83.408" cy="83.1758" r="2.50108" fill="#2837FF" stroke="#2837FF" stroke-width="1.2"/>
<circle cx="19.7908" cy="83.1761" r="5.73623" stroke="#2837FF" stroke-width="1.2"/>
<circle cx="19.7913" cy="83.1758" r="2.50108" fill="#2837FF" stroke="#2837FF" stroke-width="1.2"/>
</svg>
