<svg width="85" height="83" viewBox="0 0 85 83" fill="none" xmlns="http://www.w3.org/2000/svg">
<path fill-rule="evenodd" clip-rule="evenodd" d="M16.2839 43.1087C16.2839 28.7216 27.947 17.0586 42.334 17.0586C56.7211 17.0586 68.3841 28.7216 68.3841 43.1087C68.3841 57.4957 56.7211 69.1588 42.334 69.1588C27.947 69.1588 16.2839 57.4957 16.2839 43.1087Z" stroke="#2837FF" stroke-width="1.5" stroke-linecap="round" stroke-linejoin="round"/>
<path fill-rule="evenodd" clip-rule="evenodd" d="M19.1023 43.1089C19.1023 30.2785 29.5034 19.8774 42.3338 19.8774C55.1641 19.8774 65.5652 30.2785 65.5652 43.1089C65.5652 55.9393 55.1641 66.3404 42.3338 66.3404C29.5034 66.3404 19.1023 55.9393 19.1023 43.1089Z" stroke="#2837FF" stroke-width="1.5" stroke-linecap="round" stroke-linejoin="round"/>
<path d="M5.22399 75.3388H19.4094L26.9541 66.0815M5.22399 75.3388C5.71544 74.8473 5.99153 74.1808 5.99153 73.4858C5.99153 72.7908 5.71544 72.1242 5.22399 71.6328C4.73254 71.1413 4.066 70.8652 3.37098 70.8652C2.67597 70.8652 2.00942 71.1413 1.51797 71.6328C1.02653 72.1242 0.750444 72.7908 0.750444 73.4858C0.750444 74.1808 1.02653 74.8473 1.51797 75.3388C2.00942 75.8302 2.67597 76.1063 3.37098 76.1063C4.066 76.1063 4.73254 75.8302 5.22399 75.3388Z" stroke="#2837FF" stroke-width="1.5" stroke-linecap="round" stroke-linejoin="round"/>
<path d="M5.22399 8.82576L19.4094 8.82576L26.9541 18.083M5.22399 8.82576C5.71544 9.31721 5.99153 9.98375 5.99153 10.6788C5.99153 11.3738 5.71544 12.0403 5.22399 12.5318C4.73254 13.0232 4.066 13.2993 3.37098 13.2993C2.67597 13.2993 2.00942 13.0232 1.51797 12.5318C1.02653 12.0403 0.750444 11.3738 0.750444 10.6788C0.750444 9.98375 1.02653 9.31721 1.51797 8.82576C2.00942 8.33431 2.67597 8.05822 3.37098 8.05822C4.066 8.05822 4.73254 8.33431 5.22399 8.82576Z" stroke="#2837FF" stroke-width="1.5" stroke-linecap="round" stroke-linejoin="round"/>
<path d="M5.99103 42.0826C5.99103 41.3876 5.62317 40.6293 5.22348 40.2296C4.73204 39.7381 4.06549 39.462 3.37048 39.462C2.67547 39.462 2.00892 39.7381 1.51747 40.2296C1.02602 40.721 0.749938 41.3876 0.749938 42.0826C0.749938 42.7776 1.02602 43.4441 1.51747 43.9356C2.00892 44.427 2.67547 44.7031 3.37048 44.7031C4.06549 44.7031 4.73204 44.427 5.22348 43.9356C5.71493 43.4441 5.99103 42.7776 5.99103 42.0826ZM5.99103 42.0826H16.1848" stroke="#2837FF" stroke-width="1.5" stroke-linecap="round" stroke-linejoin="round"/>
<path d="M79.1222 75.3388H64.9368L57.3921 66.0815M79.1222 75.3388C78.6308 74.8473 78.3547 74.1808 78.3547 73.4858C78.3547 72.7908 78.6308 72.1242 79.1222 71.6328C79.6137 71.1413 80.2802 70.8652 80.9752 70.8652C81.6702 70.8652 82.3368 71.1413 82.8282 71.6328C83.3197 72.1242 83.5957 72.7908 83.5957 73.4858C83.5957 74.1808 83.3197 74.8473 82.8282 75.3388C82.3368 75.8302 81.6702 76.1063 80.9752 76.1063C80.2802 76.1063 79.6137 75.8302 79.1222 75.3388Z" stroke="#2837FF" stroke-width="1.5" stroke-linecap="round" stroke-linejoin="round"/>
<path d="M79.1222 8.82527L64.9368 8.82527L57.3921 18.0825M79.1222 8.82527C78.6308 9.31672 78.3547 9.98327 78.3547 10.6783C78.3547 11.3733 78.6308 12.0398 79.1222 12.5313C79.6137 13.0227 80.2802 13.2988 80.9752 13.2988C81.6702 13.2988 82.3368 13.0227 82.8282 12.5313C83.3197 12.0398 83.5957 11.3733 83.5957 10.6783C83.5957 9.98327 83.3197 9.31672 82.8282 8.82527C82.3368 8.33382 81.6702 8.05773 80.9752 8.05773C80.2802 8.05773 79.6137 8.33382 79.1222 8.82527Z" stroke="#2837FF" stroke-width="1.5" stroke-linecap="round" stroke-linejoin="round"/>
<path d="M78.3542 42.0821C78.3542 41.3871 78.722 40.6288 79.1217 40.2291C79.6132 39.7376 80.2797 39.4615 80.9747 39.4615C81.6697 39.4615 82.3363 39.7376 82.8277 40.2291C83.3192 40.7205 83.5953 41.3871 83.5953 42.0821C83.5953 42.7771 83.3192 43.4437 82.8277 43.9351C82.3363 44.4265 81.6697 44.7026 80.9747 44.7026C80.2797 44.7026 79.6132 44.4265 79.1217 43.9351C78.6303 43.4437 78.3542 42.7771 78.3542 42.0821ZM78.3542 42.0821H68.1604" stroke="#2837FF" stroke-width="1.5" stroke-linecap="round" stroke-linejoin="round"/>
<rect x="31.5146" y="36.0815" width="21.9196" height="19.3166" rx="3.25" stroke="#2837FF" stroke-width="1.5"/>
<path d="M45.2383 29.1763C45.2383 27.6499 44.001 26.4118 42.4746 26.4116L42.1914 26.4263C40.7979 26.568 39.71 27.7453 39.71 29.1763L39.7246 29.4585C39.8412 30.6054 40.6596 31.5436 41.7432 31.8403L41.7432 35.2563C41.7432 35.5877 42.0114 35.856 42.3428 35.856C42.6741 35.8559 42.9423 35.5877 42.9424 35.2563L42.9424 31.897C44.2455 31.6745 45.238 30.5428 45.2383 29.1763ZM44.0381 29.1763C44.0378 30.0397 43.338 30.7396 42.4746 30.7397C41.6111 30.7397 40.9105 30.0397 40.9102 29.1763C40.9102 28.3125 41.6109 27.6118 42.4746 27.6118C43.3382 27.612 44.0381 28.3126 44.0381 29.1763ZM43.707 29.1763C43.707 28.4955 43.1553 27.9439 42.4746 27.9438C41.7938 27.9438 41.2422 28.4955 41.2422 29.1763C41.2422 29.857 41.7938 30.4087 42.4746 30.4087C43.1553 30.4086 43.707 29.857 43.707 29.1763Z" fill="#2837FF"/>
<rect x="55.1858" y="39.1445" width="2.30261" height="7.33618" rx="1.1513" fill="#2837FF"/>
<rect x="27.1445" y="39.1445" width="2.30261" height="7.33618" rx="1.1513" fill="#2837FF"/>
<rect x="37.9839" y="39.9502" width="2.30261" height="3.66829" rx="1.1513" fill="#2837FF"/>
<rect x="44.6633" y="39.9502" width="2.30261" height="3.66829" rx="1.1513" fill="#2837FF"/>
<rect x="35.5991" y="47.3706" width="14.001" height="3.52658" rx="1.5" stroke="#2837FF"/>
</svg>
