<svg width="105" height="104" viewBox="0 0 105 104" fill="none" xmlns="http://www.w3.org/2000/svg">
<path d="M81.5916 25.1509V49.1528C81.3486 54.3258 79.5816 62.5792 75.0603 70.4204C70.5752 78.1987 63.3994 85.538 52.3318 89.1089C43.428 86.8659 25.3368 75.8864 23.3533 49.145V25.1499L52.3669 14.1157L81.5916 25.1509Z" stroke="#2837FF" stroke-width="1.8"/>
<path d="M75.9155 29.6689V49.5723C75.7224 53.8638 74.3021 60.7082 70.6646 67.209C67.0543 73.6608 61.2755 79.7466 52.3647 82.7002C45.2096 80.8568 30.6232 71.7602 29.0327 49.5684V29.668L52.3901 20.5146L75.9155 29.6689Z" stroke="#2837FF" stroke-width="1.2"/>
<path d="M60.502 45.801H43.702C42.3765 45.801 41.302 47.2804 41.302 49.1053V60.6704C41.302 62.4954 42.3765 63.9748 43.702 63.9748H60.502C61.8275 63.9748 62.902 62.4954 62.902 60.6704V49.1053C62.902 47.2804 61.8275 45.801 60.502 45.801Z" stroke="#2837FF" stroke-width="1.8" stroke-linecap="round" stroke-linejoin="round"/>
<path d="M46.1021 45.801V41.001C46.1021 39.4097 46.7342 37.8836 47.8594 36.7583C48.9846 35.6331 50.5108 35.001 52.1021 35.001C53.6934 35.001 55.2195 35.6331 56.3447 36.7583C57.4699 37.8836 58.1021 39.4097 58.1021 41.001V45.801" stroke="#2837FF" stroke-width="1.8" stroke-linecap="round" stroke-linejoin="round"/>
<circle cx="52.4973" cy="54.9111" r="5.00449" stroke="#2837FF" stroke-width="1.2"/>
<circle cx="52.4974" cy="54.9112" r="2.17354" fill="#2837FF" stroke="#2837FF" stroke-width="1.2"/>
<path d="M7.40357 50.0197C7.40357 49.1573 6.9471 48.2163 6.45114 47.7204C5.84132 47.1106 5.01423 46.768 4.15181 46.768C3.28939 46.768 2.46228 47.1106 1.85246 47.7204C1.24263 48.3302 0.900053 49.1573 0.900053 50.0197C0.900053 50.8822 1.24263 51.7092 1.85246 52.3191C2.46228 52.9289 3.28939 53.2715 4.15181 53.2715C5.01423 53.2715 5.84132 52.9289 6.45114 52.3191C7.06097 51.7092 7.40357 50.8822 7.40357 50.0197ZM7.40357 50.0197H20.0527" stroke="#2837FF" stroke-width="1.8" stroke-linecap="round" stroke-linejoin="round"/>
<path d="M97.1963 50.02C97.1963 49.1576 97.6528 48.2166 98.1487 47.7206C98.7585 47.1108 99.5856 46.7682 100.448 46.7682C101.31 46.7682 102.138 47.1108 102.747 47.7206C103.357 48.3305 103.7 49.1576 103.7 50.02C103.7 50.8824 103.357 51.7095 102.747 52.3193C102.138 52.9291 101.31 53.2717 100.448 53.2717C99.5856 53.2717 98.7585 52.9291 98.1487 52.3193C97.5389 51.7095 97.1963 50.8824 97.1963 50.02ZM97.1963 50.02H84.5471" stroke="#2837FF" stroke-width="1.8" stroke-linecap="round" stroke-linejoin="round"/>
<path d="M94.0878 13.1179C93.478 12.5081 93.1354 11.52 93.1354 10.8186C93.1354 9.95616 93.478 9.12906 94.0878 8.51924C94.6977 7.90942 95.5248 7.56682 96.3872 7.56682C97.2496 7.56682 98.0767 7.90942 98.6865 8.51925C99.2963 9.12907 99.639 9.95616 99.639 10.8186C99.639 11.681 99.2963 12.5081 98.6865 13.1179C98.0767 13.7277 97.2496 14.0703 96.3872 14.0703C95.5248 14.0703 94.6977 13.7277 94.0878 13.1179ZM94.0878 13.1179L85.1435 22.0622" stroke="#2837FF" stroke-width="1.8" stroke-linecap="round" stroke-linejoin="round"/>
<path d="M94.082 88.4175C93.4722 89.0273 93.1296 90.0154 93.1296 90.7168C93.1296 91.5792 93.4722 92.4063 94.082 93.0162C94.6918 93.626 95.5189 93.9686 96.3813 93.9686C97.2438 93.9686 98.0708 93.626 98.6807 93.0162C99.2905 92.4063 99.6331 91.5792 99.6331 90.7168C99.6331 89.8544 99.2905 89.0273 98.6807 88.4175C98.0708 87.8077 97.2438 87.4651 96.3813 87.4651C95.5189 87.4651 94.6918 87.8077 94.082 88.4175ZM94.082 88.4175L85.1377 79.4732" stroke="#2837FF" stroke-width="1.8" stroke-linecap="round" stroke-linejoin="round"/>
<path d="M10.198 13.2261C9.58818 13.8359 8.60005 14.1785 7.89866 14.1785C7.03624 14.1785 6.20914 13.8359 5.59932 13.2261C4.9895 12.6163 4.6469 11.7892 4.6469 10.9268C4.6469 10.0644 4.9895 9.23726 5.59932 8.62744C6.20915 8.01762 7.03623 7.67501 7.89865 7.67501C8.76107 7.67501 9.58817 8.01762 10.198 8.62744C10.8078 9.23726 11.1504 10.0644 11.1504 10.9268C11.1504 11.7892 10.8078 12.6163 10.198 13.2261ZM10.198 13.2261L19.1423 22.1704" stroke="#2837FF" stroke-width="1.8" stroke-linecap="round" stroke-linejoin="round"/>
<path d="M10.1921 88.3095C9.58232 87.6997 8.59419 87.3571 7.8928 87.3571C7.03038 87.3571 6.20328 87.6997 5.59346 88.3095C4.98364 88.9194 4.64104 89.7465 4.64104 90.6089C4.64104 91.4713 4.98364 92.2984 5.59347 92.9082C6.20329 93.518 7.03038 93.8606 7.89279 93.8606C8.75521 93.8606 9.58231 93.518 10.1921 92.9082C10.802 92.2984 11.1446 91.4713 11.1446 90.6089C11.1446 89.7464 10.802 88.9193 10.1921 88.3095ZM10.1921 88.3095L19.1365 79.3652" stroke="#2837FF" stroke-width="1.8" stroke-linecap="round" stroke-linejoin="round"/>
</svg>
