<svg width="104" height="104" viewBox="0 0 104 104" fill="none" xmlns="http://www.w3.org/2000/svg">
<path d="M62.5327 63.6237V43.4204H83.5093V60.5617" stroke="#1727FF" stroke-width="1.8" stroke-linecap="round" stroke-linejoin="round"/>
<path d="M68.8594 43.4204V59.868" stroke="#1727FF" stroke-width="1.8" stroke-linecap="round" stroke-linejoin="round"/>
<path d="M76.2012 43.4204V59.0377" stroke="#1727FF" stroke-width="1.8" stroke-linecap="round" stroke-linejoin="round"/>
<path d="M7.1626 96.9186L11.5825 85.967C11.7245 85.6962 12.1232 85.5132 12.5725 85.5132H50.7537C51.2031 85.5132 55.5881 85.5283 55.5881 85.5283" stroke="#1727FF" stroke-width="1.8" stroke-linecap="round" stroke-linejoin="round"/>
<path fill-rule="evenodd" clip-rule="evenodd" d="M17.707 43.4204H38.6836V85.5283H17.707V43.4204Z" stroke="#1727FF" stroke-width="1.8" stroke-linecap="round" stroke-linejoin="round"/>
<path d="M65.5576 97.0122H5.74512" stroke="#1727FF" stroke-width="1.8" stroke-linecap="round" stroke-linejoin="round"/>
<path d="M24.0342 43.4204V85.5283" stroke="#1727FF" stroke-width="1.8" stroke-linecap="round" stroke-linejoin="round"/>
<path d="M31.376 43.4204V85.5283" stroke="#1727FF" stroke-width="1.8" stroke-linecap="round" stroke-linejoin="round"/>
<path d="M38.6836 43.4204V85.5283" stroke="#1727FF" stroke-width="1.8" stroke-linecap="round" stroke-linejoin="round"/>
<path d="M83.5093 43.4204L83.5093 59.8676" stroke="#1727FF" stroke-width="1.8" stroke-linecap="round" stroke-linejoin="round"/>
<path fill-rule="evenodd" clip-rule="evenodd" d="M92.9489 33.4255C93.2491 32.5604 92.8719 31.6122 92.0477 31.1593L52.5874 9.49666C51.9705 9.15476 51.2105 9.15476 50.5937 9.49666L11.1174 31.144C10.2931 31.5969 9.91601 32.5451 10.2162 33.4102L13.2627 42.1112C13.5338 42.8925 14.295 43.4198 15.1528 43.4204H88.0443C88.902 43.4198 89.6632 42.8925 89.9343 42.1112L92.9489 33.4255Z" stroke="#1727FF" stroke-width="1.8" stroke-linecap="round" stroke-linejoin="round"/>
<path d="M92.8045 31.9365H10.3789" stroke="#1727FF" stroke-width="1.8" stroke-linecap="round" stroke-linejoin="round"/>
<path fill-rule="evenodd" clip-rule="evenodd" d="M55.5869 78.9751C55.5869 67.9639 64.5133 59.0376 75.5244 59.0376C86.5356 59.0376 95.4619 67.9639 95.4619 78.9751C95.4619 89.9863 86.5356 98.9126 75.5244 98.9126C64.5133 98.9126 55.5869 89.9863 55.5869 78.9751Z" stroke="#1727FF" stroke-width="1.8" stroke-linecap="round" stroke-linejoin="round"/>
<path d="M80.3989 75.0002H82.7989C82.7989 71.5958 79.4929 70.043 76.7989 69.6854V67.2002H74.3989V69.6854C71.7049 70.043 68.3989 71.5958 68.3989 75.0002C68.3989 78.2474 71.5981 79.9358 74.3989 80.3162V86.2802C72.6613 85.979 70.7989 85.0514 70.7989 83.4002H68.3989C68.3989 86.507 71.3089 88.343 74.3989 88.7234V91.2002H76.7989V88.7162C79.4929 88.3586 82.7989 86.8046 82.7989 83.4002C82.7989 79.9958 79.4929 78.443 76.7989 78.0854V72.1202C78.3949 72.407 80.3989 73.2494 80.3989 75.0002ZM70.7989 75.0002C70.7989 73.2494 72.8029 72.407 74.3989 72.1202V77.879C72.7537 77.5754 70.7989 76.6766 70.7989 75.0002ZM80.3989 83.4002C80.3989 85.151 78.3949 85.9934 76.7989 86.2802V80.5202C78.3949 80.807 80.3989 81.6494 80.3989 83.4002Z" fill="#1727FF"/>
</svg>
