<svg width="105" height="105" viewBox="0 0 105 105" fill="none" xmlns="http://www.w3.org/2000/svg">
<path d="M85.9993 21.7092V17.5839C85.9993 12.282 81.7012 7.98389 76.3993 7.98389H10.4999C5.19797 7.98389 0.899902 12.282 0.899902 17.5839V90.788C0.899902 96.0899 5.19795 100.388 10.4999 100.388H79.8373M85.9993 19.3935V58.4187" stroke="#1727FF" stroke-width="1.8"/>
<path d="M85.9993 21.7092V17.5839C85.9993 12.282 81.7012 7.98389 76.3993 7.98389H10.4999C5.19797 7.98389 0.899902 12.282 0.899902 17.5839V90.788C0.899902 96.0899 5.19795 100.388 10.4999 100.388H79.8373M85.9993 19.3935V58.4187" stroke="#1727FF" stroke-width="1.8"/>
<path d="M81.2238 59.808V17.9763C81.2238 15.3253 79.0747 13.1763 76.4238 13.1763H10.4753C7.82433 13.1763 5.67529 15.3253 5.67529 17.9763V90.6413C5.67529 93.2923 7.82433 95.4413 10.4753 95.4413H74.2139" stroke="#1727FF" stroke-width="1.2"/>
<rect x="14.0902" y="62.5639" width="18.3363" height="1.2" rx="0.6" stroke="#1727FF" stroke-width="1.2"/>
<rect x="14.0893" y="69.7636" width="34.3828" height="1.2" rx="0.6" stroke="#1727FF" stroke-width="1.2"/>
<rect x="14.0893" y="76.9638" width="34.3828" height="1.2" rx="0.6" stroke="#1727FF" stroke-width="1.2"/>
<rect x="14.0902" y="84.164" width="18.3363" height="1.2" rx="0.6" stroke="#1727FF" stroke-width="1.2"/>
<path fill-rule="evenodd" clip-rule="evenodd" d="M13.4897 36.6477C13.4897 27.9065 20.5759 20.8203 29.3171 20.8203C38.0583 20.8203 45.1444 27.9065 45.1444 36.6477C45.1444 45.3888 38.0583 52.475 29.3171 52.475C20.5759 52.475 13.4897 45.3888 13.4897 36.6477Z" stroke="#1727FF" stroke-width="1.8" stroke-linecap="round" stroke-linejoin="round"/>
<path d="M32.9731 33.2722H34.8728C34.8728 30.5774 32.256 29.3483 30.1235 29.0653V27.0981H28.2239V29.0653C26.0914 29.3483 23.4746 30.5774 23.4746 33.2722C23.4746 35.8424 26.0069 37.1789 28.2239 37.48V42.2007C26.8485 41.9623 25.3743 41.2281 25.3743 39.9211H23.4746C23.4746 42.3803 25.778 43.8335 28.2239 44.1346V46.0951H30.1235V44.1289C32.256 43.8459 34.8728 42.6158 34.8728 39.9211C34.8728 37.2264 32.256 35.9973 30.1235 35.7142V30.9925C31.3868 31.2195 32.9731 31.8863 32.9731 33.2722ZM25.3743 33.2722C25.3743 31.8863 26.9606 31.2195 28.2239 30.9925V35.5508C26.9216 35.3105 25.3743 34.5991 25.3743 33.2722ZM32.9731 39.9211C32.9731 41.3069 31.3868 41.9737 30.1235 42.2007V37.6415C31.3868 37.8685 32.9731 38.5353 32.9731 39.9211Z" fill="#1727FF"/>
<path d="M103.2 64.8706V79.2065C103.053 82.3006 101.993 87.2589 99.2769 91.9692C96.5981 96.6149 92.329 100.987 85.7573 103.137C80.434 101.75 69.6952 95.1725 68.5044 79.2007V64.8696L85.7886 58.2964L103.2 64.8706Z" stroke="#1727FF" stroke-width="1.8"/>
<path d="M99.8672 67.5337V79.4771C99.7486 82.0539 98.8922 86.1689 96.7051 90.0776C94.5415 93.9441 91.0911 97.5825 85.7812 99.3638C81.4937 98.2272 72.7944 92.763 71.8389 79.4575V67.5337L85.8018 62.061L99.8672 67.5337Z" stroke="#1727FF" stroke-width="1.2"/>
<path d="M76.5049 80.2244L82.7378 86.4573L95.2035 73.1011" stroke="#1727FF" stroke-width="2.41165" stroke-linecap="round" stroke-linejoin="round"/>
</svg>
