<svg width="113" height="107" viewBox="0 0 113 107" fill="none" xmlns="http://www.w3.org/2000/svg">
<path d="M31.5708 77.744V77.744C36.2272 70.7568 44.068 66.5596 52.4646 66.5596H54.2338C69.1147 66.5596 81.1781 78.6229 81.1781 93.5038V93.5038C81.1781 94.3967 80.4543 95.1205 79.5614 95.1205H35.6708" stroke="#1727FF" stroke-width="1.8"/>
<circle cx="54.211" cy="45.624" r="13.4169" stroke="#1727FF" stroke-width="1.8"/>
<g clip-path="url(#clip0_9_2336)">
<path d="M67.9837 40.6423C67.9837 39.7773 67.9837 39.3448 68.1163 38.9598C68.5014 37.8398 69.5188 37.4073 70.5388 36.9523C71.6812 36.4398 72.2524 36.1848 72.8211 36.1398C73.4637 36.0898 74.1088 36.2248 74.6596 36.5273C75.3889 36.9273 75.8989 37.6923 76.4191 38.3123C78.8238 41.1773 80.0274 42.6098 80.466 44.1873C80.823 45.4623 80.823 46.7973 80.466 48.0698C79.8259 50.3748 77.7987 52.3048 76.2967 54.0948C75.5292 55.0073 75.1441 55.4648 74.6596 55.7323C74.0993 56.0369 73.4595 56.1718 72.8211 56.1198C72.2524 56.0748 71.6812 55.8198 70.5363 55.3073C69.5163 54.8523 68.5014 54.4198 68.1163 53.2998C67.9837 52.9148 67.9837 52.4823 67.9837 51.6198V40.6423ZM40.5503 40.6423C40.5503 39.5523 40.5197 38.5748 39.6221 37.8098C39.2957 37.5323 38.8622 37.3398 37.9978 36.9523C36.8528 36.4423 36.2816 36.1848 35.713 36.1398C34.0121 36.0048 33.0967 37.1448 32.1175 38.3148C29.7103 41.1773 28.5067 42.6098 28.0655 44.1898C27.7106 45.4606 27.7106 46.8015 28.0655 48.0723C28.7081 50.3748 30.7379 52.3073 32.2373 54.0948C33.1834 55.2198 34.0886 56.2473 35.713 56.1198C36.2816 56.0748 36.8528 55.8198 37.9978 55.3073C38.8648 54.9223 39.2957 54.7273 39.6221 54.4498C40.5197 53.6848 40.5503 52.7073 40.5503 51.6198V40.6423Z" stroke="#1727FF" stroke-width="1.8"/>
<path d="M71.9803 35.3935C71.9803 27.6804 63.4908 21.4277 54.5001 21.4277C45.5094 21.4277 37.02 27.6804 37.02 35.3935M70.7803 55.952C70.7803 62.8317 63.9583 62.2785 55.8182 62.2785" stroke="#1727FF" stroke-width="1.8" stroke-linecap="round" stroke-linejoin="round"/>
</g>
<g clip-path="url(#clip1_9_2336)">
<path fill-rule="evenodd" clip-rule="evenodd" d="M3.50098 88.7701C3.50098 79.6266 10.9132 72.2144 20.0567 72.2144C29.2002 72.2144 36.6125 79.6266 36.6125 88.7701C36.6125 97.9136 29.2002 105.326 20.0567 105.326C10.9132 105.326 3.50098 97.9136 3.50098 88.7701Z" stroke="#1727FF" stroke-width="1.8" stroke-linecap="round" stroke-linejoin="round"/>
<path d="M29.0226 94.0462C28.3123 93.3306 26.5922 92.2863 25.7576 91.8654C24.6708 91.318 24.5814 91.2733 23.7271 91.9079C23.1573 92.3315 22.7785 92.7098 22.1116 92.5676C21.4448 92.4254 19.9957 91.6235 18.7268 90.3586C17.458 89.0938 16.6095 87.6027 16.4669 86.938C16.3242 86.2734 16.7088 85.8991 17.1283 85.3279C17.7196 84.5229 17.6749 84.3887 17.1695 83.3019C16.7755 82.4566 15.7007 80.7525 14.9824 80.0459C14.214 79.2869 14.214 79.4211 13.7189 79.6268C13.3158 79.7964 12.9291 80.0025 12.5637 80.2427C11.8481 80.7181 11.4509 81.113 11.1732 81.7065C10.8954 82.3 10.7707 83.6914 12.205 86.2971C13.6393 88.9028 14.6456 90.2352 16.7285 92.3122C18.8114 94.3893 20.413 95.5061 22.7543 96.8192C25.6507 98.4414 26.7617 98.1252 27.357 97.8479C27.9523 97.5706 28.349 97.177 28.8253 96.4614C29.0661 96.0965 29.2727 95.7103 29.4426 95.3075C29.6487 94.8142 29.7829 94.8142 29.0226 94.0462Z" stroke="#1727FF" stroke-width="1.8" stroke-miterlimit="10"/>
</g>
<path d="M89.7002 24.7742H102.7M89.7002 19.5742H97.5002" stroke="#1727FF" stroke-width="1.8" stroke-linecap="round" stroke-linejoin="round"/>
<path d="M84.5 35.5517V15.6747C84.5 14.9851 84.7739 14.3238 85.2615 13.8362C85.7491 13.3486 86.4104 13.0747 87.1 13.0747H105.3C105.99 13.0747 106.651 13.3486 107.138 13.8362C107.626 14.3238 107.9 14.9851 107.9 15.6747V28.6747C107.9 29.3643 107.626 30.0256 107.138 30.5132C106.651 31.0008 105.99 31.2747 105.3 31.2747H90.9493C90.5596 31.2748 90.1749 31.3624 89.8236 31.5312C89.4724 31.6999 89.1636 31.9455 88.92 32.2497L85.8897 36.0379C85.7889 36.1643 85.6512 36.2562 85.4959 36.301C85.3405 36.3457 85.175 36.3411 85.0224 36.2877C84.8698 36.2343 84.7375 36.1348 84.644 36.0029C84.5504 35.8711 84.5001 35.7134 84.5 35.5517Z" stroke="#1727FF" stroke-width="1.8"/>
<path d="M8.8636 59.7617C9.21508 60.1132 9.78492 60.1132 10.1364 59.7617L15.864 54.0341C16.2154 53.6827 16.2154 53.1128 15.864 52.7613C15.5125 52.4099 14.9426 52.4099 14.5912 52.7613L9.5 57.8525L4.40883 52.7613C4.05736 52.4099 3.48751 52.4099 3.13604 52.7613C2.78457 53.1128 2.78457 53.6827 3.13604 54.0341L8.8636 59.7617ZM72.5227 8.96881C73.0087 9.07317 73.4872 8.7638 73.5916 8.27782C73.6959 7.79184 73.3866 7.31328 72.9006 7.20893L72.7116 8.08887L72.5227 8.96881ZM9.5 59.1253H10.4C10.4 30.7931 33.3678 7.82529 61.7 7.82529V6.92529V6.02529C32.3737 6.02529 8.6 29.799 8.6 59.1253H9.5ZM61.7 6.92529V7.82529C65.4138 7.82529 69.0345 8.21978 72.5227 8.96881L72.7116 8.08887L72.9006 7.20893C69.2889 6.43339 65.5416 6.02529 61.7 6.02529V6.92529Z" fill="#1727FF"/>
<path d="M103.774 48.4212C103.422 48.0697 102.853 48.0697 102.501 48.4212L96.7735 54.1488C96.422 54.5003 96.422 55.0701 96.7735 55.4216C97.125 55.7731 97.6948 55.7731 98.0463 55.4216L103.137 50.3304L108.229 55.4216C108.58 55.7731 109.15 55.7731 109.501 55.4216C109.853 55.0701 109.853 54.5003 109.501 54.1488L103.774 48.4212ZM88.4861 76.5282C88.0883 76.8264 88.0076 77.3905 88.3057 77.7882C88.6039 78.1859 89.168 78.2667 89.5657 77.9685L89.0259 77.2484L88.4861 76.5282ZM103.137 49.0576H102.237C102.237 60.2939 96.8369 70.2686 88.4861 76.5282L89.0259 77.2484L89.5657 77.9685C98.3505 71.3836 104.037 60.8846 104.037 49.0576H103.137Z" fill="#1727FF"/>
<path d="M10.8697 8.90908L11.2585 9.10726L15.0916 5.2741L14.312 10.1969L14.2436 10.6285L14.6317 10.826L19.0732 13.0896L14.1504 13.8692L13.7195 13.9369L13.6519 14.3677L12.8716 19.2926L10.608 14.8497L10.4105 14.4617L9.9796 14.5293L5.05678 15.3089L8.88925 11.4765L8.69106 11.0877L6.42749 6.6462L10.8697 8.90908Z" stroke="#1727FF" stroke-width="1.2"/>
<path d="M26.3653 4.13985L26.651 4.46966L29.2856 3.35594L28.0342 5.43183L27.8086 5.80604L28.094 6.13495L29.6816 7.96702L27.3207 7.41818L26.8963 7.31977L26.6703 7.69309L25.418 9.76935L25.2111 7.35362L25.174 6.91976L24.7493 6.82046L22.3883 6.27162L25.022 5.15828L24.9846 4.72352L24.7763 2.30726L26.3653 4.13985Z" stroke="#1727FF" stroke-width="1.2"/>
<path d="M6.42876 27.3381L6.71449 27.6679L9.34912 26.5542L8.0977 28.6301L7.87208 29.0043L8.15744 29.3332L9.74509 31.1653L7.38414 30.6164L6.9598 30.518L6.7338 30.8913L5.48148 32.9676L5.27455 30.5519L5.23746 30.118L4.81274 30.0187L2.45178 29.4699L5.08551 28.3565L5.04804 27.9218L4.83982 25.5055L6.42876 27.3381Z" stroke="#1727FF" stroke-width="1.2"/>
<defs>
<clipPath id="clip0_9_2336">
<rect width="56.4" height="44.4" fill="white" transform="translate(26.3003 19.5298)"/>
</clipPath>
<clipPath id="clip1_9_2336">
<rect width="36" height="36" fill="white" transform="translate(2.30078 70.5254)"/>
</clipPath>
</defs>
</svg>
