<svg width="105" height="104" viewBox="0 0 105 104" fill="none" xmlns="http://www.w3.org/2000/svg">
<circle cx="51.9696" cy="51.4506" r="23.6351" stroke="#1727FF" stroke-width="1.68457"/>
<circle cx="51.9718" cy="51.4498" r="28.6549" stroke="#1727FF" stroke-width="1.68457"/>
<path d="M6.47422 91.9944H24.0765L33.4385 80.5073M6.47422 91.9944C7.08405 91.3845 7.42665 90.5574 7.42665 89.695C7.42665 88.8326 7.08405 88.0055 6.47422 87.3957C5.8644 86.7859 5.0373 86.4433 4.17488 86.4433C3.31246 86.4433 2.48536 86.7859 1.87554 87.3957C1.26571 88.0055 0.923133 88.8326 0.923133 89.695C0.923133 90.5574 1.26571 91.3845 1.87554 91.9944C2.48536 92.6042 3.31246 92.9468 4.17488 92.9468C5.0373 92.9468 5.8644 92.6042 6.47422 91.9944Z" stroke="#1727FF" stroke-width="1.8" stroke-linecap="round" stroke-linejoin="round"/>
<path d="M6.47422 9.45973L24.0765 9.45973L33.4385 20.9468M6.47422 9.45973C7.08405 10.0696 7.42665 10.8967 7.42665 11.7591C7.42665 12.6215 7.08405 13.4486 6.47422 14.0584C5.8644 14.6682 5.0373 15.0108 4.17488 15.0108C3.31246 15.0108 2.48536 14.6682 1.87554 14.0584C1.26571 13.4486 0.923133 12.6215 0.923133 11.7591C0.923133 10.8967 1.26571 10.0696 1.87554 9.45973C2.48536 8.84991 3.31246 8.50731 4.17488 8.50731C5.0373 8.50731 5.8644 8.84991 6.47422 9.45973Z" stroke="#1727FF" stroke-width="1.8" stroke-linecap="round" stroke-linejoin="round"/>
<path d="M7.427 50.7273C7.427 49.8648 6.97054 48.9239 6.47458 48.4279C5.86476 47.8181 5.03766 47.4755 4.17524 47.4755C3.31282 47.4755 2.48572 47.8181 1.87589 48.4279C1.26607 49.0377 0.92349 49.8648 0.92349 50.7273C0.92349 51.5897 1.26607 52.4168 1.87589 53.0266C2.48572 53.6364 3.31282 53.979 4.17524 53.979C5.03766 53.979 5.86476 53.6364 6.47458 53.0266C7.0844 52.4168 7.427 51.5897 7.427 50.7273ZM7.427 50.7273H20.0762" stroke="#1727FF" stroke-width="1.8" stroke-linecap="round" stroke-linejoin="round"/>
<path d="M98.1713 91.9944H80.569L71.207 80.5073M98.1713 91.9944C97.5615 91.3845 97.2189 90.5574 97.2189 89.695C97.2189 88.8326 97.5615 88.0055 98.1713 87.3957C98.7811 86.7859 99.6082 86.4433 100.471 86.4433C101.333 86.4433 102.16 86.7859 102.77 87.3957C103.38 88.0055 103.722 88.8326 103.722 89.695C103.722 90.5574 103.38 91.3845 102.77 91.9944C102.16 92.6042 101.333 92.9468 100.471 92.9468C99.6082 92.9468 98.7811 92.6042 98.1713 91.9944Z" stroke="#1727FF" stroke-width="1.8" stroke-linecap="round" stroke-linejoin="round"/>
<path d="M98.1713 9.45973L80.569 9.45973L71.207 20.9468M98.1713 9.45973C97.5615 10.0696 97.2189 10.8967 97.2189 11.7591C97.2189 12.6215 97.5615 13.4486 98.1713 14.0584C98.7811 14.6682 99.6082 15.0108 100.471 15.0108C101.333 15.0108 102.16 14.6682 102.77 14.0584C103.38 13.4486 103.722 12.6215 103.722 11.7591C103.722 10.8967 103.38 10.0696 102.77 9.45973C102.16 8.84991 101.333 8.50731 100.471 8.50731C99.6082 8.50731 98.7811 8.84991 98.1713 9.45973Z" stroke="#1727FF" stroke-width="1.8" stroke-linecap="round" stroke-linejoin="round"/>
<path d="M97.2185 50.7273C97.2185 49.8648 97.675 48.9239 98.1709 48.4279C98.7807 47.8181 99.6078 47.4755 100.47 47.4755C101.333 47.4755 102.16 47.8181 102.77 48.4279C103.379 49.0377 103.722 49.8648 103.722 50.7273C103.722 51.5897 103.379 52.4168 102.77 53.0266C102.16 53.6364 101.333 53.979 100.47 53.979C99.6078 53.979 98.7807 53.6364 98.1709 53.0266C97.5611 52.4168 97.2185 51.5897 97.2185 50.7273ZM97.2185 50.7273H84.5693" stroke="#1727FF" stroke-width="1.8" stroke-linecap="round" stroke-linejoin="round"/>
<path d="M52.1238 63.6001V57.6001M48.5238 46.8001V39.6001M55.7238 46.8001V39.6001M59.3238 46.8001V52.8001C59.3238 54.0731 58.8181 55.294 57.9179 56.1942C57.0178 57.0944 55.7969 57.6001 54.5238 57.6001H49.7238C48.4508 57.6001 47.2299 57.0944 46.3297 56.1942C45.4295 55.294 44.9238 54.0731 44.9238 52.8001V46.8001H59.3238Z" stroke="#1727FF" stroke-width="2.4" stroke-linecap="round" stroke-linejoin="round"/>
</svg>
