<svg width="104" height="104" viewBox="0 0 104 104" fill="none" xmlns="http://www.w3.org/2000/svg">
<path fill-rule="evenodd" clip-rule="evenodd" d="M34.8779 54.3772C34.8779 43.2365 43.9093 34.2051 55.0501 34.2051C66.1908 34.2051 75.2222 43.2365 75.2222 54.3772C75.2222 65.518 66.1908 74.5493 55.0501 74.5493C43.9093 74.5493 34.8779 65.518 34.8779 54.3772Z" stroke="#1727FF" stroke-width="1.8" stroke-linecap="round" stroke-linejoin="round"/>
<path d="M59.7099 50.0734H62.1311C62.1311 46.639 58.7959 45.0725 56.0782 44.7117V42.2046H53.657V44.7117C50.9392 45.0725 47.604 46.639 47.604 50.0734C47.604 53.3493 50.8314 55.0526 53.657 55.4364V61.453C51.904 61.1492 50.0252 60.2134 50.0252 58.5476H47.604C47.604 61.6818 50.5397 63.534 53.657 63.9178V66.4164H56.0782V63.9105C58.7959 63.5498 62.1311 61.982 62.1311 58.5476C62.1311 55.1131 58.7959 53.5466 56.0782 53.1859V47.168C57.6882 47.4574 59.7099 48.3072 59.7099 50.0734ZM50.0252 50.0734C50.0252 48.3072 52.0469 47.4574 53.657 47.168V52.9777C51.9972 52.6714 50.0252 51.7646 50.0252 50.0734ZM59.7099 58.5476C59.7099 60.3138 57.6882 61.1637 56.0782 61.453V55.6422C57.6882 55.9315 59.7099 56.7813 59.7099 58.5476Z" fill="#1727FF"/>
<path d="M2.07422 11.5157L11.8717 2.23389L21.6691 11.5157H15.4813V20.7975H8.26209V11.5157H2.07422Z" stroke="#1727FF" stroke-width="1.8" stroke-linecap="round" stroke-linejoin="round"/>
<path d="M51.208 15.7397C52.3214 15.6823 53.3317 15.6921 54.04 15.8032C54.3072 15.8451 54.4891 15.8948 54.6025 15.939V24.0962C40.1266 24.5702 27.3689 33.9075 25.1816 48.522C21.7198 71.6599 43.7459 90.0246 65.916 82.2075C66.3797 82.044 67.1009 81.6819 67.8711 81.2739C68.6616 80.8552 69.5707 80.3506 70.4336 79.8726C71.3021 79.3914 72.121 78.9382 72.75 78.6108C72.9832 78.4895 73.1826 78.3915 73.3428 78.3159C73.5084 78.4948 73.7228 78.74 73.9707 79.0415C74.5235 79.7141 75.2176 80.6191 75.8955 81.5552C76.5745 82.4928 77.2262 83.447 77.6973 84.2192C77.934 84.6073 78.1143 84.9323 78.2295 85.1772C78.2687 85.2606 78.2957 85.3266 78.3145 85.3765C78.2893 85.4231 78.2426 85.4996 78.1533 85.605C77.9813 85.808 77.7172 86.049 77.3613 86.3208C76.6513 86.8631 75.6788 87.4491 74.623 88.0142C72.5154 89.1421 70.204 90.122 69.3193 90.4458C37.6203 102.002 7.03541 71.7558 18.2314 39.895C22.4747 27.814 33.3983 19.3332 45.9648 16.3706C46.6072 16.2192 48.988 15.8543 51.208 15.7397Z" stroke="#1727FF" stroke-width="1.8"/>
<path d="M69.2622 5.83838C69.6587 5.82471 70.0013 5.81567 70.3247 5.84229L70.3618 5.84521H70.3647C84.6142 7.03444 97.4495 17.9348 101.279 31.6157V31.6167C101.528 32.5103 102.146 34.8776 102.441 37.105C102.589 38.2263 102.647 39.2538 102.559 40.022C102.515 40.4067 102.44 40.6743 102.357 40.8413C102.338 40.8788 102.32 40.9074 102.304 40.9302C101.408 40.8851 99.8764 40.9097 98.0864 40.9575C96.0408 41.0122 93.5373 41.1022 91.1323 41.1704C88.7087 41.2391 86.3492 41.2871 84.5093 41.2612C83.5877 41.2483 82.8133 41.2165 82.2339 41.1626C81.9433 41.1355 81.7177 41.1039 81.5562 41.0708C81.5194 41.0633 81.4897 41.0544 81.4653 41.0483C81.3919 40.9483 81.2936 40.8068 81.1733 40.6294C80.9227 40.2594 80.6017 39.7694 80.2612 39.2505C79.6082 38.2552 78.8313 37.0722 78.4507 36.6343C75.4663 33.1958 71.7718 30.4937 67.7026 28.5269V6.84424C67.7133 6.4789 67.8776 6.26237 68.3696 5.85596C68.6821 5.85968 68.9877 5.84785 69.2622 5.83838Z" stroke="#1727FF" stroke-width="1.8"/>
<path d="M100.505 52.7534C100.652 52.7534 100.706 52.7914 100.739 52.8218C100.791 52.8694 100.874 52.9829 100.946 53.2271C101.094 53.7335 101.111 54.512 101.012 55.4536C100.818 57.3067 100.237 59.3552 100.034 60.1099C99.4013 62.4531 98.1216 65.3879 96.4985 68.1235C94.8701 70.8683 92.9451 73.3279 91.0591 74.7837C90.5967 75.1401 90.3025 75.3808 90.0405 75.5601C89.7832 75.7361 89.6865 75.7573 89.6626 75.7603C89.6586 75.7607 89.651 75.7623 89.6284 75.7563C89.6005 75.749 89.5432 75.729 89.4487 75.6733C89.2465 75.5541 88.9657 75.3304 88.5356 74.9292C88.5353 74.9289 88.5351 74.9276 88.5337 74.9263C88.5318 74.9245 88.5293 74.9219 88.5259 74.9185C88.5188 74.9114 88.5092 74.9015 88.4976 74.8892C88.474 74.8643 88.4443 74.8315 88.4077 74.7905C88.3344 74.7084 88.2412 74.6013 88.1304 74.4702C87.9088 74.2083 87.6253 73.8632 87.3003 73.4614C86.6508 72.6586 85.8445 71.6394 85.0562 70.6216C84.2673 69.6031 83.4999 68.5915 82.9263 67.8042C82.6387 67.4095 82.4053 67.0785 82.2437 66.8345C82.2097 66.7832 82.1822 66.7359 82.1567 66.6958C82.181 66.6237 82.2102 66.5347 82.2495 66.4263C82.38 66.0661 82.5782 65.5403 82.7935 64.8892C83.227 63.5777 83.7398 61.7304 84.02 59.397C84.2887 57.1577 84.2521 54.9156 84.2388 52.7534H100.505Z" stroke="#1727FF" stroke-width="1.8"/>
</svg>
