<svg width="108" height="105" viewBox="0 0 108 105" fill="none" xmlns="http://www.w3.org/2000/svg">
<path d="M83.3916 26.0259V50.0278C83.1487 55.2008 81.3816 63.4542 76.8604 71.2954C72.3753 79.0737 65.1995 86.413 54.1318 89.9839C45.228 87.7409 27.1369 76.7614 25.1533 50.02V26.0249L54.167 14.9907L83.3916 26.0259Z" stroke="#1727FF" stroke-width="1.8"/>
<path d="M79.313 29.0596V50.3145C79.1068 54.8967 77.591 62.202 73.7085 69.1406C69.8532 76.0304 63.6802 82.5322 54.1597 85.6846C46.519 83.7222 30.933 74.0099 29.2349 50.3105V29.0586L54.1841 19.2812L79.313 29.0596Z" stroke="#1727FF" stroke-width="1.2"/>
<path d="M63.9535 45.9512H43.8474C42.2611 45.9512 40.9751 47.7217 40.9751 49.9057V63.7467C40.9751 65.9308 42.2611 67.7013 43.8474 67.7013H63.9535C65.5398 67.7013 66.8258 65.9308 66.8258 63.7467V49.9057C66.8258 47.7217 65.5398 45.9512 63.9535 45.9512Z" stroke="#1727FF" stroke-width="1.2" stroke-linecap="round" stroke-linejoin="round"/>
<path d="M46.7197 45.9507V40.2061C46.7197 38.3017 47.4763 36.4752 48.8229 35.1286C50.1696 33.7819 51.996 33.0254 53.9005 33.0254C55.8049 33.0254 57.6314 33.7819 58.978 35.1286C60.3247 36.4752 61.0812 38.3017 61.0812 40.2061V45.9507" stroke="#1727FF" stroke-width="1.2" stroke-linecap="round" stroke-linejoin="round"/>
<circle cx="54.2969" cy="55.7866" r="5.00449" stroke="#1727FF" stroke-width="1.2"/>
<circle cx="54.2975" cy="55.7867" r="2.17354" fill="#1727FF" stroke="#1727FF" stroke-width="1.2"/>
<path d="M8.00464 61.5798C8.00464 60.7174 7.54818 59.7764 7.05222 59.2804C6.44239 58.6706 5.6153 58.328 4.75288 58.328C3.89046 58.328 3.06335 58.6706 2.45353 59.2804C1.84371 59.8903 1.50113 60.7174 1.50113 61.5798C1.50113 62.4422 1.84371 63.2693 2.45353 63.8791C3.06335 64.489 3.89046 64.8315 4.75288 64.8315C5.6153 64.8315 6.44239 64.489 7.05222 63.8791C7.66204 63.2693 8.00464 62.4422 8.00464 61.5798ZM8.00464 61.5798H20.6538" stroke="#1727FF" stroke-width="1.8" stroke-linecap="round" stroke-linejoin="round"/>
<path d="M8.00415 47.8762C8.00415 47.0138 7.54769 46.0728 7.05173 45.5768C6.44191 44.967 5.61481 44.6244 4.75239 44.6244C3.88997 44.6244 3.06287 44.967 2.45304 45.5768C1.84322 46.1867 1.50064 47.0138 1.50064 47.8762C1.50064 48.7386 1.84322 49.5657 2.45304 50.1755C3.06287 50.7853 3.88997 51.1279 4.75239 51.1279C5.61481 51.1279 6.44191 50.7853 7.05173 50.1755C7.66155 49.5657 8.00415 48.7386 8.00415 47.8762ZM8.00415 47.8762H20.6533" stroke="#1727FF" stroke-width="1.8" stroke-linecap="round" stroke-linejoin="round"/>
<path d="M8.00415 34.1731C8.00415 33.3106 7.54769 32.3697 7.05173 31.8737C6.44191 31.2639 5.61481 30.9213 4.75239 30.9213C3.88997 30.9213 3.06287 31.2639 2.45304 31.8737C1.84322 32.4835 1.50064 33.3106 1.50064 34.1731C1.50064 35.0355 1.84322 35.8626 2.45304 36.4724C3.06287 37.0822 3.88997 37.4248 4.75239 37.4248C5.61481 37.4248 6.44191 37.0822 7.05173 36.4724C7.66155 35.8626 8.00415 35.0355 8.00415 34.1731ZM8.00415 34.1731H20.6533" stroke="#1727FF" stroke-width="1.8" stroke-linecap="round" stroke-linejoin="round"/>
<path d="M8.00328 75.2834C8.00328 74.421 7.54682 73.48 7.05086 72.9841C6.44104 72.3742 5.61394 72.0316 4.75152 72.0316C3.8891 72.0316 3.06199 72.3742 2.45217 72.9841C1.84235 73.5939 1.49977 74.421 1.49977 75.2834C1.49977 76.1458 1.84235 76.9729 2.45217 77.5827C3.06199 78.1926 3.8891 78.5352 4.75152 78.5352C5.61394 78.5352 6.44104 78.1926 7.05086 77.5827C7.66068 76.9729 8.00328 76.1458 8.00328 75.2834ZM8.00328 75.2834H25.7012" stroke="#1727FF" stroke-width="1.8" stroke-linecap="round" stroke-linejoin="round"/>
<path d="M100.219 61.5793C100.219 60.7169 100.676 59.7759 101.172 59.28C101.782 58.6701 102.609 58.3275 103.471 58.3275C104.334 58.3275 105.161 58.6701 105.771 59.28C106.38 59.8898 106.723 60.7169 106.723 61.5793C106.723 62.4417 106.38 63.2688 105.771 63.8786C105.161 64.4885 104.334 64.8311 103.471 64.8311C102.609 64.8311 101.782 64.4885 101.172 63.8786C100.562 63.2688 100.219 62.4417 100.219 61.5793ZM100.219 61.5793H87.5703" stroke="#1727FF" stroke-width="1.8" stroke-linecap="round" stroke-linejoin="round"/>
<path d="M100.219 47.8767C100.219 47.0142 100.676 46.0733 101.172 45.5773C101.782 44.9675 102.609 44.6249 103.471 44.6249C104.334 44.6249 105.161 44.9675 105.771 45.5773C106.38 46.1871 106.723 47.0142 106.723 47.8767C106.723 48.7391 106.38 49.5662 105.771 50.176C105.161 50.7858 104.334 51.1284 103.471 51.1284C102.609 51.1284 101.782 50.7858 101.172 50.176C100.562 49.5662 100.219 48.7391 100.219 47.8767ZM100.219 47.8767H87.5703" stroke="#1727FF" stroke-width="1.8" stroke-linecap="round" stroke-linejoin="round"/>
<path d="M100.219 34.1726C100.219 33.3101 100.676 32.3692 101.172 31.8732C101.782 31.2634 102.609 30.9208 103.471 30.9208C104.334 30.9208 105.161 31.2634 105.771 31.8732C106.38 32.483 106.723 33.3101 106.723 34.1726C106.723 35.035 106.38 35.8621 105.771 36.4719C105.161 37.0817 104.334 37.4243 103.471 37.4243C102.609 37.4243 101.782 37.0817 101.172 36.4719C100.562 35.8621 100.219 35.035 100.219 34.1726ZM100.219 34.1726H87.5703" stroke="#1727FF" stroke-width="1.8" stroke-linecap="round" stroke-linejoin="round"/>
<path d="M100.22 75.2839C100.22 74.4215 100.677 73.4805 101.173 72.9845C101.783 72.3747 102.61 72.0321 103.472 72.0321C104.335 72.0321 105.162 72.3747 105.771 72.9845C106.381 73.5944 106.724 74.4215 106.724 75.2839C106.724 76.1463 106.381 76.9734 105.771 77.5832C105.162 78.1931 104.335 78.5356 103.472 78.5356C102.61 78.5356 101.783 78.1931 101.173 77.5832C100.563 76.9734 100.22 76.1463 100.22 75.2839ZM100.22 75.2839H82.5225" stroke="#1727FF" stroke-width="1.8" stroke-linecap="round" stroke-linejoin="round"/>
</svg>
