<svg width="107" height="107" viewBox="0 0 107 107" fill="none" xmlns="http://www.w3.org/2000/svg">
<mask id="path-1-inside-1_265_25043" fill="white">
<path d="M79.4385 39.6069C85.4871 37.8911 91.8156 41.2369 93.8037 47.2017L105.425 82.0688C107.716 88.9436 103.884 96.3537 96.9502 98.4585C89.984 100.573 82.6515 96.4957 80.7725 89.4624L78.4004 80.5835H76.8066C74.5121 82.8862 71.1825 84.3364 67.4766 84.3364C63.7706 84.3363 60.441 82.8864 58.1465 80.5835H48.0068C45.7123 82.8863 42.3827 84.3364 38.6768 84.3364C34.9707 84.3364 31.6412 82.8864 29.3467 80.5835H27.7178L25.3457 89.4624C23.4667 96.4958 16.1342 100.573 9.16797 98.4585C2.23411 96.3536 -1.59778 88.9434 0.693359 82.0688L12.3154 47.2017C14.3035 41.2369 20.632 37.891 26.6807 39.6069C32.4549 41.2451 36.0012 46.9293 35.0898 52.731H71.0293C70.118 46.9292 73.6641 41.245 79.4385 39.6069Z"/>
</mask>
<path d="M79.4385 39.6069L78.9473 37.8753L78.9472 37.8753L79.4385 39.6069ZM93.8037 47.2017L95.5114 46.6325L95.5114 46.6325L93.8037 47.2017ZM105.425 82.0688L107.132 81.4997L105.425 82.0688ZM96.9502 98.4585L97.473 100.181L97.473 100.181L96.9502 98.4585ZM80.7725 89.4624L79.0334 89.927L80.7725 89.4624ZM78.4004 80.5835L80.1394 80.1189C79.929 79.3313 79.2156 78.7835 78.4004 78.7835V80.5835ZM76.8066 80.5835V78.7835C76.3281 78.7835 75.8693 78.974 75.5316 79.313L76.8066 80.5835ZM67.4766 84.3364L67.4765 86.1364H67.4766V84.3364ZM58.1465 80.5835L59.4216 79.313C59.0839 78.974 58.625 78.7835 58.1465 78.7835V80.5835ZM48.0068 80.5835V78.7835C47.5283 78.7835 47.0695 78.974 46.7318 79.313L48.0068 80.5835ZM38.6768 84.3364L38.6767 86.1364H38.6768V84.3364ZM29.3467 80.5835L30.6218 79.313C30.284 78.974 29.8252 78.7835 29.3467 78.7835V80.5835ZM27.7178 80.5835V78.7835C26.9026 78.7835 26.1892 79.3313 25.9788 80.1189L27.7178 80.5835ZM25.3457 89.4624L27.0847 89.927L25.3457 89.4624ZM9.16797 98.4585L8.6451 100.181L8.64514 100.181L9.16797 98.4585ZM0.693359 82.0688L-1.01428 81.4997L-1.0143 81.4997L0.693359 82.0688ZM12.3154 47.2017L14.0231 47.7709L14.0231 47.7708L12.3154 47.2017ZM26.6807 39.6069L27.1719 37.8753L27.1719 37.8753L26.6807 39.6069ZM35.0898 52.731L33.3116 52.4516C33.23 52.9714 33.3799 53.5009 33.7219 53.9008C34.0638 54.3007 34.5637 54.531 35.0898 54.531V52.731ZM71.0293 52.731V54.531C71.5555 54.531 72.0553 54.3007 72.3973 53.9008C72.7393 53.5009 72.8891 52.9714 72.8075 52.4516L71.0293 52.731ZM79.4385 39.6069L79.9297 41.3386C85.0525 39.8854 90.4123 42.7191 92.0961 47.7708L93.8037 47.2017L95.5114 46.6325C93.2189 39.7548 85.9218 35.8968 78.9473 37.8753L79.4385 39.6069ZM93.8037 47.2017L92.0961 47.7708L103.717 82.638L105.425 82.0688L107.132 81.4997L95.5114 46.6325L93.8037 47.2017ZM105.425 82.0688L103.717 82.638C105.688 88.5515 102.392 94.9255 96.4274 96.7361L96.9502 98.4585L97.473 100.181C105.377 97.7818 109.744 89.3357 107.132 81.4997L105.425 82.0688ZM96.9502 98.4585L96.4274 96.7361C90.4351 98.5549 84.1277 95.0477 82.5115 88.9978L80.7725 89.4624L79.0334 89.927C81.1752 97.9438 89.533 102.591 97.473 100.181L96.9502 98.4585ZM80.7725 89.4624L82.5115 88.9978L80.1394 80.1189L78.4004 80.5835L76.6614 81.0481L79.0334 89.927L80.7725 89.4624ZM78.4004 80.5835V78.7835H76.8066V80.5835V82.3835H78.4004V80.5835ZM76.8066 80.5835L75.5316 79.313C73.5814 81.2701 70.7135 82.5364 67.4766 82.5364V84.3364V86.1364C71.6515 86.1364 75.4427 84.5024 78.0817 81.854L76.8066 80.5835ZM67.4766 84.3364L67.4766 82.5364C64.2395 82.5363 61.3716 81.2702 59.4216 79.313L58.1465 80.5835L56.8714 81.854C59.5103 84.5026 63.3017 86.1363 67.4765 86.1364L67.4766 84.3364ZM58.1465 80.5835V78.7835H48.0068V80.5835V82.3835H58.1465V80.5835ZM48.0068 80.5835L46.7318 79.313C44.7816 81.2702 41.9137 82.5364 38.6768 82.5364V84.3364V86.1364C42.8517 86.1364 46.6429 84.5025 49.2819 81.854L48.0068 80.5835ZM38.6768 84.3364L38.6768 82.5364C35.4397 82.5364 32.5718 81.2702 30.6218 79.313L29.3467 80.5835L28.0716 81.854C30.7106 84.5026 34.5018 86.1364 38.6767 86.1364L38.6768 84.3364ZM29.3467 80.5835V78.7835H27.7178V80.5835V82.3835H29.3467V80.5835ZM27.7178 80.5835L25.9788 80.1189L23.6067 88.9978L25.3457 89.4624L27.0847 89.927L29.4568 81.0481L27.7178 80.5835ZM25.3457 89.4624L23.6067 88.9978C21.9904 95.0478 15.6832 98.5551 9.6908 96.7361L9.16797 98.4585L8.64514 100.181C16.5853 102.591 24.9429 97.9439 27.0847 89.927L25.3457 89.4624ZM9.16797 98.4585L9.69084 96.7361C3.72628 94.9254 0.430248 88.5513 2.40102 82.638L0.693359 82.0688L-1.0143 81.4997C-3.62581 89.3356 0.741931 97.7817 8.6451 100.181L9.16797 98.4585ZM0.693359 82.0688L2.40099 82.638L14.0231 47.7709L12.3154 47.2017L10.6078 46.6325L-1.01428 81.4997L0.693359 82.0688ZM12.3154 47.2017L14.0231 47.7708C15.7069 42.7191 21.0667 39.8854 26.1894 41.3386L26.6807 39.6069L27.1719 37.8753C20.1973 35.8967 12.9002 39.7547 10.6078 46.6325L12.3154 47.2017ZM26.6807 39.6069L26.1894 41.3386C31.0784 42.7256 34.0832 47.5396 33.3116 52.4516L35.0898 52.731L36.868 53.0103C37.9191 46.319 33.8313 39.7645 27.1719 37.8753L26.6807 39.6069ZM35.0898 52.731V54.531H71.0293V52.731V50.931H35.0898V52.731ZM71.0293 52.731L72.8075 52.4516C72.0359 47.5395 75.0406 42.7255 79.9297 41.3386L79.4385 39.6069L78.9472 37.8753C72.2877 39.7644 68.2 46.319 69.2511 53.0103L71.0293 52.731Z" fill="#1727FF" mask="url(#path-1-inside-1_265_25043)"/>
<path d="M32.7559 45.1089H73.2923" stroke="#1727FF" stroke-width="1.8" stroke-linecap="round" stroke-linejoin="round"/>
<mask id="path-4-inside-2_265_25043" fill="white">
<path d="M23.6172 49.7036C25.7735 49.7038 27.5214 51.4516 27.5215 53.6079V55.4653H29.3779C31.5344 55.4654 33.2822 57.2132 33.2822 59.3696C33.2822 61.5261 31.5344 63.2739 29.3779 63.2739H27.5215V65.1313C27.5212 67.2875 25.7734 69.0355 23.6172 69.0356C21.4609 69.0356 19.7122 67.2876 19.7119 65.1313V63.2739H17.8555C15.699 63.2739 13.9502 61.5261 13.9502 59.3696C13.9502 57.2131 15.699 55.4653 17.8555 55.4653H19.7119V53.6079C19.712 51.4515 21.4608 49.7036 23.6172 49.7036Z"/>
</mask>
<path d="M23.6172 49.7036L23.6173 47.9036H23.6172V49.7036ZM27.5215 53.6079H29.3215V53.6078L27.5215 53.6079ZM27.5215 55.4653H25.7215C25.7215 56.4594 26.5274 57.2653 27.5215 57.2653V55.4653ZM29.3779 55.4653L29.378 53.6653H29.3779V55.4653ZM33.2822 59.3696L35.0822 59.3696V59.3696H33.2822ZM29.3779 63.2739V65.0739H29.378L29.3779 63.2739ZM27.5215 63.2739V61.4739C26.5274 61.4739 25.7215 62.2798 25.7215 63.2739H27.5215ZM27.5215 65.1313L29.3215 65.1316V65.1313H27.5215ZM23.6172 69.0356V70.8356H23.6173L23.6172 69.0356ZM19.7119 65.1313H17.9119L17.9119 65.1316L19.7119 65.1313ZM19.7119 63.2739H21.5119C21.5119 62.2798 20.706 61.4739 19.7119 61.4739V63.2739ZM17.8555 63.2739V65.0739V63.2739ZM13.9502 59.3696H12.1502V59.3696L13.9502 59.3696ZM17.8555 55.4653V57.2653V55.4653ZM19.7119 55.4653V57.2653C20.706 57.2653 21.5119 56.4594 21.5119 55.4653H19.7119ZM19.7119 53.6079L17.9119 53.6078V53.6079H19.7119ZM23.6172 49.7036L23.617 51.5036C24.7794 51.5037 25.7214 52.4458 25.7215 53.608L27.5215 53.6079L29.3215 53.6078C29.3214 50.4574 26.7675 47.9039 23.6173 47.9036L23.6172 49.7036ZM27.5215 53.6079H25.7215V55.4653H27.5215H29.3215V53.6079H27.5215ZM27.5215 55.4653V57.2653H29.3779V55.4653V53.6653H27.5215V55.4653ZM29.3779 55.4653L29.3779 57.2653C30.5403 57.2653 31.4822 58.2073 31.4822 59.3696H33.2822H35.0822C35.0822 56.219 32.5285 53.6654 29.378 53.6653L29.3779 55.4653ZM33.2822 59.3696L31.4822 59.3696C31.4822 60.5319 30.5403 61.4739 29.3779 61.4739L29.3779 63.2739L29.378 65.0739C32.5285 65.0739 35.0822 62.5202 35.0822 59.3696L33.2822 59.3696ZM29.3779 63.2739V61.4739H27.5215V63.2739V65.0739H29.3779V63.2739ZM27.5215 63.2739H25.7215V65.1313H27.5215H29.3215V63.2739H27.5215ZM27.5215 65.1313L25.7215 65.1311C25.7214 66.2934 24.7792 67.2355 23.617 67.2356L23.6172 69.0356L23.6173 70.8356C26.7676 70.8354 29.3211 68.2816 29.3215 65.1316L27.5215 65.1313ZM23.6172 69.0356V67.2356C22.4546 67.2356 21.512 66.2931 21.5119 65.1311L19.7119 65.1313L17.9119 65.1316C17.9123 68.2822 20.4671 70.8356 23.6172 70.8356V69.0356ZM19.7119 65.1313H21.5119V63.2739H19.7119H17.9119V65.1313H19.7119ZM19.7119 63.2739V61.4739H17.8555V63.2739V65.0739H19.7119V63.2739ZM17.8555 63.2739V61.4739C16.6925 61.4739 15.7502 60.5314 15.7502 59.3696L13.9502 59.3696L12.1502 59.3696C12.1502 62.5208 14.7055 65.0739 17.8555 65.0739V63.2739ZM13.9502 59.3696H15.7502C15.7502 58.2078 16.6925 57.2653 17.8555 57.2653V55.4653V53.6653C14.7055 53.6653 12.1502 56.2184 12.1502 59.3696H13.9502ZM17.8555 55.4653V57.2653H19.7119V55.4653V53.6653H17.8555V55.4653ZM19.7119 55.4653H21.5119V53.6079H19.7119H17.9119V55.4653H19.7119ZM19.7119 53.6079L21.5119 53.608C21.512 52.4461 22.4544 51.5036 23.6172 51.5036V49.7036V47.9036C20.4672 47.9036 17.912 50.4569 17.9119 53.6078L19.7119 53.6079Z" fill="#1727FF" mask="url(#path-4-inside-2_265_25043)"/>
<circle cx="39.0832" cy="71.5216" r="5.89409" stroke="#1727FF" stroke-width="1.8"/>
<circle cx="39.0832" cy="71.5211" r="2.02397" fill="#1727FF" stroke="#1727FF" stroke-width="1.8"/>
<circle cx="68.546" cy="71.5211" r="2.02397" fill="#1727FF" stroke="#1727FF" stroke-width="1.8"/>
<circle cx="68.546" cy="71.5216" r="5.89409" stroke="#1727FF" stroke-width="1.8"/>
<circle cx="76.0893" cy="58.6142" r="3.11411" stroke="#1727FF" stroke-width="1.8"/>
<circle cx="88.6411" cy="58.6142" r="3.11411" stroke="#1727FF" stroke-width="1.8"/>
<circle cx="82.4711" cy="65.021" r="3.11411" stroke="#1727FF" stroke-width="1.8"/>
<circle cx="82.4711" cy="52.4687" r="3.11411" stroke="#1727FF" stroke-width="1.8"/>
<rect x="46.1783" y="61.2828" width="3.8332" height="1.18477" rx="0.592383" stroke="#1727FF" stroke-width="1.18477"/>
<rect x="56.3521" y="61.2828" width="3.8332" height="1.18477" rx="0.592383" stroke="#1727FF" stroke-width="1.18477"/>
<rect x="51.898" y="69.1666" width="3.8332" height="1.18477" rx="0.592383" stroke="#1727FF" stroke-width="1.18477"/>
<path d="M61.738 30.8978C61.9799 31.1359 62.1179 31.46 62.1219 31.7995C62.1258 32.1389 61.9955 32.4662 61.7592 32.7099C61.5229 32.9536 61.1999 33.0941 60.8605 33.1007C60.5211 33.1073 60.1929 32.9795 59.9473 32.7451C59.8354 32.637 59.7186 32.5339 59.5974 32.4364C59.0076 31.9811 58.355 31.6137 57.66 31.3455C56.2122 30.7931 54.6734 30.5182 53.1239 30.535C50.4944 30.535 48.1042 31.2683 46.6505 32.4364C46.5253 32.5393 46.4086 32.6422 46.3006 32.7451C46.055 32.9795 45.7268 33.1073 45.3874 33.1007C45.048 33.0941 44.7249 32.9536 44.4887 32.7099C44.2524 32.4662 44.122 32.1389 44.126 31.7995C44.13 31.46 44.2679 31.1359 44.5098 30.8978C44.6762 30.7365 44.8529 30.5804 45.0398 30.4295C46.9798 28.8703 49.9412 27.9621 53.1239 27.9621C55.0922 27.9621 56.9833 28.3068 58.6094 28.9526C59.5999 29.3463 60.4773 29.8429 61.208 30.4295C61.395 30.5822 61.5717 30.7382 61.738 30.8978ZM68.1909 24.2056C68.3202 24.3234 68.4242 24.4663 68.4964 24.6256C68.5687 24.7849 68.6077 24.9573 68.611 25.1322C68.6144 25.3071 68.582 25.4809 68.5159 25.6428C68.4499 25.8048 68.3514 25.9516 68.2267 26.0742C68.102 26.1969 67.9535 26.2928 67.7904 26.3561C67.6274 26.4194 67.4531 26.4488 67.2783 26.4425C67.1035 26.4362 66.9318 26.3942 66.7737 26.3193C66.6157 26.2444 66.4745 26.138 66.359 26.0067C66.072 25.7181 65.7715 25.4434 65.4585 25.1833C65.1292 24.9109 64.7866 24.655 64.4319 24.4166C63.2713 23.6387 62.0191 23.007 60.7037 22.5358C59.7594 22.1919 58.7911 21.9175 57.8066 21.715C56.7838 21.5064 55.7479 21.3671 54.7063 21.2982C53.1278 21.194 51.5428 21.2466 49.9747 21.4552C48.9568 21.5956 47.9495 21.8036 46.9592 22.0778C46.018 22.3464 45.0972 22.6817 44.2037 23.0813C43.3731 23.4614 42.5747 23.908 41.816 24.4166C41.4558 24.6619 41.1136 24.9175 40.7894 25.1833C40.4704 25.4492 40.1702 25.7236 39.8889 26.0067C39.6457 26.2281 39.327 26.348 38.9981 26.3417C38.6693 26.3354 38.3554 26.2034 38.1209 25.9728C37.8864 25.7422 37.7491 25.4306 37.7372 25.1019C37.7253 24.7733 37.8397 24.4525 38.057 24.2056C38.3966 23.8591 38.7602 23.5247 39.1479 23.2022C39.5338 22.8832 39.9403 22.5787 40.3674 22.2888C41.2429 21.6921 42.1693 21.1738 43.1359 20.7399C44.1455 20.2762 45.1909 19.8951 46.262 19.6001C47.3667 19.2853 48.4933 19.0531 49.6325 18.9054C50.7897 18.7491 51.9562 18.6717 53.1239 18.6739C54.2917 18.6717 55.4582 18.7491 56.6154 18.9054C57.7531 19.0615 58.8791 19.2936 59.9859 19.6001C61.0539 19.9046 62.0986 20.2855 63.112 20.7399C64.0752 21.1804 65.0011 21.6984 65.8804 22.2888C66.3075 22.5804 66.714 22.8849 67.1 23.2022C67.4876 23.5247 67.8513 23.8591 68.1909 24.2056Z" fill="#1727FF"/>
<path d="M73.3807 17.8121C73.4934 17.9381 73.5802 18.0851 73.6361 18.2447C73.6919 18.4042 73.7158 18.5732 73.7064 18.742C73.697 18.9108 73.6544 19.0761 73.5811 19.2284C73.5077 19.3808 73.4051 19.5172 73.2791 19.6299C73.1531 19.7425 73.0061 19.8293 72.8465 19.8852C72.687 19.941 72.518 19.9649 72.3492 19.9555C72.1804 19.9461 72.0151 19.9035 71.8628 19.8302C71.7104 19.7569 71.574 19.6543 71.4614 19.5282C71.0609 19.082 70.6384 18.6561 70.1955 18.2521C69.7358 17.8362 69.2576 17.4413 68.7624 17.0685C67.7154 16.2955 66.6051 15.6121 65.4433 15.0256C64.2158 14.4098 62.9385 13.8986 61.6251 13.4973C60.265 13.0753 58.874 12.7604 57.4647 12.5556C56.0277 12.3428 54.5769 12.237 53.1242 12.2392C51.6717 12.2424 50.2213 12.3482 48.7837 12.5556C47.3752 12.7644 45.9845 13.0792 44.6233 13.4973C43.3127 13.905 42.0367 14.4169 40.8077 15.0282C40.217 15.3241 39.6393 15.6452 39.0761 15.9905C38.5296 16.3257 37.999 16.6863 37.4861 17.0711C36.9818 17.4485 36.5041 17.843 36.053 18.2546C35.6018 18.6646 35.1799 19.0891 34.7871 19.5282C34.6744 19.6543 34.538 19.7569 34.3857 19.8302C34.2333 19.9035 34.0681 19.9461 33.8993 19.9555C33.7305 19.9649 33.5615 19.941 33.4019 19.8852C33.2424 19.8293 33.0954 19.7425 32.9693 19.6299C32.8433 19.5172 32.7407 19.3808 32.6674 19.2284C32.5941 19.0761 32.5515 18.9108 32.542 18.742C32.5326 18.5732 32.5565 18.4042 32.6124 18.2447C32.6683 18.0851 32.755 17.9381 32.8677 17.8121C33.3205 17.3078 33.8042 16.8207 34.3188 16.3507C34.8334 15.8807 35.3754 15.4339 35.9449 15.0102C36.5144 14.5831 37.1096 14.1791 37.7305 13.7984C38.9955 13.0202 40.3255 12.353 41.7056 11.8043C43.1319 11.2311 44.6025 10.7751 46.1027 10.4407C47.6336 10.0929 49.1887 9.86242 50.7546 9.75117C53.1188 9.57966 55.4948 9.66593 57.8404 10.0085C59.3796 10.2373 60.8994 10.5822 62.3867 11.0402C63.8318 11.4894 65.2385 12.0539 66.5934 12.728C67.2572 13.0608 67.8996 13.4176 68.5205 13.7984C69.138 14.1791 69.7324 14.5822 70.3035 15.0076C70.8747 15.4347 71.4167 15.8824 71.9296 16.3507C72.4442 16.8207 72.9279 17.3078 73.3807 17.8121Z" fill="#1727FF"/>
</svg>
