<svg width="105" height="104" viewBox="0 0 105 104" fill="none" xmlns="http://www.w3.org/2000/svg">
<path d="M91.3838 64.8824L84.7485 71.8277C84.6463 71.9346 84.5212 72.0197 84.3805 72.0752L78.2794 74.5912C77.7463 74.8127 77.1276 74.5577 76.8986 74.0174C76.6771 73.4843 76.9321 72.8656 77.4724 72.6365L83.3737 70.2073L89.8557 63.4225C90.3812 62.8724 90.4594 62.041 90.0414 61.4078C89.7935 61.0248 89.3989 60.7647 88.9486 60.6853C88.4984 60.6059 88.0449 60.7134 87.6776 60.9909L81.977 65.3363C81.7712 65.4905 81.519 65.571 81.257 65.5545C81.2045 65.5482 75.7561 65.2242 71.8144 69.3501C67.8726 73.476 68.6406 78.9593 68.6496 79.0263C68.6842 79.2348 68.6445 79.4599 68.5517 79.6489L64.3863 89.6428C64.1293 90.1718 63.4913 90.3807 62.9695 90.1161C62.4405 89.8591 62.2316 89.2211 62.4962 88.6994L66.526 78.9851C66.389 77.5682 66.1912 72.1765 70.2936 67.8825C74.3959 63.5885 79.4964 63.4048 81.0067 63.4302L86.4063 59.3233C87.229 58.6916 88.2919 58.4357 89.3199 58.614C90.3479 58.7924 91.2586 59.3994 91.8166 60.2686C92.7617 61.7268 92.5809 63.6293 91.3765 64.89L91.3838 64.8824Z" fill="#1727FF"/>
<path d="M92.3708 75.7814C91.8087 76.3697 91.1779 76.8923 90.5002 77.3263L78.7674 84.9111L76.0948 90.615C75.8379 91.144 75.2152 91.3675 74.6864 91.1254C74.1577 90.8834 73.9339 90.2457 74.176 89.717L76.9768 83.7412C77.0624 83.5599 77.1934 83.4074 77.363 83.3064L89.3461 75.5514C90.8043 74.6063 91.9386 73.2202 92.5668 71.5989L102.035 47.3093C102.282 46.6683 102.243 45.9592 101.93 45.3535C101.618 44.7478 101.04 44.3125 100.386 44.1555C99.3339 43.9105 98.2393 44.4138 97.7532 45.3816L91.7934 57.035C91.5288 57.5567 90.8908 57.7656 90.3763 57.4933C89.8546 57.2287 89.6457 56.5907 89.918 56.0763L95.8777 44.4229C96.8149 42.5853 98.8634 41.6342 100.877 42.0965C102.139 42.3965 103.212 43.2166 103.821 44.3686C104.431 45.5206 104.506 46.8642 104.033 48.0783L94.565 72.368C94.0634 73.6425 93.3347 74.7877 92.393 75.7734L92.3708 75.7814Z" fill="#1727FF"/>
<path d="M67.8338 94.7693C67.7107 95.2286 67.2821 95.5623 66.7927 95.5515L64.7712 95.5022C64.1845 95.4872 63.7235 95.0026 63.7385 94.4159C63.7535 93.8292 64.238 93.3683 64.8248 93.3833L66.8463 93.4327C67.4331 93.4477 67.894 93.9322 67.879 94.5189C67.8775 94.606 67.8658 94.6904 67.844 94.7721L67.8338 94.7693Z" fill="#1727FF"/>
<path d="M80.0649 90.8868V99.7889L60.0545 99.3949V90.0987L80.0649 90.8868Z" stroke="#1727FF" stroke-width="1.92" stroke-linecap="round" stroke-linejoin="round"/>
<path d="M13.8423 64.8814L20.4775 71.8267C20.5797 71.9337 20.7049 72.0187 20.8456 72.0743L26.9467 74.5902C27.4798 74.8117 28.0984 74.5567 28.3275 74.0164C28.549 73.4833 28.294 72.8646 27.7536 72.6355L21.8524 70.2063L15.3704 63.4215C14.8448 62.8714 14.7666 62.04 15.1847 61.4068C15.4326 61.0238 15.8272 60.7637 16.2774 60.6843C16.7277 60.6049 17.1811 60.7124 17.5485 60.9899L23.2491 65.3353C23.4548 65.4895 23.7071 65.57 23.9691 65.5535C24.0215 65.5473 29.47 65.2232 33.4117 69.3491C37.3534 73.475 36.5855 78.9583 36.5765 79.0254C36.5419 79.2338 36.5816 79.459 36.6744 79.6479L40.8398 89.6418C41.0968 90.1708 41.7348 90.3797 42.2565 90.1151C42.7856 89.8581 42.9945 89.2201 42.7298 88.6984L38.7001 78.9842C38.837 77.5672 39.0348 72.1756 34.9325 67.8816C30.8302 63.5876 25.7297 63.4039 24.2194 63.4292L18.8198 59.3223C17.9971 58.6907 16.9342 58.4347 15.9062 58.613C14.8782 58.7914 13.9674 59.3984 13.4095 60.2676C12.4644 61.7259 12.6452 63.6284 13.8496 64.8891L13.8423 64.8814Z" fill="#1727FF"/>
<path d="M12.8533 75.7804C13.4154 76.3687 14.0462 76.8913 14.7239 77.3253L26.4568 84.9102L29.1293 90.614C29.3863 91.143 30.009 91.3665 30.5377 91.1245C31.0664 90.8824 31.2902 90.2448 31.0482 89.7161L28.2473 83.7402C28.1618 83.5589 28.0307 83.4064 27.8611 83.3054L15.878 75.5505C14.4198 74.6054 13.2855 73.2192 12.6573 71.598L3.18923 47.3083C2.94228 46.6674 2.98089 45.9582 3.29367 45.3525C3.60646 44.7468 4.18442 44.3115 4.83823 44.1546C5.89018 43.9095 6.98483 44.4128 7.47096 45.3806L13.4307 57.034C13.6954 57.5557 14.3334 57.7646 14.8478 57.4923C15.3695 57.2277 15.5784 56.5897 15.3062 56.0753L9.34638 44.4219C8.40924 42.5843 6.36067 41.6332 4.34711 42.0955C3.08464 42.3955 2.01209 43.2156 1.40283 44.3676C0.793563 45.5196 0.718051 46.8632 1.19109 48.0773L10.6592 72.367C11.1607 73.6416 11.8894 74.7868 12.8311 75.7724L12.8533 75.7804Z" fill="#1727FF"/>
<path d="M26.4546 90.8853V99.7874L46.465 99.3935V90.0973L26.4546 90.8853Z" stroke="#1727FF" stroke-width="1.92" stroke-linecap="round" stroke-linejoin="round"/>
<path d="M37.3904 94.7684C37.5134 95.2277 37.942 95.5614 38.4314 95.5506L40.4529 95.5012C41.0397 95.4862 41.5006 95.0017 41.4856 94.4149C41.4706 93.8282 40.9861 93.3673 40.3994 93.3823L38.3778 93.4317C37.7911 93.4467 37.3301 93.9312 37.3451 94.5179C37.3466 94.605 37.3583 94.6894 37.3802 94.7711L37.3904 94.7684Z" fill="#1727FF"/>
<path d="M77.0562 10.1299V30.2979C76.8517 34.6451 75.3659 41.584 71.5649 48.1758C67.7961 54.7117 61.7684 60.8764 52.4731 63.8789C44.9895 61.9869 29.7966 52.756 28.1323 30.2822V10.1289L52.5054 0.859375L77.0562 10.1299Z" stroke="#1727FF" stroke-width="1.60776"/>
<path d="M74.2744 12.0977V30.502C74.0961 34.4676 72.7862 40.7825 69.4326 46.7803C66.0977 52.7446 60.7521 58.3772 52.5029 61.1016C45.8937 59.42 32.3852 51.0202 30.916 30.502V12.0977L52.5166 3.62598L74.2744 12.0977Z" stroke="#1727FF" stroke-width="0.803882"/>
<path d="M44.1558 33.5639L49.7829 39.191L61.0373 27.1328" stroke="#1727FF" stroke-width="2.41165" stroke-linecap="round" stroke-linejoin="round"/>
</svg>
