<svg width="104" height="106" viewBox="0 0 104 106" fill="none" xmlns="http://www.w3.org/2000/svg">
<path d="M60.3595 88.1286L49.6409 88.2151C49.4758 88.2164 49.3104 88.1824 49.1566 88.1129L42.3995 85.1839C41.8078 84.9292 41.531 84.2357 41.7855 83.6322C42.0402 83.0406 42.7337 82.7638 43.3372 83.0183L49.8695 85.8548L60.3405 85.7703C61.1895 85.7634 61.9159 85.1797 62.0979 84.3528C62.2118 83.8566 62.1133 83.3385 61.8269 82.9163C61.5405 82.4941 61.1019 82.2146 60.5942 82.1361L52.6837 80.95C52.4003 80.9051 52.1397 80.7657 51.9493 80.5432C51.9135 80.4963 47.9376 75.8822 41.5701 75.9335C35.2026 75.9849 31.4094 80.8622 31.3628 80.9215C31.2228 81.1114 31.0117 81.2546 30.7882 81.3271L24.9052 85.7609C24.2819 85.9664 23.6187 85.618 23.425 84.9946C23.2195 84.3712 23.5679 83.708 24.1913 83.5143L29.745 79.1893C30.773 77.9782 34.936 73.6286 41.5629 73.5751C48.1898 73.5216 52.3018 77.4625 53.4556 78.6914L60.9411 79.822C62.0863 79.9897 63.1175 80.6417 63.7738 81.6034C64.4302 82.5651 64.6521 83.7661 64.39 84.8885C63.9571 86.7788 62.2933 88.113 60.3477 88.1287L60.3595 88.1286Z" fill="#1727FF"/>
<path d="M52.4023 97.3918C51.4943 97.3991 50.5855 97.3003 49.7112 97.0951L34.5179 93.5975L27.8737 95.8916C27.2504 96.0971 26.5874 95.7723 26.3702 95.1608C26.153 94.5494 26.4895 93.8745 27.101 93.6573L34.0627 91.2544C34.2744 91.182 34.4983 91.1684 34.711 91.2256L50.2351 94.7914C52.1253 95.2242 54.1169 95.0549 55.9032 94.2975L82.7105 82.9963C83.4157 82.6958 83.9534 82.1137 84.1952 81.3924C84.4371 80.6711 84.3363 79.87 83.9537 79.2245C83.3322 78.1918 82.0782 77.7067 80.9255 78.0697L66.9625 82.3569C66.3391 82.5506 65.6759 82.2022 65.494 81.5787C65.3003 80.9552 65.6487 80.292 66.2722 80.1101L80.2352 75.8229C82.4349 75.1448 84.7889 76.0456 85.984 78.0171C86.7252 79.2611 86.9024 80.7573 86.4536 82.1407C86.0049 83.524 84.9879 84.6289 83.6481 85.194L56.8408 96.4952C55.4304 97.0844 53.9471 97.3911 52.4259 97.4034L52.4023 97.3918Z" fill="#1727FF"/>
<path d="M17.4442 87.155C16.8525 87.2239 16.2658 86.8791 16.0521 86.3042L15.1753 83.9273C14.9216 83.2371 15.2727 82.4764 15.9629 82.2227C16.6531 81.9689 17.4138 82.3201 17.6675 83.0103L18.5444 85.3873C18.7981 86.0775 18.4469 86.8381 17.7568 87.0919C17.6546 87.1304 17.5509 87.1558 17.4457 87.1681L17.4442 87.155Z" fill="#1727FF"/>
<path d="M29.1208 99.604L18.7542 103.719L9.96394 80.2342L20.7895 75.9374L29.1208 99.604Z" stroke="#1727FF" stroke-width="1.8" stroke-linecap="round" stroke-linejoin="round"/>
<path fill-rule="evenodd" clip-rule="evenodd" d="M20.6372 36.0869C20.6372 17.1922 35.9544 1.875 54.8491 1.875C73.7438 1.875 89.0611 17.1922 89.0611 36.0869C89.0611 54.9816 73.7438 70.2989 54.8491 70.2989C35.9544 70.2989 20.6372 54.9816 20.6372 36.0869Z" stroke="#1727FF" stroke-width="1.8" stroke-linecap="round" stroke-linejoin="round"/>
<path d="M75.5596 43.4167L68.6075 27.1953L61.6554 43.4167M47.7513 43.4167L40.7992 27.1953L33.8472 43.4167M36.1645 27.1953H38.5931C41.5223 27.1953 44.3633 25.5615 46.6482 22.5605H62.7585C65.0434 25.5615 67.8845 27.1953 70.8136 27.1953H73.2422" stroke="#1727FF" stroke-width="1.8" stroke-linecap="round" stroke-linejoin="round"/>
<path d="M68.6064 55.0035C72.2215 55.0035 75.3684 52.5656 76.9906 48.9714C77.8086 47.1638 78.5971 44.8372 77.9042 43.4167C77.9042 43.4167 75.679 43.4167 73.3801 43.4167H63.828C61.5292 43.4167 60.0675 43.4167 60.0675 43.4167C59.3723 44.8372 59.4018 47.1615 60.2199 48.9714C61.8443 52.5656 64.9913 55.0035 68.6064 55.0035ZM40.7981 55.0035C44.4132 55.0035 47.5602 52.5656 49.1823 48.9714C50.0003 47.1638 50.4082 44.8372 49.7153 43.4167C49.7153 43.4167 47.873 43.4167 45.5719 43.4167H36.022C33.7232 43.4167 31.8811 43.4167 31.8811 43.4167C31.1859 44.8372 31.5959 47.1615 32.4139 48.9714C34.0361 52.5656 37.183 55.0035 40.7981 55.0035ZM59.337 14.6064C59.337 15.8356 58.8487 17.0145 57.9795 17.8836C57.1103 18.7528 55.9314 19.2411 54.7022 19.2411C53.473 19.2411 52.2942 18.7528 51.425 17.8836C50.5558 17.0145 50.0675 15.8356 50.0675 14.6064C50.0675 13.3772 50.5558 12.1983 51.425 11.3292C52.2942 10.46 53.473 9.97168 54.7022 9.97168C55.9314 9.97168 57.1103 10.46 57.9795 11.3292C58.8487 12.1983 59.337 13.3772 59.337 14.6064Z" stroke="#1727FF" stroke-width="1.8"/>
</svg>
