<svg width="104" height="104" viewBox="0 0 104 104" fill="none" xmlns="http://www.w3.org/2000/svg">
<path d="M36.914 87.3421L46.0201 81.9768M57.2384 81.9768L66.3434 87.3421M25.3707 87.3421L16.103 81.9768M10.7373 71.8961V61.1651M16.103 51.4097L25.3707 46.0443M36.914 46.0443L46.0201 51.4097M51.7106 61.1651V71.8961M78.2128 87.3421L87.3179 81.9768M92.846 71.8961V61.1651M87.3179 51.4097L78.2128 46.0443M66.3434 46.0443L57.2384 51.4097M31.0617 35.9636V25.883M36.914 15.3147L46.0201 10.437M57.2384 10.437L66.3434 15.3147M78.2128 15.3147L87.3179 10.437M72.0344 25.883V27.7512M72.0344 35.9636V33.8991" stroke="#1727FF" stroke-width="1.68" stroke-linecap="round" stroke-linejoin="round"/>
<circle cx="51.5992" cy="30.7339" r="10.7791" stroke="#1727FF" stroke-width="2.4"/>
<circle cx="72.086" cy="66.4581" r="10.7791" stroke="#1727FF" stroke-width="2.4"/>
<path d="M41.548 64.7402C42.3133 64.6142 42.8397 63.8881 42.625 63.1428C42.0133 61.0187 40.8226 59.0957 39.1739 57.5962C37.1774 55.7803 34.6261 54.6918 31.9336 54.5071C29.241 54.3224 26.565 55.0524 24.3392 56.5787C22.1134 58.105 20.4682 60.3382 19.6703 62.9164C18.8724 65.4946 18.9684 68.2667 19.9429 70.7835C20.9175 73.3003 22.7133 75.4142 25.0394 76.7828C27.3656 78.1513 30.0857 78.6943 32.759 78.3236C34.9665 78.0175 37.0352 77.1033 38.7398 75.6961C39.338 75.2024 39.3138 74.3059 38.7535 73.7696C38.1931 73.2332 37.3095 73.263 36.694 73.735C35.4406 74.6961 33.9534 75.3222 32.3732 75.5413C30.3268 75.8251 28.2445 75.4094 26.4638 74.3618C24.6831 73.3141 23.3084 71.6959 22.5624 69.7692C21.8163 67.8426 21.7428 65.7205 22.3536 63.7469C22.9645 61.7732 24.2239 60.0636 25.9278 58.8952C27.6317 57.7268 29.6802 57.168 31.7413 57.3094C33.8025 57.4508 35.7556 58.2841 37.284 59.6742C38.4641 60.7476 39.3377 62.1043 39.829 63.6054C40.0703 64.3426 40.7826 64.8662 41.548 64.7402Z" fill="#1727FF"/>
<circle cx="51.5997" cy="6.93125" r="6.09125" stroke="#1727FF" stroke-width="1.68"/>
<circle cx="92.5714" cy="6.93125" r="6.09125" stroke="#1727FF" stroke-width="1.68"/>
<circle cx="51.5997" cy="54.5362" r="6.09125" stroke="#1727FF" stroke-width="1.68"/>
<circle cx="10.6275" cy="54.5362" r="6.09125" stroke="#1727FF" stroke-width="1.68"/>
<circle cx="92.5714" cy="54.5362" r="6.09125" stroke="#1727FF" stroke-width="1.68"/>
<circle cx="72.0865" cy="18.7667" r="6.09125" stroke="#1727FF" stroke-width="1.68"/>
<circle cx="31.1144" cy="18.7667" r="6.09125" stroke="#1727FF" stroke-width="1.68"/>
<circle cx="51.5997" cy="78.4366" r="6.09125" stroke="#1727FF" stroke-width="1.68"/>
<circle cx="10.6275" cy="78.4366" r="6.09125" stroke="#1727FF" stroke-width="1.68"/>
<circle cx="92.5714" cy="78.4366" r="6.09125" stroke="#1727FF" stroke-width="1.68"/>
<circle cx="72.0865" cy="42.6671" r="6.09125" stroke="#1727FF" stroke-width="1.68"/>
<circle cx="72.0865" cy="90.2721" r="6.09125" stroke="#1727FF" stroke-width="1.68"/>
<circle cx="31.1144" cy="42.6671" r="6.09125" stroke="#1727FF" stroke-width="1.68"/>
<circle cx="31.1144" cy="90.2721" r="6.09125" stroke="#1727FF" stroke-width="1.68"/>
</svg>
