<svg width="107" height="104" viewBox="0 0 107 104" fill="none" xmlns="http://www.w3.org/2000/svg">
<path d="M24.4736 57.6025C24.4736 59.5976 23.681 61.5109 22.2703 62.9217C20.8596 64.3324 18.9462 65.1249 16.9511 65.1249C14.9561 65.1249 13.0427 64.3324 11.632 62.9217C10.2213 61.5109 9.42871 59.5976 9.42871 57.6025C9.42871 55.6074 10.2213 53.6941 11.632 52.2833C13.0427 50.8726 14.9561 50.0801 16.9511 50.0801C18.9462 50.0801 20.8596 50.8726 22.2703 52.2833C23.681 53.6941 24.4736 55.6074 24.4736 57.6025Z" stroke="#1727FF" stroke-width="0.975603"/>
<path d="M20.2542 57.6027C20.2542 58.4788 19.9061 59.319 19.2866 59.9385C18.6671 60.558 17.8269 60.906 16.9508 60.906C16.0747 60.906 15.2345 60.558 14.615 59.9385C13.9955 59.319 13.6475 58.4788 13.6475 57.6027C13.6475 56.7266 13.9955 55.8863 14.615 55.2668C15.2345 54.6473 16.0747 54.2993 16.9508 54.2993C17.8269 54.2993 18.6671 54.6473 19.2866 55.2668C19.9061 55.8863 20.2542 56.7266 20.2542 57.6027Z" fill="#1727FF" stroke="#1727FF" stroke-width="0.662744"/>
<path d="M20.698 71.3945C18.3232 72.0366 15.8227 72.053 13.4396 71.4422C13.5636 70.6004 13.4336 69.7408 13.0663 68.9733C12.6989 68.2058 12.1109 67.5654 11.3775 67.134C10.6441 66.7026 9.79868 66.4998 8.94938 66.5516C8.10008 66.6034 7.28556 66.9074 6.61003 67.4248C5.9484 66.7232 5.35969 65.9563 4.85294 65.1358C4.06908 63.8694 3.50687 62.5279 3.15764 61.1568L3.20854 61.1252C3.82655 60.743 4.33693 60.2095 4.6915 59.5752C5.04606 58.9409 5.23311 58.2267 5.23497 57.5C5.23684 56.7733 5.05347 56.0582 4.70216 55.4221C4.35086 54.7859 3.84323 54.2499 3.22719 53.8644C3.82984 51.6626 4.95258 49.6377 6.50092 47.9603C7.17528 48.3696 7.9497 48.5843 8.73851 48.5807C9.52733 48.5771 10.2998 48.3554 10.9704 47.9401C11.6412 47.5251 12.1842 46.9326 12.5392 46.2282C12.8942 45.5237 13.0473 44.7348 12.9818 43.9487C15.1737 43.311 17.4868 43.2092 19.7263 43.6517C19.7969 44.3801 20.0533 45.0782 20.471 45.6791C20.8886 46.28 21.4535 46.7637 22.1116 47.0838C22.7697 47.4039 23.4989 47.5498 24.2295 47.5074C24.9601 47.465 25.6676 47.2358 26.2842 46.8417C27.3814 47.79 28.3274 48.9 29.0896 50.1337C29.6071 50.9699 30.0279 51.8391 30.355 52.7278C29.5907 53.1017 28.9553 53.6951 28.5302 54.4322C28.105 55.1693 27.9095 56.0164 27.9685 56.8652C28.0276 57.714 28.3386 58.5259 28.8617 59.197C29.3848 59.8681 30.0962 60.3679 30.9049 60.6323C30.3886 63.0374 29.2586 65.268 27.6248 67.1069C26.9353 66.519 26.077 66.1652 25.1736 66.0965C24.2701 66.0278 23.3682 66.2478 22.5978 66.7247C21.8273 67.2015 21.2282 67.9107 20.8868 68.75C20.5454 69.5893 20.4793 70.5153 20.698 71.3945Z" stroke="#1727FF" stroke-width="1.2" stroke-linejoin="round"/>
<path d="M73.6526 27.9401C73.6526 29.5891 72.9975 31.1707 71.8314 32.3368C70.6653 33.5028 69.0838 34.1579 67.4347 34.1579C65.7856 34.1579 64.2041 33.5028 63.038 32.3368C61.8719 31.1707 61.2168 29.5891 61.2168 27.9401C61.2168 26.291 61.8719 24.7094 63.038 23.5433C64.2041 22.3773 65.7856 21.7222 67.4347 21.7222C69.0838 21.7222 70.6653 22.3773 71.8314 23.5433C72.9975 24.7094 73.6526 26.291 73.6526 27.9401Z" stroke="#1727FF" stroke-width="0.975603"/>
<path d="M69.8117 27.9401C69.8117 28.5702 69.5614 29.1746 69.1158 29.6202C68.6702 30.0658 68.0658 30.3161 67.4357 30.3161C66.8055 30.3161 66.2011 30.0658 65.7555 29.6202C65.3099 29.1746 65.0596 28.5702 65.0596 27.9401C65.0596 27.3099 65.3099 26.7055 65.7555 26.2599C66.2011 25.8143 66.8055 25.564 67.4357 25.564C68.0658 25.564 68.6702 25.8143 69.1158 26.2599C69.5614 26.7055 69.8117 27.3099 69.8117 27.9401Z" fill="#1727FF" stroke="#1727FF" stroke-width="0.662744"/>
<path d="M70.5322 39.3397C68.5693 39.8704 66.5024 39.884 64.5327 39.3791C64.6351 38.6833 64.5277 37.9727 64.224 37.3383C63.9204 36.704 63.4343 36.1746 62.8281 35.818C62.2219 35.4614 61.5231 35.2938 60.8211 35.3366C60.1191 35.3794 59.4458 35.6307 58.8874 36.0584C58.3405 35.4784 57.8539 34.8445 57.4351 34.1663C56.7871 33.1196 56.3224 32.0107 56.0338 30.8774L56.0758 30.8513C56.5867 30.5353 57.0085 30.0944 57.3016 29.5701C57.5947 29.0458 57.7493 28.4554 57.7508 27.8548C57.7524 27.2541 57.6008 26.663 57.3104 26.1372C57.0201 25.6114 56.6005 25.1683 56.0913 24.8497C56.5894 23.0297 57.5174 21.356 58.7973 19.9694C59.3547 20.3077 59.9948 20.4852 60.6468 20.4823C61.2988 20.4793 61.9373 20.2961 62.4916 19.9527C63.0461 19.6097 63.4949 19.12 63.7883 18.5377C64.0818 17.9554 64.2084 17.3033 64.1542 16.6536C65.966 16.1264 67.8779 16.0423 69.729 16.4081C69.7874 17.0102 69.9994 17.5872 70.3446 18.0839C70.6898 18.5806 71.1568 18.9804 71.7007 19.245C72.2447 19.5096 72.8475 19.6301 73.4513 19.5951C74.0552 19.56 74.64 19.3706 75.1497 19.0449C76.0566 19.8286 76.8385 20.7462 77.4685 21.7659C77.8963 22.4571 78.2441 23.1756 78.5145 23.9102C77.8828 24.2192 77.3576 24.7097 77.0062 25.319C76.6547 25.9282 76.4931 26.6284 76.5419 27.3301C76.5907 28.0317 76.8478 28.7028 77.2802 29.2575C77.7125 29.8122 78.3006 30.2253 78.9691 30.4439C78.5423 32.4319 77.6083 34.2756 76.2578 35.7957C75.6879 35.3097 74.9785 35.0173 74.2317 34.9605C73.4849 34.9037 72.7394 35.0855 72.1026 35.4797C71.4657 35.8738 70.9705 36.46 70.6883 37.1538C70.4061 37.8475 70.3514 38.6129 70.5322 39.3397Z" stroke="#1727FF" stroke-width="1.2" stroke-linejoin="round"/>
<path d="M40.6469 22.5295C40.6469 25.1474 39.6069 27.6581 37.7558 29.5092C35.9047 31.3604 33.394 32.4003 30.7761 32.4003C28.1582 32.4003 25.6475 31.3604 23.7964 29.5092C21.9452 27.6581 20.9053 25.1474 20.9053 22.5295C20.9053 19.9116 21.9452 17.4009 23.7964 15.5498C25.6475 13.6986 28.1582 12.6587 30.7761 12.6587C33.394 12.6587 35.9047 13.6986 37.7558 15.5498C39.6069 17.4009 40.6469 19.9116 40.6469 22.5295Z" stroke="#1727FF" stroke-width="1.54876"/>
<path d="M37.4802 22.5291C37.4802 24.3075 36.7737 26.0131 35.5162 27.2706C34.2587 28.5281 32.5531 29.2346 30.7747 29.2346C28.9964 29.2346 27.2908 28.5281 26.0333 27.2706C24.7758 26.0131 24.0693 24.3075 24.0693 22.5291C24.0693 20.7508 24.7758 19.0452 26.0333 17.7877C27.2908 16.5302 28.9964 15.8237 30.7747 15.8237C32.5531 15.8237 34.2587 16.5302 35.5162 17.7877C36.7737 19.0452 37.4802 20.7508 37.4802 22.5291Z" fill="#1727FF" stroke="#1727FF" stroke-width="1.0521"/>
<path d="M35.6926 40.6276C32.5765 41.4701 29.2953 41.4917 26.1683 40.6902C26.331 39.5856 26.1604 38.4576 25.6784 37.4505C25.1964 36.4434 24.4248 35.603 23.4625 35.037C22.5001 34.4709 21.3907 34.2048 20.2763 34.2727C19.1619 34.3407 18.093 34.7397 17.2066 35.4185C16.3385 34.4979 15.566 33.4916 14.901 32.415C13.8724 30.7533 13.1347 28.9929 12.6765 27.1937L12.7433 27.1524C13.5542 26.6508 14.2239 25.9508 14.6892 25.1185C15.1544 24.2861 15.3999 23.349 15.4023 22.3954C15.4048 21.4419 15.1641 20.5035 14.7032 19.6688C14.2422 18.8341 13.5761 18.1306 12.7677 17.6249C13.5585 14.7357 15.0318 12.0787 17.0635 9.87757C17.9483 10.4146 18.9645 10.6964 19.9996 10.6917C21.0347 10.687 22.0483 10.3961 22.9282 9.85107C23.8085 9.30651 24.5209 8.52904 24.9868 7.6047C25.4526 6.68035 25.6536 5.64516 25.5676 4.61366C28.4438 3.77686 31.4789 3.64321 34.4175 4.22396C34.5103 5.17974 34.8467 6.09573 35.3948 6.88425C35.9428 7.67277 36.6841 8.30743 37.5476 8.72747C38.4111 9.14752 39.368 9.33889 40.3266 9.28328C41.2853 9.22766 42.2136 8.92692 43.0228 8.40983C44.4624 9.65405 45.7038 11.1107 46.7039 12.7295C47.3831 13.8267 47.9351 14.9673 48.3644 16.1334C47.3615 16.624 46.5277 17.4027 45.9699 18.3699C45.412 19.337 45.1554 20.4486 45.2329 21.5625C45.3104 22.6763 45.7185 23.7416 46.4049 24.6222C47.0913 25.5028 48.0248 26.1586 49.086 26.5056C48.4085 29.6616 46.9257 32.5884 44.7819 35.0015C43.8772 34.2301 42.7509 33.7658 41.5654 33.6757C40.3799 33.5855 39.1964 33.8741 38.1855 34.4999C37.1745 35.1256 36.3884 36.0562 35.9404 37.1575C35.4924 38.2587 35.4056 39.4738 35.6926 40.6276Z" stroke="#1727FF" stroke-width="1.54876" stroke-linejoin="round"/>
<rect x="4.93809" y="85.5699" width="100.359" height="16.108" rx="8.05398" stroke="#1727FF" stroke-width="1.8"/>
<rect x="65.527" y="71.5704" width="14.705" height="13.8773" rx="0.777946" stroke="#1727FF" stroke-width="1.55589"/>
<rect x="69.7779" y="75.6041" width="6.20509" height="5.81004" rx="0.777946" fill="#1727FF" stroke="#1727FF" stroke-width="1.55589"/>
<rect x="85.3365" y="75.6041" width="6.20516" height="5.81011" rx="0.777946" fill="#1727FF" stroke="#1727FF" stroke-width="1.55589"/>
<rect x="79.9049" y="61.7169" width="6.20022" height="5.80542" rx="0.777946" fill="#1727FF" stroke="#1727FF" stroke-width="1.55589"/>
<rect x="81.0143" y="71.5704" width="14.705" height="13.8773" rx="0.777946" stroke="#1727FF" stroke-width="1.55589"/>
<rect x="75.6529" y="57.6808" width="14.705" height="13.8773" rx="0.777946" stroke="#1727FF" stroke-width="1.55589"/>
<circle cx="21.8906" cy="93.7036" r="3.75526" stroke="#1727FF" stroke-width="1.55589"/>
<circle cx="38.4414" cy="93.7036" r="3.75526" stroke="#1727FF" stroke-width="1.55589"/>
<circle cx="54.9912" cy="93.7036" r="3.75526" stroke="#1727FF" stroke-width="1.55589"/>
<circle cx="71.541" cy="93.7036" r="3.75526" stroke="#1727FF" stroke-width="1.55589"/>
<circle cx="88.0918" cy="93.7036" r="3.75526" stroke="#1727FF" stroke-width="1.55589"/>
</svg>
