<svg width="105" height="104" viewBox="0 0 105 104" fill="none" xmlns="http://www.w3.org/2000/svg">
<path d="M49.4351 54.5605H55.562C59.4282 54.5605 62.5629 57.6943 62.563 61.5605C62.563 65.4268 59.4283 68.5615 55.562 68.5615H49.4351C45.5688 68.5615 42.4351 65.4268 42.4351 61.5605C42.4351 57.6944 45.5689 54.5606 49.4351 54.5605Z" stroke="#1727FF" stroke-width="1.8"/>
<circle cx="52.4989" cy="46.2621" r="4.92064" stroke="#1727FF" stroke-width="1.8"/>
<circle cx="52.5001" cy="51.7252" r="17.1064" stroke="#1727FF" stroke-width="1.8"/>
<path d="M15.7125 51.7249C15.7125 50.6899 15.1647 49.5608 14.5696 48.9656C13.8378 48.2339 12.8453 47.8227 11.8104 47.8227C10.7754 47.8227 9.78292 48.2339 9.05113 48.9656C8.31935 49.6974 7.90825 50.6899 7.90825 51.7249C7.90825 52.7598 8.31935 53.7523 9.05113 54.4841C9.78292 55.2158 10.7754 55.627 11.8104 55.627C12.8453 55.627 13.8378 55.2158 14.5696 54.4841C15.3013 53.7523 15.7125 52.7598 15.7125 51.7249ZM15.7125 51.7249H25.6396" stroke="#1727FF" stroke-width="1.8" stroke-linecap="round" stroke-linejoin="round"/>
<path d="M52.4998 14.9381C53.5347 14.9381 54.6638 14.3903 55.259 13.7951C55.9908 13.0634 56.4019 12.0708 56.4019 11.0359C56.4019 10.001 55.9908 9.00851 55.259 8.27672C54.5272 7.54493 53.5347 7.13383 52.4998 7.13383C51.4649 7.13383 50.4723 7.54493 49.7406 8.27672C49.0088 9.00851 48.5977 10.001 48.5977 11.0359C48.5977 12.0708 49.0088 13.0634 49.7406 13.7951C50.4723 14.5269 51.4649 14.9381 52.4998 14.9381ZM52.4998 14.9381L52.4998 24.8652" stroke="#1727FF" stroke-width="1.8" stroke-linecap="round" stroke-linejoin="round"/>
<path d="M89.2866 51.7249C89.2866 50.6899 89.8343 49.5608 90.4295 48.9656C91.1613 48.2339 92.1538 47.8227 93.1887 47.8227C94.2236 47.8227 95.2161 48.2339 95.9479 48.9656C96.6797 49.6974 97.0908 50.6899 97.0908 51.7249C97.0908 52.7598 96.6797 53.7523 95.9479 54.4841C95.2161 55.2158 94.2236 55.627 93.1887 55.627C92.1538 55.627 91.1613 55.2158 90.4295 54.4841C89.6977 53.7523 89.2866 52.7598 89.2866 51.7249ZM89.2866 51.7249H79.3594" stroke="#1727FF" stroke-width="1.8" stroke-linecap="round" stroke-linejoin="round"/>
<path d="M52.4998 88.5121C53.5347 88.5121 54.6638 89.0599 55.259 89.6551C55.9908 90.3868 56.4019 91.3794 56.4019 92.4143C56.4019 93.4492 55.9908 94.4417 55.259 95.1735C54.5272 95.9053 53.5347 96.3164 52.4998 96.3164C51.4649 96.3164 50.4723 95.9053 49.7406 95.1735C49.0088 94.4417 48.5977 93.4492 48.5977 92.4143C48.5977 91.3794 49.0088 90.3868 49.7406 89.6551C50.4723 88.9233 51.4649 88.5121 52.4998 88.5121ZM52.4998 88.5121L52.4998 78.585" stroke="#1727FF" stroke-width="1.8" stroke-linecap="round" stroke-linejoin="round"/>
<circle cx="16.4112" cy="16.0557" r="15.0307" stroke="#1727FF" stroke-width="1.8"/>
<path d="M36.1811 34.3366L26.584 26.7251" stroke="#1727FF" stroke-width="1.8" stroke-linecap="round" stroke-linejoin="round"/>
<circle cx="15.7432" cy="15.7432" r="14.8432" transform="matrix(1 0 0 -1 0.899902 102.922)" stroke="#1727FF" stroke-width="1.8"/>
<path d="M36.18 69.1143L26.6958 76.6362" stroke="#1727FF" stroke-width="1.8" stroke-linecap="round" stroke-linejoin="round"/>
<path d="M4.00098 94.2614L11.4844 84.9761L17.0282 92.3904M22.572 99.8047L17.0282 92.3904M17.0282 92.3904L22.572 86.9161L28.8084 92.3904" stroke="#1727FF" stroke-width="1.2" stroke-linecap="round" stroke-linejoin="round"/>
<circle cx="15.511" cy="15.511" r="14.611" transform="matrix(-1 0 0 1 104.1 1.02637)" stroke="#1727FF" stroke-width="1.8"/>
<path d="M69.3403 34.3363L78.6846 26.9253" stroke="#1727FF" stroke-width="1.8" stroke-linecap="round" stroke-linejoin="round"/>
<circle cx="88.5891" cy="86.9128" r="14.611" transform="rotate(180 88.5891 86.9128)" stroke="#1727FF" stroke-width="1.8"/>
<path d="M69.3403 69.1139L78.6846 76.5249" stroke="#1727FF" stroke-width="1.8" stroke-linecap="round" stroke-linejoin="round"/>
<path d="M85.56 9.9248H91.44C93.68 9.9248 95.5 11.7448 95.5 13.9848V19.8648C95.5 20.9416 95.0723 21.9743 94.3109 22.7357C93.5495 23.4971 92.5168 23.9248 91.44 23.9248H85.56C83.32 23.9248 81.5 22.1048 81.5 19.8648V13.9848C81.5 12.908 81.9277 11.8753 82.6891 11.114C83.4505 10.3526 84.4832 9.9248 85.56 9.9248ZM85.42 11.3248C84.7517 11.3248 84.1107 11.5903 83.6381 12.0629C83.1655 12.5355 82.9 13.1765 82.9 13.8448V20.0048C82.9 21.3978 84.027 22.5248 85.42 22.5248H91.58C92.2483 22.5248 92.8893 22.2593 93.3619 21.7867C93.8345 21.3141 94.1 20.6731 94.1 20.0048V13.8448C94.1 12.4518 92.973 11.3248 91.58 11.3248H85.42ZM92.175 12.3748C92.4071 12.3748 92.6296 12.467 92.7937 12.6311C92.9578 12.7952 93.05 13.0177 93.05 13.2498C93.05 13.4819 92.9578 13.7044 92.7937 13.8685C92.6296 14.0326 92.4071 14.1248 92.175 14.1248C91.9429 14.1248 91.7204 14.0326 91.5563 13.8685C91.3922 13.7044 91.3 13.4819 91.3 13.2498C91.3 13.0177 91.3922 12.7952 91.5563 12.6311C91.7204 12.467 91.9429 12.3748 92.175 12.3748ZM88.5 13.4248C89.4283 13.4248 90.3185 13.7936 90.9749 14.4499C91.6313 15.1063 92 15.9965 92 16.9248C92 17.8531 91.6313 18.7433 90.9749 19.3997C90.3185 20.0561 89.4283 20.4248 88.5 20.4248C87.5717 20.4248 86.6815 20.0561 86.0251 19.3997C85.3687 18.7433 85 17.8531 85 16.9248C85 15.9965 85.3687 15.1063 86.0251 14.4499C86.6815 13.7936 87.5717 13.4248 88.5 13.4248ZM88.5 14.8248C87.943 14.8248 87.4089 15.0461 87.0151 15.4399C86.6212 15.8337 86.4 16.3678 86.4 16.9248C86.4 17.4818 86.6212 18.0159 87.0151 18.4097C87.4089 18.8036 87.943 19.0248 88.5 19.0248C89.057 19.0248 89.5911 18.8036 89.9849 18.4097C90.3787 18.0159 90.6 17.4818 90.6 16.9248C90.6 16.3678 90.3787 15.8337 89.9849 15.4399C89.5911 15.0461 89.057 14.8248 88.5 14.8248Z" fill="#1727FF"/>
<path d="M17.6436 12.31H11.4475C11.0366 12.31 10.6426 12.4732 10.3521 12.7637C10.0616 13.0542 9.89844 13.4482 9.89844 13.859V16.957C9.89844 17.3679 10.0616 17.7619 10.3521 18.0524C10.6426 18.3429 11.0366 18.5061 11.4475 18.5061H12.222V21.6041C12.222 21.8095 12.3036 22.0065 12.4488 22.1518C12.5941 22.297 12.7911 22.3786 12.9965 22.3786H14.5455C14.7509 22.3786 14.9479 22.297 15.0932 22.1518C15.2384 22.0065 15.32 21.8095 15.32 21.6041V18.5061H17.6436L21.5161 21.6041V9.21191L17.6436 12.31ZM19.9671 18.1963L18.4181 16.957H11.4475V13.859H18.4181L19.9671 12.6198V18.1963ZM25.0014 15.408C25.0014 16.7324 24.2579 17.9329 23.0651 18.5061V12.31C24.2501 12.8908 25.0014 14.0913 25.0014 15.408Z" fill="#1727FF"/>
<path d="M85.6851 84.8926C85.6852 84.0101 86.6401 83.4591 87.4038 83.9004L91.7417 86.4043C92.5057 86.8455 92.5057 87.9484 91.7417 88.3896L87.4038 90.8945C86.6399 91.3352 85.6851 90.7836 85.6851 89.9014V84.8926Z" fill="#1727FF" stroke="#1727FF" stroke-width="0.6"/>
<circle cx="14.8971" cy="79.6916" r="1.9519" stroke="#1727FF" stroke-width="1.2"/>
</svg>
