<svg width="107" height="109" viewBox="0 0 107 109" fill="none" xmlns="http://www.w3.org/2000/svg">
<path d="M38.2299 31.9494C38.2299 34.5673 37.19 37.078 35.3388 38.9291C33.4877 40.7803 30.977 41.8202 28.3591 41.8202C25.7412 41.8202 23.2305 40.7803 21.3794 38.9291C19.5282 37.078 18.4883 34.5673 18.4883 31.9494C18.4883 29.3315 19.5282 26.8208 21.3794 24.9697C23.2305 23.1186 25.7412 22.0786 28.3591 22.0786C30.977 22.0786 33.4877 23.1186 35.3388 24.9697C37.19 26.8208 38.2299 29.3315 38.2299 31.9494Z" stroke="#1727FF" stroke-width="1.54876"/>
<path d="M35.0637 31.9491C35.0637 33.7274 34.3572 35.433 33.0997 36.6905C31.8422 37.948 30.1366 38.6545 28.3582 38.6545C26.5799 38.6545 24.8743 37.948 23.6168 36.6905C22.3593 35.433 21.6528 33.7274 21.6528 31.9491C21.6528 30.1707 22.3593 28.4651 23.6168 27.2076C24.8743 25.9501 26.5799 25.2437 28.3582 25.2437C30.1366 25.2437 31.8422 25.9501 33.0997 27.2076C34.3572 28.4651 35.0637 30.1707 35.0637 31.9491Z" fill="#1727FF" stroke="#1727FF" stroke-width="1.0521"/>
<path d="M33.2756 50.0475C30.1595 50.89 26.8783 50.9116 23.7514 50.1101C23.914 49.0055 23.7434 47.8775 23.2614 46.8704C22.7794 45.8633 22.0078 45.023 21.0455 44.4569C20.0831 43.8908 18.9737 43.6247 17.8593 43.6927C16.7449 43.7606 15.6761 44.1596 14.7896 44.8384C13.9215 43.9178 13.149 42.9115 12.484 41.8349C11.4555 40.1732 10.7177 38.4129 10.2595 36.6137L10.3263 36.5723C11.1372 36.0707 11.8069 35.3707 12.2722 34.5384C12.7374 33.7061 12.9829 32.7689 12.9853 31.8154C12.9878 30.8618 12.7471 29.9234 12.2862 29.0887C11.8252 28.254 11.1591 27.5506 10.3507 27.0448C11.1415 24.1556 12.6148 21.4986 14.6465 19.2975C15.5313 19.8345 16.5475 20.1163 17.5826 20.1116C18.6177 20.1069 19.6313 19.816 20.5113 19.271C21.3915 18.7264 22.104 17.949 22.5698 17.0246C23.0356 16.1003 23.2366 15.0651 23.1506 14.0336C26.0268 13.1968 29.0619 13.0631 32.0006 13.6439C32.0933 14.5997 32.4297 15.5156 32.9778 16.3042C33.5258 17.0927 34.2671 17.7273 35.1306 18.1474C35.9941 18.5674 36.951 18.7588 37.9097 18.7032C38.8683 18.6476 39.7966 18.3468 40.6058 17.8298C42.0454 19.074 43.2868 20.5306 44.2869 22.1494C44.9661 23.2466 45.5182 24.3872 45.9474 25.5533C44.9445 26.044 44.1107 26.8227 43.5529 27.7898C42.995 28.757 42.7384 29.8686 42.8159 30.9824C42.8934 32.0962 43.3015 33.1616 43.9879 34.0421C44.6743 34.9227 45.6078 35.5785 46.669 35.9255C45.9915 39.0815 44.5087 42.0084 42.3649 44.4214C41.4602 43.65 40.3339 43.1857 39.1484 43.0956C37.9629 43.0054 36.7794 43.294 35.7685 43.9198C34.7576 44.5455 33.9714 45.4761 33.5234 46.5774C33.0754 47.6787 32.9886 48.8938 33.2756 50.0475Z" stroke="#1727FF" stroke-width="1.54876" stroke-linejoin="round"/>
<path d="M78.5107 47.2048C78.5107 49.8227 77.4707 52.3334 75.6196 54.1845C73.7684 56.0357 71.2578 57.0756 68.6399 57.0756C66.022 57.0756 63.5113 56.0357 61.6601 54.1845C59.809 52.3334 58.769 49.8227 58.769 47.2048C58.769 44.5869 59.809 42.0762 61.6601 40.2251C63.5113 38.3739 66.022 37.334 68.6399 37.334C71.2578 37.334 73.7684 38.3739 75.6196 40.2251C77.4707 42.0762 78.5107 44.5869 78.5107 47.2048Z" stroke="#1727FF" stroke-width="1.54876"/>
<path d="M75.3449 47.2044C75.3449 48.9828 74.6384 50.6884 73.3809 51.9459C72.1234 53.2034 70.4179 53.9098 68.6395 53.9098C66.8611 53.9098 65.1556 53.2034 63.8981 51.9459C62.6405 50.6884 61.9341 48.9828 61.9341 47.2044C61.9341 45.426 62.6405 43.7205 63.8981 42.463C65.1556 41.2055 66.8611 40.499 68.6395 40.499C70.4179 40.499 72.1234 41.2055 73.3809 42.463C74.6384 43.7205 75.3449 45.426 75.3449 47.2044Z" fill="#1727FF" stroke="#1727FF" stroke-width="1.0521"/>
<path d="M73.5569 65.3029C70.4407 66.1454 67.1595 66.167 64.0326 65.3655C64.1953 64.2609 64.0247 63.1329 63.5427 62.1258C63.0606 61.1187 62.2891 60.2783 61.3267 59.7122C60.3644 59.1461 59.255 58.8801 58.1406 58.948C57.0261 59.016 55.9573 59.415 55.0709 60.0938C54.2027 59.1732 53.4302 58.1669 52.7653 57.0903C51.7367 55.4286 50.999 53.6682 50.5407 51.869L50.6075 51.8277C51.4185 51.3261 52.0882 50.6261 52.5534 49.7938C53.0187 48.9614 53.2641 48.0243 53.2666 47.0707C53.269 46.1172 53.0284 45.1788 52.5674 44.3441C52.1064 43.5094 51.4403 42.8059 50.632 42.3002C51.4228 39.411 52.896 36.754 54.9277 34.5529C55.8126 35.0899 56.8288 35.3716 57.8639 35.367C58.8989 35.3623 59.9125 35.0714 60.7925 34.5264C61.6728 33.9818 62.3852 33.2043 62.851 32.28C63.3168 31.3556 63.5178 30.3205 63.4318 29.289C66.308 28.4522 69.3432 28.3185 72.2818 28.8993C72.3745 29.855 72.711 30.771 73.259 31.5595C73.8071 32.3481 74.5483 32.9827 75.4118 33.4028C76.2754 33.8228 77.2322 34.0142 78.1909 33.9586C79.1496 33.903 80.0779 33.6022 80.887 33.0851C82.3267 34.3293 83.568 35.786 84.5682 37.4048C85.2473 38.502 85.7994 39.6426 86.2287 40.8087C85.2257 41.2993 84.392 42.078 83.8341 43.0452C83.2763 44.0123 83.0197 45.1239 83.0972 46.2378C83.1747 47.3516 83.5827 48.4169 84.2691 49.2975C84.9555 50.1781 85.8891 50.8339 86.9503 51.1809C86.2728 54.3368 84.79 57.2637 82.6461 59.6768C81.7414 58.9054 80.6152 58.4411 79.4297 58.351C78.2442 58.2608 77.0607 58.5494 76.0497 59.1751C75.0388 59.8009 74.2527 60.7315 73.8047 61.8328C73.3566 62.934 73.2699 64.1491 73.5569 65.3029Z" stroke="#1727FF" stroke-width="1.54876" stroke-linejoin="round"/>
<path d="M46.0044 75.2467C45.2315 77.7479 43.4966 79.8396 41.1815 81.0617C38.8663 82.2838 36.1605 82.5361 33.6593 81.7632C31.1581 80.9903 29.0664 79.2554 27.8443 76.9403C26.6222 74.6251 26.3699 71.9193 27.1428 69.4181C27.9157 66.9169 29.6506 64.8252 31.9658 63.6031C34.2809 62.381 36.9867 62.1287 39.4879 62.9016C41.9891 63.6745 44.0808 65.4094 45.3029 67.7245C46.525 70.0397 46.7773 72.7455 46.0044 75.2467Z" stroke="#1727FF" stroke-width="1.54876"/>
<path d="M42.9793 74.3118C42.4542 76.0109 41.2757 77.4318 39.7029 78.262C38.1302 79.0922 36.2921 79.2636 34.593 78.7385C32.8939 78.2135 31.473 77.0349 30.6428 75.4622C29.8126 73.8895 29.6412 72.0514 30.1663 70.3523C30.6913 68.6532 31.8698 67.2322 33.4426 66.4021C35.0153 65.5719 36.8534 65.4005 38.5525 65.9255C40.2516 66.4506 41.6725 67.6291 42.5027 69.2018C43.3329 70.7746 43.5043 72.6127 42.9793 74.3118Z" fill="#1727FF" stroke="#1727FF" stroke-width="1.0521"/>
<path d="M35.9282 91.075C32.7022 90.9599 29.5609 90.0117 26.81 88.3228C27.2916 87.3155 27.4616 86.1874 27.2984 85.0828C27.1352 83.9783 26.6461 82.9476 25.8938 82.1227C25.1415 81.2977 24.1602 80.7159 23.0753 80.4518C21.9905 80.1877 20.8516 80.2533 19.8042 80.6402C19.2465 79.5043 18.8056 78.3148 18.4882 77.0898C17.9961 75.1985 17.8109 73.2989 17.9043 71.4446L17.9803 71.4248C18.9032 71.185 19.7498 70.7139 20.44 70.0561C21.1303 69.3982 21.6415 68.5753 21.9253 67.665C22.2092 66.7547 22.2564 65.787 22.0624 64.8534C21.8684 63.9198 21.4397 63.0511 20.8167 62.3292C22.4252 59.8023 24.6173 57.6987 27.2083 56.1956C27.8951 56.9699 28.7828 57.5391 29.7731 57.8403C30.7635 58.1414 31.8178 58.1627 32.8194 57.9018C33.8212 57.6414 34.7314 57.1089 35.4494 56.3633C36.1674 55.6177 36.665 54.688 36.8874 53.6771C39.8825 53.7268 42.8218 54.4952 45.4579 55.9177C45.2643 56.8582 45.3153 57.8327 45.6061 58.7479C45.8969 59.6631 46.4178 60.4883 47.1188 61.1446C47.8198 61.8008 48.6775 62.2662 49.6099 62.4961C50.5422 62.726 51.518 62.7127 52.4437 62.4576C53.4518 64.0714 54.2078 65.8296 54.6854 67.6715C55.0103 68.9203 55.201 70.1731 55.2669 71.414C54.1638 71.5866 53.1373 72.0844 52.3188 72.8438C51.5002 73.6031 50.9269 74.5894 50.6721 75.6764C50.4172 76.7635 50.4926 77.9018 50.8884 78.9458C51.2842 79.9898 51.9825 80.892 52.894 81.5368C51.3149 84.3521 49.0341 86.7107 46.2733 88.3832C45.6367 87.3791 44.6977 86.603 43.5917 86.1668C42.4857 85.7307 41.2697 85.657 40.1191 85.9564C38.9685 86.2558 37.9426 86.9128 37.1895 87.8327C36.4363 88.7526 35.9946 89.8879 35.9282 91.075Z" stroke="#1727FF" stroke-width="1.54876" stroke-linejoin="round"/>
<path d="M5.37398 13.1481C5.4265 13.6424 5.86976 14.0005 6.36404 13.948L14.4187 13.0922C14.913 13.0397 15.2711 12.5964 15.2186 12.1021C15.166 11.6078 14.7228 11.2497 14.2285 11.3022L7.06881 12.063L6.30807 4.9033C6.25555 4.40902 5.81228 4.05091 5.31801 4.10343C4.82374 4.15595 4.46562 4.59921 4.51814 5.09348L5.37398 13.1481ZM54.6384 24.1021C54.759 24.5843 55.2476 24.8774 55.7298 24.7568C56.212 24.6362 56.5052 24.1476 56.3846 23.6654L55.5115 23.8837L54.6384 24.1021ZM6.26894 13.053L6.96902 13.6186C11.6107 7.87324 18.554 4.02318 26.5052 3.53213L26.4497 2.63384L26.3942 1.73555C17.9182 2.25902 10.5146 6.36576 5.56887 12.4875L6.26894 13.053ZM26.4497 2.63384L26.5052 3.53213C39.8303 2.70918 51.5121 11.6007 54.6384 24.1021L55.5115 23.8837L56.3846 23.6654C53.0517 10.3377 40.6009 0.858161 26.3942 1.73555L26.4497 2.63384Z" fill="#1727FF"/>
<path d="M26.3956 103.622C26.8141 103.354 26.9361 102.797 26.668 102.378L22.2988 95.5578C22.0307 95.1393 21.4741 95.0173 21.0555 95.2854C20.637 95.5535 20.515 96.1102 20.7832 96.5287L24.6668 102.591L18.6041 106.475C18.1855 106.743 18.0636 107.3 18.3317 107.718C18.5998 108.137 19.1564 108.259 19.575 107.991L26.3956 103.622ZM14.1507 54.6623C14.528 54.3387 14.5715 53.7705 14.2479 53.3932C13.9244 53.0159 13.3562 52.9723 12.9789 53.2959L13.5648 53.9791L14.1507 54.6623ZM25.9101 102.864L26.1027 101.985C18.8877 100.404 12.338 95.917 8.34142 89.0258L7.56288 89.4773L6.78433 89.9288C11.0447 97.2749 18.0299 102.059 25.7175 103.743L25.9101 102.864ZM7.56288 89.4773L8.34142 89.0258C1.64366 77.4769 4.36907 63.0514 14.1507 54.6623L13.5648 53.9791L12.9789 53.2959C2.55073 62.2396 -0.356542 77.6159 6.78433 89.9288L7.56288 89.4773Z" fill="#1727FF"/>
<path d="M99.1038 40.7422C98.6767 40.4879 98.1244 40.6279 97.87 41.0549L93.7249 48.014C93.4705 48.441 93.6105 48.9934 94.0376 49.2477C94.4646 49.5021 95.017 49.3621 95.2714 48.9351L98.9559 42.7493L105.142 46.4338C105.569 46.6882 106.121 46.5482 106.375 46.1211C106.63 45.6941 106.49 45.1417 106.063 44.8873L99.1038 40.7422ZM63.5329 74.5796C63.0567 74.4371 62.5552 74.7077 62.4128 75.1839C62.2703 75.6601 62.5409 76.1616 63.0171 76.3041L63.275 75.4418L63.5329 74.5796ZM98.6432 41.5155L97.7708 41.7366C99.5852 48.8964 98.5027 56.7615 94.1278 63.419L94.8799 63.9133L95.632 64.4075C100.296 57.3106 101.449 48.9232 99.5156 41.2944L98.6432 41.5155ZM94.8799 63.9133L94.1278 63.419C87.3521 73.7297 74.7784 77.9429 63.5329 74.5796L63.275 75.4418L63.0171 76.3041C75.0036 79.889 88.4076 75.4011 95.632 64.4075L94.8799 63.9133Z" fill="#1727FF"/>
</svg>
