<svg width="104" height="104" viewBox="0 0 104 104" fill="none" xmlns="http://www.w3.org/2000/svg">
<path d="M93.0846 98.832C93.8937 98.832 94.6698 98.5106 95.242 97.9384C95.8141 97.3662 96.1356 96.5902 96.1356 95.781C96.1356 94.9718 95.8141 94.1958 95.242 93.6236C94.6698 93.0514 93.8937 92.73 93.0846 92.73C92.2754 92.73 91.4993 93.0514 90.9272 93.6236C90.355 94.1958 90.0335 94.9718 90.0335 95.781C90.0335 96.5902 90.355 97.3662 90.9272 97.9384C91.4993 98.5106 92.2754 98.832 93.0846 98.832ZM72.7444 98.832C73.5536 98.832 74.3296 98.5106 74.9018 97.9384C75.474 97.3662 75.7954 96.5902 75.7954 95.781C75.7954 94.9718 75.474 94.1958 74.9018 93.6236C74.3296 93.0514 73.5536 92.73 72.7444 92.73C71.9352 92.73 71.1592 93.0514 70.587 93.6236C70.0148 94.1958 69.6934 94.9718 69.6934 95.781C69.6934 96.5902 70.0148 97.3662 70.587 97.9384C71.1592 98.5106 71.9352 98.832 72.7444 98.832Z" fill="#1727FF" stroke="#1727FF" stroke-width="1.6475" stroke-linecap="round" stroke-linejoin="round"/>
<path d="M86.9815 62.2199H98.1686L94.1006 84.5941M86.9815 62.2199L84.9475 84.5941M86.9815 62.2199H75.2859M94.1006 84.5941H84.9475M94.1006 84.5941H64.0582C60.4295 84.5941 58.5053 86.1826 58.5053 88.6621C58.5053 91.1416 60.4295 92.7301 64.0582 92.7301H93.0836M84.9475 84.5941H76.8114M75.2859 62.2199H63.5903M75.2859 62.2199L76.8114 84.5941M76.8114 84.5941H67.6584L63.5903 62.2199M63.5903 62.2199C63.2507 60.8632 61.5563 58.1519 57.4883 58.1519" stroke="#1727FF" stroke-width="1.8" stroke-linecap="round" stroke-linejoin="round"/>
<path d="M13.5289 9.58484C13.9552 8.83317 14.7526 8.36865 15.6167 8.36865H87.2479C88.1526 8.36865 88.9805 8.87743 89.3891 9.68461L99.1535 28.9714H2.53613L13.5289 9.58484Z" stroke="#1727FF" stroke-width="1.8"/>
<path d="M99.5615 29.8721C99.098 36.973 93.1928 42.5889 85.9746 42.5889H15.7158C8.49762 42.5889 2.59247 36.973 2.12891 29.8721H99.5615Z" stroke="#1727FF" stroke-width="1.8"/>
<path d="M12.4805 42.4551V85.4194H55.8708M88.7234 42.4551V58.8348" stroke="#1727FF" stroke-width="1.8" stroke-linejoin="round"/>
<path d="M59.2326 95.2471H13.8553C11.1414 95.2471 8.94141 93.0471 8.94141 90.3333V90.3333C8.94141 87.6194 11.1414 85.4194 13.8553 85.4194H55.1348" stroke="#1727FF" stroke-width="1.8" stroke-linecap="round"/>
<path d="M24.2334 52.9341H41.1465C41.7913 52.9341 42.3143 53.4563 42.3145 54.1011V84.978H23.0664V54.1011C23.0666 53.4564 23.5887 52.9342 24.2334 52.9341Z" stroke="#1727FF" stroke-width="1.8"/>
<path d="M29.8349 9.68115L22.5576 28.8015L22.4624 42.575M43.7752 9.68115L41.2499 28.8015L41.1547 42.575M56.9232 9.68115L60.2591 28.8015L60.1639 42.575M71.6553 9.68115L79.2682 28.8015L79.1731 42.575M20.0751 9.68115L11.6455 28.8015V41.0132M36.5505 9.68115L31.9525 28.8015V42.575M50.3443 9.68115V28.8015V42.575M64.5213 9.68115L69.5024 28.8015V42.575M80.4225 9.68115L88.0857 28.8015V41.0132" stroke="#1727FF" stroke-width="1.8" stroke-linecap="round" stroke-linejoin="round"/>
</svg>
