<svg width="103" height="104" viewBox="0 0 103 104" fill="none" xmlns="http://www.w3.org/2000/svg">
<path d="M51.2178 23.8857C59.5075 23.8858 66.2275 30.6058 66.2275 38.8955V40.0537H36.208V38.8955C36.208 30.6057 42.928 23.8857 51.2178 23.8857Z" stroke="#1727FF" stroke-width="1.8"/>
<circle cx="51.2179" cy="13.1691" r="7.54644" stroke="#1727FF" stroke-width="1.8"/>
<path d="M64.1385 31.6272H83.0305C83.175 31.6272 83.2921 31.5101 83.2921 31.3656V29.8422C83.2921 23.4589 78.1174 18.2842 71.7341 18.2842H70.5941C65.4151 18.2842 60.9043 21.8173 59.6636 26.8454V26.8454" stroke="#1727FF" stroke-width="1.8"/>
<circle cx="71.4777" cy="10.9948" r="5.37209" stroke="#1727FF" stroke-width="1.8"/>
<path d="M37.5968 31.6272H18.7049C18.5604 31.6272 18.4433 31.5101 18.4433 31.3656V29.8422C18.4433 23.4589 23.618 18.2842 30.0013 18.2842H31.1413C36.3202 18.2842 40.8311 21.8173 42.0718 26.8454V26.8454" stroke="#1727FF" stroke-width="1.8"/>
<circle cx="6.27209" cy="6.27209" r="5.37209" transform="matrix(-1 0 0 1 36.5298 4.72266)" stroke="#1727FF" stroke-width="1.8"/>
<path fill-rule="evenodd" clip-rule="evenodd" d="M55.6421 82.5657C55.6421 73.4488 63.0328 66.0581 72.1497 66.0581C81.2666 66.0581 88.6573 73.4488 88.6573 82.5657C88.6573 91.6826 81.2666 99.0733 72.1497 99.0733C63.0328 99.0733 55.6421 91.6826 55.6421 82.5657Z" stroke="#1727FF" stroke-width="1.8" stroke-linecap="round" stroke-linejoin="round"/>
<path d="M76.1842 79.2746H78.1713C78.1713 76.4558 75.434 75.1702 73.2035 74.8741V72.8164H71.2163V74.8741C68.9858 75.1702 66.2485 76.4558 66.2485 79.2746C66.2485 81.9631 68.8974 83.3611 71.2163 83.676V88.614C69.7777 88.3647 68.2357 87.5966 68.2357 86.2295H66.2485C66.2485 88.8018 68.6579 90.322 71.2163 90.6369V92.6876H73.2035V90.631C75.434 90.3349 78.1713 89.0482 78.1713 86.2295C78.1713 83.4108 75.434 82.1251 73.2035 81.829V76.89C74.5249 77.1275 76.1842 77.825 76.1842 79.2746ZM68.2357 79.2746C68.2357 77.825 69.8949 77.1275 71.2163 76.89V81.6581C69.8542 81.4067 68.2357 80.6626 68.2357 79.2746ZM76.1842 86.2295C76.1842 87.6791 74.5249 88.3766 73.2035 88.614V83.8449C74.5249 84.0824 76.1842 84.7799 76.1842 86.2295Z" fill="#1727FF"/>
<path d="M56.0759 89.8527L46.8767 95.4109V78.5451L13.3369 56.1214V45.5806H89.6159V56.1214L75.8167 66.2791" stroke="#1727FF" stroke-width="1.8" stroke-linecap="round" stroke-linejoin="round"/>
<path d="M36.2628 50.6584C36.2653 50.1613 35.8644 49.7563 35.3674 49.7538C34.8703 49.7513 34.4653 50.1522 34.4628 50.6492L35.3628 50.6538L36.2628 50.6584ZM34.6687 62.0246C35.0184 62.3778 35.5882 62.3807 35.9415 62.031L41.698 56.3326C42.0513 55.9829 42.0542 55.4131 41.7045 55.0598C41.3548 54.7066 40.785 54.7037 40.4317 55.0534L35.3148 60.1186L30.2495 55.0017C29.8998 54.6484 29.33 54.6456 28.9767 54.9952C28.6235 55.3449 28.6206 55.9148 28.9703 56.268L34.6687 62.0246ZM35.3628 50.6538L34.4628 50.6492L34.4083 61.3868L35.3083 61.3914L36.2083 61.396L36.2628 50.6584L35.3628 50.6538Z" fill="#1727FF"/>
<path d="M68.0816 50.6584C68.0842 50.1613 67.6833 49.7563 67.1862 49.7538C66.6892 49.7513 66.2842 50.1522 66.2817 50.6492L67.1816 50.6538L68.0816 50.6584ZM66.4875 62.0246C66.8372 62.3778 67.4071 62.3807 67.7603 62.031L73.5169 56.3326C73.8701 55.9829 73.873 55.4131 73.5233 55.0598C73.1736 54.7066 72.6038 54.7037 72.2505 55.0534L67.1336 60.1186L62.0683 55.0017C61.7187 54.6484 61.1488 54.6456 60.7956 54.9952C60.4423 55.3449 60.4394 55.9148 60.7891 56.268L66.4875 62.0246ZM67.1816 50.6538L66.2817 50.6492L66.2272 61.3868L67.1272 61.3914L68.0271 61.396L68.0816 50.6584L67.1816 50.6538Z" fill="#1727FF"/>
<path d="M52.4298 50.6565C52.4312 50.1594 52.0295 49.7553 51.5324 49.7538C51.0354 49.7524 50.6312 50.1541 50.6298 50.6512L51.5298 50.6538L52.4298 50.6565ZM50.8376 69.6469C51.1881 69.9994 51.7579 70.0011 52.1104 69.6507L57.8548 63.9399C58.2073 63.5895 58.2089 63.0197 57.8585 62.6672C57.5081 62.3147 56.9382 62.313 56.5857 62.6634L51.4796 67.7396L46.4034 62.6335C46.053 62.281 45.4831 62.2793 45.1306 62.6298C44.7781 62.9802 44.7765 63.5501 45.1269 63.9026L50.8376 69.6469ZM51.5298 50.6538L50.6298 50.6512L50.5759 69.0098L51.4759 69.0124L52.3759 69.015L52.4298 50.6565L51.5298 50.6538Z" fill="#1727FF"/>
</svg>
