<svg width="105" height="111" viewBox="0 0 105 111" fill="none" xmlns="http://www.w3.org/2000/svg">
<path d="M43.0791 23.0415C43.9676 23.0413 44.8289 23.3564 45.5172 23.9335C46.2055 24.5105 46.6785 25.3141 46.8562 26.2082H57.7249V10.3748H40.7666C39.9489 10.3748 39.1646 10.7085 38.5864 11.3023C38.0081 11.8962 37.6833 12.7017 37.6833 13.5415V26.2082H39.302C39.4797 25.3141 39.9527 24.5105 40.641 23.9335C41.3293 23.3564 42.1906 23.0413 43.0791 23.0415ZM43.0791 30.9582C42.1906 30.9584 41.3293 30.6433 40.641 30.0662C39.9527 29.4892 39.4797 28.6856 39.302 27.7915H36.1416V13.5415C36.1416 12.2817 36.6289 11.0735 37.4962 10.1827C38.3636 9.29195 39.54 8.7915 40.7666 8.7915H57.7249C58.1338 8.7915 58.5259 8.95832 58.8151 9.25525C59.1042 9.55218 59.2666 9.95491 59.2666 10.3748V13.5415H63.8916L68.5166 19.8748V27.7915H65.3562C65.1793 28.6863 64.7066 29.4908 64.0182 30.0686C63.3299 30.6465 62.4681 30.9621 61.5791 30.9621C60.6901 30.9621 59.8283 30.6465 59.14 30.0686C58.4516 29.4908 57.9789 28.6863 57.802 27.7915H46.8562C46.6785 28.6856 46.2055 29.4892 45.5172 30.0662C44.8289 30.6433 43.9676 30.9584 43.0791 30.9582ZM43.0791 24.6248C42.4658 24.6248 41.8776 24.8751 41.4439 25.3205C41.0102 25.7659 40.7666 26.3699 40.7666 26.9998C40.7666 27.6297 41.0102 28.2338 41.4439 28.6792C41.8776 29.1246 42.4658 29.3748 43.0791 29.3748C43.6924 29.3748 44.2806 29.1246 44.7143 28.6792C45.148 28.2338 45.3916 27.6297 45.3916 26.9998C45.3916 26.3699 45.148 25.7659 44.7143 25.3205C44.2806 24.8751 43.6924 24.6248 43.0791 24.6248ZM61.5791 23.0415C62.4676 23.0413 63.3289 23.3564 64.0172 23.9335C64.7055 24.5105 65.1785 25.3141 65.3562 26.2082H66.9749V20.3815L66.6049 19.8748H59.2666V23.8332C59.9141 23.3423 60.7158 23.0415 61.5791 23.0415ZM61.5791 24.6248C60.9658 24.6248 60.3776 24.8751 59.9439 25.3205C59.5102 25.7659 59.2666 26.3699 59.2666 26.9998C59.2666 27.6297 59.5102 28.2338 59.9439 28.6792C60.3776 29.1246 60.9658 29.3748 61.5791 29.3748C62.1924 29.3748 62.7806 29.1246 63.2143 28.6792C63.648 28.2338 63.8916 27.6297 63.8916 26.9998C63.8916 26.3699 63.648 25.7659 63.2143 25.3205C62.7806 24.8751 62.1924 24.6248 61.5791 24.6248ZM59.2666 15.1248V18.2915H65.4333L63.1208 15.1248H59.2666Z" fill="#1727FF"/>
<circle cx="53.0409" cy="58.475" r="22.3153" stroke="#2837FF" stroke-width="1.5"/>
<path d="M53.041 36.1597C55.7672 36.1599 58.4399 38.4038 60.4756 42.4995C62.4884 46.5493 63.7549 52.1965 63.7549 58.4751C63.7549 64.7537 62.4884 70.4009 60.4756 74.4507C58.4399 78.5464 55.7672 80.7903 53.041 80.7905C50.3147 80.7905 47.6413 78.5466 45.6055 74.4507C43.5926 70.4009 42.3262 64.7537 42.3262 58.4751C42.3262 52.1965 43.5927 46.5493 45.6055 42.4995C47.6413 38.4036 50.3147 36.1597 53.041 36.1597Z" stroke="#2837FF" stroke-width="1.5"/>
<path d="M53.041 36.1597C55.7672 36.1599 58.4399 38.4038 60.4756 42.4995C62.4884 46.5493 63.7549 52.1965 63.7549 58.4751C63.7549 64.7537 62.4884 70.4009 60.4756 74.4507C58.4399 78.5464 55.7672 80.7903 53.041 80.7905C50.3147 80.7905 47.6413 78.5466 45.6055 74.4507C43.5926 70.4009 42.3262 64.7537 42.3262 58.4751C42.3262 52.1965 43.5927 46.5493 45.6055 42.4995C47.6413 38.4036 50.3147 36.1597 53.041 36.1597Z" stroke="#2837FF" stroke-width="1.5"/>
<path d="M75.4746 58.4746C75.4746 59.1353 75.0498 59.8997 73.9629 60.7119C72.8895 61.5139 71.2885 62.2676 69.2432 62.9141C65.1605 64.2045 59.4735 65.0146 53.1592 65.0146C46.845 65.0146 41.1588 64.2044 37.0762 62.9141C35.0305 62.2675 33.4289 61.514 32.3555 60.7119C31.2686 59.8997 30.8437 59.1353 30.8437 58.4746C30.8438 57.814 31.2688 57.0504 32.3555 56.2383C33.4289 55.4361 35.0304 54.6817 37.0762 54.0352C41.1588 52.7448 46.8451 51.9346 53.1592 51.9346C59.4735 51.9346 65.1605 52.7448 69.2432 54.0352C71.2887 54.6817 72.8895 55.4362 73.9629 56.2383C75.0497 57.0504 75.4746 57.814 75.4746 58.4746Z" stroke="#2837FF" stroke-width="1.5"/>
<path d="M75.4746 58.4751C75.4746 62.6337 73.0734 66.4742 69.0381 69.3062C65.0048 72.1365 59.3931 73.9116 53.1592 73.9116C46.9253 73.9116 41.3135 72.1365 37.2803 69.3062C33.245 66.4742 30.8438 62.6336 30.8437 58.4751C30.8437 54.3164 33.2448 50.475 37.2803 47.6431C41.3135 44.8127 46.9253 43.0386 53.1592 43.0386C59.393 43.0386 65.0048 44.8127 69.0381 47.6431C73.0736 50.475 75.4746 54.3164 75.4746 58.4751Z" stroke="#2837FF" stroke-width="1.5"/>
<path d="M16.4998 93.8749L27.2638 87.7082M16.4998 93.8749V106.208M16.4998 93.8749L11.1172 90.7922M27.2638 87.7082C26.8903 87.067 26.3546 86.5354 25.7105 86.1669L22.1665 84.1362M27.2638 87.7082C27.6305 88.3375 27.8332 89.0615 27.8332 89.8149V97.9349C27.8328 98.6762 27.6362 99.4041 27.2634 100.045C26.8905 100.686 26.3548 101.216 25.7105 101.583L18.6225 105.644C17.9763 106.014 17.2445 106.209 16.4998 106.208M16.4998 106.208C15.7552 106.209 15.0234 106.014 14.3772 105.644L7.28917 101.583C5.97584 100.831 5.1665 99.4415 5.1665 97.9349V89.8149C5.16631 89.0748 5.3623 88.3479 5.7345 87.7082M11.1172 90.7922L5.7345 87.7082M11.1172 90.7922L22.1665 84.1362M22.1665 84.1362L18.6225 82.1055C17.9764 81.735 17.2446 81.54 16.4998 81.54C15.7551 81.54 15.0232 81.735 14.3772 82.1055L7.28917 86.1669C6.64458 86.5352 6.10837 87.0668 5.7345 87.7082" stroke="#1727FF" stroke-width="1.5" stroke-linejoin="round"/>
<path d="M90.4531 91.8442C96.0941 91.8442 100.667 96.4171 100.667 102.058V105.68C100.667 105.937 100.459 106.145 100.202 106.145H80.7051C80.4482 106.145 80.2395 105.937 80.2393 105.68V102.058C80.2393 96.4172 84.8122 91.8443 90.4531 91.8442Z" stroke="#2837FF" stroke-width="1.5"/>
<circle cx="90.4535" cy="83.6956" r="5.07064" stroke="#2837FF" stroke-width="1.5"/>
<path d="M30.3627 22.6196C18.5366 30.2624 10.709 43.5626 10.709 58.6911C10.709 64.3062 11.7873 69.6695 13.7483 74.5851M35.8745 97.7766C41.2845 100.238 47.2954 101.609 53.6265 101.609C61.8013 101.609 69.4423 99.323 75.9453 95.356M94.9739 70.2339C95.997 66.5612 96.5439 62.69 96.5439 58.6911C96.5439 43.5626 88.7163 30.2624 76.8902 22.6196" stroke="#1727FF" stroke-width="1.5"/>
</svg>
