<svg width="104" height="104" viewBox="0 0 104 104" fill="none" xmlns="http://www.w3.org/2000/svg">
<circle cx="51.5994" cy="6.63652" r="5.73623" stroke="#1727FF" stroke-width="1.2"/>
<circle cx="51.6006" cy="6.63623" r="2.50108" fill="#1727FF" stroke="#1727FF" stroke-width="1.2"/>
<circle cx="51.5994" cy="96.5638" r="5.73623" stroke="#1727FF" stroke-width="1.2"/>
<circle cx="51.6006" cy="96.5635" r="2.50108" fill="#1727FF" stroke="#1727FF" stroke-width="1.2"/>
<circle cx="83.408" cy="20.0145" r="5.73623" stroke="#1727FF" stroke-width="1.2"/>
<circle cx="83.4087" cy="20.0142" r="2.50108" fill="#1727FF" stroke="#1727FF" stroke-width="1.2"/>
<circle cx="96.0794" cy="51.5999" r="5.73623" stroke="#1727FF" stroke-width="1.2"/>
<circle cx="96.0806" cy="51.5996" r="2.50108" fill="#1727FF" stroke="#1727FF" stroke-width="1.2"/>
<circle cx="7.11797" cy="51.5999" r="5.73623" stroke="#1727FF" stroke-width="1.2"/>
<circle cx="7.11914" cy="51.5996" r="2.50108" fill="#1727FF" stroke="#1727FF" stroke-width="1.2"/>
<circle cx="19.7898" cy="20.0145" r="5.73623" stroke="#1727FF" stroke-width="1.2"/>
<circle cx="19.791" cy="20.0142" r="2.50108" fill="#1727FF" stroke="#1727FF" stroke-width="1.2"/>
<circle cx="83.408" cy="83.1761" r="5.73623" stroke="#1727FF" stroke-width="1.2"/>
<circle cx="83.4087" cy="83.1758" r="2.50108" fill="#1727FF" stroke="#1727FF" stroke-width="1.2"/>
<circle cx="19.7898" cy="83.1761" r="5.73623" stroke="#1727FF" stroke-width="1.2"/>
<circle cx="19.791" cy="83.1758" r="2.50108" fill="#1727FF" stroke="#1727FF" stroke-width="1.2"/>
<circle cx="51.4489" cy="51.4498" r="28.6549" stroke="#1727FF" stroke-width="1.68457"/>
<path d="M51.4487 22.7944C55.0038 22.7944 58.4524 25.717 61.062 30.9673C63.6457 36.1657 65.268 43.4062 65.2681 51.4497C65.2681 59.4932 63.6457 66.7337 61.062 71.9321C58.4524 77.1824 55.0038 80.105 51.4487 80.105C47.8937 80.1049 44.446 77.1823 41.8364 71.9321C39.2527 66.7337 37.6294 59.4933 37.6294 51.4497C37.6294 43.4061 39.2526 36.1657 41.8364 30.9673C44.446 25.7171 47.8937 22.7945 51.4487 22.7944Z" stroke="#1727FF" stroke-width="1.68457"/>
<path d="M51.4487 22.7944C55.0038 22.7944 58.4524 25.717 61.062 30.9673C63.6457 36.1657 65.268 43.4062 65.2681 51.4497C65.2681 59.4932 63.6457 66.7337 61.062 71.9321C58.4524 77.1824 55.0038 80.105 51.4487 80.105C47.8937 80.1049 44.446 77.1823 41.8364 71.9321C39.2527 66.7337 37.6294 59.4933 37.6294 51.4497C37.6294 43.4061 39.2526 36.1657 41.8364 30.9673C44.446 25.7171 47.8937 22.7945 51.4487 22.7944Z" stroke="#1727FF" stroke-width="1.68457"/>
<path d="M80.2554 51.4497C80.2553 52.3485 79.6773 53.3558 78.2749 54.4038C76.8875 55.4405 74.8262 56.4099 72.2036 57.2388C66.9682 58.8935 59.6837 59.9302 51.6001 59.9302C43.5166 59.9302 36.232 58.8934 30.9966 57.2388C28.3741 56.4099 26.3127 55.4405 24.9253 54.4038C23.5229 53.3558 22.9449 52.3485 22.9448 51.4497C22.9448 50.5509 23.5228 49.5436 24.9253 48.4956C26.3127 47.4589 28.374 46.4896 30.9966 45.6606C36.232 44.006 43.5165 42.9683 51.6001 42.9683C59.6837 42.9683 66.9682 44.0059 72.2036 45.6606C74.8262 46.4896 76.8875 47.4589 78.2749 48.4956C79.6773 49.5436 80.2554 50.5509 80.2554 51.4497Z" stroke="#1727FF" stroke-width="1.68457"/>
</svg>
