<svg width="113" height="107" viewBox="0 0 113 107" fill="none" xmlns="http://www.w3.org/2000/svg">
<path d="M82.4761 29.6092V20.7045C82.4761 15.4026 78.178 11.1045 72.8761 11.1045H14.9726C9.67063 11.1045 5.37256 15.4026 5.37256 20.7045V93.8195C5.37256 99.1215 9.67062 103.42 14.9726 103.42H72.8761C78.178 103.42 82.4761 99.1215 82.4761 93.8195V79.9022" stroke="#1727FF" stroke-width="1.8"/>
<path d="M82.4761 29.6092V20.7045C82.4761 15.4026 78.178 11.1045 72.8761 11.1045H14.9726C9.67063 11.1045 5.37256 15.4026 5.37256 20.7045V93.8195C5.37256 99.1215 9.67062 103.42 14.9726 103.42H72.8761C78.178 103.42 82.4761 99.1215 82.4761 93.8195V79.9022" stroke="#1727FF" stroke-width="1.8"/>
<path d="M77.4871 28.6259L77.487 21.1251C77.4869 18.4742 75.3379 16.3252 72.687 16.3252H15.1623C12.5113 16.3252 10.3623 18.4742 10.3623 21.1252V93.3989C10.3623 96.0498 12.5113 98.1989 15.1623 98.1989H72.6869C75.3379 98.1989 77.4869 96.0499 77.4869 93.3989L77.487 80.6488" stroke="#1727FF" stroke-width="1.2"/>
<rect x="20.3233" y="27.9039" width="17.7363" height="6.48809" rx="3.24404" stroke="#1727FF" stroke-width="1.8"/>
<rect x="20.3233" y="42.3038" width="17.7363" height="6.48809" rx="3.24404" stroke="#1727FF" stroke-width="1.8"/>
<rect x="20.3233" y="56.7037" width="17.7363" height="6.48809" rx="3.24404" stroke="#1727FF" stroke-width="1.8"/>
<rect x="20.3233" y="71.1036" width="17.7363" height="6.48809" rx="3.24404" stroke="#1727FF" stroke-width="1.8"/>
<path d="M43.4346 2.74219H44.4141C49.0318 2.74219 52.829 6.25413 53.2803 10.7529H34.5684C35.0196 6.25412 38.8169 2.74219 43.4346 2.74219Z" stroke="#1727FF" stroke-width="1.8"/>
<path d="M43.6421 6.60303H44.2065C46.7929 6.60303 48.9236 8.54767 49.2202 11.0542H38.6284C38.9251 8.54768 41.0558 6.60308 43.6421 6.60303Z" stroke="#1727FF" stroke-width="1.2"/>
<path d="M61.3916 60.023L64.285 50.2917L72.1754 65.2831L79.2765 45.0317L85.5887 60.023L88.7447 50.2917" stroke="#1727FF" stroke-width="1.2" stroke-linecap="round" stroke-linejoin="round"/>
<circle cx="75.0688" cy="54.3433" r="21.2851" stroke="#1727FF" stroke-width="1.8"/>
<circle cx="75.0686" cy="54.3431" r="25.2316" stroke="#1727FF" stroke-width="1.8"/>
<rect x="37.3856" y="87.6841" width="23.9762" height="5.97291" rx="2.98646" transform="rotate(-43.4178 37.3856 87.6841)" stroke="#1727FF" stroke-width="1.8"/>
</svg>
