<svg width="83" height="84" viewBox="0 0 83 84" fill="none" xmlns="http://www.w3.org/2000/svg">
<path d="M28.4668 25.9341C31.5963 25.9341 34.5976 27.1773 36.8105 29.3902C39.0234 31.6031 40.2666 34.6044 40.2666 37.7339C40.2666 40.8634 39.0234 43.8647 36.8105 46.0776C34.5976 48.2905 31.5963 49.5337 28.4668 49.5337C25.3373 49.5337 22.336 48.2905 20.1231 46.0776C17.9102 43.8647 16.667 40.8634 16.667 37.7339C16.667 34.6044 17.9102 31.6031 20.1231 29.3902C22.336 27.1773 25.3373 25.9341 28.4668 25.9341Z" stroke="#1727FF" stroke-width="1.23901"/>
<path d="M28.466 29.7179C30.5919 29.7179 32.6308 30.5624 34.134 32.0657C35.6373 33.5689 36.4818 35.6078 36.4818 37.7337C36.4818 39.8596 35.6373 41.8985 34.134 43.4017C32.6308 44.905 30.5919 45.7495 28.466 45.7495C26.3401 45.7495 24.3012 44.905 22.798 43.4017C21.2947 41.8985 20.4502 39.8596 20.4502 37.7337C20.4502 35.6078 21.2947 33.5689 22.798 32.0657C24.3012 30.5624 26.3401 29.7179 28.466 29.7179Z" fill="#1727FF" stroke="#1727FF" stroke-width="0.841678"/>
<path d="M50.1013 31.8551C51.1084 35.5802 51.1342 39.5026 50.1761 43.2406C48.8556 43.0461 47.5072 43.2501 46.3033 43.8263C45.0994 44.4026 44.0948 45.3249 43.4181 46.4753C42.7413 47.6257 42.4232 48.9519 42.5045 50.2841C42.5858 51.6163 43.0627 52.894 43.8742 53.9537C42.7737 54.9915 41.5707 55.915 40.2837 56.7099C38.2973 57.9394 36.1929 58.8213 34.0421 59.3691L33.9927 59.2893C33.3931 58.3199 32.5563 57.5193 31.5613 56.9631C30.5663 56.4069 29.446 56.1135 28.3061 56.1106C27.1662 56.1077 26.0444 56.3953 25.0466 56.9464C24.0488 57.4974 23.2078 58.2937 22.6033 59.26C19.1494 58.3147 15.9732 56.5536 13.3419 54.1248C13.9839 53.067 14.3207 51.8522 14.3151 50.6149C14.3096 49.3775 13.9618 48.1659 13.3103 47.1139C12.6593 46.0616 11.7299 45.21 10.6249 44.6531C9.51992 44.0963 8.28243 43.856 7.04935 43.9588C6.04902 40.5205 5.88925 36.8923 6.58349 33.3793C7.72605 33.2685 8.82104 32.8663 9.76366 32.2112C10.7063 31.556 11.465 30.6699 11.9671 29.6376C12.4692 28.6054 12.698 27.4615 12.6315 26.3155C12.565 25.1695 12.2055 24.0597 11.5874 23.0924C13.0747 21.3715 14.8161 19.8875 16.7512 18.692C18.0628 17.8801 19.4264 17.2201 20.8203 16.7069C21.4068 17.9059 22.3377 18.9025 23.4939 19.5694C24.65 20.2363 25.9789 20.543 27.3103 20.4504C28.6418 20.3578 29.9154 19.87 30.9681 19.0494C32.0207 18.2289 32.8046 17.1129 33.2195 15.8443C36.9922 16.6542 40.491 18.4268 43.3757 20.9896C42.4535 22.0711 41.8985 23.4174 41.7907 24.8346C41.683 26.2518 42.028 27.6666 42.776 28.8751C43.524 30.0836 44.6365 31.0233 45.953 31.5589C47.2695 32.0945 48.722 32.1982 50.1013 31.8551Z" stroke="#1727FF" stroke-width="1.23901" stroke-linejoin="round"/>
<path d="M59.8587 61.3615L52.4028 53.9056L43.7314 53.9056M59.8587 61.3615C59.2489 61.9713 58.9063 62.7984 58.9063 63.6609C58.9063 64.5233 59.2489 65.3504 59.8587 65.9602C60.4686 66.57 61.2956 66.9126 62.1581 66.9126C63.0205 66.9126 63.8476 66.57 64.4574 65.9602C65.0672 65.3504 65.4098 64.5233 65.4098 63.6609C65.4098 62.7984 65.0672 61.9713 64.4574 61.3615C63.8476 60.7517 63.0205 60.4091 62.1581 60.4091C61.2956 60.4091 60.4686 60.7517 59.8587 61.3615ZM69.4197 54.6096L61.9637 47.1537L43.8009 47.1537M69.4197 54.6096C68.8098 55.2195 68.4673 56.0466 68.4673 56.909C68.4673 57.7714 68.8098 58.5985 69.4197 59.2083C70.0295 59.8182 70.8566 60.1608 71.719 60.1608C72.5814 60.1608 73.4085 59.8182 74.0183 59.2083C74.6282 58.5985 74.9708 57.7714 74.9708 56.909C74.9708 56.0466 74.6282 55.2195 74.0183 54.6096C73.4085 53.9998 72.5814 53.6572 71.719 53.6572C70.8566 53.6572 70.0295 53.9998 69.4197 54.6096ZM69.9636 37.1537L51.8008 37.1537M70.4671 36.909C70.4671 36.0466 70.8097 35.2195 71.4195 34.6096C72.0294 33.9998 72.8565 33.6572 73.7189 33.6572C74.5813 33.6572 75.4084 33.9998 76.0182 34.6096C76.628 35.2195 76.9706 36.0466 76.9706 36.909C76.9706 37.7714 76.628 38.5985 76.0182 39.2083C75.4084 39.8182 74.5813 40.1608 73.7189 40.1608C72.8565 40.1608 72.0294 39.8182 71.4195 39.2083C70.8097 38.5985 70.4671 37.7714 70.4671 36.909Z" stroke="#2837FF" stroke-width="1.5" stroke-linecap="round" stroke-linejoin="round"/>
<path d="M59.8587 13.8029L52.4028 21.2589L43.7314 21.2589M59.8587 13.8029C59.2489 13.1931 58.9063 12.366 58.9063 11.5036C58.9063 10.6412 59.2489 9.81409 59.8587 9.20427C60.4686 8.59445 61.2956 8.25185 62.1581 8.25185C63.0205 8.25185 63.8476 8.59444 64.4574 9.20427C65.0672 9.81409 65.4098 10.6412 65.4098 11.5036C65.4098 12.366 65.0672 13.1931 64.4574 13.8029C63.8476 14.4128 63.0205 14.7554 62.1581 14.7554C61.2956 14.7554 60.4686 14.4128 59.8587 13.8029ZM69.4197 20.5548L61.9637 28.0107L43.8009 28.0107M69.4197 20.5548C68.8098 19.945 68.4673 19.1179 68.4672 18.2555C68.4672 17.393 68.8098 16.5659 69.4197 15.9561C70.0295 15.3463 70.8566 15.0037 71.719 15.0037C72.5814 15.0037 73.4085 15.3463 74.0183 15.9561C74.6282 16.5659 74.9708 17.393 74.9708 18.2555C74.9708 19.1179 74.6282 19.945 74.0183 20.5548C73.4085 21.1646 72.5814 21.5072 71.719 21.5072C70.8566 21.5072 70.0295 21.1646 69.4197 20.5548Z" stroke="#2837FF" stroke-width="1.5" stroke-linecap="round" stroke-linejoin="round"/>
</svg>
