<svg width="83" height="84" viewBox="0 0 83 84" fill="none" xmlns="http://www.w3.org/2000/svg">
<path d="M40.9941 19.6357C47.541 19.6359 52.8486 24.9433 52.8486 31.4902V32.2402H29.1396V31.4902C29.1396 24.9432 34.4471 19.6357 40.9941 19.6357Z" stroke="#2837FF" stroke-width="1.8"/>
<circle cx="40.9939" cy="10.866" r="5.87124" stroke="#2837FF" stroke-width="1.8"/>
<path d="M51.3511 25.663H66.4962C66.612 25.663 66.7059 25.5691 66.7059 25.4533V24.232C66.7059 19.1147 62.5575 14.9663 57.4402 14.9663H56.5263C52.3745 14.9663 48.7583 17.7987 47.7637 21.8296V21.8296" stroke="#2837FF" stroke-width="1.8"/>
<circle cx="57.2342" cy="9.12287" r="4.12814" stroke="#2837FF" stroke-width="1.8"/>
<path d="M30.0747 25.663H14.9296C14.8138 25.663 14.7199 25.5691 14.7199 25.4533V24.232C14.7199 19.1147 18.8683 14.9663 23.9856 14.9663H24.8995C29.0513 14.9663 32.6675 17.7987 33.6621 21.8296V21.8296" stroke="#2837FF" stroke-width="1.8"/>
<circle cx="5.02814" cy="5.02814" r="4.12814" transform="matrix(-1 0 0 1 29.2197 4.09473)" stroke="#2837FF" stroke-width="1.8"/>
<path d="M37.5128 76.796L44.8875 72.3402V63.2753L71.7754 45.2989V36.8486H10.625V45.2989L37.5128 63.2753V76.796Z" stroke="#2837FF" stroke-width="1.8" stroke-linecap="round" stroke-linejoin="round"/>
<path d="M29.1832 41.9369C29.1859 41.4398 28.7852 41.035 28.2881 41.0326C27.7911 41.0303 27.3859 41.4313 27.3832 41.9284L28.2832 41.9326L29.1832 41.9369ZM27.5997 50.5793C27.9492 50.9325 28.5191 50.9351 28.8724 50.5853L34.6312 44.8849C34.9845 44.5351 34.9877 43.9653 34.6381 43.6121C34.2885 43.259 33.7187 43.2563 33.3653 43.6061L28.2465 48.6732L23.1831 43.558C22.8335 43.2049 22.2637 43.2022 21.9103 43.552C21.5569 43.9018 21.5538 44.4717 21.9034 44.8248L27.5997 50.5793ZM28.2832 41.9326L27.3832 41.9284L27.3395 49.9417L28.2395 49.9459L29.1395 49.9502L29.1832 41.9369L28.2832 41.9326Z" fill="#2837FF"/>
<path d="M54.691 41.9369C54.6937 41.4398 54.293 41.035 53.7959 41.0326C53.2989 41.0303 52.8937 41.4313 52.891 41.9284L53.791 41.9326L54.691 41.9369ZM53.1075 50.5793C53.457 50.9325 54.0269 50.9351 54.3803 50.5853L60.139 44.8849C60.4924 44.5351 60.4955 43.9653 60.1459 43.6121C59.7964 43.259 59.2265 43.2563 58.8731 43.6061L53.7543 48.6732L48.6909 43.558C48.3414 43.2049 47.7715 43.2022 47.4181 43.552C47.0647 43.9018 47.0616 44.4717 47.4112 44.8248L53.1075 50.5793ZM53.791 41.9326L52.891 41.9284L52.8473 49.9417L53.7473 49.9459L54.6473 49.9502L54.691 41.9369L53.791 41.9326Z" fill="#2837FF"/>
<path d="M42.1441 41.9351C42.1457 41.438 41.744 41.034 41.247 41.0326C40.7499 41.0313 40.3457 41.4331 40.3441 41.9302L41.2441 41.9326L42.1441 41.9351ZM40.5625 56.2681C40.9129 56.6205 41.4827 56.622 41.8353 56.2715L47.5809 50.5597C47.9335 50.2091 47.9353 49.6393 47.5849 49.2869C47.2346 48.9344 46.6647 48.9329 46.3121 49.2834L41.2049 54.3606L36.1298 49.2556C35.7795 48.9031 35.2096 48.9016 34.8571 49.2521C34.5045 49.6026 34.5027 50.1724 34.853 50.5249L40.5625 56.2681ZM41.2441 41.9326L40.3441 41.9302L40.3009 55.6309L41.2009 55.6334L42.1009 55.6359L42.1441 41.9351L41.2441 41.9326Z" fill="#2837FF"/>
</svg>
