<svg width="84" height="84" viewBox="0 0 84 84" fill="none" xmlns="http://www.w3.org/2000/svg">
<path d="M64.4971 4.04443C67.1613 4.04459 69.322 6.20443 69.3223 8.86865L69.3154 9.11768C69.186 11.6665 67.078 13.6937 64.4971 13.6938L64.249 13.687C61.9792 13.5719 60.1245 11.8878 59.7451 9.69775H54.4834V25.6997C54.4834 26.0311 54.2152 26.3003 53.8838 26.3003C53.5526 26.3 53.2842 26.0309 53.2842 25.6997V9.09814C53.2842 8.76696 53.5527 8.49879 53.8838 8.49854H59.6875C59.8768 6.00729 61.9574 4.04459 64.4971 4.04443ZM64.4971 5.24463C62.4956 5.2448 60.8733 6.86718 60.873 8.86865C60.873 10.8703 62.4954 12.4935 64.4971 12.4937C66.4987 12.4935 68.1221 10.8703 68.1221 8.86865C68.1218 6.86717 66.4986 5.24478 64.4971 5.24463ZM64.543 6.15283C66.0077 6.15309 67.1951 7.34041 67.1953 8.80518C67.1953 10.2702 66.0079 11.4582 64.543 11.4585C63.0778 11.4585 61.8896 10.2703 61.8896 8.80518C61.8899 7.34025 63.078 6.15283 64.543 6.15283Z" fill="#2837FF"/>
<path d="M64.4971 78.3076C67.1613 78.3075 69.3221 76.1477 69.3223 73.4834L69.3154 73.2344C69.1859 70.6856 67.078 68.6584 64.4971 68.6582L64.249 68.665C61.9796 68.7801 60.125 70.4639 59.7451 72.6533H54.4834V56.6514C54.4832 56.3202 54.215 56.0508 53.8838 56.0508C53.5528 56.051 53.2844 56.3203 53.2842 56.6514V73.2529C53.2842 73.5841 53.5526 73.8523 53.8838 73.8525H59.6875C59.8761 76.3444 61.957 78.3075 64.4971 78.3076ZM64.4971 77.1074C62.4955 77.1073 60.8732 75.4849 60.873 73.4834C60.8731 71.4818 62.4955 69.8586 64.4971 69.8584C66.4987 69.8586 68.122 71.4818 68.1221 73.4834C68.1219 75.4849 66.4986 77.1073 64.4971 77.1074ZM64.543 76.1895C66.0078 76.1892 67.1952 75.0019 67.1953 73.5371C67.1953 72.0721 66.0079 70.8841 64.543 70.8838C63.0778 70.8838 61.8896 72.072 61.8896 73.5371C61.8898 75.0021 63.0779 76.1895 64.543 76.1895Z" fill="#2837FF"/>
<path d="M18.0684 4.04443C15.404 4.04447 13.2434 6.20436 13.2432 8.86865L13.25 9.11768C13.3794 11.6666 15.4873 13.6938 18.0684 13.6938L18.3164 13.687C20.5863 13.5719 22.4409 11.8878 22.8203 9.69775H28.083V25.6997C28.083 26.0311 28.3512 26.3003 28.6826 26.3003C29.014 26.3003 29.2822 26.0311 29.2822 25.6997V9.09814C29.2822 8.76682 29.0139 8.49857 28.6826 8.49854H22.8779C22.6887 6.00728 20.608 4.04459 18.0684 4.04443ZM18.0684 5.24463C20.0698 5.2448 21.6922 6.86718 21.6924 8.86865C21.6924 10.8703 20.07 12.4935 18.0684 12.4937C16.0666 12.4936 14.4434 10.8704 14.4434 8.86865C14.4436 6.8671 16.0668 5.24467 18.0684 5.24463ZM18.0693 6.21631C16.6044 6.21638 15.4171 7.40369 15.417 8.86865C15.417 10.3337 16.6043 11.5219 18.0693 11.522C19.5345 11.522 20.7227 10.3338 20.7227 8.86865C20.7225 7.40364 19.5344 6.21631 18.0693 6.21631Z" fill="#2837FF"/>
<path d="M46.4639 4.99219C46.4639 2.32778 44.304 0.16716 41.6396 0.166992L41.3906 0.173828C38.8418 0.303354 36.8145 2.41116 36.8145 4.99219L36.8213 5.24023C36.9364 7.51001 38.6206 9.36467 40.8105 9.74414L40.8105 26.6055C40.8105 26.9368 41.0789 27.205 41.4102 27.2051C41.7415 27.2051 42.0098 26.9368 42.0098 26.6055L42.0098 9.80078C44.5011 9.61164 46.4637 7.53194 46.4639 4.99219ZM45.2637 4.99219C45.2635 6.99371 43.6412 8.61604 41.6396 8.61621C39.6381 8.61612 38.0148 6.99376 38.0146 4.99219C38.0147 2.99048 39.638 1.36728 41.6396 1.36719C43.6413 1.36736 45.2637 2.99053 45.2637 4.99219ZM44.293 4.99316C44.293 3.52803 43.1048 2.33984 41.6396 2.33984C40.1747 2.34006 38.9873 3.52816 38.9873 4.99316C38.9875 6.45802 40.1748 7.64529 41.6396 7.64551C43.1047 7.64551 44.2928 6.45815 44.293 4.99316Z" fill="#2837FF"/>
<path d="M7.30859 36.959C4.64418 36.959 2.48357 39.1188 2.4834 41.7832L2.49023 42.0322C2.61972 44.5811 4.72753 46.6084 7.30859 46.6084L7.55664 46.6016C9.82624 46.4863 11.6801 44.8021 12.0596 42.6123L21.9219 42.6123C22.2532 42.6123 22.5214 42.344 22.5215 42.0127C22.5215 41.6813 22.2532 41.4131 21.9219 41.4131L12.1172 41.4131C11.928 38.9219 9.84814 36.9593 7.30859 36.959ZM7.30859 38.1592C9.30994 38.1596 10.9324 39.7818 10.9326 41.7832C10.9326 43.7847 9.31003 45.4078 7.30859 45.4082C5.30684 45.4082 3.68363 43.7849 3.68359 41.7832C3.68376 39.7816 5.30692 38.1592 7.30859 38.1592ZM7.30957 39.1309C5.84447 39.1309 4.6563 40.3181 4.65625 41.7832C4.65625 43.2483 5.84443 44.4365 7.30957 44.4365C8.77456 44.4364 9.96191 43.2482 9.96191 41.7832C9.96186 40.3182 8.77453 39.131 7.30957 39.1309Z" fill="#2837FF"/>
<path d="M46.4639 78.5752C46.4639 81.2396 44.304 83.4002 41.6396 83.4004L41.3906 83.3936C38.8418 83.264 36.8145 81.1562 36.8145 78.5752L36.8213 78.3271C36.9365 76.0575 38.6208 74.2037 40.8105 73.8242L40.8105 55.9619C40.8105 55.6306 41.0789 55.3624 41.4102 55.3623C41.7415 55.3623 42.0098 55.6305 42.0098 55.9619L42.0098 73.7666C44.501 73.9557 46.4636 76.0356 46.4639 78.5752ZM45.2637 78.5752C45.2634 76.5738 43.6411 74.9513 41.6396 74.9512C39.6382 74.9513 38.015 76.5738 38.0146 78.5752C38.0146 80.5769 39.638 82.2001 41.6396 82.2002C43.6413 82.2 45.2637 80.5769 45.2637 78.5752ZM44.293 78.5752C44.2928 80.0402 43.1047 81.2275 41.6396 81.2275C40.1748 81.2273 38.9875 80.04 38.9873 78.5752C38.9873 77.1102 40.1747 75.9221 41.6396 75.9219C43.1048 75.9219 44.293 77.1101 44.293 78.5752Z" fill="#2837FF"/>
<path d="M75.9707 36.959C78.6351 36.959 80.7957 39.1188 80.7959 41.7832L80.7891 42.0322C80.6596 44.5811 78.5518 46.6084 75.9707 46.6084L75.7227 46.6016C73.4529 46.4864 71.5982 44.8022 71.2188 42.6123L61.3564 42.6123C61.0252 42.6122 60.7569 42.3439 60.7568 42.0127C60.7568 41.6814 61.0252 41.4132 61.3564 41.4131L71.1621 41.4131C71.3513 38.9218 73.431 36.9592 75.9707 36.959ZM75.9707 38.1592C73.9692 38.1594 72.3468 39.7817 72.3467 41.7832C72.3467 43.7848 73.9692 45.408 75.9707 45.4082C77.9725 45.4082 79.5957 43.7849 79.5957 41.7832C79.5955 39.7816 77.9724 38.1592 75.9707 38.1592ZM75.9697 39.1309C77.4348 39.1309 78.623 40.3181 78.623 41.7832C78.623 43.2483 77.4349 44.4365 75.9697 44.4365C74.5046 44.4365 73.3174 43.2483 73.3174 41.7832C73.3174 40.3181 74.5047 39.1309 75.9697 39.1309Z" fill="#2837FF"/>
<path d="M18.0684 78.3076C15.404 78.3076 13.2433 76.1477 13.2432 73.4834L13.25 73.2344C13.3795 70.6856 15.4874 68.6582 18.0684 68.6582L18.3164 68.665C20.5858 68.7801 22.4405 70.4639 22.8203 72.6533H28.083V56.6514C28.0832 56.3202 28.3514 56.0508 28.6826 56.0508C29.0138 56.0508 29.282 56.3202 29.2822 56.6514V73.2529C29.2822 73.5843 29.014 73.8525 28.6826 73.8525H22.8779C22.6893 76.3444 20.6085 78.3075 18.0684 78.3076ZM18.0684 77.1074C20.0699 77.1073 21.6922 75.4849 21.6924 73.4834C21.6923 71.4818 20.0699 69.8586 18.0684 69.8584C16.0667 69.8584 14.4435 71.4817 14.4434 73.4834C14.4435 75.485 16.0667 77.1074 18.0684 77.1074ZM18.1084 76.1895C16.6434 76.1895 15.4552 75.0021 15.4551 73.5371C15.4551 72.072 16.6433 70.8838 18.1084 70.8838C19.5733 70.884 20.7607 72.0721 20.7607 73.5371C20.7606 75.002 19.5732 76.1892 18.1084 76.1895Z" fill="#2837FF"/>
<path d="M81.0576 18.48C81.0576 15.8156 78.8978 13.655 76.2334 13.6548L75.9844 13.6616C73.4355 13.7911 71.4082 15.8989 71.4082 18.48L71.415 18.728C71.5303 20.997 73.2135 22.8508 75.4023 23.231L75.4023 28.4937L62.3535 28.4937C62.0223 28.4939 61.7539 28.762 61.7539 29.0933C61.7541 29.4243 62.0225 29.6926 62.3535 29.6929L76.002 29.6929C76.3332 29.6929 76.6013 29.4244 76.6016 29.0933L76.6016 23.2886C79.0936 23.1003 81.0572 21.0201 81.0576 18.48ZM79.8574 18.48C79.857 20.4813 78.2348 22.1038 76.2334 22.104C74.2319 22.104 72.6088 20.4814 72.6084 18.48C72.6084 16.4782 74.2316 14.855 76.2334 14.855C78.235 14.8551 79.8574 16.4783 79.8574 18.48ZM78.874 18.4614C78.8738 16.9965 77.6857 15.8091 76.2207 15.8091C74.7558 15.8091 73.5686 16.9965 73.5684 18.4614C73.5684 19.9265 74.7556 21.1147 76.2207 21.1147C77.6858 21.1147 78.874 19.9266 78.874 18.4614Z" fill="#2837FF"/>
<path d="M2.4834 18.48C2.4834 15.8156 4.64325 13.655 7.30762 13.6548L7.55664 13.6616C10.1056 13.7911 12.1328 15.8989 12.1328 18.48L12.126 18.728C12.0107 20.997 10.3276 22.8508 8.13867 23.231L8.13867 28.4937L21.1875 28.4937C21.5187 28.4939 21.7871 28.762 21.7871 29.0933C21.7869 29.4243 21.5185 29.6926 21.1875 29.6929L7.53906 29.6929C7.20783 29.6929 6.93967 29.4244 6.93945 29.0933L6.93945 23.2886C4.44738 23.1003 2.48379 21.0201 2.4834 18.48ZM3.68359 18.48C3.684 20.4813 5.30624 22.1038 7.30762 22.104C9.30914 22.104 10.9322 20.4814 10.9326 18.48C10.9326 16.4782 9.30939 14.855 7.30762 14.855C5.30599 14.8551 3.68359 16.4783 3.68359 18.48ZM4.66699 18.4614C4.66724 16.9965 5.85533 15.8091 7.32031 15.8091C8.78525 15.8091 9.97241 16.9965 9.97266 18.4614C9.97266 19.9265 8.7854 21.1147 7.32031 21.1147C5.85518 21.1147 4.66699 19.9266 4.66699 18.4614Z" fill="#2837FF"/>
<path d="M81.0576 65.3013C81.0574 67.9655 78.8976 70.1263 76.2334 70.1265L75.9844 70.1196C73.4356 69.9902 71.4084 67.8822 71.4082 65.3013L71.415 65.0532C71.5301 62.7841 73.2133 60.9295 75.4023 60.5493L75.4023 55.2876L62.3535 55.2876C62.0224 55.2874 61.7539 55.0192 61.7539 54.688C61.7539 54.3568 62.0223 54.0886 62.3535 54.0884L76.002 54.0884C76.3333 54.0884 76.6016 54.3566 76.6016 54.688L76.6016 60.4917C79.0938 60.68 81.0575 62.7609 81.0576 65.3013ZM79.8574 65.3013C79.8573 63.2997 78.2349 61.6774 76.2334 61.6772C74.2317 61.6772 72.6086 63.2996 72.6084 65.3013C72.6086 67.3028 74.2318 68.9263 76.2334 68.9263C78.2349 68.9261 79.8572 67.3027 79.8574 65.3013ZM78.9238 65.3354C78.9238 66.8005 77.7365 67.9887 76.2715 67.9888C74.8063 67.9888 73.6182 66.8006 73.6182 65.3354C73.6184 63.8705 74.8065 62.6831 76.2715 62.6831C77.7364 62.6832 78.9236 63.8706 78.9238 65.3354Z" fill="#2837FF"/>
<path d="M2.4834 65.3013C2.48362 67.9655 4.64339 70.1263 7.30762 70.1265L7.55664 70.1196C10.1054 69.9902 12.1326 67.8822 12.1328 65.3013L12.126 65.0532C12.0109 62.7841 10.3277 60.9295 8.13867 60.5493L8.13867 55.2876L21.1875 55.2876C21.5187 55.2874 21.7871 55.0192 21.7871 54.688C21.7871 54.3568 21.5187 54.0886 21.1875 54.0884L7.53906 54.0884C7.20769 54.0884 6.93945 54.3566 6.93945 54.688L6.93945 60.4917C4.44724 60.68 2.48356 62.7609 2.4834 65.3013ZM3.68359 65.3013C3.68376 63.2997 5.30609 61.6774 7.30762 61.6772C9.30929 61.6772 10.9324 63.2996 10.9326 65.3013C10.9324 67.3028 9.30925 68.9263 7.30762 68.9263C5.30613 68.9261 3.68382 67.3027 3.68359 65.3013ZM4.61719 65.3354C4.61719 66.8005 5.80448 67.9887 7.26953 67.9888C8.73467 67.9888 9.92285 66.8006 9.92285 65.3354C9.92263 63.8705 8.73453 62.6831 7.26953 62.6831C5.80462 62.6832 4.61741 63.8706 4.61719 65.3354Z" fill="#2837FF"/>
<rect x="27.0439" y="31.1152" width="29.4531" height="21.3374" rx="1.25" stroke="#1727FF" stroke-width="1.5"/>
<rect x="29.8691" y="33.7109" width="23.8021" height="16.1461" rx="1.25" stroke="#1727FF" stroke-width="1.5"/>
</svg>
