<svg width="84" height="84" viewBox="0 0 84 84" fill="none" xmlns="http://www.w3.org/2000/svg">
<circle cx="41.5105" cy="47.9426" r="28.5419" stroke="#1727FF" stroke-width="1.2067"/>
<circle cx="41.5111" cy="47.9427" r="25.52" stroke="#1727FF" stroke-width="1.2067"/>
<rect x="30.741" y="6.93636" width="21.5368" height="6.41335" rx="3.20667" stroke="#1727FF" stroke-width="1.2067"/>
<rect x="37.5887" y="13.3724" width="7.84198" height="5.99933" rx="1.00558" stroke="#1727FF" stroke-width="1.2067"/>
<rect x="59.9454" y="18.6263" width="7.84198" height="5.99933" rx="1.00558" transform="rotate(37.0337 59.9454 18.6263)" stroke="#1727FF" stroke-width="1.2067"/>
<rect x="-0.118255" y="0.845032" width="7.84198" height="5.99933" rx="1.00558" transform="matrix(-0.798282 0.602284 0.602284 0.798282 22.5704 18.0229)" stroke="#1727FF" stroke-width="1.2067"/>
<path d="M36.6172 49.7554H48.0138M36.6172 45.1968H43.4552" stroke="#1727FF" stroke-width="1.44804" stroke-linecap="round" stroke-linejoin="round"/>
<path d="M32.0586 59.2033V41.7779C32.0586 41.1733 32.2987 40.5936 32.7262 40.1661C33.1536 39.7387 33.7334 39.4985 34.3379 39.4985H50.2932C50.8977 39.4985 51.4774 39.7387 51.9049 40.1661C52.3324 40.5936 52.5725 41.1733 52.5725 41.7779V53.1745C52.5725 53.779 52.3324 54.3587 51.9049 54.7862C51.4774 55.2137 50.8977 55.4538 50.2932 55.4538H37.7125C37.3708 55.4538 37.0336 55.5307 36.7256 55.6786C36.4177 55.8266 36.147 56.0419 35.9334 56.3085L33.2769 59.6295C33.1885 59.7403 33.0678 59.8209 32.9316 59.8601C32.7954 59.8994 32.6504 59.8953 32.5166 59.8485C32.3828 59.8017 32.2668 59.7144 32.1848 59.5988C32.1027 59.4833 32.0586 59.345 32.0586 59.2033Z" stroke="#1727FF" stroke-width="1.44804"/>
<path d="M52.1389 31.3212C52.2369 31.6527 52.0475 32.0008 51.716 32.0988L46.314 33.6948C45.9825 33.7927 45.6344 33.6034 45.5365 33.2719C45.4385 32.9404 45.6279 32.5923 45.9594 32.4943L50.7611 31.0757L49.3425 26.2739C49.2445 25.9424 49.4339 25.5943 49.7654 25.4963C50.0969 25.3984 50.445 25.5877 50.5429 25.9192L52.1389 31.3212ZM26.1828 38.2753C25.9921 38.5636 25.6038 38.6427 25.3155 38.452C25.0272 38.2613 24.9481 37.873 25.1388 37.5847L25.6608 37.93L26.1828 38.2753ZM51.5387 31.4985L51.2397 32.0484C46.6944 29.5763 41.1683 28.9483 35.8916 30.7643L35.6879 30.1724L35.4843 29.5806C41.1068 27.6457 46.9969 28.3159 51.8377 30.9487L51.5387 31.4985ZM35.6879 30.1724L35.8916 30.7643C31.755 32.1879 28.4229 34.889 26.1828 38.2753L25.6608 37.93L25.1388 37.5847C27.5257 33.9764 31.0779 31.0971 35.4843 29.5806L35.6879 30.1724Z" fill="#1727FF"/>
<path d="M31.8275 63.8815C31.73 63.5498 31.9198 63.202 32.2514 63.1044L37.6554 61.5153C37.987 61.4177 38.3349 61.6075 38.4324 61.9391C38.5299 62.2707 38.3402 62.6186 38.0085 62.7162L33.205 64.1288L34.6176 68.9323C34.7151 69.2639 34.5253 69.6118 34.1937 69.7093C33.8621 69.8069 33.5142 69.6171 33.4167 69.2855L31.8275 63.8815ZM57.7924 56.9602C57.9835 56.6721 58.3719 56.5935 58.6599 56.7846C58.948 56.9757 59.0266 57.3641 58.8355 57.6521L58.314 57.3061L57.7924 56.9602ZM32.4279 63.7049L32.7277 63.1554C37.2699 65.6332 42.7951 66.2682 48.0741 64.4589L48.277 65.051L48.4799 65.6431C42.855 67.5709 36.9657 66.8932 32.1282 64.2543L32.4279 63.7049ZM48.277 65.051L48.0741 64.4589C52.2125 63.0406 55.548 60.3437 57.7924 56.9602L58.314 57.3061L58.8355 57.6521C56.444 61.2573 52.8882 64.1322 48.4799 65.6431L48.277 65.051Z" fill="#1727FF"/>
</svg>
