<svg width="88" height="84" viewBox="0 0 88 84" fill="none" xmlns="http://www.w3.org/2000/svg">
<path d="M85.4007 63.2599V52.0091M43.4116 66.9663H11.5596C6.03672 66.9663 1.55957 62.4892 1.55957 56.9663V20.792C1.55957 15.2691 6.03672 10.792 11.5596 10.792H75.4007C80.9235 10.792 85.4007 15.2691 85.4007 20.792V36.7394V49.3405" stroke="#2837FF" stroke-width="1.5"/>
<path d="M77.0195 58.9507C77.0195 62.0802 75.7763 65.0815 73.5634 67.2944C71.3506 69.5073 68.3492 70.7505 65.2197 70.7505C62.0902 70.7505 59.0889 69.5073 56.876 67.2944C54.6631 65.0815 53.4199 62.0802 53.4199 58.9507C53.4199 55.8212 54.6631 52.8199 56.876 50.607C59.0889 48.3941 62.0902 47.1509 65.2197 47.1509C68.3492 47.1509 71.3506 48.3941 73.5634 50.607C75.7763 52.8199 77.0195 55.8212 77.0195 58.9507Z" stroke="#1727FF" stroke-width="1.23901"/>
<path d="M73.2347 58.9499C73.2347 61.0758 72.3902 63.1147 70.887 64.6179C69.3837 66.1212 67.3449 66.9657 65.2189 66.9657C63.093 66.9657 61.0542 66.1212 59.5509 64.6179C58.0476 63.1147 57.2031 61.0758 57.2031 58.9499C57.2031 56.824 58.0476 54.7851 59.5509 53.2819C61.0542 51.7786 63.093 50.9341 65.2189 50.9341C67.3449 50.9341 69.3837 51.7786 70.887 53.2819C72.3902 54.7851 73.2347 56.824 73.2347 58.9499Z" fill="#1727FF" stroke="#1727FF" stroke-width="0.841678"/>
<path d="M71.098 80.5856C67.3729 81.5928 63.4505 81.6185 59.7125 80.6604C59.907 79.34 59.703 77.9915 59.1268 76.7876C58.5506 75.5837 57.6282 74.5792 56.4778 73.9024C55.3274 73.2257 54.0012 72.9076 52.669 72.9889C51.3368 73.0701 50.0591 73.547 48.9995 74.3586C47.9616 73.2581 47.0382 72.0551 46.2433 70.7681C45.0137 68.7816 44.1318 66.6773 43.584 64.5265L43.6638 64.4771C44.6332 63.8774 45.4338 63.0406 45.99 62.0456C46.5462 61.0507 46.8396 59.9303 46.8425 58.7905C46.8455 57.6506 46.5578 56.5288 46.0068 55.531C45.4557 54.5331 44.6594 53.6922 43.6931 53.0876C44.6384 49.6338 46.3996 46.4576 48.8283 43.8263C49.8861 44.4683 51.1009 44.8051 52.3382 44.7995C53.5756 44.7939 54.7873 44.4461 55.8392 43.7946C56.8915 43.1437 57.7432 42.2143 58.3 41.1093C58.8568 40.0043 59.0971 38.7668 58.9943 37.5337C62.4326 36.5334 66.0609 36.3736 69.5738 37.0679C69.6846 38.2104 70.0868 39.3054 70.742 40.248C71.3971 41.1907 72.2832 41.9493 73.3155 42.4515C74.3478 42.9536 75.4917 43.1824 76.6376 43.1159C77.7836 43.0494 78.8934 42.6899 79.8607 42.0718C81.5817 43.5591 83.0656 45.3004 84.2612 47.2355C85.073 48.5472 85.733 49.9107 86.2462 51.3047C85.0473 51.8912 84.0506 52.8221 83.3837 53.9782C82.7168 55.1344 82.4101 56.4632 82.5027 57.7947C82.5953 59.1262 83.0831 60.3998 83.9037 61.4524C84.7242 62.5051 85.8402 63.289 87.1088 63.7038C86.2989 67.4766 84.5264 70.9754 81.9635 73.86C80.882 72.9379 79.5357 72.3829 78.1185 72.2751C76.7013 72.1673 75.2865 72.5123 74.0781 73.2604C72.8696 74.0084 71.9298 75.1208 71.3942 76.4373C70.8587 77.7538 70.7549 79.2064 71.098 80.5856Z" stroke="#1727FF" stroke-width="1.23901" stroke-linejoin="round"/>
<line x1="2.30957" y1="23.082" x2="84.6504" y2="23.082" stroke="#1727FF" stroke-width="1.5" stroke-linecap="round"/>
<rect x="7.9668" y="14.5405" width="16.5035" height="4.375" rx="1.5" fill="#2837FF" stroke="#2837FF"/>
<rect x="27.1104" y="14.5405" width="16.5035" height="4.375" rx="1.5" stroke="#2837FF"/>
<circle cx="77.0186" cy="16.9341" r="2.36816" stroke="#1727FF"/>
<circle cx="70.0186" cy="16.9341" r="2.36816" stroke="#1727FF"/>
<g clip-path="url(#clip0_195_5424)">
<path d="M18.4055 40.8278L13.9323 44.4349L18.4055 48.0419C18.5539 48.1596 18.6767 48.3045 18.7669 48.4683C18.8571 48.6321 18.9129 48.8116 18.931 48.9964C18.9492 49.1811 18.9294 49.3676 18.8727 49.5449C18.8161 49.7222 18.7237 49.887 18.601 50.0296C18.4782 50.1722 18.3275 50.2899 18.1575 50.3759C17.9875 50.4619 17.8016 50.5144 17.6105 50.5305C17.4194 50.5466 17.227 50.526 17.0442 50.4697C16.8614 50.4135 16.6919 50.3228 16.5455 50.2028L10.733 45.5153C10.5693 45.3834 10.4376 45.2182 10.3472 45.0315C10.2568 44.8447 10.21 44.6411 10.21 44.4349C10.21 44.2287 10.2568 44.025 10.3472 43.8383C10.4376 43.6516 10.5693 43.4864 10.733 43.3544L16.5455 38.6669C16.842 38.4317 17.2226 38.3195 17.6042 38.3546C17.9859 38.3898 18.3377 38.5695 18.5831 38.8545C18.8285 39.1396 18.9475 39.507 18.9142 39.8766C18.881 40.2462 18.6981 40.5881 18.4055 40.8278ZM39.718 43.3544L33.9055 38.6669C33.7591 38.547 33.5896 38.4563 33.4069 38.4C33.2241 38.3438 33.0316 38.3231 32.8405 38.3392C32.6494 38.3553 32.4635 38.4079 32.2935 38.4939C32.1235 38.5798 31.9728 38.6975 31.8501 38.8402C31.7273 38.9828 31.6349 39.1475 31.5783 39.3248C31.5216 39.5022 31.5018 39.6886 31.52 39.8734C31.5382 40.0582 31.594 40.2376 31.6842 40.4015C31.7743 40.5653 31.8972 40.7102 32.0455 40.8278L36.5187 44.4349L32.0455 48.0419C31.8972 48.1596 31.7743 48.3045 31.6842 48.4683C31.594 48.6321 31.5382 48.8116 31.52 48.9964C31.5018 49.1811 31.5216 49.3676 31.5783 49.5449C31.6349 49.7222 31.7273 49.887 31.8501 50.0296C31.9728 50.1722 32.1235 50.2899 32.2935 50.3759C32.4635 50.4619 32.6494 50.5144 32.8405 50.5305C33.0316 50.5466 33.2241 50.526 33.4069 50.4697C33.5896 50.4135 33.7591 50.3228 33.9055 50.2028L39.718 45.5153C39.8817 45.3834 40.0134 45.2182 40.1038 45.0315C40.1942 44.8447 40.2411 44.6411 40.2411 44.4349C40.2411 44.2287 40.1942 44.025 40.1038 43.8383C40.0134 43.6516 39.8817 43.4864 39.718 43.3544ZM29.597 32.8005C29.4176 32.7374 29.2272 32.7091 29.0365 32.7172C28.8458 32.7253 28.6586 32.7697 28.4857 32.8478C28.3127 32.926 28.1574 33.0363 28.0285 33.1726C27.8996 33.3088 27.7997 33.4683 27.7346 33.6419L19.9846 54.2669C19.8532 54.6173 19.871 55.0039 20.034 55.3417C20.1971 55.6794 20.492 55.9407 20.854 56.0681C21.013 56.1249 21.1811 56.1538 21.3505 56.1536C21.6489 56.1537 21.94 56.0649 22.1844 55.8992C22.4287 55.7336 22.6145 55.4992 22.7165 55.2278L30.4665 34.6028C30.5317 34.4293 30.5609 34.2449 30.5525 34.0604C30.5442 33.8759 30.4983 33.6947 30.4175 33.5274C30.3368 33.36 30.2228 33.2097 30.082 33.0849C29.9412 32.9602 29.7764 32.8636 29.597 32.8005Z" fill="#2837FF"/>
</g>
<defs>
<clipPath id="clip0_195_5424">
<rect width="31" height="30" fill="white" transform="translate(9.72559 29.4351)"/>
</clipPath>
</defs>
</svg>
