<svg width="83" height="84" viewBox="0 0 83 84" fill="none" xmlns="http://www.w3.org/2000/svg">
<path d="M64.2129 5.19775C66.7011 5.32408 68.6797 7.38224 68.6797 9.90186L68.6738 10.144C68.5475 12.632 66.49 14.6106 63.9707 14.6108L63.7275 14.605C61.4759 14.4906 59.6419 12.7945 59.3135 10.606H54.0908V21.4507C54.0907 21.7159 53.8756 21.9311 53.6104 21.9312C53.3451 21.9312 53.13 21.716 53.1299 21.4507V10.1255C53.1299 9.86012 53.345 9.64502 53.6104 9.64502H59.2676C59.4008 7.16329 61.4558 5.19189 63.9707 5.19189L64.2129 5.19775ZM63.9707 6.15283C61.901 6.15283 60.2226 7.8304 60.2217 9.8999C60.2578 9.96735 60.2803 10.0436 60.2803 10.1255C60.2802 10.1896 60.266 10.2502 60.2432 10.3062C60.4451 12.186 62.0372 13.6499 63.9707 13.6499C66.0405 13.6496 67.7184 11.9717 67.7188 9.90186C67.7188 7.83176 66.0407 6.15313 63.9707 6.15283ZM64.0146 7.25049C65.4447 7.25059 66.6043 8.40934 66.6045 9.83936C66.6045 11.2695 65.4448 12.4291 64.0146 12.4292C62.5844 12.4292 61.4248 11.2696 61.4248 9.83936C61.425 8.40928 62.5845 7.25049 64.0146 7.25049Z" fill="#2837FF"/>
<path d="M64.2129 77.6797C66.7011 77.5534 68.6797 75.4952 68.6797 72.9756L68.6738 72.7334C68.5475 70.2454 66.49 68.2669 63.9707 68.2666L63.7275 68.2725C61.4759 68.3868 59.6419 70.0829 59.3135 72.2715H54.0908V61.4268C54.0908 61.1614 53.8757 60.9464 53.6104 60.9463C53.345 60.9463 53.1299 61.1614 53.1299 61.4268V72.752C53.13 73.0172 53.345 73.2324 53.6104 73.2324H59.2676C59.4009 75.7141 61.4558 77.6855 63.9707 77.6855L64.2129 77.6797ZM63.9707 76.7246C61.901 76.7246 60.2226 75.047 60.2217 72.9775C60.2578 72.9101 60.2802 72.8339 60.2803 72.752C60.2803 72.6879 60.2659 72.6272 60.2432 72.5713C60.4451 70.6915 62.0372 69.2275 63.9707 69.2275C66.0405 69.2278 67.7184 70.9058 67.7188 72.9756C67.7188 75.0457 66.0407 76.7243 63.9707 76.7246ZM64.0146 75.6182C65.4448 75.6181 66.6045 74.4585 66.6045 73.0283C66.6044 71.5982 65.4447 70.4386 64.0146 70.4385C62.5845 70.4385 61.4249 71.5982 61.4248 73.0283C61.4248 74.4585 62.5844 75.6182 64.0146 75.6182Z" fill="#2837FF"/>
<path d="M18.4053 5.19775C15.9172 5.32419 13.9385 7.38231 13.9385 9.90186L13.9443 10.144C14.0707 12.632 16.1282 14.6104 18.6475 14.6108L18.8906 14.605C21.1423 14.4906 22.9772 12.7945 23.3057 10.606H28.5283V21.4507C28.5284 21.7159 28.7436 21.9311 29.0088 21.9312C29.2741 21.9312 29.4891 21.716 29.4893 21.4507V10.1255C29.4893 9.86012 29.2742 9.64502 29.0088 9.64502H23.3506C23.2173 7.1633 21.1624 5.19189 18.6475 5.19189L18.4053 5.19775ZM18.6475 6.15283C20.7177 6.15283 22.3975 7.83157 22.3975 9.90186C22.3619 9.96894 22.3389 10.0443 22.3389 10.1255C22.3389 10.1896 22.3531 10.2502 22.376 10.3062C22.174 12.186 20.581 13.6499 18.6475 13.6499C16.5777 13.6495 14.8998 11.9716 14.8994 9.90186C14.8994 7.83183 16.5775 6.15325 18.6475 6.15283ZM18.6484 7.31104C17.2184 7.31122 16.0597 8.47085 16.0596 9.90088C16.0596 11.331 17.2184 12.4905 18.6484 12.4907C20.0787 12.4907 21.2383 11.3311 21.2383 9.90088C21.2382 8.47074 20.0786 7.31104 18.6484 7.31104Z" fill="#2837FF"/>
<path d="M18.4053 77.6797C15.9172 77.5532 13.9385 75.4951 13.9385 72.9756L13.9443 72.7334C14.0707 70.2455 16.1282 68.267 18.6475 68.2666L18.8906 68.2725C21.1423 68.3868 22.9772 70.0829 23.3057 72.2715H28.5283V61.4268C28.5283 61.1614 28.7435 60.9464 29.0088 60.9463C29.2742 60.9463 29.4893 61.1614 29.4893 61.4268V72.752C29.4892 73.0172 29.2741 73.2324 29.0088 73.2324H23.3506C23.2173 75.7141 21.1624 77.6855 18.6475 77.6855L18.4053 77.6797ZM18.6475 76.7246C20.7177 76.7246 22.3975 75.0459 22.3975 72.9756C22.3618 72.9085 22.3389 72.8332 22.3389 72.752C22.3389 72.6879 22.3532 72.6272 22.376 72.5713C22.1741 70.6914 20.581 69.2275 18.6475 69.2275C16.5777 69.228 14.8998 70.9058 14.8994 72.9756C14.8994 75.0456 16.5775 76.7242 18.6475 76.7246ZM18.6865 75.6182C17.2563 75.6182 16.0967 74.4585 16.0967 73.0283C16.0968 71.5982 17.2564 70.4385 18.6865 70.4385C20.1166 70.4386 21.2763 71.5982 21.2764 73.0283C21.2764 74.4585 20.1167 75.618 18.6865 75.6182Z" fill="#2837FF"/>
<path d="M0.845703 27.146C0.971941 24.6577 3.03019 22.6793 5.5498 22.6792L5.79199 22.6851C8.28016 22.8113 10.2586 24.8687 10.2588 27.3882L10.2529 27.6313C10.1385 29.8827 8.44311 31.7167 6.25488 32.0454L6.25488 37.269L14.2168 37.269C14.482 37.2693 14.6973 37.4843 14.6973 37.7495C14.6971 38.0146 14.4818 38.2297 14.2168 38.23L5.77441 38.23C5.50916 38.23 5.29414 38.0147 5.29395 37.7495L5.29395 32.0913C2.81198 31.9583 0.839922 29.9033 0.839844 27.3882L0.845703 27.146ZM1.80078 27.3882C1.80086 29.458 3.4791 31.1366 5.54883 31.1372C5.61619 31.1012 5.6927 31.0796 5.77441 31.0796C5.83849 31.0796 5.8992 31.0929 5.95508 31.1157C7.83458 30.9135 9.29778 29.3214 9.29785 27.3882C9.29764 25.3182 7.61978 23.6403 5.5498 23.6401C3.47971 23.6402 1.80099 25.3181 1.80078 27.3882ZM3.00098 27.4263C3.00117 25.9962 4.16071 24.8374 5.59082 24.8374C7.02089 24.8375 8.18047 25.9962 8.18066 27.4263C8.18066 28.8565 7.02101 30.0161 5.59082 30.0161C4.16059 30.0161 3.00098 28.8565 3.00098 27.4263Z" fill="#2837FF"/>
<path d="M82.5322 25.7236C82.4058 23.2355 80.3476 21.2568 77.8281 21.2568L77.5859 21.2627C75.0981 21.3892 73.1196 23.4467 73.1191 25.9658L73.125 26.209C73.2393 28.4603 74.935 30.2951 77.123 30.624L77.123 35.8467L69.1611 35.8467C68.8959 35.8468 68.6807 36.0619 68.6807 36.3271C68.6808 36.5924 68.8959 36.8075 69.1611 36.8076L77.6035 36.8076C77.8688 36.8076 78.0839 36.5924 78.084 36.3271L78.084 30.6689C80.5663 30.5363 82.5381 28.4812 82.5381 25.9658L82.5322 25.7236ZM81.5771 25.9658C81.5771 28.0361 79.8984 29.7158 77.8281 29.7158C77.7608 29.6799 77.6851 29.6572 77.6035 29.6572C77.5391 29.6573 77.478 29.6704 77.4219 29.6934C75.5431 29.4904 74.0801 27.8985 74.0801 25.9658C74.0805 23.8962 75.7585 22.2182 77.8281 22.2178C79.8981 22.2178 81.5767 23.8959 81.5771 25.9658ZM80.4072 25.9492C80.4072 24.519 79.2476 23.3594 77.8174 23.3594C76.3874 23.3596 75.2286 24.5192 75.2285 25.9492C75.2285 27.3793 76.3873 28.5388 77.8174 28.5391C79.2476 28.5391 80.4072 27.3794 80.4072 25.9492Z" fill="#2837FF"/>
<path d="M0.845703 55.3198C0.972132 57.8079 3.03032 59.7866 5.5498 59.7866L5.79199 59.7808C8.28003 59.6545 10.2584 57.597 10.2588 55.0776L10.2529 54.8345C10.1386 52.583 8.44319 50.7481 6.25488 50.4194L6.25488 45.1968L14.2168 45.1968C14.4819 45.1965 14.6972 44.9815 14.6973 44.7163C14.6973 44.4511 14.482 44.2361 14.2168 44.2358L5.77441 44.2358C5.50904 44.2358 5.29395 44.4509 5.29395 44.7163L5.29395 50.3745C2.81195 50.5075 0.839844 52.5625 0.839844 55.0776L0.845703 55.3198ZM1.80078 55.0776C1.80078 53.0074 3.47958 51.3277 5.5498 51.3276C5.61703 51.3634 5.69294 51.3862 5.77441 51.3862C5.83854 51.3862 5.89916 51.372 5.95508 51.3491C7.83465 51.5513 9.29785 53.1443 9.29785 55.0776C9.29743 57.1474 7.61965 58.8255 5.5498 58.8257C3.47984 58.8256 1.8012 57.1475 1.80078 55.0776ZM3.00098 55.1011C3.00098 56.5313 4.16059 57.6909 5.59082 57.6909C7.02101 57.6909 8.18066 56.5313 8.18066 55.1011C8.18051 53.671 7.02091 52.5113 5.59082 52.5112C4.16069 52.5112 3.00113 53.671 3.00098 55.1011Z" fill="#2837FF"/>
<path d="M82.5322 55.3198C82.4058 57.8079 80.3477 59.7866 77.8281 59.7866L77.5859 59.7808C75.0981 59.6543 73.1195 57.5968 73.1191 55.0776L73.125 54.8345C73.2393 52.5832 74.935 50.7483 77.123 50.4194L77.123 45.1968L69.1611 45.1968C68.8959 45.1966 68.6808 44.9815 68.6807 44.7163C68.6807 44.451 68.8959 44.236 69.1611 44.2358L77.6035 44.2358C77.8689 44.2358 78.084 44.4509 78.084 44.7163L78.084 50.3745C80.5663 50.5072 82.5381 52.5623 82.5381 55.0776L82.5322 55.3198ZM81.5771 55.0776C81.5771 53.0074 79.8984 51.3286 77.8281 51.3286L77.8271 51.3286C77.7602 51.364 77.6846 51.3862 77.6035 51.3862C77.5397 51.3862 77.4795 51.3717 77.4238 51.3491C75.5441 51.5512 74.0801 53.1442 74.0801 55.0776C74.0805 57.1473 75.7585 58.8252 77.8281 58.8257C79.8982 58.8257 81.5767 57.1476 81.5771 55.0776ZM80.4561 55.1108C80.4561 56.5411 79.2964 57.7007 77.8662 57.7007C76.436 57.7006 75.2764 56.541 75.2764 55.1108C75.2765 53.6808 76.4361 52.521 77.8662 52.521C79.2963 52.521 80.4559 53.6807 80.4561 55.1108Z" fill="#2837FF"/>
<path d="M41.6992 30.1431C44.8287 30.1431 47.83 31.3863 50.0429 33.5992C52.2558 35.812 53.499 38.8134 53.499 41.9429C53.499 45.0724 52.2558 48.0737 50.0429 50.2866C47.83 52.4995 44.8287 53.7427 41.6992 53.7427C38.5697 53.7427 35.5684 52.4995 33.3555 50.2866C31.1426 48.0737 29.8994 45.0724 29.8994 41.9429C29.8994 38.8134 31.1426 35.812 33.3555 33.5992C35.5684 31.3863 38.5697 30.1431 41.6992 30.1431Z" stroke="#1727FF" stroke-width="1.23901"/>
<path d="M41.6984 33.9269C43.8243 33.9269 45.8632 34.7714 47.3665 36.2747C48.8697 37.7779 49.7142 39.8168 49.7142 41.9427C49.7142 44.0686 48.8697 46.1075 47.3665 47.6107C45.8632 49.114 43.8243 49.9585 41.6984 49.9585C39.5725 49.9585 37.5336 49.114 36.0304 47.6107C34.5271 46.1075 33.6826 44.0686 33.6826 41.9427C33.6826 39.8168 34.5271 37.7779 36.0304 36.2747C37.5336 34.7714 39.5725 33.9269 41.6984 33.9269Z" fill="#1727FF" stroke="#1727FF" stroke-width="0.841678"/>
<path d="M63.3337 36.0641C64.3408 39.7892 64.3666 43.7116 63.4085 47.4496C62.088 47.2551 60.7396 47.4591 59.5357 48.0353C58.3318 48.6115 57.3272 49.5339 56.6505 50.6843C55.9738 51.8347 55.6557 53.1609 55.7369 54.4931C55.8182 55.8253 56.2951 57.103 57.1066 58.1627C56.0061 59.2005 54.8031 60.124 53.5161 60.9188C51.5297 62.1484 49.4253 63.0303 47.2745 63.5781L47.2251 63.4983C46.6255 62.5289 45.7887 61.7283 44.7937 61.1721C43.7987 60.6159 42.6784 60.3225 41.5385 60.3196C40.3986 60.3167 39.2768 60.6043 38.279 61.1554C37.2812 61.7064 36.4403 62.5027 35.8357 63.469C32.3819 62.5237 29.2057 60.7626 26.5744 58.3338C27.2163 57.276 27.5532 56.0612 27.5476 54.8239C27.542 53.5865 27.1942 52.3749 26.5427 51.3229C25.8917 50.2706 24.9623 49.419 23.8573 48.8621C22.7523 48.3053 21.5149 48.065 20.2818 48.1678C19.2814 44.7295 19.1217 41.1012 19.8159 37.5883C20.9585 37.4775 22.0535 37.0753 22.9961 36.4201C23.9387 35.765 24.6974 34.8789 25.1995 33.8466C25.7016 32.8143 25.9304 31.6705 25.8639 30.5245C25.7975 29.3785 25.4379 28.2687 24.8198 27.3014C26.3072 25.5804 28.0485 24.0965 29.9836 22.9009C31.2952 22.0891 32.6588 21.4291 34.0527 20.9159C34.6392 22.1148 35.5701 23.1115 36.7263 23.7784C37.8824 24.4453 39.2113 24.752 40.5428 24.6594C41.8742 24.5668 43.1478 24.079 44.2005 23.2584C45.2531 22.4379 46.0371 21.3219 46.4519 20.0533C50.2246 20.8632 53.7235 22.6357 56.6081 25.1986C55.6859 26.2801 55.1309 27.6264 55.0232 29.0436C54.9154 30.4608 55.2604 31.8756 56.0084 33.0841C56.7565 34.2925 57.8689 35.2323 59.1854 35.7679C60.5019 36.3035 61.9544 36.4072 63.3337 36.0641Z" stroke="#1727FF" stroke-width="1.23901" stroke-linejoin="round"/>
</svg>
