<svg width="83" height="84" viewBox="0 0 83 84" fill="none" xmlns="http://www.w3.org/2000/svg">
<path d="M53.498 23.541C53.498 26.6705 52.2549 29.6718 50.042 31.8847C47.8291 34.0976 44.8277 35.3408 41.6982 35.3408C38.5687 35.3408 35.5674 34.0976 33.3545 31.8847C31.1416 29.6718 29.8984 26.6705 29.8984 23.541C29.8984 20.4115 31.1416 17.4102 33.3545 15.1973C35.5674 12.9844 38.5687 11.7412 41.6982 11.7412C44.8277 11.7412 47.8291 12.9844 50.042 15.1973C52.2549 17.4102 53.498 20.4115 53.498 23.541Z" stroke="#1727FF" stroke-width="1.23901"/>
<path d="M49.7132 23.5402C49.7132 25.6661 48.8687 27.705 47.3655 29.2082C45.8622 30.7115 43.8234 31.556 41.6974 31.556C39.5715 31.556 37.5327 30.7115 36.0294 29.2082C34.5262 27.705 33.6816 25.6661 33.6816 23.5402C33.6816 21.4143 34.5262 19.3754 36.0294 17.8722C37.5327 16.3689 39.5715 15.5244 41.6974 15.5244C43.8234 15.5244 45.8622 16.3689 47.3655 17.8722C48.8687 19.3754 49.7132 21.4143 49.7132 23.5402Z" fill="#1727FF" stroke="#1727FF" stroke-width="0.841678"/>
<path d="M47.5765 45.176C43.8514 46.1831 39.929 46.2089 36.191 45.2508C36.3855 43.9303 36.1816 42.5819 35.6053 41.378C35.0291 40.1741 34.1067 39.1695 32.9563 38.4928C31.8059 37.816 30.4797 37.498 29.1475 37.5792C27.8153 37.6605 26.5376 38.1374 25.478 38.9489C24.4401 37.8484 23.5167 36.6454 22.7218 35.3584C21.4922 33.372 20.6103 31.2676 20.0625 29.1168L20.1423 29.0674C21.1118 28.4678 21.9124 27.631 22.4685 26.636C23.0247 25.641 23.3181 24.5207 23.321 23.3808C23.324 22.2409 23.0363 21.1191 22.4853 20.1213C21.9342 19.1235 21.1379 18.2826 20.1716 17.678C21.1169 14.2241 22.8781 11.0479 25.3068 8.41665C26.3646 9.05862 27.5794 9.39544 28.8167 9.38985C30.0541 9.38426 31.2658 9.03648 32.3177 8.38497C33.37 7.73399 34.2217 6.80459 34.7785 5.69961C35.3353 4.59463 35.5756 3.35714 35.4728 2.12406C38.9111 1.12373 42.5394 0.963958 46.0523 1.6582C46.1631 2.80076 46.5653 3.89575 47.2205 4.83837C47.8756 5.78098 48.7617 6.53967 49.794 7.0418C50.8263 7.54393 51.9702 7.77271 53.1162 7.70622C54.2622 7.63974 55.3719 7.28022 56.3392 6.66209C58.0602 8.14946 59.5441 9.89077 60.7397 11.8259C61.5516 13.1375 62.2115 14.5011 62.7247 15.895C61.5258 16.4815 60.5291 17.4124 59.8622 18.5686C59.1954 19.7247 58.8886 21.0536 58.9812 22.385C59.0739 23.7165 59.5617 24.9901 60.3822 26.0428C61.2027 27.0954 62.3187 27.8793 63.5873 28.2942C62.7774 32.0669 61.0049 35.5657 58.442 38.4504C57.3606 37.5282 56.0142 36.9732 54.597 36.8654C53.1799 36.7577 51.7651 37.1027 50.5566 37.8507C49.3481 38.5987 48.4083 39.7112 47.8727 41.0277C47.3372 42.3442 47.2334 43.7967 47.5765 45.176Z" stroke="#1727FF" stroke-width="1.23901" stroke-linejoin="round"/>
<rect x="1.19824" y="69.1255" width="37.4375" height="13.1882" rx="6.59411" stroke="#2837FF" stroke-width="1.5"/>
<circle cx="9.88477" cy="76.1899" r="2.25916" stroke="#2837FF" stroke-width="1.55589"/>
<circle cx="19.917" cy="76.1899" r="2.25916" stroke="#2837FF" stroke-width="1.55589"/>
<circle cx="29.9492" cy="76.1899" r="2.25916" stroke="#2837FF" stroke-width="1.55589"/>
<rect x="44.792" y="69.1255" width="37.4375" height="13.1882" rx="6.59411" stroke="#2837FF" stroke-width="1.5"/>
<circle cx="53.4785" cy="76.1899" r="2.25916" stroke="#2837FF" stroke-width="1.55589"/>
<circle cx="63.5107" cy="76.1899" r="2.25916" stroke="#2837FF" stroke-width="1.55589"/>
<circle cx="73.543" cy="76.1899" r="2.25916" stroke="#2837FF" stroke-width="1.55589"/>
<rect x="22.9814" y="52.5352" width="37.4375" height="9.73365" rx="4.86682" stroke="#2837FF" stroke-width="1.5"/>
<path d="M15.8486 69.0635V56.7422H22.7793" stroke="#1727FF" stroke-width="1.5" stroke-linecap="round" stroke-linejoin="round"/>
<path d="M67.7793 69.0635V56.7422H60.8486" stroke="#1727FF" stroke-width="1.5" stroke-linecap="round" stroke-linejoin="round"/>
<path d="M41.3799 52.5381V46.2622" stroke="#1727FF" stroke-width="1.5" stroke-linecap="round" stroke-linejoin="round"/>
</svg>
