<svg width="88" height="84" viewBox="0 0 88 84" fill="none" xmlns="http://www.w3.org/2000/svg">
<path d="M85.2611 63.2169V51.9661M43.272 66.9233H11.4199C5.89708 66.9233 1.41992 62.4462 1.41992 56.9233V20.749C1.41992 15.2262 5.89707 10.749 11.4199 10.749H75.2611C80.7839 10.749 85.2611 15.2262 85.2611 20.749V36.6964V49.2975" stroke="#2837FF" stroke-width="1.5"/>
<path d="M76.8789 58.9077C76.8789 62.0372 75.6357 65.0385 73.4228 67.2514C71.2099 69.4643 68.2086 70.7075 65.0791 70.7075C61.9496 70.7075 58.9483 69.4643 56.7354 67.2514C54.5225 65.0385 53.2793 62.0372 53.2793 58.9077C53.2793 55.7782 54.5225 52.7769 56.7354 50.564C58.9483 48.3511 61.9496 47.1079 65.0791 47.1079C68.2086 47.1079 71.2099 48.3511 73.4228 50.564C75.6357 52.7769 76.8789 55.7782 76.8789 58.9077Z" stroke="#1727FF" stroke-width="1.23901"/>
<path d="M73.0941 58.9069C73.0941 61.0328 72.2496 63.0717 70.7463 64.5749C69.2431 66.0782 67.2042 66.9227 65.0783 66.9227C62.9524 66.9227 60.9135 66.0782 59.4103 64.5749C57.907 63.0717 57.0625 61.0328 57.0625 58.9069C57.0625 56.781 57.907 54.7421 59.4103 53.2389C60.9135 51.7356 62.9524 50.8911 65.0783 50.8911C67.2042 50.8911 69.2431 51.7356 70.7463 53.2389C72.2496 54.7421 73.0941 56.781 73.0941 58.9069Z" fill="#1727FF" stroke="#1727FF" stroke-width="0.841678"/>
<path d="M70.9574 80.5427C67.2323 81.5498 63.3099 81.5756 59.5719 80.6175C59.7664 79.297 59.5624 77.9486 58.9862 76.7447C58.4099 75.5408 57.4876 74.5362 56.3372 73.8595C55.1868 73.1827 53.8606 72.8646 52.5284 72.9459C51.1962 73.0272 49.9185 73.5041 48.8588 74.3156C47.821 73.2151 46.8975 72.0121 46.1026 70.7251C44.8731 68.7387 43.9912 66.6343 43.4434 64.4835L43.5232 64.4341C44.4926 63.8345 45.2932 62.9977 45.8494 62.0027C46.4056 61.0077 46.699 59.8874 46.7019 58.7475C46.7048 57.6076 46.4172 56.4858 45.8661 55.488C45.3151 54.4902 44.5188 53.6493 43.5525 53.0447C44.4978 49.5908 46.2589 46.4146 48.6877 43.7834C49.7455 44.4253 50.9603 44.7621 52.1976 44.7566C53.435 44.751 54.6466 44.4032 55.6986 43.7517C56.7509 43.1007 57.6025 42.1713 58.1594 41.0663C58.7162 39.9613 58.9565 38.7238 58.8537 37.4908C62.292 36.4904 65.9202 36.3307 69.4332 37.0249C69.544 38.1675 69.9462 39.2625 70.6013 40.2051C71.2565 41.1477 72.1426 41.9064 73.1749 42.4085C74.2071 42.9106 75.351 43.1394 76.497 43.0729C77.643 43.0064 78.7528 42.6469 79.7201 42.0288C81.441 43.5162 82.925 45.2575 84.1205 47.1926C84.9324 48.5042 85.5924 49.8678 86.1056 51.2617C84.9066 51.8482 83.91 52.7791 83.2431 53.9353C82.5762 55.0914 82.2695 56.4203 82.3621 57.7517C82.4547 59.0832 82.9425 60.3568 83.7631 61.4095C84.5836 62.4621 85.6996 63.246 86.9682 63.6609C86.1583 67.4336 84.3857 70.9324 81.8229 73.8171C80.7414 72.8949 79.3951 72.3399 77.9779 72.2321C76.5607 72.1244 75.1459 72.4694 73.9374 73.2174C72.7289 73.9654 71.7892 75.0779 71.2536 76.3944C70.718 77.7109 70.6143 79.1634 70.9574 80.5427Z" stroke="#1727FF" stroke-width="1.23901" stroke-linejoin="round"/>
<line x1="2.16992" y1="23.0391" x2="84.5107" y2="23.0391" stroke="#1727FF" stroke-width="1.5" stroke-linecap="round"/>
<rect x="7.82715" y="14.4976" width="16.5035" height="4.375" rx="1.5" fill="#2837FF" stroke="#2837FF"/>
<rect x="26.9707" y="14.4976" width="16.5035" height="4.375" rx="1.5" stroke="#2837FF"/>
<circle cx="76.8789" cy="16.8911" r="2.36816" stroke="#1727FF"/>
<circle cx="69.8789" cy="16.8911" r="2.36816" stroke="#1727FF"/>
<g clip-path="url(#clip0_195_5544)">
<path d="M18.2659 40.7849L13.7927 44.3919L18.2659 47.9989C18.4142 48.1166 18.537 48.2615 18.6272 48.4253C18.7174 48.5891 18.7732 48.7686 18.7914 48.9534C18.8095 49.1382 18.7897 49.3246 18.7331 49.5019C18.6764 49.6793 18.5841 49.844 18.4613 49.9866C18.3386 50.1292 18.1878 50.2469 18.0178 50.3329C17.8478 50.4189 17.662 50.4714 17.4709 50.4875C17.2798 50.5036 17.0873 50.483 16.9045 50.4267C16.7217 50.3705 16.5523 50.2798 16.4059 50.1599L10.5934 45.4724C10.4297 45.3404 10.2979 45.1752 10.2076 44.9885C10.1172 44.8018 10.0703 44.5981 10.0703 44.3919C10.0703 44.1857 10.1172 43.982 10.2076 43.7953C10.2979 43.6086 10.4297 43.4434 10.5934 43.3114L16.4059 38.6239C16.7024 38.3888 17.0829 38.2765 17.4646 38.3117C17.8462 38.3468 18.1981 38.5265 18.4435 38.8116C18.6888 39.0966 18.8079 39.464 18.7746 39.8336C18.7413 40.2032 18.5585 40.5451 18.2659 40.7849ZM39.5784 43.3114L33.7659 38.6239C33.6195 38.504 33.45 38.4133 33.2672 38.3571C33.0844 38.3008 32.8919 38.2802 32.7009 38.2963C32.5098 38.3124 32.3239 38.3649 32.1539 38.4509C31.9839 38.5369 31.8332 38.6546 31.7104 38.7972C31.5877 38.9398 31.4953 39.1045 31.4386 39.2819C31.382 39.4592 31.3622 39.6456 31.3804 39.8304C31.3985 40.0152 31.4543 40.1947 31.5445 40.3585C31.6347 40.5223 31.7575 40.6672 31.9059 40.7849L36.3791 44.3919L31.9059 47.9989C31.7575 48.1166 31.6347 48.2615 31.5445 48.4253C31.4543 48.5891 31.3985 48.7686 31.3804 48.9534C31.3622 49.1382 31.382 49.3246 31.4386 49.5019C31.4953 49.6793 31.5877 49.844 31.7104 49.9866C31.8332 50.1292 31.9839 50.2469 32.1539 50.3329C32.3239 50.4189 32.5098 50.4714 32.7009 50.4875C32.8919 50.5036 33.0844 50.483 33.2672 50.4267C33.45 50.3705 33.6195 50.2798 33.7659 50.1599L39.5784 45.4724C39.7421 45.3404 39.8738 45.1752 39.9642 44.9885C40.0546 44.8018 40.1014 44.5981 40.1014 44.3919C40.1014 44.1857 40.0546 43.982 39.9642 43.7953C39.8738 43.6086 39.7421 43.4434 39.5784 43.3114ZM29.4573 32.7575C29.278 32.6944 29.0875 32.6661 28.8968 32.6742C28.7061 32.6823 28.519 32.7267 28.346 32.8049C28.1731 32.883 28.0177 32.9933 27.8889 33.1296C27.76 33.2658 27.6601 33.4253 27.5949 33.5989L19.8449 54.2239C19.7136 54.5744 19.7313 54.9609 19.8944 55.2987C20.0574 55.6364 20.3524 55.8977 20.7144 56.0251C20.8733 56.0819 21.0414 56.1108 21.2109 56.1107C21.5092 56.1107 21.8003 56.0219 22.0447 55.8563C22.2891 55.6906 22.4749 55.4562 22.5768 55.1849L30.3268 34.5599C30.392 34.3863 30.4213 34.202 30.4129 34.0174C30.4045 33.8329 30.3586 33.6518 30.2779 33.4844C30.1971 33.317 30.0831 33.1667 29.9423 33.042C29.8015 32.9173 29.6367 32.8206 29.4573 32.7575Z" fill="#2837FF"/>
</g>
<defs>
<clipPath id="clip0_195_5544">
<rect width="31" height="30" fill="white" transform="translate(9.58594 29.3921)"/>
</clipPath>
</defs>
</svg>
