<svg width="83" height="84" viewBox="0 0 83 84" fill="none" xmlns="http://www.w3.org/2000/svg">
<path d="M64.7592 25.9639C64.7597 24.3281 64.3251 22.7216 63.5002 21.3091C62.6752 19.8966 61.4894 18.7289 60.0644 17.9257C58.6395 17.1224 57.0265 16.7126 55.391 16.7381C53.7554 16.7637 52.156 17.2237 50.7568 18.071C50.3502 15.9665 49.2235 14.0691 47.5703 12.7048C45.9171 11.3405 43.8405 10.5942 41.6971 10.5942C39.5536 10.5942 37.477 11.3405 35.8238 12.7048C34.1706 14.0691 33.044 15.9665 32.6374 18.071M64.7592 25.9639C66.7979 25.9639 68.7531 26.7737 70.1946 28.2153C71.6362 29.6569 72.446 31.612 72.446 33.6507C72.446 35.6894 71.6362 37.6446 70.1946 39.0862C68.7531 40.5277 66.7979 41.3376 64.7592 41.3376L18.638 41.3376C16.5994 41.3376 14.6442 40.5277 13.2026 39.0861C11.761 37.6446 10.9512 35.6894 10.9512 33.6507C10.9512 31.612 11.761 29.6569 13.2026 28.2153C14.6442 26.7737 16.5994 25.9639 18.638 25.9639C18.6379 24.3286 19.0725 22.7226 19.8973 21.3105C20.7222 19.8985 21.9075 18.7311 23.332 17.9279C24.7565 17.1248 26.3689 16.7148 28.0041 16.7399C29.6392 16.7651 31.2382 17.2244 32.6374 18.071M64.7592 25.9639C62.244 25.9639 60.0118 27.1722 58.6097 29.0386M32.6374 18.071C34.4641 19.1744 35.8518 20.8772 36.5638 22.8891M70.2711 63.6295L63.3529 56.7113L63.3529 50.5618M13.1261 63.6295L20.0443 56.7113L20.0443 50.5618M57.7897 74.0971L50.8715 67.1789L50.8715 50.5618M24.2969 73.9557L31.2151 67.0375L31.2151 50.5618M70.2711 61.3234C69.6595 61.3234 69.0729 61.5664 68.6405 61.9988C68.208 62.4313 67.965 63.0179 67.965 63.6295C67.965 64.2411 68.208 64.8276 68.6405 65.2601C69.0729 65.6926 69.6595 65.9355 70.2711 65.9355C70.8827 65.9355 71.4692 65.6926 71.9017 65.2601C72.3342 64.8276 72.5771 64.2411 72.5771 63.6295C72.5771 63.0179 72.3342 62.4313 71.9017 61.9988C71.4692 61.5664 70.8827 61.3234 70.2711 61.3234ZM13.1261 61.3234C13.7377 61.3234 14.3243 61.5664 14.7568 61.9988C15.1892 62.4313 15.4322 63.0179 15.4322 63.6295C15.4322 64.2411 15.1892 64.8276 14.7568 65.2601C14.3243 65.6926 13.7377 65.9355 13.1261 65.9355C12.5145 65.9355 11.928 65.6926 11.4955 65.2601C11.063 64.8276 10.8201 64.2411 10.8201 63.6295C10.8201 63.0179 11.063 62.4313 11.4955 61.9988C11.928 61.5664 12.5145 61.3234 13.1261 61.3234ZM57.7897 71.7911C57.1781 71.7911 56.5915 72.034 56.159 72.4665C55.7266 72.899 55.4836 73.4855 55.4836 74.0971C55.4836 74.7087 55.7266 75.2953 56.159 75.7277C56.5915 76.1602 57.1781 76.4032 57.7897 76.4032C58.4013 76.4032 58.9878 76.1602 59.4203 75.7277C59.8528 75.2953 60.0957 74.7087 60.0957 74.0971C60.0957 73.4855 59.8528 72.899 59.4203 72.4665C58.9878 72.034 58.4013 71.7911 57.7897 71.7911ZM24.2969 71.6496C24.9085 71.6496 25.4951 71.8926 25.9276 72.3251C26.36 72.7575 26.603 73.3441 26.603 73.9557C26.603 74.5673 26.36 75.1539 25.9276 75.5863C25.4951 76.0188 24.9085 76.2617 24.2969 76.2617C23.6853 76.2617 23.0988 76.0188 22.6663 75.5863C22.2338 75.1539 21.9909 74.5673 21.9909 73.9557C21.9909 73.3441 22.2338 72.7575 22.6663 72.3251C23.0988 71.8926 23.6853 71.6496 24.2969 71.6496Z" stroke="#1727FF" stroke-width="2" stroke-linecap="round" stroke-linejoin="round"/>
</svg>
