<svg width="119" height="119" viewBox="0 0 119 119" fill="none" xmlns="http://www.w3.org/2000/svg">
<g clip-path="url(#clip0_230_5094)">
<path d="M74.4516 58.2566C74.4516 62.3133 72.84 66.204 69.9715 69.0725C67.1029 71.9411 63.2123 73.5527 59.1555 73.5527C55.0987 73.5527 51.2081 71.9411 48.3395 69.0725C45.4709 66.204 43.8594 62.3133 43.8594 58.2566C43.8594 54.1998 45.4709 50.3092 48.3395 47.4406C51.2081 44.572 55.0987 42.9604 59.1555 42.9604C63.2123 42.9604 67.1029 44.572 69.9715 47.4406C72.84 50.3092 74.4516 54.1998 74.4516 58.2566Z" stroke="#1727FF" stroke-width="2"/>
<path d="M67.3522 88.4236C62.1579 89.828 56.6885 89.8639 51.4762 88.5279C51.7474 86.6866 51.463 84.8064 50.6595 83.1276C49.856 81.4489 48.5699 80.0481 46.9657 79.1045C45.3616 78.1609 43.5124 77.7174 41.6547 77.8307C39.7971 77.944 38.0155 78.609 36.5379 79.7406C35.0907 78.206 33.8031 76.5285 32.6947 74.734C30.9801 71.9641 29.7504 69.0297 28.9866 66.0307L29.0979 65.9618C30.4497 65.1257 31.566 63.9588 32.3415 62.5714C33.1171 61.184 33.5262 59.6218 33.5303 58.0324C33.5344 56.4429 33.1333 54.8787 32.3649 53.4873C31.5965 52.0959 30.4861 50.9234 29.1387 50.0803C30.4569 45.2643 32.9126 40.8354 36.2993 37.1663C37.7743 38.0615 39.4681 38.5312 41.1935 38.5234C42.9189 38.5156 44.6084 38.0306 46.0753 37.1222C47.5426 36.2144 48.7301 34.9185 49.5066 33.3777C50.283 31.8369 50.6181 30.1113 50.4747 28.3919C55.2691 26.9971 60.3284 26.7743 65.2268 27.7423C65.3813 29.3355 65.9422 30.8624 66.8557 32.1768C67.7692 33.4912 69.0048 34.5491 70.4442 35.2492C71.8836 35.9494 73.4787 36.2684 75.0767 36.1757C76.6746 36.083 78.2221 35.5817 79.5709 34.7198C81.9706 36.7938 84.0398 39.2218 85.7069 41.9202C86.839 43.7491 87.7593 45.6504 88.4748 47.5942C86.803 48.412 85.4133 49.7101 84.4834 51.3222C83.5535 52.9343 83.1258 54.7873 83.2549 56.6439C83.3841 58.5005 84.0643 60.2764 85.2084 61.7442C86.3526 63.2121 87.9087 64.3051 89.6776 64.8836C88.5484 70.1443 86.0767 75.0231 82.5031 79.0454C80.9951 77.7595 79.1177 76.9857 77.1416 76.8354C75.1655 76.6851 73.1927 77.1662 71.5075 78.2092C69.8224 79.2523 68.512 80.8035 67.7652 82.6392C67.0184 84.4749 66.8738 86.5004 67.3522 88.4236Z" stroke="#1727FF" stroke-width="2" stroke-linejoin="round"/>
<path d="M86.916 13.4771C90.1639 13.4771 92.7969 16.11 92.7969 19.3579C92.7968 22.6057 90.1639 25.2388 86.916 25.2388C83.9669 25.2388 81.5249 23.0677 81.1006 20.2368H74.5791V30.1792C74.5791 30.5106 74.3109 30.7788 73.9795 30.7788C73.6483 30.7786 73.3799 30.5104 73.3799 30.1792V19.6372C73.38 19.3061 73.6484 19.0378 73.9795 19.0376H81.0439C81.2102 15.9386 83.7755 13.4771 86.916 13.4771ZM86.916 14.6772C84.3321 14.6773 82.2374 16.7706 82.2354 19.354C82.281 19.4386 82.3086 19.5343 82.3086 19.6372C82.3086 19.7179 82.2916 19.7945 82.2627 19.8647C82.5154 22.2114 84.5022 24.0386 86.916 24.0386C89.5011 24.0386 91.5966 21.943 91.5967 19.3579C91.5967 16.7727 89.5012 14.6773 86.916 14.6772ZM86.9717 16.0474C88.7576 16.0474 90.206 17.4949 90.2061 19.2808C90.2061 21.0667 88.7576 22.5142 86.9717 22.5142C85.1859 22.514 83.7383 21.0666 83.7383 19.2808C83.7383 17.4949 85.1859 16.0475 86.9717 16.0474Z" fill="#1727FF"/>
<path d="M86.916 104.001C90.1638 104.001 92.7967 101.368 92.7969 98.1201C92.7969 94.8722 90.1639 92.2393 86.916 92.2393C83.967 92.2393 81.5251 94.4096 81.1006 97.2402H74.5791V87.2979C74.5791 86.9665 74.3109 86.6982 73.9795 86.6982C73.6483 86.6984 73.3799 86.9666 73.3799 87.2979V97.8398C73.38 98.171 73.6484 98.4393 73.9795 98.4395H81.0439C81.2099 101.539 83.7753 104.001 86.916 104.001ZM86.916 102.801C84.3319 102.801 82.2371 100.707 82.2354 98.123C82.281 98.0385 82.3085 97.9427 82.3086 97.8398C82.3086 97.7592 82.2916 97.6825 82.2627 97.6123C82.5157 95.2659 84.5023 93.4395 86.916 93.4395C89.5012 93.4395 91.5967 95.5349 91.5967 98.1201C91.5965 100.705 89.5011 102.801 86.916 102.801ZM86.9717 101.419C88.7575 101.419 90.2059 99.9713 90.2061 98.1855C90.2061 96.3996 88.7576 94.9512 86.9717 94.9512C85.1859 94.9513 83.7383 96.3997 83.7383 98.1855C83.7385 99.9712 85.186 101.419 86.9717 101.419Z" fill="#1727FF"/>
<path d="M30.3223 13.4771C27.0744 13.4771 24.4414 16.1101 24.4414 19.3579C24.4415 22.6057 27.0745 25.2387 30.3223 25.2388C33.2714 25.2388 35.7134 23.0677 36.1377 20.2368H42.6611V30.1792C42.6611 30.5106 42.9294 30.7788 43.2607 30.7788C43.5919 30.7786 43.8604 30.5104 43.8604 30.1792V19.6372C43.8602 19.3061 43.5918 19.0378 43.2607 19.0376H36.1943C36.0281 15.9386 33.4628 13.4771 30.3223 13.4771ZM30.3223 14.6772C32.9074 14.6773 35.0039 16.7727 35.0039 19.3579C34.9594 19.4417 34.9317 19.5357 34.9316 19.6372C34.9316 19.7164 34.9477 19.7917 34.9756 19.8608C34.7246 22.2094 32.7374 24.0386 30.3223 24.0386C27.7372 24.0385 25.6417 21.943 25.6416 19.3579C25.6416 16.7728 27.7372 14.6773 30.3223 14.6772ZM30.3232 16.1235C28.5374 16.1237 27.0898 17.5721 27.0898 19.3579C27.09 21.1436 28.5375 22.5912 30.3232 22.5913C32.1091 22.5913 33.5574 21.1437 33.5576 19.3579C33.5576 17.572 32.1092 16.1235 30.3232 16.1235Z" fill="#1727FF"/>
<path d="M30.3223 104.001C27.0745 104.001 24.4416 101.368 24.4414 98.1201C24.4414 94.8723 27.0744 92.2394 30.3223 92.2393C33.2712 92.2393 35.7131 94.4096 36.1377 97.2402H42.6611V87.2979C42.6611 86.9665 42.9294 86.6982 43.2607 86.6982C43.5919 86.6985 43.8604 86.9666 43.8604 87.2979V97.8398C43.8602 98.171 43.5918 98.4392 43.2607 98.4395H36.1943C36.0283 101.539 33.4629 104.001 30.3223 104.001ZM30.3223 102.801C32.9073 102.801 35.0028 100.705 35.0029 98.1201V98.1191C34.9585 98.0355 34.9317 97.9412 34.9316 97.8398C34.9316 97.761 34.948 97.6861 34.9756 97.6172C34.7248 95.2685 32.7376 93.4395 30.3223 93.4395C27.7372 93.4395 25.6416 95.535 25.6416 98.1201C25.6418 100.705 27.7373 102.801 30.3223 102.801ZM30.3701 101.419C28.5844 101.419 27.1369 99.9712 27.1367 98.1855C27.1367 96.3997 28.5843 94.9513 30.3701 94.9512C32.1561 94.9512 33.6045 96.3996 33.6045 98.1855C33.6043 99.9713 32.1559 101.419 30.3701 101.419Z" fill="#1727FF"/>
<path d="M8.08594 41.1943C8.08594 37.9464 10.7189 35.3135 13.9668 35.3135C17.2147 35.3135 19.8477 37.9464 19.8477 41.1943C19.8475 44.1427 17.6775 46.5837 14.8477 47.0088L14.8477 53.5322L24.79 53.5322C25.1212 53.5325 25.3896 53.8006 25.3896 54.1318C25.3895 54.4629 25.1211 54.7312 24.79 54.7314L14.248 54.7314C13.9168 54.7314 13.6486 54.4631 13.6484 54.1318L13.6484 47.0664C10.5487 46.9011 8.08614 44.3353 8.08594 41.1943ZM9.28613 41.1943C9.28634 43.7793 11.3818 45.875 13.9668 45.875L13.9678 45.875C14.0516 45.8304 14.1464 45.8027 14.248 45.8027C14.3277 45.8028 14.4032 45.8194 14.4727 45.8477C16.8198 45.5955 18.6473 43.6084 18.6475 41.1943C18.6475 38.6092 16.552 36.5137 13.9668 36.5137C11.3816 36.5137 9.28613 38.6092 9.28613 41.1943ZM10.7842 41.2422C10.7842 39.4564 12.2318 38.008 14.0176 38.0078C15.8035 38.0078 17.252 39.4563 17.252 41.2422C17.2517 43.0279 15.8034 44.4756 14.0176 44.4756C12.232 44.4754 10.7844 43.0278 10.7842 41.2422Z" fill="#1727FF"/>
<path d="M110.103 39.4187C110.103 36.1709 107.469 33.538 104.222 33.5378C100.974 33.5378 98.3408 36.1708 98.3408 39.4187C98.3409 42.3672 100.511 44.8081 103.341 45.2332L103.341 51.7566L93.3984 51.7566C93.0671 51.7567 92.7988 52.0249 92.7988 52.3562C92.799 52.6874 93.0673 52.9557 93.3984 52.9558L103.94 52.9558C104.272 52.9558 104.54 52.6874 104.54 52.3562L104.54 45.2908C107.64 45.1253 110.102 42.5597 110.103 39.4187ZM108.902 39.4187C108.902 42.0037 106.807 44.0992 104.222 44.0994L104.221 44.0994C104.137 44.0547 104.042 44.0271 103.94 44.0271C103.861 44.0271 103.785 44.0438 103.716 44.072C101.369 43.8199 99.5411 41.833 99.541 39.4187C99.541 36.8335 101.637 34.738 104.222 34.738C106.807 34.7382 108.902 36.8336 108.902 39.4187ZM107.441 39.3972C107.441 37.6113 105.993 36.1638 104.207 36.1638C102.421 36.1639 100.974 37.6114 100.974 39.3972C100.974 41.1831 102.421 42.6305 104.207 42.6306C105.993 42.6306 107.441 41.1832 107.441 39.3972Z" fill="#1727FF"/>
<path d="M8.08594 75.769C8.08594 79.017 10.7189 81.6499 13.9668 81.6499C17.2147 81.6499 19.8477 79.017 19.8477 75.769C19.8476 72.8206 17.6776 70.3797 14.8477 69.9546L14.8477 63.4312L24.79 63.4312C25.1212 63.4309 25.3896 63.1628 25.3896 62.8315C25.3896 62.5003 25.1212 62.2322 24.79 62.2319L14.248 62.2319C13.9167 62.2319 13.6485 62.5002 13.6484 62.8315L13.6484 69.897C10.5486 70.0623 8.08601 72.628 8.08594 75.769ZM9.28613 75.769C9.28621 73.1839 11.3817 71.0884 13.9668 71.0884L13.9678 71.0884C14.0516 71.133 14.1464 71.1606 14.248 71.1606C14.3277 71.1606 14.4032 71.1439 14.4727 71.1157C16.8198 71.3679 18.6474 73.3549 18.6475 75.769C18.6475 78.3542 16.552 80.4497 13.9668 80.4497C11.3816 80.4497 9.28613 78.3542 9.28613 75.769ZM10.7842 75.7993C10.7842 77.5851 12.2318 79.0325 14.0176 79.0327C15.8035 79.0327 17.252 77.5853 17.252 75.7993C17.2519 74.0135 15.8035 72.5659 14.0176 72.5659C12.2319 72.5662 10.7843 74.0136 10.7842 75.7993Z" fill="#1727FF"/>
<path d="M110.103 75.769C110.103 79.0169 107.469 81.6498 104.222 81.6499C100.974 81.6499 98.3408 79.017 98.3408 75.769C98.3409 72.8205 100.511 70.3796 103.341 69.9546L103.341 63.4312L93.3984 63.4312C93.0671 63.4311 92.7988 63.1629 92.7988 62.8315C92.7988 62.5002 93.0672 62.232 93.3984 62.2319L103.94 62.2319C104.272 62.2319 104.54 62.5002 104.54 62.8315L104.54 69.897C107.64 70.0625 110.102 72.6281 110.103 75.769ZM108.902 75.769C108.902 73.184 106.807 71.0885 104.222 71.0884L104.221 71.0884C104.137 71.133 104.042 71.1606 103.94 71.1606C103.861 71.1606 103.785 71.1439 103.716 71.1157C101.369 71.3678 99.5411 73.3548 99.541 75.769C99.541 78.3542 101.637 80.4497 104.222 80.4497C106.807 80.4496 108.902 78.3541 108.902 75.769ZM107.501 75.812C107.501 77.5978 106.053 79.0454 104.268 79.0454C102.482 79.0454 101.034 77.5978 101.034 75.812C101.034 74.0261 102.482 72.5777 104.268 72.5776C106.054 72.5776 107.501 74.0261 107.501 75.812Z" fill="#1727FF"/>
</g>
<defs>
<clipPath id="clip0_230_5094">
<rect width="104.75" height="92.3221" fill="white" transform="translate(6.67871 13.4475)"/>
</clipPath>
</defs>
</svg>
