<svg width="105" height="104" viewBox="0 0 105 104" fill="none" xmlns="http://www.w3.org/2000/svg">
<path d="M91.3836 64.8917L84.7483 71.8369C84.6461 71.9439 84.521 72.029 84.3802 72.0845L78.2791 74.6005C77.7461 74.8219 77.1274 74.567 76.8983 74.0266C76.6769 73.4936 76.9318 72.8749 77.4722 72.6458L83.3735 70.2166L89.8554 63.4318C90.381 62.8816 90.4592 62.0503 90.0411 61.417C89.7932 61.034 89.3986 60.774 88.9484 60.6946C88.4982 60.6152 88.0447 60.7227 87.6773 61.0001L81.9767 65.3456C81.771 65.4997 81.5187 65.5802 81.2568 65.5638C81.2043 65.5575 75.7559 65.2335 71.8141 69.3594C67.8724 73.4853 68.6403 78.9686 68.6493 79.0356C68.684 79.2441 68.6443 79.4692 68.5514 79.6582L64.386 89.652C64.129 90.1811 63.491 90.39 62.9693 90.1253C62.4403 89.8684 62.2314 89.2304 62.496 88.7086L66.5258 78.9944C66.3888 77.5775 66.191 72.1858 70.2933 67.8918C74.3956 63.5978 79.4962 63.4141 81.0065 63.4394L86.4061 59.3326C87.2287 58.7009 88.2917 58.445 89.3197 58.6233C90.3477 58.8016 91.2584 59.4087 91.8164 60.2778C92.7615 61.7361 92.5807 63.6386 91.3763 64.8993L91.3836 64.8917Z" fill="#1727FF"/>
<path d="M92.3705 75.7904C91.8085 76.3787 91.1777 76.9013 90.5 77.3353L78.7671 84.9202L76.0946 90.624C75.8376 91.153 75.2149 91.3765 74.6862 91.1345C74.1575 90.8924 73.9337 90.2548 74.1757 89.7261L76.9766 83.7503C77.0621 83.5689 77.1932 83.4165 77.3628 83.3154L89.3458 75.5605C90.8041 74.6154 91.9384 73.2292 92.5666 71.608L102.035 47.3183C102.282 46.6774 102.243 45.9682 101.93 45.3625C101.617 44.7568 101.039 44.3215 100.386 44.1646C99.3337 43.9195 98.239 44.4228 97.7529 45.3906L91.7931 57.044C91.5285 57.5657 90.8905 57.7746 90.3761 57.5023C89.8543 57.2377 89.6455 56.5997 89.9177 56.0853L95.8775 44.4319C96.8146 42.5943 98.8632 41.6432 100.877 42.1055C102.139 42.4055 103.212 43.2256 103.821 44.3776C104.43 45.5297 104.506 46.8732 104.033 48.0873L94.5647 72.377C94.0632 73.6516 93.3344 74.7968 92.3928 75.7824L92.3705 75.7904Z" fill="#1727FF"/>
<path d="M67.8345 94.7784C67.7114 95.2377 67.2829 95.5714 66.7935 95.5606L64.7719 95.5112C64.1852 95.4962 63.7243 95.0117 63.7393 94.425C63.7543 93.8382 64.2388 93.3773 64.8255 93.3923L66.8471 93.4417C67.4338 93.4567 67.8947 93.9412 67.8797 94.5279C67.8783 94.6151 67.8666 94.6994 67.8447 94.7811L67.8345 94.7784Z" fill="#1727FF"/>
<path d="M80.0654 90.8958V99.7979L60.055 99.404V90.1078L80.0654 90.8958Z" stroke="#1727FF" stroke-width="1.5" stroke-linecap="round" stroke-linejoin="round"/>
<path d="M13.8425 64.8904L20.4778 71.8357C20.58 71.9427 20.7051 72.0278 20.8458 72.0833L26.9469 74.5993C27.48 74.8207 28.0987 74.5658 28.3278 74.0254C28.5492 73.4923 28.2943 72.8737 27.7539 72.6446L21.8526 70.2154L15.3706 63.4305C14.8451 62.8804 14.7669 62.049 15.1849 61.4158C15.4328 61.0328 15.8274 60.7728 16.2777 60.6934C16.7279 60.614 17.1814 60.7215 17.5487 60.9989L23.2493 65.3443C23.4551 65.4985 23.7074 65.579 23.9693 65.5626C24.0218 65.5563 29.4702 65.2322 33.4119 69.3581C37.3537 73.4841 36.5858 78.9673 36.5768 79.0344C36.5421 79.2429 36.5818 79.468 36.6747 79.657L40.8401 89.6508C41.097 90.1799 41.735 90.3888 42.2568 90.1241C42.7858 89.8671 42.9947 89.2292 42.7301 88.7074L38.7003 78.9932C38.8373 77.5763 39.0351 72.1846 34.9328 67.8906C30.8304 63.5966 25.7299 63.4129 24.2196 63.4382L18.82 59.3313C17.9973 58.6997 16.9344 58.4437 15.9064 58.6221C14.8784 58.8004 13.9677 59.4074 13.4097 60.2766C12.4646 61.7349 12.6454 63.6374 13.8498 64.8981L13.8425 64.8904Z" fill="#1727FF"/>
<path d="M12.8545 75.7892C13.4166 76.3775 14.0474 76.9001 14.7251 77.3341L26.458 84.9189L29.1305 90.6228C29.3875 91.1518 30.0102 91.3753 30.5389 91.1333C31.0676 90.8912 31.2914 90.2536 31.0494 89.7249L28.2485 83.749C28.163 83.5677 28.0319 83.4152 27.8623 83.3142L15.8793 75.5593C14.421 74.6141 13.2867 73.228 12.6585 71.6068L3.19046 47.3171C2.9435 46.6762 2.98211 45.967 3.2949 45.3613C3.60768 44.7556 4.18564 44.3203 4.83945 44.1634C5.8914 43.9183 6.98605 44.4216 7.47218 45.3894L13.432 57.0428C13.6966 57.5645 14.3346 57.7734 14.849 57.5011C15.3708 57.2365 15.5796 56.5985 15.3074 56.0841L9.3476 44.4307C8.41046 42.5931 6.3619 41.642 4.34833 42.1043C3.08586 42.4043 2.01331 43.2244 1.40405 44.3764C0.794784 45.5284 0.719272 46.872 1.19231 48.0861L10.6604 72.3758C11.1619 73.6504 11.8907 74.7955 12.8323 75.7812L12.8545 75.7892Z" fill="#1727FF"/>
<path d="M26.4553 90.8943V99.7965L46.4658 99.4025V90.1063L26.4553 90.8943Z" stroke="#1727FF" stroke-width="1.5" stroke-linecap="round" stroke-linejoin="round"/>
<path d="M37.3916 94.7771C37.5147 95.2365 37.9432 95.5702 38.4326 95.5594L40.4542 95.51C41.0409 95.495 41.5018 95.0105 41.4868 94.4237C41.4718 93.837 40.9873 93.3761 40.4006 93.3911L38.379 93.4405C37.7923 93.4555 37.3314 93.94 37.3464 94.5267C37.3478 94.6138 37.3595 94.6982 37.3814 94.7799L37.3916 94.7771Z" fill="#1727FF"/>
<path d="M77.1096 10.1016V30.3086C76.905 34.6636 75.4173 41.6107 71.6116 48.2109C67.8357 54.7594 61.7944 60.9385 52.4758 63.9443C44.9791 62.0567 29.7451 52.8114 28.0784 30.293V10.0996L52.5061 0.810547L77.1096 10.1016Z" stroke="#1727FF" stroke-width="1.5"/>
<path d="M74.2747 12.1064V30.5107C74.0964 34.4764 72.7864 40.7913 69.4329 46.7891C66.0979 52.7534 60.7523 58.386 52.5032 61.1104C45.894 59.4288 32.3855 51.029 30.9163 30.5107V12.1064L52.5168 3.63477L74.2747 12.1064Z" stroke="#1727FF" stroke-width="0.803882"/>
<path d="M44.1558 33.5729L49.7829 39.2001L61.0373 27.1418" stroke="#1727FF" stroke-width="2" stroke-linecap="round" stroke-linejoin="round"/>
</svg>
