<svg width="119" height="119" viewBox="0 0 119 119" fill="none" xmlns="http://www.w3.org/2000/svg">
<g clip-path="url(#clip0_230_5087)">
<path d="M91.2982 37.9878C91.2989 35.6812 90.6861 33.4159 89.5229 31.4242C88.3596 29.4324 86.6875 27.7858 84.6782 26.6532C82.6688 25.5205 80.3944 24.9426 78.0881 24.9786C75.7818 25.0146 73.5266 25.6633 71.5535 26.8581C70.9801 23.8905 69.3915 21.2151 67.0603 19.2913C64.7292 17.3674 61.801 16.3152 58.7785 16.3152C55.756 16.3152 52.8278 17.3674 50.4966 19.2913C48.1655 21.2151 46.5768 23.8905 46.0034 26.8581M91.2982 37.9878C94.1729 37.9878 96.9299 39.1298 98.9627 41.1625C100.995 43.1953 102.137 45.9523 102.137 48.827C102.137 51.7017 100.995 54.4587 98.9627 56.4915C96.9299 58.5242 94.1729 59.6662 91.2982 59.6662L26.2631 59.6662C23.3883 59.6662 20.6313 58.5242 18.5986 56.4915C16.5659 54.4587 15.4239 51.7017 15.4239 48.827C15.4239 45.9523 16.5659 43.1953 18.5986 41.1625C20.6313 39.1298 23.3883 37.9878 26.2631 37.9878C26.2629 35.6819 26.8757 33.4173 28.0388 31.4262C29.2019 29.4351 30.8734 27.7889 32.882 26.6564C34.8907 25.5239 37.1644 24.9458 39.47 24.9812C41.7757 25.0166 44.0305 25.6644 46.0034 26.8581M91.2982 37.9878C87.7516 37.9878 84.6039 39.6917 82.6269 42.3235M46.0034 26.8581C48.5793 28.4141 50.536 30.8151 51.5401 33.6521M99.0705 91.0998L89.3152 81.3446L89.3152 72.6732M18.4908 91.0998L28.246 81.3446L28.246 72.6732M81.4705 105.86L71.7153 96.1049L71.7153 72.6732M34.2426 105.661L43.9979 95.9055L43.9979 72.6732M99.0705 87.8481C98.2081 87.8481 97.381 88.1907 96.7712 88.8005C96.1613 89.4103 95.8188 90.2374 95.8188 91.0998C95.8188 91.9623 96.1613 92.7894 96.7712 93.3992C97.381 94.009 98.2081 94.3516 99.0705 94.3516C99.9329 94.3516 100.76 94.009 101.37 93.3992C101.98 92.7894 102.322 91.9623 102.322 91.0998C102.322 90.2374 101.98 89.4103 101.37 88.8005C100.76 88.1907 99.9329 87.8481 99.0705 87.8481ZM18.4908 87.8481C19.3532 87.8481 20.1803 88.1907 20.7901 88.8005C21.3999 89.4103 21.7425 90.2374 21.7425 91.0998C21.7425 91.9623 21.3999 92.7894 20.7901 93.3992C20.1803 94.009 19.3532 94.3516 18.4908 94.3516C17.6283 94.3516 16.8012 94.009 16.1914 93.3992C15.5816 92.7894 15.239 91.9623 15.239 91.0998C15.239 90.2374 15.5816 89.4103 16.1914 88.8005C16.8012 88.1907 17.6283 87.8481 18.4908 87.8481ZM81.4705 102.608C80.6081 102.608 79.781 102.951 79.1712 103.561C78.5614 104.171 78.2188 104.998 78.2188 105.86C78.2188 106.723 78.5614 107.55 79.1712 108.16C79.781 108.769 80.6081 109.112 81.4705 109.112C82.333 109.112 83.16 108.769 83.7699 108.16C84.3797 107.55 84.7223 106.723 84.7223 105.86C84.7223 104.998 84.3797 104.171 83.7699 103.561C83.16 102.951 82.333 102.608 81.4705 102.608ZM34.2426 102.409C35.105 102.409 35.9321 102.752 36.542 103.361C37.1518 103.971 37.4944 104.798 37.4944 105.661C37.4944 106.523 37.1518 107.35 36.542 107.96C35.9321 108.57 35.105 108.913 34.2426 108.913C33.3802 108.913 32.5531 108.57 31.9433 107.96C31.3335 107.35 30.9909 106.523 30.9909 105.661C30.9909 104.798 31.3335 103.971 31.9433 103.361C32.5531 102.752 33.3802 102.409 34.2426 102.409Z" stroke="#1727FF" stroke-width="2" stroke-linecap="round" stroke-linejoin="round"/>
</g>
<defs>
<clipPath id="clip0_230_5087">
<rect width="105.757" height="105.757" fill="white" transform="translate(5.90332 7.63867)"/>
</clipPath>
</defs>
</svg>
