<svg width="343" height="77" viewBox="0 0 343 77" fill="none" xmlns="http://www.w3.org/2000/svg">
<path d="M339.182 0.131997C339.358 -0.0437387 339.642 -0.0437387 339.818 0.131997L342.682 2.99578C342.858 3.17152 342.858 3.45644 342.682 3.63218C342.506 3.80791 342.221 3.80791 342.046 3.63218L339.5 1.08659L336.954 3.63218C336.779 3.80791 336.494 3.80791 336.318 3.63218C336.142 3.45644 336.142 3.17152 336.318 2.99578L339.182 0.131997ZM339.5 0.450195L339.95 0.450195V56.4502H339.5H339.05V0.450195L339.5 0.450195ZM319.5 76.4502V76.9002H0V76.4502V76.0002H319.5V76.4502ZM339.5 56.4502H339.95C339.95 67.7444 330.794 76.9002 319.5 76.9002V76.4502V76.0002C330.297 76.0002 339.05 67.2474 339.05 56.4502H339.5Z" fill="white"/>
</svg>
