<svg width="342" height="78" viewBox="0 0 342 78" fill="none" xmlns="http://www.w3.org/2000/svg">
<path d="M3.63265 0.131021C3.45692 -0.0447152 3.17199 -0.0447152 2.99626 0.131021L0.132473 2.9948C-0.0432632 3.17054 -0.0432632 3.45546 0.132473 3.6312C0.308209 3.80694 0.593133 3.80694 0.768869 3.6312L3.31445 1.08561L5.86004 3.6312C6.03577 3.80694 6.3207 3.80694 6.49643 3.6312C6.67217 3.45546 6.67217 3.17054 6.49643 2.9948L3.63265 0.131021ZM3.31445 0.449219H2.86445V57.4492H3.31445H3.76445V0.449219H3.31445ZM23.3145 77.4492V77.8992H341.814V77.4492V76.9992H23.3145V77.4492ZM3.31445 57.4492H2.86445C2.86445 68.7434 12.0202 77.8992 23.3145 77.8992V77.4492V76.9992C12.5173 76.9992 3.76445 68.2464 3.76445 57.4492H3.31445Z" fill="white"/>
</svg>
