<svg width="106" height="106" viewBox="0 0 106 106" fill="none" xmlns="http://www.w3.org/2000/svg">
<path d="M94.0113 90.736H86.1437C85.4841 90.736 84.9659 90.2177 84.9659 89.5582C84.9659 88.8986 85.4841 88.3804 86.1437 88.3804H94.0113C96.0606 88.3804 97.733 86.708 97.733 84.6586V7.20795C97.733 5.15862 96.0606 3.48617 94.0113 3.48617H12.1086C10.0593 3.48617 8.38681 5.15862 8.38681 7.20795V84.6586C8.38681 86.708 10.0593 88.3804 12.1086 88.3804H19.9761C20.6357 88.3804 21.1539 88.8986 21.1539 89.5582C21.1539 90.2177 20.6357 90.736 19.9761 90.736H12.1086C8.74014 90.736 6.03125 88.0035 6.03125 84.6586V7.20795C6.03125 3.8395 8.7637 1.13062 12.1086 1.13062H94.0113C97.3797 1.13062 100.089 3.86306 100.089 7.20795V84.6586C100.112 88.0035 97.3797 90.736 94.0113 90.736Z" fill="#1727FF"/>
<path d="M98.9344 22.0008H7.20903C6.54947 22.0008 6.03125 21.4826 6.03125 20.823C6.03125 20.1635 6.54947 19.6453 7.20903 19.6453H98.9344C99.5939 19.6453 100.112 20.1635 100.112 20.823C100.112 21.4826 99.5704 22.0008 98.9344 22.0008Z" fill="#1727FF"/>
<path d="M21.2924 16.8893C18.348 16.8893 15.9453 14.4866 15.9453 11.5422C15.9453 8.59774 18.348 6.19507 21.2924 6.19507C24.2369 6.19507 26.6395 8.59774 26.6395 11.5422C26.6395 14.4866 24.2369 16.8893 21.2924 16.8893ZM21.2924 8.57418C19.6435 8.57418 18.3009 9.91685 18.3009 11.5657C18.3009 13.2146 19.6435 14.5573 21.2924 14.5573C22.9413 14.5573 24.284 13.2146 24.284 11.5657C24.284 9.91685 22.9413 8.57418 21.2924 8.57418Z" fill="#1727FF"/>
<path d="M34.5073 16.8893C31.5628 16.8893 29.1602 14.4866 29.1602 11.5422C29.1602 8.59774 31.5628 6.19507 34.5073 6.19507C37.4517 6.19507 39.8544 8.59774 39.8544 11.5422C39.8544 14.4866 37.4517 16.8893 34.5073 16.8893ZM34.5073 8.57418C32.8584 8.57418 31.5157 9.91685 31.5157 11.5657C31.5157 13.2146 32.8584 14.5573 34.5073 14.5573C36.1562 14.5573 37.4988 13.2146 37.4988 11.5657C37.4988 9.91685 36.1562 8.57418 34.5073 8.57418Z" fill="#1727FF"/>
<path d="M47.7221 16.8893C44.7777 16.8893 42.375 14.4866 42.375 11.5422C42.375 8.59774 44.7777 6.19507 47.7221 6.19507C50.6666 6.19507 53.0692 8.59774 53.0692 11.5422C53.0692 14.4866 50.6666 16.8893 47.7221 16.8893ZM47.7221 8.57418C46.0732 8.57418 44.7306 9.91685 44.7306 11.5657C44.7306 13.2146 46.0732 14.5573 47.7221 14.5573C49.371 14.5573 50.7137 13.2146 50.7137 11.5657C50.7137 9.91685 49.371 8.57418 47.7221 8.57418Z" fill="#1727FF"/>
<path d="M88.9946 12.7435H63.9786C63.319 12.7435 62.8008 12.2253 62.8008 11.5657C62.8008 10.9062 63.319 10.3879 63.9786 10.3879H88.971C89.6306 10.3879 90.1488 10.9062 90.1488 11.5657C90.1488 12.2253 89.6541 12.7435 88.9946 12.7435Z" fill="#1727FF"/>
<path d="M42.3311 98.6035C42.072 98.6035 41.8129 98.5092 41.5774 98.3443L29.6818 88.6159C29.3991 88.4039 29.2578 88.0506 29.2578 87.6972C29.2578 87.3439 29.4227 87.0141 29.6818 86.7786L41.5774 77.0501C42.072 76.6261 42.8258 76.7203 43.2263 77.215C43.6267 77.7097 43.556 78.4634 43.0614 78.8639L32.2965 87.6737L43.0614 96.4835C43.556 96.8839 43.6503 97.6377 43.2263 98.1323C43.0143 98.4386 42.6609 98.6035 42.3311 98.6035Z" fill="#1727FF"/>
<path d="M63.7891 98.6035C63.4593 98.6035 63.106 98.4621 62.8704 98.1795C62.47 97.6848 62.5407 96.931 63.0353 96.5306L73.8002 87.7208L63.0353 78.911C62.5407 78.5106 62.4464 77.7568 62.8704 77.2621C63.2709 76.7675 64.0247 76.6732 64.5193 77.0972L76.4149 86.8257C76.6975 87.0377 76.8389 87.391 76.8389 87.7443C76.8389 88.0977 76.674 88.4275 76.4149 88.663L64.5429 98.3208C64.3309 98.5092 64.0718 98.6035 63.7891 98.6035Z" fill="#1727FF"/>
<path d="M50.0309 100.205C49.9366 100.205 49.8189 100.182 49.7246 100.158C49.0886 99.9933 48.7118 99.3337 48.9002 98.7213L54.9775 76.0608C55.1424 75.4248 55.802 75.0715 56.4144 75.2364C57.0504 75.4013 57.4273 76.0608 57.2389 76.6733L51.1615 99.3337C51.0202 99.852 50.5491 100.205 50.0309 100.205Z" fill="#1727FF"/>
<path d="M79.0049 105.223H27.112C22.5187 105.223 18.7969 101.477 18.7969 96.9076V78.4636C18.7969 73.8702 22.5422 70.1484 27.112 70.1484H78.9813C83.5747 70.1484 87.2964 73.8938 87.2964 78.4636V96.9076C87.32 101.501 83.5982 105.223 79.0049 105.223ZM27.112 72.504C23.8142 72.504 21.1524 75.1893 21.1524 78.4636V96.9076C21.1524 100.205 23.8378 102.867 27.112 102.867H78.9813C82.2791 102.867 84.9409 100.182 84.9409 96.9076V78.4636C84.9409 75.1658 82.2555 72.504 78.9813 72.504H27.112Z" fill="#1727FF"/>
<path d="M59.9246 72.5039C59.2651 72.5039 58.7468 71.9857 58.7468 71.3261V51.0212C58.7468 50.3617 59.2651 49.8434 59.9246 49.8434H62.9162C64.1646 49.8434 64.7771 48.7834 64.9891 48.3359C65.4602 47.2994 65.5308 45.6741 64.5651 44.567L54.7659 33.2839C54.3184 32.7657 53.7059 32.483 53.0464 32.483C52.3868 32.483 51.7744 32.7657 51.3268 33.2839L41.5277 44.567C40.7033 45.5092 40.5384 47.0874 41.1273 48.3594C41.3864 48.9248 41.9988 49.8434 43.1766 49.8434H46.1917C46.8513 49.8434 47.3695 50.3617 47.3695 51.0212V71.3261C47.3695 71.9857 46.8513 72.5039 46.1917 72.5039C45.5322 72.5039 45.014 71.9857 45.014 71.3261V52.199H43.1766C41.3628 52.199 39.8082 51.1154 38.9837 49.3252C38.0179 47.2052 38.3242 44.6612 39.7611 43.0123L49.5602 31.7292C50.4553 30.7163 51.7273 30.1274 53.07 30.1274C54.4126 30.1274 55.6846 30.7163 56.5797 31.7292L66.3788 43.0123C67.8157 44.6612 68.122 47.2052 67.1562 49.3252C66.3317 51.139 64.7535 52.2226 62.9397 52.2226H61.1259V71.3497C61.1024 71.9857 60.5606 72.5039 59.9246 72.5039Z" fill="#1727FF"/>
<path d="M37.69 29.7743H14.9825C14.3229 29.7743 13.8047 29.256 13.8047 28.5965C13.8047 27.9369 14.3229 27.4187 14.9825 27.4187H37.69C38.3496 27.4187 38.8678 27.9369 38.8678 28.5965C38.8678 29.256 38.3496 29.7743 37.69 29.7743Z" fill="#1727FF"/>
<path d="M37.69 35.6395H14.9825C14.3229 35.6395 13.8047 35.1213 13.8047 34.4617C13.8047 33.8022 14.3229 33.2839 14.9825 33.2839H37.69C38.3496 33.2839 38.8678 33.8022 38.8678 34.4617C38.8678 35.1213 38.3496 35.6395 37.69 35.6395Z" fill="#1727FF"/>
<path d="M30.694 41.4813H14.9825C14.3229 41.4813 13.8047 40.9631 13.8047 40.3035C13.8047 39.644 14.3229 39.1257 14.9825 39.1257H30.694C31.3536 39.1257 31.8718 39.644 31.8718 40.3035C31.8718 40.9631 31.3536 41.4813 30.694 41.4813Z" fill="#1727FF"/>
<path d="M91.1589 29.7743H68.4278C67.7682 29.7743 67.25 29.256 67.25 28.5965C67.25 27.9369 67.7682 27.4187 68.4278 27.4187H91.1589C91.8184 27.4187 92.3367 27.9369 92.3367 28.5965C92.3367 29.256 91.7949 29.7743 91.1589 29.7743Z" fill="#1727FF"/>
<path d="M91.1589 35.6395H68.4278C67.7682 35.6395 67.25 35.1213 67.25 34.4617C67.25 33.8022 67.7682 33.2839 68.4278 33.2839H91.1589C91.8184 33.2839 92.3367 33.8022 92.3367 34.4617C92.3367 35.1213 91.7949 35.6395 91.1589 35.6395Z" fill="#1727FF"/>
<path d="M91.1589 41.4813H75.4473C74.7878 41.4813 74.2695 40.9631 74.2695 40.3035C74.2695 39.644 74.7878 39.1257 75.4473 39.1257H91.1589C91.8184 39.1257 92.3366 39.644 92.3366 40.3035C92.3366 40.9631 91.7949 41.4813 91.1589 41.4813Z" fill="#1727FF"/>
<path d="M53.0723 67.2275C52.4128 67.2275 51.8945 66.7093 51.8945 66.0497V53.212C51.8945 52.5524 52.4128 52.0342 53.0723 52.0342C53.7319 52.0342 54.2501 52.5524 54.2501 53.212V66.0497C54.2501 66.7093 53.7083 67.2275 53.0723 67.2275Z" fill="#1727FF"/>
</svg>
