<svg width="472" height="260" viewBox="0 0 472 260" fill="none" xmlns="http://www.w3.org/2000/svg">
<path d="M466.539 177.195H5.26758V184.804H466.539V177.195Z" fill="#EC6721"/>
<path d="M314.154 14.2467C314.924 14.8178 316.042 14.4969 317.024 14.7045C322.882 15.9459 324.406 20.9774 325.959 26.0514C331.373 43.7467 334.908 65.0198 339.024 83.3522C340.945 91.8954 342.909 100.439 344.565 109.034L345.24 107.967C352.434 83.1304 357.895 57.7132 365.314 32.9521C367.49 25.6974 369.888 17.3619 378.214 15.1105C379.937 14.6432 381.561 14.714 383.213 14.2467H384.799C386.625 14.6951 388.428 14.6951 390.25 15.2898C398.963 18.1313 400.861 28.3595 403.084 36.0531C410.07 60.2714 415.79 84.8815 422.974 109.038L442.368 23.5074C443.383 20.3261 446.012 16.3849 449.255 15.1813C450.718 14.6385 452.148 14.7423 453.546 14.2467C454.065 14.2845 454.617 14.1948 455.131 14.2467C459.79 14.7281 464.637 17.8245 466.148 22.4029C467.738 27.2173 465.808 33.7261 464.737 38.6019C458.199 68.2765 450.284 99.438 442.435 128.825C439.192 140.96 437.413 151.349 422.011 150.263C409.791 149.399 408.026 136.599 405.165 127.173L384.161 48.8018L382.986 52.2191C375.033 78.8918 369.138 106.598 360.878 133.125C358.508 140.738 355.728 149.394 346.302 150.239C336.834 151.084 331.623 147.884 328.253 139.143C320.106 104.663 309.562 70.4336 302.326 35.7416C301.193 30.2994 299.612 24.1587 303.246 19.3396C305.503 16.3518 309.198 14.6007 312.88 14.242H314.145L314.154 14.2467Z" fill="url(#paint0_linear_3760_7769)"/>
<path d="M15.4067 14.2467C16.5017 14.7187 17.6817 14.6574 18.8806 15.0491C26.8621 17.631 27.1312 30.3183 18.9609 33.1834C12.3906 35.4867 7.07117 32.0883 5.26813 25.6597C5.32477 24.9422 5.18317 24.1398 5.26813 23.4413C5.63629 20.3827 7.30717 17.2392 10.0542 15.7099L14.4533 14.2467H15.4067Z" fill="url(#paint1_linear_3760_7769)"/>
<path d="M232.988 14.6574C251.079 13.5104 273.367 17.1165 283.242 34.2454C287.825 42.1986 288.924 55.9432 277.785 58.5345C263.531 61.8526 263.2 42.2222 252.269 36.0673C242.612 30.6298 220.645 32.5037 216.019 44.2801C209.053 61.9942 239.756 65.8835 250.541 68.8618C269.992 74.2332 289.826 80.5391 292.29 103.804C294.834 127.829 278.805 144.401 256.243 148.88C231.954 153.709 200.892 148.328 190.446 122.972C187.1 114.854 186.17 101.548 197.762 100.184C211.422 98.5742 211.507 113.98 218.167 122.174C231.463 138.529 270.885 131.048 265.858 107.74C263.705 97.7624 252.731 94.6755 244.207 92.3108C222.401 86.2692 192.216 82.4649 190.583 53.7154C189.144 28.3737 210.365 16.0781 232.983 14.6432L232.988 14.6574Z" fill="url(#paint2_linear_3760_7769)"/>
<path d="M50.509 14.9736C57.0273 14.5393 63.5881 15.1813 70.045 15.2096C101.66 15.3559 135.36 9.46535 158.767 35.7982C173.682 52.5778 177.652 77.6458 173.394 99.2681C167.527 129.065 144.564 149.121 114.106 150.579C109.301 150.81 97.0859 151.174 92.9418 149.862C86.1072 147.7 85.6871 135.683 91.6579 132.554C96.1608 130.194 105.417 131.199 110.623 130.925C165.238 128.051 169.401 38.1252 109.99 34.8401C90.4213 33.7592 69.5825 36.1098 50.0889 34.8684C43.3959 34.4436 37.3496 31.6588 37.9113 23.9227C38.4352 16.7342 44.524 15.3748 50.5137 14.9783L50.509 14.9736Z" fill="url(#paint3_linear_3760_7769)"/>
<path d="M38.468 91.06L115.319 91.0034C127.676 92.24 128.195 109.416 114.72 110.615L39.0486 110.582C25.6391 109.241 26.2668 92.3769 38.468 91.06Z" fill="url(#paint4_linear_3760_7769)"/>
<path d="M38.4674 53.9702C48.3888 53.739 58.2678 53.9891 68.142 54.2062C72.7015 54.3101 78.6535 53.6257 82.9487 54.6027C93.3185 56.9722 92.5539 72.5481 81.7403 73.8131L26.0963 73.7659C17.218 73.1334 14.9052 60.3139 21.9474 55.8299C25.5063 53.5643 34.04 54.0741 38.4627 53.9702H38.4674Z" fill="url(#paint5_linear_3760_7769)"/>
<path d="M113.229 54.9142C120.96 54.0316 125.652 59.049 124.344 66.6765C122.674 76.4327 107.47 76.2014 105.45 67.2759C104.115 61.3618 106.843 55.6458 113.224 54.919L113.229 54.9142Z" fill="url(#paint6_linear_3760_7769)"/>
<path d="M61.2796 131.322C69.6624 130.746 73.967 137.156 71.3899 144.934C68.2039 154.558 49.2389 150.971 53.1943 137.821C54.3648 133.927 57.1544 131.605 61.2796 131.322Z" fill="url(#paint7_linear_3760_7769)"/>
<path d="M289.761 210.485L295.784 238.064L303.666 210.67L307.518 210.632L315.268 238.385L321.272 210.788L325.879 210.485L317.614 245.007L313.224 245.026L305.767 217.773L297.955 244.517C297.342 245.55 295.133 244.833 294.033 245.064L285.334 210.485H289.771H289.761Z" fill="#B6B6B6"/>
<path d="M9.70508 245.041V210.485H21.5853C23.5064 210.485 27.6269 212.44 29.1798 213.662C36.6846 219.571 36.7554 235.752 29.3497 241.713C27.7638 242.987 23.5488 245.036 21.5853 245.036H9.70508V245.041ZM14.1419 241.236H20.9528C31.6389 241.236 33.4372 220.577 25.2056 215.744C24.3748 215.257 22.1187 214.29 21.2738 214.29H14.1466V241.236H14.1419Z" fill="#B6B6B6"/>
<path d="M138.962 220.312H134.525C134.898 210.216 115.905 212.383 120.143 221.549C122.654 226.982 136.29 225.589 138.745 233.689C143.351 248.906 113.899 249.86 113.932 235.214H118.685C118.071 244.687 138.004 243.922 134.124 234.189C132.793 230.852 125.826 229.776 122.72 228.483C118.623 226.779 114.946 224.169 115.008 219.26C115.159 206.285 139.49 206.86 138.962 220.317V220.312Z" fill="#B6B6B6"/>
<path d="M423.138 208.267V245.041H419.017C418.989 244.252 419.277 243.356 418.545 242.827C408.473 250.62 400.718 241.642 401.266 230.918C401.78 220.851 410.049 214.677 418.701 221.577V208.262H423.138V208.267ZM411.333 222.606C403.314 223.975 403.314 243.233 413.769 241.84C415.416 241.619 418.206 239.801 418.63 238.145C418.947 236.903 418.918 227.968 418.692 226.51C418.243 223.659 413.92 222.163 411.338 222.606H411.333Z" fill="#B6B6B6"/>
<path d="M39.1663 226.335C39.7563 217.863 54.5724 215.904 58.0274 223.154C59.6606 226.585 58.5514 234.373 58.7968 238.555C58.9242 240.717 59.3443 242.921 59.7597 245.041L55.3134 244.894L54.5346 242.506C48.8376 248.977 36.1361 245.088 38.9398 235.459C39.6147 233.141 41.616 231.367 43.8344 230.527C44.4102 230.309 47.1526 229.502 47.5632 229.502H54.6904C55.0774 224.881 52.7599 221.894 47.9078 222.555C46.0906 222.8 43.6078 224.273 43.6031 226.331H39.1663V226.335ZM54.6904 232.674H48.5119C47.1337 232.674 44.245 233.967 43.537 235.308C41.2714 239.598 45.4534 242.61 49.6353 241.727C50.8578 241.468 54.6857 239.136 54.6857 237.904V232.674H54.6904Z" fill="#B6B6B6"/>
<path d="M79.0843 226.335C79.6743 217.863 94.4904 215.904 97.9454 223.154C99.5785 226.585 98.4693 234.373 98.7148 238.555C98.8422 240.717 99.2623 242.921 99.6777 245.041L95.2314 244.894L94.4526 242.506C88.7556 248.977 76.0541 245.088 78.8577 235.459C79.5327 233.141 81.534 231.367 83.7524 230.527C84.3282 230.309 87.0705 229.502 87.4812 229.502H94.6084C94.9954 224.881 92.6779 221.894 87.8257 222.555C86.0085 222.8 83.5258 224.273 83.5211 226.331H79.0843V226.335ZM94.6084 232.674H88.4299C87.0517 232.674 84.163 233.967 83.455 235.308C81.1894 239.598 85.3713 242.61 89.5533 241.727C90.7757 241.468 94.6036 239.136 94.6036 237.904V232.674H94.6084Z" fill="#B6B6B6"/>
<path d="M362.313 226.335C362.903 217.863 377.719 215.904 381.174 223.154C382.807 226.585 381.698 234.373 381.943 238.555C382.071 240.717 382.467 242.881 382.883 245L378.5 244.964L377.681 242.506C371.984 248.977 359.283 245.088 362.086 235.459C362.761 233.141 364.762 231.367 366.981 230.527C367.557 230.309 370.299 229.502 370.71 229.502H377.837C378.224 224.881 375.906 221.894 371.054 222.555C369.237 222.8 366.754 224.273 366.75 226.331H362.313V226.335ZM377.837 232.674H371.658C370.28 232.674 367.392 233.967 366.684 235.308C364.418 239.598 368.6 242.61 372.782 241.727C374.004 241.468 377.832 239.136 377.832 237.904V232.674H377.837Z" fill="#B6B6B6"/>
<path d="M272.655 233.628H255.229C255.219 241.85 264.338 244.668 269.686 238.72L272.192 240.915C267.321 248.189 255.03 246.962 251.821 238.782C248.432 230.154 252.727 217.547 263.592 218.764C268.459 219.307 272.655 224.188 272.655 229.035V233.632V233.628ZM268.218 229.823C268.109 219.76 256.177 220.393 255.229 229.823H268.218Z" fill="#B6B6B6"/>
<path d="M198.208 233.628H180.781C180.772 241.85 189.891 244.668 195.239 238.72L197.745 240.915C192.874 248.189 180.583 246.962 177.373 238.782C173.984 230.154 178.28 217.547 189.145 218.764C194.011 219.307 198.208 224.188 198.208 229.035V233.632V233.628ZM193.771 229.823C193.662 219.76 181.73 220.393 180.781 229.823H193.771Z" fill="#B6B6B6"/>
<path d="M447.531 226.651H443.094C443.047 221.941 434.414 221.077 432.88 224.829C430.855 229.781 440.272 230.083 443.41 231.565C449.749 234.567 449.084 242.506 442.769 244.871C436.538 247.207 427.495 244.809 427.254 237.111H431.691C431.275 244.606 447.432 242.317 442.731 236.049C440.267 232.759 429.43 234.312 428.283 227.685C426.362 216.565 447.418 215.305 447.531 226.651Z" fill="#B6B6B6"/>
<path d="M222.599 245.041H218.163V227.444C218.163 227.341 217.771 225.594 217.695 225.377C216.322 221.379 210.615 221.903 208.015 224.579C207.746 224.858 206.443 226.656 206.443 226.812V245.041H202.322V219.364H206.443V222.215C210.478 217.462 220.117 217.065 221.943 223.975C222.151 224.759 222.595 227.081 222.595 227.761V245.041H222.599Z" fill="#B6B6B6"/>
<path d="M358.191 219.359L357.898 223.031L343.936 241.236H358.823V245.041H338.551L338.843 241.052L352.489 223.163H338.551V219.359H358.191Z" fill="#B6B6B6"/>
<path d="M247.947 227.921L243.84 227.907C243.189 221.2 234.108 220.643 231.634 226.656C230.242 230.04 230.327 237.116 232.928 239.934C236.09 243.36 243.387 242.142 243.84 237.125L247.947 237.111C247.451 245.508 236.043 248.245 230.195 242.983C225.612 238.853 225.3 229.007 228.241 223.895C233.055 215.522 247.824 217.485 247.947 227.921Z" fill="#B6B6B6"/>
<path d="M163.359 227.921L159.252 227.907C158.601 221.2 149.52 220.643 147.047 226.656C145.654 230.04 145.739 237.116 148.34 239.934C151.502 243.36 158.799 242.142 159.252 237.125L163.359 237.111C162.863 245.508 151.455 248.245 145.607 242.983C141.024 238.853 140.712 229.007 143.653 223.895C148.467 215.522 163.236 217.485 163.359 227.921Z" fill="#B6B6B6"/>
<path d="M70.531 213.02V219.359H75.6003V223.163H70.531V239.174C70.531 239.273 71.0644 240.868 71.1493 241.014C71.8668 242.209 74.4344 241.963 75.6003 241.552V245.352C71.8903 245.975 67.8878 246.107 66.6323 241.812C66.519 241.43 66.0989 239.41 66.0989 239.174V223.163H61.6621V219.359H66.0989V213.02H70.5357H70.531Z" fill="#B6B6B6"/>
<path d="M387.654 219.359H391.931V221.894C393.837 219.482 396.896 218.005 400.016 219.062V222.531C397.618 222.436 394.748 222.38 393.04 224.357C392.851 224.579 391.78 226.368 391.78 226.491V245H387.659V219.359H387.654Z" fill="#B6B6B6"/>
<path d="M171.911 219.359H167.475V245.036H171.911V219.359Z" fill="#B6B6B6"/>
<path d="M333.798 219.359H329.361V245.036H333.798V219.359Z" fill="#B6B6B6"/>
<path d="M330.536 209.914C335.034 208.579 335.525 215.984 330.536 214.856C328.332 214.356 328.591 210.495 330.536 209.914Z" fill="#B6B6B6"/>
<path d="M168.649 209.914C173.147 208.579 173.638 215.984 168.649 214.856C166.445 214.356 166.705 210.495 168.649 209.914Z" fill="#B6B6B6"/>
<path d="M458.359 205.454C453.842 205.454 450.18 209.117 450.18 213.634C450.18 218.151 453.842 221.813 458.359 221.813C462.876 221.813 466.539 218.151 466.539 213.634C466.534 209.117 462.876 205.459 458.359 205.454ZM458.359 220.992C454.296 220.992 450.996 217.698 450.996 213.629C450.996 209.56 454.291 206.266 458.359 206.266C462.428 206.266 465.723 209.56 465.723 213.629C465.723 217.693 462.423 220.987 458.359 220.992Z" fill="#EC6721"/>
<path d="M461.636 212.407C461.636 211.278 460.72 210.363 459.592 210.363H456.321C456.094 210.363 455.91 210.547 455.91 210.773V216.499C455.91 216.725 456.094 216.909 456.321 216.909C456.547 216.909 456.731 216.725 456.731 216.499V214.455H459.375L460.89 216.725C461.017 216.914 461.272 216.961 461.456 216.834C461.64 216.706 461.692 216.456 461.569 216.272L460.276 214.328C461.093 214.04 461.636 213.27 461.64 212.407H461.636ZM459.587 213.634H456.727V211.179H459.587C460.267 211.179 460.814 211.727 460.814 212.407C460.814 213.086 460.267 213.634 459.587 213.634Z" fill="#EC6721"/>
<defs>
<linearGradient id="paint0_linear_3760_7769" x1="5.24023" y1="82.5187" x2="466.752" y2="82.5187" gradientUnits="userSpaceOnUse">
<stop stop-color="#F67E20"/>
<stop offset="0.557385" stop-color="#EC4A13"/>
<stop offset="1" stop-color="#E40917"/>
</linearGradient>
<linearGradient id="paint1_linear_3760_7769" x1="5.24023" y1="82.5187" x2="466.752" y2="82.5187" gradientUnits="userSpaceOnUse">
<stop stop-color="#F67E20"/>
<stop offset="0.557385" stop-color="#EC4A13"/>
<stop offset="1" stop-color="#E40917"/>
</linearGradient>
<linearGradient id="paint2_linear_3760_7769" x1="5.24023" y1="82.5187" x2="466.752" y2="82.5187" gradientUnits="userSpaceOnUse">
<stop stop-color="#F67E20"/>
<stop offset="0.557385" stop-color="#EC4A13"/>
<stop offset="1" stop-color="#E40917"/>
</linearGradient>
<linearGradient id="paint3_linear_3760_7769" x1="5.24023" y1="82.5187" x2="466.752" y2="82.5187" gradientUnits="userSpaceOnUse">
<stop stop-color="#F67E20"/>
<stop offset="0.557385" stop-color="#EC4A13"/>
<stop offset="1" stop-color="#E40917"/>
</linearGradient>
<linearGradient id="paint4_linear_3760_7769" x1="5.24023" y1="82.5187" x2="466.752" y2="82.5187" gradientUnits="userSpaceOnUse">
<stop stop-color="#F67E20"/>
<stop offset="0.557385" stop-color="#EC4A13"/>
<stop offset="1" stop-color="#E40917"/>
</linearGradient>
<linearGradient id="paint5_linear_3760_7769" x1="5.24023" y1="82.5187" x2="466.752" y2="82.5187" gradientUnits="userSpaceOnUse">
<stop stop-color="#F67E20"/>
<stop offset="0.557385" stop-color="#EC4A13"/>
<stop offset="1" stop-color="#E40917"/>
</linearGradient>
<linearGradient id="paint6_linear_3760_7769" x1="5.24023" y1="82.5187" x2="466.752" y2="82.5187" gradientUnits="userSpaceOnUse">
<stop stop-color="#F67E20"/>
<stop offset="0.557385" stop-color="#EC4A13"/>
<stop offset="1" stop-color="#E40917"/>
</linearGradient>
<linearGradient id="paint7_linear_3760_7769" x1="5.24023" y1="82.5187" x2="466.752" y2="82.5187" gradientUnits="userSpaceOnUse">
<stop stop-color="#F67E20"/>
<stop offset="0.557385" stop-color="#EC4A13"/>
<stop offset="1" stop-color="#E40917"/>
</linearGradient>
</defs>
</svg>
