<svg width="105" height="108" viewBox="0 0 105 108" fill="none" xmlns="http://www.w3.org/2000/svg">
<path fill-rule="evenodd" clip-rule="evenodd" d="M29.5947 43.5899C29.5947 28.5303 41.803 16.322 56.8627 16.322C71.9223 16.322 84.1306 28.5303 84.1306 43.5899C84.1306 58.6496 71.9223 70.8579 56.8627 70.8579C41.803 70.8579 29.5947 58.6496 29.5947 43.5899Z" stroke="#1727FF" stroke-width="1.8" stroke-linecap="round" stroke-linejoin="round"/>
<path fill-rule="evenodd" clip-rule="evenodd" d="M33.3467 43.5898C33.3467 30.6025 43.875 20.0742 56.8622 20.0742C69.8495 20.0742 80.3777 30.6025 80.3777 43.5898C80.3777 56.577 69.8495 67.1053 56.8622 67.1053C43.875 67.1053 33.3467 56.577 33.3467 43.5898Z" stroke="#1727FF" stroke-width="1.2" stroke-linecap="round" stroke-linejoin="round"/>
<path d="M64.0089 36.6046H67.2817C67.2817 31.962 62.7734 29.8445 59.0996 29.3568V25.9678H55.8267V29.3568C52.1529 29.8445 47.6445 31.962 47.6445 36.6046C47.6445 41.0328 52.0073 43.3352 55.8267 43.854V51.9871C53.4571 51.5763 50.9174 50.3113 50.9174 48.0596H47.6445C47.6445 52.2963 51.6129 54.8001 55.8267 55.3188V58.6964H59.0996V55.309C62.7734 54.8214 67.2817 52.7022 67.2817 48.0596C67.2817 43.4171 62.7734 41.2995 59.0996 40.8119V32.6771C61.276 33.0683 64.0089 34.217 64.0089 36.6046ZM50.9174 36.6046C50.9174 34.217 53.6502 33.0683 55.8267 32.6771V40.5304C53.5831 40.1164 50.9174 38.8907 50.9174 36.6046ZM64.0089 48.0596C64.0089 50.4472 61.276 51.5959 59.0996 51.9871V44.1322C61.276 44.5233 64.0089 45.6721 64.0089 48.0596Z" fill="#1727FF"/>
<path d="M63.2086 90.1206L53.3591 90.2001C53.2074 90.2013 53.0555 90.17 52.9141 90.1061L46.7049 87.4147C46.1612 87.1807 45.9068 86.5434 46.1407 85.9889C46.3747 85.4452 47.012 85.1908 47.5666 85.4247L53.5692 88.0311L63.1911 87.9535C63.9712 87.9472 64.6388 87.4108 64.806 86.651C64.9107 86.195 64.8202 85.7189 64.557 85.331C64.2938 84.943 63.8908 84.6862 63.4242 84.6141L56.1552 83.5241C55.8948 83.4828 55.6553 83.3547 55.4803 83.1503C55.4475 83.1072 51.7939 78.8672 45.9428 78.9144C40.0916 78.9616 36.606 83.4434 36.5631 83.498C36.4345 83.6724 36.2405 83.804 36.0352 83.8706L30.6292 87.9449C30.0564 88.1337 29.447 87.8136 29.269 87.2407C29.0802 86.6679 29.4003 86.0585 29.9732 85.8805L35.0766 81.9062C36.0212 80.7933 39.8466 76.7964 45.9361 76.7472C52.0257 76.6981 55.8042 80.3194 56.8645 81.4486L63.743 82.4876C64.7953 82.6417 65.7429 83.2408 66.346 84.1245C66.9492 85.0082 67.1531 86.1119 66.9122 87.1433C66.5145 88.8803 64.9856 90.1063 63.1977 90.1207L63.2086 90.1206Z" fill="#1727FF"/>
<path d="M55.8973 98.6322C55.0629 98.639 54.2278 98.5482 53.4244 98.3596L39.4631 95.1455L33.3577 97.2537C32.7849 97.4425 32.1757 97.144 31.9761 96.5822C31.7765 96.0203 32.0858 95.4001 32.6476 95.2005L39.0448 92.9925C39.2393 92.9259 39.4451 92.9134 39.6406 92.966L53.9058 96.2427C55.6428 96.6404 57.4729 96.4848 59.1144 95.7889L83.7479 85.4041C84.3959 85.1279 84.89 84.593 85.1122 83.9302C85.3344 83.2674 85.2418 82.5312 84.8903 81.9381C84.3191 80.9891 83.1669 80.5433 82.1076 80.8769L69.2769 84.8165C68.704 84.9945 68.0946 84.6743 67.9274 84.1013C67.7494 83.5285 68.0696 82.919 68.6425 82.7519L81.4733 78.8123C83.4946 78.1892 85.6577 79.017 86.756 80.8286C87.437 81.9717 87.5998 83.3466 87.1875 84.6178C86.7751 85.8889 85.8406 86.9042 84.6094 87.4235L59.9759 97.8083C58.6799 98.3497 57.3168 98.6316 55.919 98.6429L55.8973 98.6322Z" fill="#1727FF"/>
<path d="M22.6759 90.8974C22.0896 90.9657 21.5084 90.6241 21.2968 90.0546L20.428 87.6998C20.1767 87.016 20.5246 86.2624 21.2084 86.011C21.8921 85.7597 22.6457 86.1076 22.8971 86.7913L23.7658 89.1462C24.0172 89.8299 23.6693 90.5835 22.9855 90.8349C22.8843 90.8731 22.7816 90.8983 22.6774 90.9104L22.6759 90.8974Z" fill="#1727FF"/>
<path d="M34.5341 102.817L24.264 106.893L15.5556 83.6274L26.2804 79.3706L34.5341 102.817Z" stroke="#1727FF" stroke-width="1.8" stroke-linecap="round" stroke-linejoin="round"/>
<path d="M36.6436 9.62805L27.8403 17.968L19.037 9.62805L24.5969 9.62805L24.5969 1.28808L31.0836 1.28808L31.0836 9.62805L36.6436 9.62805Z" stroke="#1727FF" stroke-width="1.8" stroke-linecap="round" stroke-linejoin="round"/>
<path d="M93.8613 9.62805L85.058 17.968L76.2547 9.62805L81.8147 9.62805L81.8147 1.28808L88.3014 1.28808L88.3014 9.62805L93.8613 9.62805Z" stroke="#1727FF" stroke-width="1.8" stroke-linecap="round" stroke-linejoin="round"/>
</svg>
