<svg width="105" height="104" viewBox="0 0 105 104" fill="none" xmlns="http://www.w3.org/2000/svg">
<path d="M80.4062 5.46875C83.6542 5.46875 86.2871 8.1017 86.2871 11.3496C86.2869 14.5973 83.654 17.2305 80.4062 17.2305C77.4572 17.2304 75.0152 15.0593 74.5908 12.2285H68.0703V25.7705C68.0703 26.1018 67.802 26.371 67.4707 26.3711C67.1393 26.3711 66.8711 26.1019 66.8711 25.7705V11.6289C66.8711 11.2975 67.1393 11.0293 67.4707 11.0293H74.5342C74.7003 7.93018 77.2657 5.46878 80.4062 5.46875ZM80.4062 6.66895C77.8223 6.66898 75.7275 8.76217 75.7256 11.3457C75.7713 11.4303 75.7998 11.5259 75.7998 11.6289C75.7998 11.7104 75.7823 11.7876 75.7529 11.8584C76.0066 14.204 77.9932 16.0302 80.4062 16.0303C82.9913 16.0303 85.0867 13.9346 85.0869 11.3496C85.0869 8.76444 82.9914 6.66895 80.4062 6.66895ZM80.4619 8.03906C82.2478 8.03906 83.6963 9.48653 83.6963 11.2725C83.6962 13.0583 82.2478 14.5059 80.4619 14.5059C78.6762 14.5057 77.2286 13.0582 77.2285 11.2725C77.2285 9.48663 78.6761 8.03923 80.4619 8.03906Z" fill="#1727FF"/>
<path d="M80.4062 95.9927C83.6542 95.9927 86.2871 93.3588 86.2871 90.1108C86.2868 86.8631 83.654 84.23 80.4062 84.23C77.4576 84.23 75.0157 86.4007 74.5908 89.231H68.0703V75.689C68.07 75.3579 67.8018 75.0885 67.4707 75.0884C67.1395 75.0884 66.8714 75.3578 66.8711 75.689V89.8306C66.8711 90.1619 67.1393 90.4302 67.4707 90.4302H74.5342C74.6998 93.5298 77.2653 95.9926 80.4062 95.9927ZM80.4062 94.7915C77.8222 94.7915 75.7274 92.6983 75.7256 90.1147C75.7714 90.03 75.7998 89.9337 75.7998 89.8306C75.7997 89.7492 75.7833 89.6717 75.7539 89.6011C76.0082 87.256 77.9936 85.4302 80.4062 85.4302C82.9913 85.4302 85.0867 87.5259 85.0869 90.1108C85.0869 92.696 82.9914 94.7915 80.4062 94.7915ZM80.4619 93.4106C82.2478 93.4106 83.6963 91.9622 83.6963 90.1763C83.6961 88.3905 82.2477 86.9429 80.4619 86.9429C78.6763 86.943 77.2287 88.3906 77.2285 90.1763C77.2285 91.9621 78.6761 93.4105 80.4619 93.4106Z" fill="#1727FF"/>
<path d="M23.8125 5.46875C20.5648 5.46901 17.9317 8.10186 17.9316 11.3496C17.9319 14.5972 20.5649 17.2302 23.8125 17.2305C26.7615 17.2305 29.2035 15.0593 29.6279 12.2285H36.1504V25.7705C36.1504 26.1018 36.4188 26.3709 36.75 26.3711C37.0814 26.3711 37.3496 26.1019 37.3496 25.7705V11.6289C37.3496 11.2975 37.0814 11.0293 36.75 11.0293H29.6855C29.5194 7.93016 26.9531 5.46876 23.8125 5.46875ZM23.8125 6.66895C26.3977 6.66895 28.4941 8.76445 28.4941 11.3496C28.4496 11.4334 28.4209 11.5273 28.4209 11.6289C28.4209 11.709 28.4384 11.7847 28.4668 11.8545C28.2149 14.202 26.227 16.0303 23.8125 16.0303C21.2277 16.03 19.132 13.9344 19.1318 11.3496C19.1318 8.7646 21.2276 6.66921 23.8125 6.66895ZM23.8135 8.11523C22.0277 8.11523 20.5803 9.56289 20.5801 11.3486C20.5801 13.1346 22.0275 14.583 23.8135 14.583C25.5994 14.583 27.0469 13.1346 27.0469 11.3486C27.0466 9.5629 25.5993 8.11525 23.8135 8.11523Z" fill="#1727FF"/>
<path d="M23.8125 95.9927C20.5648 95.9924 17.9317 93.3586 17.9316 90.1108C17.9319 86.8633 20.565 84.2302 23.8125 84.23C26.7612 84.23 29.203 86.4007 29.6279 89.231H36.1504V75.689C36.1507 75.3579 36.4189 75.0885 36.75 75.0884C37.0812 75.0884 37.3493 75.3578 37.3496 75.689V89.8306C37.3496 90.1619 37.0814 90.4302 36.75 90.4302H29.6855C29.5199 93.5298 26.9534 95.9927 23.8125 95.9927ZM23.8125 94.7915C26.3977 94.7915 28.4941 92.696 28.4941 90.1108C28.4495 90.027 28.4209 89.9323 28.4209 89.8306C28.421 89.7509 28.4385 89.6755 28.4668 89.606C28.2148 87.2585 26.2269 85.4302 23.8125 85.4302C21.2277 85.4304 19.1321 87.5261 19.1318 90.1108C19.1318 92.6958 21.2276 94.7912 23.8125 94.7915ZM23.8604 93.4106C22.0745 93.4105 20.627 91.9621 20.627 90.1763C20.6272 88.3906 22.0747 86.943 23.8604 86.9429C25.6461 86.9429 27.0945 88.3905 27.0947 90.1763C27.0947 91.9622 25.6463 93.4106 23.8604 93.4106Z" fill="#1727FF"/>
<path d="M1.57617 33.1851C1.57638 29.9373 4.20925 27.3042 7.45703 27.3042C10.7047 27.3044 13.3377 29.9374 13.3379 33.1851C13.3379 36.1338 11.1673 38.5757 8.33691 39.0005L8.33691 45.5229L18.2793 45.5229C18.6105 45.5229 18.8786 45.7914 18.8789 46.1226C18.8789 46.4539 18.6107 46.7222 18.2793 46.7222L7.7373 46.7222C7.40607 46.722 7.1377 46.4538 7.1377 46.1226L7.1377 39.0581C4.03814 38.8924 1.57618 36.3259 1.57617 33.1851ZM2.77637 33.1851C2.77638 35.7702 4.87187 37.8657 7.45703 37.8657L7.45801 37.8657C7.54166 37.8213 7.63595 37.7935 7.7373 37.7935C7.81691 37.7935 7.89244 37.8112 7.96191 37.8394C10.3095 37.5875 12.1377 35.5996 12.1377 33.1851C12.1375 30.6002 10.0419 28.5046 7.45703 28.5044C4.87199 28.5044 2.77658 30.6001 2.77637 33.1851ZM4.27441 33.2329C4.27459 31.4473 5.7222 29.9998 7.50781 29.9995C9.29364 29.9995 10.742 31.4471 10.7422 33.2329C10.7422 35.0188 9.29375 36.4673 7.50781 36.4673C5.72209 36.467 4.27441 35.0187 4.27441 33.2329Z" fill="#1727FF"/>
<path d="M103.593 31.4102C103.593 28.1622 100.96 25.5293 97.7119 25.5293C94.464 25.5294 91.8311 28.1623 91.8311 31.4102C91.8311 34.3586 94.0011 36.8005 96.8311 37.2256L96.8311 43.748L86.8887 43.748C86.5575 43.7483 86.2891 44.0164 86.2891 44.3477C86.2892 44.6787 86.5576 44.947 86.8887 44.9473L97.4307 44.9473C97.7619 44.9473 98.0301 44.6789 98.0303 44.3477L98.0303 37.2822C101.13 37.1169 103.593 34.5512 103.593 31.4102ZM102.393 31.4102C102.393 33.9953 100.297 36.0918 97.7119 36.0918C97.6278 36.0468 97.5328 36.0186 97.4307 36.0186C97.351 36.0186 97.2755 36.0352 97.2061 36.0635C94.8589 35.8112 93.0313 33.8243 93.0312 31.4102C93.0312 28.825 95.1268 26.7295 97.7119 26.7295C100.297 26.7295 102.393 28.825 102.393 31.4102ZM100.932 31.3887C100.932 29.6029 99.484 28.1555 97.6982 28.1553C95.9123 28.1553 94.4639 29.6028 94.4639 31.3887C94.4639 33.1746 95.9123 34.6221 97.6982 34.6221C99.484 34.6218 100.932 33.1745 100.932 31.3887Z" fill="#1727FF"/>
<path d="M1.57617 67.7605C1.57617 71.0084 4.20912 73.6413 7.45703 73.6414C10.7048 73.6412 13.3379 71.0083 13.3379 67.7605C13.3378 64.8118 11.1672 62.3709 8.33691 61.946L8.33691 55.4226L18.2793 55.4226C18.6107 55.4226 18.8789 55.1544 18.8789 54.823C18.8789 54.4916 18.6107 54.2234 18.2793 54.2234L7.7373 54.2234C7.40609 54.2235 7.13772 54.4917 7.1377 54.823L7.1377 61.8884C4.0382 62.0541 1.57626 64.6197 1.57617 67.7605ZM2.77637 67.7605C2.77646 65.1754 4.87192 63.0789 7.45703 63.0789C7.54102 63.1237 7.63539 63.1521 7.7373 63.1521C7.81717 63.1521 7.89323 63.1355 7.96289 63.1072C10.3099 63.3595 12.1376 65.3464 12.1377 67.7605C12.1377 70.3456 10.0421 72.441 7.45703 72.4412C4.87186 72.4412 2.77637 70.3457 2.77637 67.7605ZM4.27441 67.7908C4.27441 69.5766 5.72209 71.0249 7.50781 71.0251C9.29375 71.0251 10.7422 69.5767 10.7422 67.7908C10.7421 66.0049 9.29369 64.5574 7.50781 64.5574C5.72215 64.5576 4.27451 66.0051 4.27441 67.7908Z" fill="#1727FF"/>
<path d="M103.593 67.7605C103.593 71.0084 100.96 73.6413 97.7119 73.6414C94.464 73.6413 91.8311 71.0084 91.8311 67.7605C91.8311 64.8121 94.0011 62.3712 96.8311 61.946L96.8311 55.4226L86.8887 55.4226C86.5575 55.4223 86.2891 55.1542 86.2891 54.823C86.2891 54.4918 86.5575 54.2237 86.8887 54.2234L97.4307 54.2234C97.762 54.2234 98.0302 54.4916 98.0303 54.823L98.0303 61.8884C101.13 62.0538 103.593 64.6194 103.593 67.7605ZM102.393 67.7605C102.392 65.1754 100.297 63.0789 97.7119 63.0789C97.6278 63.1238 97.5328 63.1521 97.4307 63.1521C97.351 63.152 97.2755 63.1354 97.2061 63.1072C94.8589 63.3594 93.0313 65.3463 93.0312 67.7605C93.0312 70.3456 95.1268 72.4411 97.7119 72.4412C100.297 72.4412 102.393 70.3457 102.393 67.7605ZM100.992 67.8035C100.992 69.5893 99.5437 71.0369 97.7578 71.0369C95.9721 71.0367 94.5245 69.5892 94.5244 67.8035C94.5244 66.0177 95.972 64.5693 97.7578 64.5691C99.5437 64.5691 100.992 66.0175 100.992 67.8035Z" fill="#1727FF"/>
<path d="M76.6213 40.8953C76.6218 39.2218 76.1773 37.5783 75.3333 36.1332C74.4893 34.6882 73.2762 33.4935 71.8184 32.6718C70.3605 31.8501 68.7104 31.4307 67.0371 31.4569C65.3639 31.483 63.7277 31.9536 62.2962 32.8205C61.8802 30.6674 60.7276 28.7264 59.0363 27.3306C57.345 25.9348 55.2205 25.1714 53.0276 25.1714C50.8348 25.1714 48.7103 25.9348 47.019 27.3306C45.3277 28.7264 44.1751 30.6674 43.7591 32.8205M76.6213 40.8953C78.707 40.8953 80.7072 41.7238 82.182 43.1986C83.6568 44.6734 84.4854 46.6736 84.4854 48.7593C84.4854 50.845 83.6568 52.8452 82.182 54.32C80.7072 55.7948 78.707 56.6233 76.6213 56.6233L29.4371 56.6233C27.3514 56.6233 25.3512 55.7948 23.8764 54.32C22.4016 52.8452 21.5731 50.845 21.5731 48.7593C21.5731 46.6736 22.4016 44.6734 23.8764 43.1986C25.3512 41.7238 27.3514 40.8953 29.4371 40.8953C29.437 39.2223 29.8816 37.5793 30.7254 36.1347C31.5693 34.6901 32.782 33.4958 34.2393 32.6741C35.6966 31.8525 37.3462 31.433 39.019 31.4587C40.6918 31.4845 42.3277 31.9544 43.7591 32.8205M76.6213 40.8953C74.0482 40.8953 71.7645 42.1315 70.3301 44.0409M43.7591 32.8205C45.628 33.9494 47.0476 35.6914 47.776 37.7497" stroke="#1727FF" stroke-width="1.8" stroke-linecap="round" stroke-linejoin="round"/>
<path d="M44.3427 56.4799C43.9882 57.7654 43.9073 59.124 44.1215 60.4662C44.5149 62.932 45.8717 65.1406 47.8935 66.606C49.9153 68.0714 52.4364 68.6737 54.9022 68.2803C57.368 67.8868 59.5765 66.53 61.0419 64.5082C62.5074 62.4864 63.1096 59.9653 62.7162 57.4995C62.6709 57.2156 62.6128 56.935 62.5424 56.6586" stroke="#1727FF" stroke-width="1.54876"/>
<path d="M47.5982 56.3346C47.5982 56.3346 52.0881 57.1918 53.7632 56.9246C55.4382 56.6573 59.2882 56.4408 59.2882 56.4408C59.4992 56.9277 59.6505 57.443 59.7355 57.9759C60.0028 59.651 59.5937 61.3636 58.5982 62.737C57.6027 64.1104 56.1024 65.0322 54.4273 65.2994C52.7523 65.5667 51.0396 65.1575 49.6662 64.1621C48.2928 63.1666 47.3711 61.6663 47.1038 59.9912C46.9044 58.7411 47.0816 57.47 47.5982 56.3346Z" fill="#1727FF" stroke="#1727FF" stroke-width="1.0521"/>
<path d="M71.1133 56.6244C71.2684 57.8213 71.3017 59.0309 71.2126 60.2346C71.0768 62.0936 70.6611 63.8661 70.0079 65.5121L69.9332 65.5066C69.0261 65.4401 66.9171 64.4058 66.0919 64.7882C65.2667 65.1705 64.5525 65.7569 64.0169 66.4919C63.4812 67.227 63.1417 68.0864 63.0305 68.9891C62.9193 69.8917 64.2399 72.0079 64.5811 72.8509C62.3531 74.6396 59.7281 75.8669 56.9269 76.4295C56.5441 75.5194 55.917 73.533 55.1151 72.9572C54.3131 72.3814 53.3674 72.0387 52.3827 71.967C51.3981 71.8949 50.4127 72.0965 49.5355 72.5496C48.6584 73.0027 47.9237 74.8897 47.4127 75.7344C44.723 74.7707 42.3042 73.1749 40.3598 71.0815C40.8232 70.2915 42.2761 68.1957 42.2943 67.28C42.3124 66.3642 42.0952 65.4591 41.6635 64.6514C41.2317 63.8436 40.5998 63.1602 39.8283 62.6665C39.0568 62.1728 36.9716 63.0855 36.0572 63.0319C35.6419 61.2651 35.4733 59.0994 35.607 57.2895" stroke="#1727FF" stroke-width="1.54876" stroke-linejoin="round"/>
</svg>
