<svg width="93" height="87" viewBox="0 0 93 87" fill="none" xmlns="http://www.w3.org/2000/svg">
<path d="M62.2607 50.3428L59.9799 42.6718L53.76 54.4893L48.1623 38.5254L43.1865 50.3428L40.6986 42.6718" stroke="#2837FF" stroke-width="1.25" stroke-linecap="round" stroke-linejoin="round"/>
<path d="M51.4795 29.002C42.1662 29.002 34.6162 36.552 34.6162 45.8652C34.6162 55.1785 42.1662 62.7285 51.4795 62.7285C60.7928 62.7285 68.3427 55.1785 68.3428 45.8652C68.3428 36.5519 60.7928 29.002 51.4795 29.002Z" stroke="#2837FF" stroke-width="1.25"/>
<circle cx="20.5993" cy="20.5993" r="19.9743" transform="matrix(-1 0 0 1 72.0781 25.2656)" stroke="#2837FF" stroke-width="1.25"/>
<rect x="-0.883546" y="0.0244052" width="19.0691" height="4.8773" rx="2.43865" transform="matrix(-0.726361 -0.687313 -0.687313 0.726361 80.679 71.5185)" stroke="#2837FF" stroke-width="1.25"/>
<line x1="8.81738" y1="36.9004" x2="27.3301" y2="36.9004" stroke="#2837FF" stroke-width="1.5" stroke-linecap="round"/>
<line x1="8.81738" y1="44.9004" x2="27.3301" y2="44.9004" stroke="#2837FF" stroke-width="1.5" stroke-linecap="round"/>
<line x1="8.81738" y1="52.9004" x2="27.3301" y2="52.9004" stroke="#2837FF" stroke-width="1.5" stroke-linecap="round"/>
<line x1="8.81738" y1="32.9004" x2="18.8455" y2="32.9004" stroke="#2837FF" stroke-width="1.5" stroke-linecap="round"/>
<line x1="8.81738" y1="40.9004" x2="18.8455" y2="40.9004" stroke="#2837FF" stroke-width="1.5" stroke-linecap="round"/>
<line x1="8.81738" y1="48.9004" x2="18.8455" y2="48.9004" stroke="#2837FF" stroke-width="1.5" stroke-linecap="round"/>
<rect x="8.56738" y="14.9043" width="14.9526" height="4.11153" rx="1.5" fill="#2837FF" stroke="#2837FF"/>
<rect x="26.0146" y="14.9043" width="14.9526" height="4.11153" rx="1.5" stroke="#2837FF"/>
<rect x="43.4619" y="14.9043" width="14.9526" height="4.11153" rx="1.5" stroke="#2837FF"/>
<path d="M71.457 14.9287C72.6046 14.9288 73.5713 15.9058 73.5713 17.1562C73.5713 18.4067 72.6046 19.3837 71.457 19.3838C70.3093 19.3838 69.3428 18.4068 69.3428 17.1562C69.3428 15.9058 70.3093 14.9287 71.457 14.9287Z" stroke="#1727FF"/>
<path d="M65.0762 14.9287C66.2238 14.9288 67.1904 15.9058 67.1904 17.1562C67.1904 18.4067 66.2238 19.3837 65.0762 19.3838C63.9285 19.3838 62.9619 18.4068 62.9619 17.1562C62.9619 15.9058 63.9285 14.9287 65.0762 14.9287Z" stroke="#1727FF"/>
<path d="M37.5861 60.6138H9.14844C5.83473 60.6138 3.14844 57.9275 3.14844 54.6138V16.4185C3.14844 13.1047 5.83473 10.4185 9.14844 10.4185H71.334C74.6477 10.4185 77.334 13.1047 77.334 16.4185V54.6138C77.334 57.9275 74.6477 60.6138 71.334 60.6138H69.4393" stroke="#1727FF" stroke-width="1.5" stroke-linecap="round"/>
</svg>
