<svg width="84" height="85" viewBox="0 0 84 85" fill="none" xmlns="http://www.w3.org/2000/svg">
<path d="M38.9095 56.3801C38.9096 53.5662 40.4029 51.1273 42.6391 49.753V56.8807H50.9283L50.9269 56.3794L50.9151 49.8338C53.0091 51.1673 54.427 53.4556 54.5225 56.0956L54.5273 56.3808C54.5296 57.9239 54.074 59.4333 53.2181 60.7173C52.362 62.0014 51.1439 63.0027 49.7184 63.5941L49.378 63.7356L49.4125 64.103L50.844 79.4902C50.8342 81.7642 48.9944 83.5982 46.7181 83.5982C44.4403 83.5979 42.6032 81.7627 42.6053 79.5047L44.025 64.1016L44.0581 63.7356L43.7191 63.5941C40.8884 62.4156 38.9095 59.6345 38.9095 56.3801ZM46.7112 77.1375C45.4122 77.1286 44.3711 78.183 44.371 79.4847V79.4888C44.3763 80.1087 44.6246 80.7022 45.0629 81.1406C45.4464 81.5241 45.9486 81.7622 46.4833 81.8194L46.7146 81.8325L46.725 81.8332C48.0135 81.8168 49.0666 80.7721 49.0666 79.4847C49.0665 78.1784 48.0172 77.1203 46.7119 77.1368L46.7112 77.1375Z" stroke="#1727FF"/>
<path d="M47.0019 11.7998C50.1315 11.7998 53.1328 13.043 55.3457 15.2559C57.5586 17.4688 58.8018 20.4701 58.8018 23.5996C58.8018 26.7291 57.5586 29.7304 55.3457 31.9433C53.1328 34.1562 50.1315 35.3994 47.002 35.3994C43.8724 35.3994 40.8711 34.1562 38.6582 31.9433C36.4453 29.7304 35.2021 26.7291 35.2021 23.5996C35.2021 20.4701 36.4453 17.4688 38.6582 15.2559C40.8711 13.043 43.8724 11.7998 47.0019 11.7998Z" stroke="#1727FF" stroke-width="1.23901"/>
<path d="M47.0012 15.5836C49.1271 15.5836 51.1659 16.4281 52.6692 17.9314C54.1724 19.4347 55.017 21.4735 55.017 23.5994C55.017 25.7254 54.1724 27.7642 52.6692 29.2675C51.1659 30.7707 49.1271 31.6152 47.0012 31.6152C44.8752 31.6152 42.8364 30.7707 41.3331 29.2675C39.8299 27.7642 38.9854 25.7254 38.9854 23.5994C38.9854 21.4735 39.8299 19.4347 41.3331 17.9314C42.8364 16.4281 44.8752 15.5836 47.0012 15.5836Z" fill="#1727FF" stroke="#1727FF" stroke-width="0.841678"/>
<path d="M68.6374 17.7208C69.6445 21.4459 69.6703 25.3683 68.7122 29.1063C67.3917 28.9119 66.0433 29.1158 64.8394 29.692C63.6355 30.2683 62.6309 31.1906 61.9542 32.341C61.2775 33.4915 60.9594 34.8176 61.0406 36.1498C61.1219 37.4821 61.5988 38.7597 62.4103 39.8194C61.3098 40.8572 60.1068 41.7807 58.8198 42.5756C56.8334 43.8052 54.729 44.6871 52.5782 45.2349L52.5288 45.155C51.9292 44.1856 51.0924 43.385 50.0974 42.8288C49.1024 42.2727 47.9821 41.9793 46.8422 41.9763C45.7024 41.9734 44.5805 42.261 43.5827 42.8121C42.5849 43.3632 41.744 44.1594 41.1394 45.1258C37.6856 44.1804 34.5094 42.4193 31.8781 39.9905C32.52 38.9327 32.8569 37.718 32.8513 36.4806C32.8457 35.2433 32.4979 34.0316 31.8464 32.9796C31.1954 31.9274 30.266 31.0757 29.161 30.5189C28.0561 29.962 26.8186 29.7217 25.5855 29.8245C24.5852 26.3863 24.4254 22.758 25.1196 19.2451C26.2622 19.1342 27.3572 18.732 28.2998 18.0769C29.2424 17.4217 30.0011 16.5356 30.5032 15.5034C31.0054 14.4711 31.2341 13.3272 31.1676 12.1812C31.1012 11.0352 30.7416 9.92545 30.1235 8.95816C31.6109 7.23717 33.3522 5.75326 35.2873 4.55768C36.5989 3.7458 37.9625 3.08582 39.3565 2.57265C39.943 3.77158 40.8738 4.76826 42.03 5.43514C43.1862 6.10201 44.515 6.40876 45.8465 6.31613C47.1779 6.2235 48.4515 5.7357 49.5042 4.91516C50.5569 4.09461 51.3408 2.97865 51.7556 1.71005C55.5283 2.51992 59.0272 4.29249 61.9118 6.85532C60.9896 7.9368 60.4346 9.28315 60.3269 10.7003C60.2191 12.1175 60.5641 13.5323 61.3121 14.7408C62.0602 15.9493 63.1726 16.889 64.4891 17.4246C65.8056 17.9602 67.2582 18.0639 68.6374 17.7208Z" stroke="#1727FF" stroke-width="1.23901" stroke-linejoin="round"/>
<path d="M29.1845 60.1343C29.1845 62.1293 28.392 64.0427 26.9812 65.4534C25.5705 66.8641 23.6572 67.6567 21.6621 67.6567C19.667 67.6567 17.7536 66.8641 16.3429 65.4534C14.9322 64.0427 14.1396 62.1293 14.1396 60.1343C14.1396 58.1392 14.9322 56.2258 16.3429 54.8151C17.7536 53.4044 19.667 52.6118 21.6621 52.6118C23.6572 52.6118 25.5705 53.4044 26.9812 54.8151C28.392 56.2258 29.1845 58.1392 29.1845 60.1343Z" stroke="#2837FF" stroke-width="0.975603"/>
<path d="M24.9651 60.1344C24.9651 61.0105 24.6171 61.8507 23.9976 62.4702C23.3781 63.0897 22.5379 63.4378 21.6618 63.4378C20.7857 63.4378 19.9454 63.0897 19.3259 62.4702C18.7064 61.8507 18.3584 61.0105 18.3584 60.1344C18.3584 59.2583 18.7064 58.4181 19.3259 57.7986C19.9454 57.1791 20.7857 56.8311 21.6618 56.8311C22.5379 56.8311 23.3781 57.1791 23.9976 57.7986C24.6171 58.4181 24.9651 59.2583 24.9651 60.1344Z" fill="#2837FF" stroke="#2837FF" stroke-width="0.662744"/>
<path d="M25.4089 73.9263C23.0341 74.5683 20.5336 74.5848 18.1506 73.974C18.2746 73.1322 18.1446 72.2725 17.7772 71.505C17.4098 70.7375 16.8219 70.0971 16.0885 69.6657C15.3551 69.2343 14.5096 69.0315 13.6603 69.0833C12.811 69.1351 11.9965 69.4391 11.321 69.9565C10.6593 69.2549 10.0706 68.488 9.56388 67.6675C8.78002 66.4012 8.21781 65.0596 7.86858 63.6885L7.91948 63.657C8.53749 63.2747 9.04787 62.7413 9.40243 62.1069C9.757 61.4726 9.94404 60.7584 9.94591 60.0318C9.94778 59.3051 9.7644 58.5899 9.4131 57.9538C9.0618 57.3177 8.55416 56.7816 7.93813 56.3962C8.54078 54.1943 9.66352 52.1695 11.2119 50.492C11.8862 50.9013 12.6606 51.116 13.4495 51.1125C14.2383 51.1089 15.0107 50.8872 15.6813 50.4718C16.3522 50.0568 16.8951 49.4643 17.2501 48.7599C17.6051 48.0555 17.7583 47.2666 17.6927 46.4805C19.8847 45.8428 22.1977 45.7409 24.4372 46.1835C24.5079 46.9119 24.7643 47.6099 25.1819 48.2109C25.5996 48.8118 26.1645 49.2954 26.8226 49.6156C27.4806 49.9357 28.2099 50.0815 28.9405 50.0391C29.671 49.9967 30.3785 49.7675 30.9952 49.3735C32.0923 50.3217 33.0383 51.4318 33.8005 52.6654C34.3181 53.5016 34.7388 54.3709 35.066 55.2595C34.3016 55.6334 33.6662 56.2269 33.2411 56.9639C32.816 57.701 32.6204 58.5481 32.6795 59.397C32.7385 60.2458 33.0495 61.0577 33.5726 61.7288C34.0957 62.3999 34.8071 62.8996 35.6159 63.1641C35.0996 65.5692 33.9696 67.7997 32.3357 69.6387C31.6463 69.0508 30.788 68.697 29.8845 68.6283C28.9811 68.5596 28.0791 68.7795 27.3087 69.2564C26.5383 69.7333 25.9392 70.4425 25.5977 71.2817C25.2563 72.121 25.1902 73.047 25.4089 73.9263Z" stroke="#2837FF" stroke-width="1.2" stroke-linejoin="round"/>
<path d="M73.9416 50.7633C73.9416 52.0838 73.417 53.3503 72.4832 54.284C71.5495 55.2178 70.283 55.7424 68.9625 55.7424C67.6419 55.7424 66.3755 55.2178 65.4417 54.284C64.508 53.3503 63.9834 52.0838 63.9834 50.7633C63.9834 49.4427 64.508 48.1763 65.4417 47.2425C66.3755 46.3088 67.6419 45.7842 68.9625 45.7842C70.283 45.7842 71.5495 46.3088 72.4832 47.2425C73.417 48.1763 73.9416 49.4427 73.9416 50.7633Z" stroke="#2837FF" stroke-width="0.975603"/>
<path d="M70.865 50.763C70.865 51.2677 70.6645 51.7516 70.3077 52.1085C69.9508 52.4653 69.4669 52.6657 68.9623 52.6657C68.4576 52.6657 67.9737 52.4653 67.6169 52.1085C67.26 51.7516 67.0596 51.2677 67.0596 50.763C67.0596 50.2584 67.26 49.7745 67.6169 49.4176C67.9737 49.0608 68.4576 48.8604 68.9623 48.8604C69.4669 48.8604 69.9508 49.0608 70.3077 49.4176C70.6645 49.7745 70.865 50.2584 70.865 50.763Z" fill="#2837FF" stroke="#2837FF" stroke-width="0.662744"/>
<path d="M71.4422 59.8918C69.8703 60.3168 68.2152 60.3277 66.6379 59.9234C66.72 59.3662 66.6339 58.7972 66.3908 58.2892C66.1476 57.7812 65.7584 57.3573 65.273 57.0718C64.7876 56.7862 64.228 56.652 63.6658 56.6863C63.1037 56.7206 62.5645 56.9218 62.1174 57.2642C61.6795 56.7999 61.2898 56.2923 60.9544 55.7492C60.4356 54.911 60.0634 54.023 59.8323 53.1155L59.866 53.0946C60.275 52.8416 60.6129 52.4885 60.8475 52.0686C61.0822 51.6488 61.206 51.1761 61.2073 50.6951C61.2085 50.2141 61.0871 49.7407 60.8546 49.3197C60.6221 48.8986 60.2861 48.5438 59.8783 48.2887C60.2772 46.8313 61.0204 45.4911 62.0452 44.3808C62.4915 44.6516 63.0041 44.7938 63.5263 44.7914C64.0484 44.789 64.5597 44.6423 65.0035 44.3674C65.4476 44.0927 65.8069 43.7005 66.0419 43.2343C66.2769 42.768 66.3783 42.2458 66.3349 41.7255C67.7857 41.3034 69.3167 41.236 70.799 41.5289C70.8458 42.0111 71.0155 42.4731 71.292 42.8708C71.5684 43.2686 71.9423 43.5887 72.3779 43.8006C72.8135 44.0125 73.2962 44.109 73.7797 44.081C74.2633 44.0529 74.7316 43.9012 75.1397 43.6404C75.8659 44.268 76.4921 45.0028 76.9966 45.8193C77.3392 46.3728 77.6176 46.9482 77.8342 47.5364C77.3283 47.7838 76.9077 48.1766 76.6263 48.6645C76.3449 49.1524 76.2155 49.7131 76.2546 50.2749C76.2937 50.8367 76.4995 51.3741 76.8457 51.8183C77.192 52.2625 77.6629 52.5933 78.1982 52.7683C77.8564 54.3603 77.1085 55.8367 76.0271 57.0539C75.5707 56.6648 75.0026 56.4306 74.4046 56.3851C73.8066 56.3396 73.2096 56.4852 72.6997 56.8009C72.1897 57.1165 71.7932 57.5859 71.5672 58.1414C71.3412 58.6969 71.2974 59.3099 71.4422 59.8918Z" stroke="#2837FF" stroke-width="1.2" stroke-linejoin="round"/>
</svg>
