<svg width="84" height="84" viewBox="0 0 84 84" fill="none" xmlns="http://www.w3.org/2000/svg">
<rect x="5.09375" y="17.6782" width="18.6045" height="5.71631" rx="1.5" stroke="#1727FF"/>
<rect x="20.3896" y="32.1313" width="15.3271" height="3" rx="1.5" stroke="#1727FF"/>
<rect x="48.1406" y="32.1313" width="15.3271" height="3" rx="1.5" stroke="#1727FF"/>
<rect x="20.3896" y="40.2407" width="15.3271" height="3" rx="1.5" stroke="#1727FF"/>
<rect x="48.1406" y="40.2407" width="15.3271" height="3" rx="1.5" stroke="#1727FF"/>
<rect x="20.3896" y="48.3501" width="15.3271" height="3" rx="1.5" stroke="#1727FF"/>
<rect x="20.3896" y="56.4595" width="15.3271" height="3" rx="1.5" stroke="#1727FF"/>
<rect x="48.1406" y="48.3501" width="15.3271" height="3" rx="1.5" stroke="#1727FF"/>
<rect x="48.1406" y="56.4595" width="15.3271" height="3" rx="1.5" stroke="#1727FF"/>
<rect x="10.75" y="26.3501" width="7.29102" height="40.3545" rx="1.5" stroke="#1727FF"/>
<rect x="38.3555" y="26.3501" width="7.29102" height="40.3545" rx="1.5" stroke="#1727FF"/>
<rect x="65.9609" y="26.3501" width="7.29102" height="40.3545" rx="1.5" stroke="#1727FF"/>
<rect x="32.6982" y="17.6782" width="18.6045" height="5.71631" rx="1.5" stroke="#1727FF"/>
<rect x="60.3027" y="17.6782" width="18.6045" height="5.71631" rx="1.5" stroke="#1727FF"/>
<circle cx="1.88398" cy="1.88398" r="1.40348" transform="matrix(-1 0 0 1 16.2793 32.3369)" fill="#1727FF" stroke="#1727FF" stroke-width="0.960994"/>
<circle cx="1.88398" cy="1.88398" r="1.40348" transform="matrix(-1 0 0 1 43.8848 32.3369)" fill="#1727FF" stroke="#1727FF" stroke-width="0.960994"/>
<circle cx="1.88398" cy="1.88398" r="1.40348" transform="matrix(-1 0 0 1 71.4902 32.3369)" fill="#1727FF" stroke="#1727FF" stroke-width="0.960994"/>
<circle cx="1.88398" cy="1.88398" r="1.40348" transform="matrix(-1 0 0 1 16.2793 40.2109)" fill="#1727FF" stroke="#1727FF" stroke-width="0.960994"/>
<circle cx="1.88398" cy="1.88398" r="1.40348" transform="matrix(-1 0 0 1 43.8848 40.2109)" fill="#1727FF" stroke="#1727FF" stroke-width="0.960994"/>
<circle cx="1.88398" cy="1.88398" r="1.40348" transform="matrix(-1 0 0 1 71.4902 40.2109)" fill="#1727FF" stroke="#1727FF" stroke-width="0.960994"/>
<circle cx="1.88398" cy="1.88398" r="1.40348" transform="matrix(-1 0 0 1 16.2793 48.085)" fill="#1727FF" stroke="#1727FF" stroke-width="0.960994"/>
<circle cx="1.88398" cy="1.88398" r="1.40348" transform="matrix(-1 0 0 1 16.2793 55.959)" fill="#1727FF" stroke="#1727FF" stroke-width="0.960994"/>
<circle cx="1.88398" cy="1.88398" r="1.40348" transform="matrix(-1 0 0 1 43.8848 48.085)" fill="#1727FF" stroke="#1727FF" stroke-width="0.960994"/>
<circle cx="1.88398" cy="1.88398" r="1.40348" transform="matrix(-1 0 0 1 43.8848 55.959)" fill="#1727FF" stroke="#1727FF" stroke-width="0.960994"/>
<circle cx="1.88398" cy="1.88398" r="1.40348" transform="matrix(-1 0 0 1 71.4902 48.085)" fill="#1727FF" stroke="#1727FF" stroke-width="0.960994"/>
<circle cx="1.88398" cy="1.88398" r="1.40348" transform="matrix(-1 0 0 1 71.4902 55.959)" fill="#1727FF" stroke="#1727FF" stroke-width="0.960994"/>
</svg>
