<svg width="84" height="84" viewBox="0 0 84 84" fill="none" xmlns="http://www.w3.org/2000/svg">
<path d="M53.7988 23.4941C53.7988 26.6236 52.5556 29.625 50.3427 31.8379C48.1298 34.0507 45.1285 35.2939 41.999 35.2939C38.8695 35.2939 35.8682 34.0507 33.6553 31.8379C31.4424 29.625 30.1992 26.6236 30.1992 23.4941C30.1992 20.3646 31.4424 17.3633 33.6553 15.1504C35.8682 12.9375 38.8695 11.6943 41.999 11.6943C45.1285 11.6943 48.1298 12.9375 50.3427 15.1504C52.5556 17.3633 53.7988 20.3646 53.7988 23.4941Z" stroke="#1727FF" stroke-width="1.23901"/>
<path d="M50.014 23.4933C50.014 25.6193 49.1695 27.6581 47.6663 29.1614C46.163 30.6646 44.1241 31.5091 41.9982 31.5091C39.8723 31.5091 37.8335 30.6646 36.3302 29.1614C34.8269 27.6581 33.9824 25.6193 33.9824 23.4933C33.9824 21.3674 34.8269 19.3286 36.3302 17.8253C37.8335 16.3221 39.8723 15.4775 41.9982 15.4775C44.1241 15.4775 46.163 16.3221 47.6663 17.8253C49.1695 19.3286 50.014 21.3674 50.014 23.4933Z" fill="#1727FF" stroke="#1727FF" stroke-width="0.841678"/>
<path d="M47.8773 45.1291C44.1522 46.1362 40.2298 46.162 36.4918 45.2039C36.6863 43.8834 36.4823 42.535 35.9061 41.3311C35.3299 40.1272 34.4075 39.1226 33.2571 38.4459C32.1067 37.7692 30.7805 37.4511 29.4483 37.5323C28.1161 37.6136 26.8384 38.0905 25.7788 38.902C24.7409 37.8015 23.8175 36.5985 23.0226 35.3115C21.793 33.3251 20.9111 31.2207 20.3633 29.0699L20.4431 29.0205C21.4125 28.4209 22.2131 27.5841 22.7693 26.5891C23.3255 25.5941 23.6189 24.4738 23.6218 23.3339C23.6247 22.1941 23.3371 21.0722 22.786 20.0744C22.235 19.0766 21.4387 18.2357 20.4724 17.6311C21.4177 14.1773 23.1789 11.0011 25.6076 8.36978C26.6654 9.01175 27.8802 9.34857 29.1175 9.34298C30.3549 9.33739 31.5666 8.9896 32.6185 8.3381C33.6708 7.68712 34.5224 6.75772 35.0793 5.65274C35.6361 4.54775 35.8764 3.31026 35.7736 2.07718C39.2119 1.07685 42.8402 0.917083 46.3531 1.61132C46.4639 2.75388 46.8661 3.84888 47.5213 4.79149C48.1764 5.73411 49.0625 6.49279 50.0948 6.99493C51.1271 7.49706 52.2709 7.72583 53.4169 7.65935C54.5629 7.59286 55.6727 7.23335 56.64 6.61521C58.361 8.10258 59.8449 9.84389 61.0405 11.779C61.8523 13.0906 62.5123 14.4542 63.0255 15.8482C61.8266 16.4347 60.8299 17.3655 60.163 18.5217C59.4961 19.6779 59.1894 21.0067 59.282 22.3382C59.3746 23.6696 59.8624 24.9432 60.683 25.9959C61.5035 27.0486 62.6195 27.8325 63.8881 28.2473C63.0782 32.02 61.3057 35.5189 58.7428 38.4035C57.6613 37.4813 56.315 36.9263 54.8978 36.8186C53.4806 36.7108 52.0658 37.0558 50.8574 37.8038C49.6489 38.5519 48.7091 39.6643 48.1735 40.9808C47.638 42.2973 47.5342 43.7499 47.8773 45.1291Z" stroke="#1727FF" stroke-width="1.23901" stroke-linejoin="round"/>
<rect x="1.49805" y="69.0786" width="37.4375" height="13.1882" rx="6.59411" stroke="#2837FF" stroke-width="1.5"/>
<circle cx="10.1846" cy="76.1431" r="2.25916" stroke="#2837FF" stroke-width="1.55589"/>
<circle cx="20.2168" cy="76.1431" r="2.25916" stroke="#2837FF" stroke-width="1.55589"/>
<circle cx="30.249" cy="76.1431" r="2.25916" stroke="#2837FF" stroke-width="1.55589"/>
<rect x="45.0918" y="69.0786" width="37.4375" height="13.1882" rx="6.59411" stroke="#2837FF" stroke-width="1.5"/>
<circle cx="53.7783" cy="76.1431" r="2.25916" stroke="#2837FF" stroke-width="1.55589"/>
<circle cx="63.8105" cy="76.1431" r="2.25916" stroke="#2837FF" stroke-width="1.55589"/>
<circle cx="73.8428" cy="76.1431" r="2.25916" stroke="#2837FF" stroke-width="1.55589"/>
<rect x="23.2812" y="50.7612" width="37.4375" height="13.1882" rx="6.59411" stroke="#2837FF" stroke-width="1.5"/>
<path d="M16.1484 69.0166V56.6953H23.0791" stroke="#1727FF" stroke-width="1.5" stroke-linecap="round" stroke-linejoin="round"/>
<path d="M68.0791 69.0166V56.6953H61.1484" stroke="#1727FF" stroke-width="1.5" stroke-linecap="round" stroke-linejoin="round"/>
<path d="M41.6797 50.6182V46.2153" stroke="#1727FF" stroke-width="1.5" stroke-linecap="round" stroke-linejoin="round"/>
</svg>
