<svg width="84" height="83" viewBox="0 0 84 83" fill="none" xmlns="http://www.w3.org/2000/svg">
<path fill-rule="evenodd" clip-rule="evenodd" d="M15.8174 40.2266C15.8174 26.4432 26.9911 15.2695 40.7745 15.2695C54.5579 15.2695 65.7315 26.4432 65.7315 40.2266C65.7315 54.01 54.5579 65.1837 40.7745 65.1837C26.9911 65.1837 15.8174 54.01 15.8174 40.2266Z" stroke="#2837FF" stroke-width="1.25" stroke-linecap="round" stroke-linejoin="round"/>
<path fill-rule="evenodd" clip-rule="evenodd" d="M19.252 40.2268C19.252 28.3402 28.888 18.7041 40.7746 18.7041C52.6613 18.7041 62.2973 28.3402 62.2973 40.2268C62.2973 52.1134 52.6613 61.7495 40.7746 61.7495C28.888 61.7495 19.252 52.1134 19.252 40.2268Z" stroke="#2837FF" stroke-width="1.25" stroke-linecap="round" stroke-linejoin="round"/>
<path d="M32.2219 16.8113C31.8956 15.5839 31.2503 14.4523 30.3367 13.5387C28.9735 12.1755 27.1246 11.4097 25.1968 11.4097C23.2689 11.4097 21.42 12.1755 20.0568 13.5387C18.6936 14.9019 17.9277 16.7508 17.9277 18.6787C17.9277 20.6066 18.6936 22.4555 20.0568 23.8187C20.4086 24.1705 20.7928 24.4826 21.2024 24.7519" stroke="#2837FF" stroke-width="1.25"/>
<path d="M30.0342 17.6964C30.0342 17.6964 26.8391 19.1949 25.913 20.121C24.987 21.047 22.6783 22.9268 22.6783 22.9268C22.3258 22.7181 21.9978 22.4645 21.7031 22.1699C20.7771 21.2438 20.2568 19.9878 20.2568 18.6782C20.2568 17.3686 20.7771 16.1126 21.7031 15.1865C22.6292 14.2605 23.8852 13.7402 25.1948 13.7402C26.5044 13.7402 27.7604 14.2605 28.6865 15.1865C29.3776 15.8777 29.8427 16.7526 30.0342 17.6964ZM30.0342 17.6964C30.0993 18.0172 30.0342 17.3642 30.0342 17.6964Z" stroke="#2837FF" stroke-width="1.25"/>
<path d="M19.8116 27.889C19.1029 27.4721 18.286 27.2762 17.4653 27.3262C16.6446 27.3763 15.8575 27.6701 15.2047 28.17C14.5654 27.4921 13.9965 26.751 13.5069 25.9581C12.7494 24.7344 12.2061 23.4381 11.8687 22.1131L11.9178 22.0827C12.515 21.7133 13.0082 21.1978 13.3508 20.5849C13.6935 19.9719 13.8742 19.2818 13.876 18.5796C13.8778 17.8774 13.7006 17.1863 13.3612 16.5716C13.0217 15.9569 12.5312 15.4389 11.9359 15.0665C12.5182 12.9388 13.6031 10.9822 15.0993 9.36123C15.751 9.7567 16.4993 9.96419 17.2615 9.96075C18.0238 9.95731 18.7702 9.74306 19.4182 9.34171C20.0665 8.94069 20.5911 8.36815 20.9342 7.68745C21.2772 7.00675 21.4252 6.24442 21.3619 5.4848C23.48 4.86857 25.7151 4.77015 27.8791 5.19782C27.9474 5.90167 28.1952 6.57622 28.5988 7.1569C29.0024 7.73758 29.5482 8.20495 30.1842 8.51428C30.8201 8.82361 31.5247 8.96454 32.2307 8.92358C32.9367 8.88263 33.6203 8.66116 34.2162 8.28036C35.2764 9.19663 36.1905 10.2693 36.927 11.4614C37.4272 12.2694 37.8337 13.1094 38.1498 13.9681C37.4113 14.3294 36.7973 14.9029 36.3865 15.6151" stroke="#2837FF" stroke-width="1.25" stroke-linejoin="round"/>
<path d="M49.6268 63.5476C49.9531 64.775 50.5983 65.9066 51.5119 66.8202C52.8751 68.1834 54.724 68.9492 56.6519 68.9492C58.5797 68.9492 60.4286 68.1834 61.7918 66.8202C63.1551 65.457 63.9209 63.6081 63.9209 61.6802C63.9209 59.7523 63.1551 57.9034 61.7919 56.5402C61.44 56.1884 61.0558 55.8763 60.6462 55.607" stroke="#2837FF" stroke-width="1.25"/>
<path d="M51.8134 62.662C51.8134 62.662 55.0086 61.1635 55.9346 60.2374C56.8607 59.3114 59.1693 57.4315 59.1693 57.4315C59.5219 57.6403 59.8499 57.8939 60.1445 58.1885C61.0706 59.1146 61.5908 60.3706 61.5908 61.6802C61.5908 62.9898 61.0706 64.2458 60.1445 65.1719C59.2185 66.0979 57.9625 66.6182 56.6528 66.6182C55.3432 66.6182 54.0872 66.0979 53.1612 65.1719C52.47 64.4807 52.0049 63.6058 51.8134 62.662ZM51.8134 62.662C51.7484 62.3412 51.8134 62.9942 51.8134 62.662Z" stroke="#2837FF" stroke-width="1.25"/>
<path d="M62.038 52.4699C62.7467 52.8868 63.5636 53.0827 64.3843 53.0327C65.205 52.9826 65.9921 52.6888 66.6449 52.1889C67.2842 52.8668 67.8531 53.6079 68.3428 54.4007C69.1002 55.6244 69.6435 56.9208 69.9809 58.2457L69.9318 58.2762C69.3346 58.6456 68.8414 59.1611 68.4988 59.774C68.1561 60.3869 67.9754 61.0771 67.9736 61.7793C67.9718 62.4815 68.149 63.1726 68.4885 63.7872C68.8279 64.4019 69.3185 64.92 69.9137 65.2924C69.3314 67.4201 68.2465 69.3767 66.7503 70.9977C66.0987 70.6022 65.3503 70.3947 64.5881 70.3981C63.8258 70.4016 63.0794 70.6158 62.4314 71.0172C61.7831 71.4182 61.2585 71.9907 60.9155 72.6714C60.5724 73.3521 60.4244 74.1145 60.4877 74.8741C58.3696 75.4903 56.1345 75.5887 53.9705 75.1611C53.9022 74.4572 53.6544 73.7827 53.2508 73.202C52.8472 72.6213 52.3014 72.1539 51.6655 71.8446C51.0295 71.5353 50.3249 71.3943 49.6189 71.4353C48.9129 71.4763 48.2293 71.6977 47.6334 72.0785C46.5732 71.1623 45.6591 70.0896 44.9226 68.8975C44.4225 68.0895 44.0159 67.2495 43.6998 66.3907C44.4383 66.0294 45.0523 65.456 45.4631 64.7438" stroke="#2837FF" stroke-width="1.25" stroke-linejoin="round"/>
<path d="M5.52961 71.4132H19.1198L24.8224 64.456L25.708 63.3467M5.52961 71.4132C6.00044 70.9424 6.26495 70.3038 6.26495 69.638C6.26495 68.9721 6.00044 68.3335 5.52961 67.8627C5.05879 67.3919 4.42021 67.1274 3.75436 67.1274C3.08851 67.1274 2.44992 67.3919 1.9791 67.8627C1.50827 68.3335 1.24377 68.9721 1.24377 69.638C1.24377 70.3038 1.50827 70.9424 1.9791 71.4132C2.44992 71.8841 3.08851 72.1486 3.75436 72.1486C4.42021 72.1486 5.05879 71.8841 5.52961 71.4132Z" stroke="#2837FF" stroke-width="1.5" stroke-linecap="round" stroke-linejoin="round"/>
<path d="M76.3271 7.69123L62.7369 7.69123L55.5088 16.5601M76.3271 7.69123C75.8563 8.16205 75.5918 8.80064 75.5918 9.46649C75.5918 10.1323 75.8563 10.7709 76.3271 11.2417C76.798 11.7126 77.4365 11.9771 78.1024 11.9771C78.7682 11.9771 79.4068 11.7126 79.8777 11.2417C80.3485 10.7709 80.613 10.1323 80.613 9.46649C80.613 8.80064 80.3485 8.16205 79.8777 7.69123C79.4068 7.2204 78.7682 6.95589 78.1024 6.95589C77.4365 6.95589 76.798 7.2204 76.3271 7.69123Z" stroke="#2837FF" stroke-width="1.5" stroke-linecap="round" stroke-linejoin="round"/>
<path d="M63.8574 11.1909H70.9608" stroke="#2837FF" stroke-width="1.5" stroke-linecap="round" stroke-linejoin="round"/>
<path d="M9.77539 67.5303H17.8595" stroke="#2837FF" stroke-width="1.5" stroke-linecap="round" stroke-linejoin="round"/>
<path d="M40.8135 39.0391C46.4545 39.0391 51.0273 43.612 51.0273 49.2529V52.875C51.0271 53.1317 50.8192 53.3396 50.5625 53.3398H31.0654C30.8085 53.3398 30.5998 53.1319 30.5996 52.875V49.2529C30.5997 43.612 35.1725 39.0391 40.8135 39.0391Z" stroke="#2837FF" stroke-width="1.5"/>
<circle cx="40.8138" cy="30.8905" r="5.07064" stroke="#2837FF" stroke-width="1.5"/>
</svg>
