<svg width="83" height="83" viewBox="0 0 83 83" fill="none" xmlns="http://www.w3.org/2000/svg">
<path d="M43.2441 39.7015L52.4174 30.5283" stroke="#1727FF" stroke-width="1.2"/>
<path d="M54.2521 32.3635L50.5828 28.6943L55.1694 25.9423L57.0041 27.7769L54.2521 32.3635ZM26.7783 35.987C25.8974 35.1069 25.2915 33.9898 25.0341 32.7715C24.7768 31.5533 24.8792 30.2865 25.3289 29.1254L27.9378 31.7343H31.6071V28.065L28.9982 25.4561C30.1594 25.0054 31.4266 24.9021 32.6454 25.1589C33.8642 25.4157 34.982 26.0214 35.8627 26.9022C36.7433 27.7831 37.3488 28.9011 37.6053 30.1199C37.8618 31.3388 37.7583 32.606 37.3073 33.767L49.1775 45.639C50.3385 45.1881 51.6057 45.0846 52.8246 45.3411C54.0434 45.5976 55.1614 46.203 56.0423 47.0837C56.9231 47.9643 57.5288 49.0822 57.7856 50.301C58.0424 51.5198 57.9391 52.787 57.4884 53.9482L54.8814 51.3393H51.2121V55.0086L53.8209 57.6174C52.6601 58.0681 51.3932 58.1715 50.1746 57.9151C48.956 57.6586 47.8382 57.0534 46.9575 56.173C46.0767 55.2926 45.471 54.1752 45.214 52.9567C44.957 51.7382 45.0598 50.4712 45.51 49.3102L33.6362 37.4363C32.4756 37.8852 31.2095 37.9872 29.992 37.7299C28.7745 37.4726 27.658 36.8671 26.7783 35.987Z" stroke="#1727FF" stroke-width="1.2" stroke-linejoin="round"/>
<path d="M41.782 46.1236L31.5006 56.405C31.2705 56.6354 30.9973 56.8183 30.6965 56.9431C30.3957 57.0678 30.0732 57.132 29.7476 57.132C29.4219 57.132 29.0995 57.0678 28.7987 56.9431C28.4979 56.8183 28.2246 56.6354 27.9946 56.405L26.5415 54.9519C26.3111 54.7219 26.1282 54.4486 26.0034 54.1478C25.8787 53.847 25.8145 53.5246 25.8145 53.1989C25.8145 52.8733 25.8787 52.5508 26.0034 52.25C26.1282 51.9492 26.3111 51.676 26.5415 51.4459L36.8229 41.1646" stroke="#1727FF" stroke-width="1.2" stroke-linejoin="round"/>
<path d="M41.4083 15.701C48.2612 15.701 54.8334 18.4233 59.6792 23.2691C64.5249 28.1148 67.2472 34.687 67.2472 41.54C67.2472 48.3929 64.5249 54.9651 59.6792 59.8109C54.8334 64.6566 48.2612 67.3789 41.4083 67.3789C34.5554 67.3789 27.9831 64.6566 23.1374 59.8109C18.2916 54.9651 15.5693 48.3929 15.5693 41.54C15.5693 34.687 18.2916 28.1148 23.1374 23.2691C27.9831 18.4233 34.5554 15.701 41.4083 15.701Z" stroke="#1727FF" stroke-width="1.23901"/>
<path d="M79.6462 31.1501C81.4262 37.7337 81.4717 44.6659 79.7784 51.2723C77.4447 50.9286 75.0615 51.289 72.9338 52.3074C70.8061 53.3258 69.0306 54.9559 67.8346 56.9891C66.6386 59.0223 66.0765 61.3661 66.2201 63.7206C66.3637 66.0752 67.2065 68.3333 68.6408 70.206C66.6958 72.0403 64.5697 73.6723 62.2951 75.0772C58.7844 77.2503 55.0652 78.8089 51.264 79.7771L51.1767 79.636C50.1169 77.9227 48.638 76.5077 46.8795 75.5248C45.121 74.5418 43.141 74.0233 41.1265 74.0181C39.1119 74.0129 37.1293 74.5213 35.3658 75.4952C33.6023 76.4691 32.1161 77.8764 31.0475 79.5843C24.9434 77.9135 19.3299 74.801 14.6795 70.5085C15.8141 68.639 16.4094 66.4921 16.3995 64.3052C16.3896 62.1184 15.775 59.9769 14.6235 58.1178C13.473 56.258 11.8305 54.7528 9.87756 53.7687C7.92466 52.7846 5.73758 52.3599 3.5583 52.5416C1.79036 46.4649 1.50799 40.0525 2.73495 33.8439C4.75426 33.6481 6.6895 32.9372 8.35544 31.7793C10.0214 30.6215 11.3622 29.0554 12.2497 27.231C13.1371 25.4066 13.5415 23.385 13.4239 21.3596C13.3064 19.3342 12.6711 17.3729 11.5786 15.6633C14.2073 12.6217 17.2848 9.99915 20.7048 7.88613C23.0229 6.45126 25.4328 5.28484 27.8965 4.37789C28.933 6.49683 30.5782 8.2583 32.6216 9.43691C34.6649 10.6155 37.0134 11.1576 39.3666 10.9939C41.7198 10.8302 43.9706 9.96811 45.8311 8.51792C47.6915 7.06773 49.077 5.09543 49.8101 2.85337C56.4778 4.28469 62.6616 7.41745 67.7597 11.9469C66.1299 13.8582 65.1491 16.2377 64.9586 18.7424C64.7681 21.247 65.3778 23.7475 66.6999 25.8833C68.0219 28.0191 69.988 29.68 72.3147 30.6266C74.6414 31.5731 77.2086 31.7564 79.6462 31.1501Z" stroke="#1727FF" stroke-width="1.23901" stroke-linejoin="round"/>
</svg>
