<svg width="83" height="83" viewBox="0 0 83 83" fill="none" xmlns="http://www.w3.org/2000/svg">
<rect x="0.75" y="-0.75" width="74.3965" height="35.043" rx="9.25" transform="matrix(1 0 0 -1 3.55273 39.7129)" stroke="#1727FF" stroke-width="1.5"/>
<rect x="0.75" y="-0.75" width="68.502" height="29.3464" rx="7.25" transform="matrix(1 0 0 -1 6.5 36.8647)" stroke="#1727FF" stroke-width="1.5"/>
<path d="M7.55273 78.5288H19.0928C20.8877 78.5288 22.3428 77.0737 22.3428 75.2788V67.6392C22.3428 62.6577 18.3046 58.6189 13.3232 58.6187C8.34179 58.6187 4.303 62.6568 4.30273 67.6382V75.2788C4.30273 77.0737 5.75781 78.5288 7.55273 78.5288Z" stroke="#1727FF" stroke-width="1.5"/>
<path d="M9.54102 74.1587H17.1045C17.7948 74.1587 18.3545 73.599 18.3545 72.9087V68.02C18.3544 65.2413 16.1019 62.989 13.3232 62.9888C10.5444 62.9888 8.29114 65.2412 8.29102 68.02V72.9087C8.29102 73.599 8.85066 74.1587 9.54102 74.1587Z" stroke="#1727FF" stroke-width="1.5"/>
<path d="M37.6279 74.1587H45.1914C45.8818 74.1587 46.4414 73.599 46.4414 72.9087V68.02C46.4413 65.2413 44.1888 62.989 41.4102 62.9888C38.6313 62.9888 36.3781 65.2412 36.3779 68.02V72.9087C36.3779 73.599 36.9376 74.1587 37.6279 74.1587Z" stroke="#1727FF" stroke-width="1.5"/>
<path d="M65.8984 74.1587H73.4619C74.1523 74.1587 74.7119 73.599 74.7119 72.9087V68.02C74.7118 65.2413 72.4593 62.989 69.6807 62.9888C66.9018 62.9888 64.6486 65.2412 64.6484 68.02V72.9087C64.6484 73.599 65.2081 74.1587 65.8984 74.1587Z" stroke="#1727FF" stroke-width="1.5"/>
<path d="M35.7305 78.5288H47.2705C49.0654 78.5288 50.5205 77.0737 50.5205 75.2788V67.6392C50.5205 62.6577 46.4824 58.6189 41.501 58.6187C36.5195 58.6187 32.4807 62.6568 32.4805 67.6382V75.2788C32.4805 77.0737 33.9355 78.5288 35.7305 78.5288Z" stroke="#1727FF" stroke-width="1.5"/>
<path d="M63.9102 78.5288H75.4502C77.2451 78.5288 78.7002 77.0737 78.7002 75.2788V67.6392C78.7002 62.6577 74.6621 58.6189 69.6807 58.6187C64.6992 58.6187 60.6604 62.6568 60.6602 67.6382V75.2788C60.6602 77.0737 62.1152 78.5288 63.9102 78.5288Z" stroke="#1727FF" stroke-width="1.5"/>
<path d="M13.3037 58.4126V52.1744C13.3037 49.3832 15.2285 46.9606 17.9475 46.3297L41.3097 40.9086M70.1311 58.4126V52.205C70.1311 49.3998 68.1874 46.969 65.4509 46.3519L41.3097 40.9086M41.3097 58.4126V40.9086" stroke="#1727FF" stroke-width="1.5" stroke-linecap="round" stroke-linejoin="round"/>
<circle cx="27.0285" cy="22.9069" r="2.10916" transform="rotate(-180 27.0285 22.9069)" fill="#1727FF" stroke="#1727FF" stroke-width="0.960994"/>
<circle cx="4.70957" cy="4.70957" r="4.22908" transform="matrix(-1.19249e-08 -1 -1 1.19249e-08 31.7002 27.6509)" stroke="#1727FF" stroke-width="0.960994"/>
<circle cx="41.4475" cy="22.9069" r="2.10916" transform="rotate(-180 41.4475 22.9069)" fill="#1727FF" stroke="#1727FF" stroke-width="0.960994"/>
<circle cx="4.70957" cy="4.70957" r="4.22908" transform="matrix(-1.19249e-08 -1 -1 1.19249e-08 46.1191 27.6509)" stroke="#1727FF" stroke-width="0.960994"/>
<circle cx="55.8664" cy="22.9069" r="2.10916" transform="rotate(-180 55.8664 22.9069)" fill="#1727FF" stroke="#1727FF" stroke-width="0.960994"/>
<circle cx="4.70957" cy="4.70957" r="4.22908" transform="matrix(-1.19249e-08 -1 -1 1.19249e-08 60.5381 27.6509)" stroke="#1727FF" stroke-width="0.960994"/>
</svg>
