<svg width="83" height="84" viewBox="0 0 83 84" fill="none" xmlns="http://www.w3.org/2000/svg">
<path d="M63.9238 4.79346C66.412 4.91979 68.3906 6.97794 68.3906 9.49756L68.3848 9.73975C68.2584 12.2277 66.201 14.2063 63.6816 14.2065L63.4385 14.2007C61.1868 14.0863 59.3529 12.3902 59.0244 10.2017H53.8018V21.0464C53.8016 21.3116 53.5865 21.5268 53.3213 21.5269C53.056 21.5269 52.8409 21.3117 52.8408 21.0464V9.72119C52.8408 9.45582 53.0559 9.24072 53.3213 9.24072H58.9785C59.1118 6.75899 61.1667 4.7876 63.6816 4.7876L63.9238 4.79346ZM63.6816 5.74854C61.6119 5.74854 59.9335 7.4261 59.9326 9.49561C59.9687 9.56305 59.9912 9.63934 59.9912 9.72119C59.9912 9.78533 59.9769 9.84592 59.9541 9.90186C60.1561 11.7817 61.7482 13.2456 63.6816 13.2456C65.7515 13.2453 67.4293 11.5674 67.4297 9.49756C67.4297 7.42746 65.7517 5.74883 63.6816 5.74854ZM63.7256 6.84619C65.1556 6.84629 66.3153 8.00504 66.3154 9.43506C66.3154 10.8652 65.1557 12.0248 63.7256 12.0249C62.2954 12.0249 61.1357 10.8653 61.1357 9.43506C61.1359 8.00498 62.2955 6.84619 63.7256 6.84619Z" fill="#2837FF"/>
<path d="M63.9238 77.2754C66.412 77.1491 68.3906 75.0909 68.3906 72.5713L68.3848 72.3291C68.2584 69.8411 66.201 67.8626 63.6816 67.8623L63.4385 67.8682C61.1868 67.9825 59.3529 69.6786 59.0244 71.8672H53.8018V61.0225C53.8018 60.7571 53.5866 60.5421 53.3213 60.542C53.0559 60.542 52.8408 60.7571 52.8408 61.0225V72.3477C52.8409 72.6129 53.056 72.8281 53.3213 72.8281H58.9785C59.1118 75.3098 61.1667 77.2812 63.6816 77.2812L63.9238 77.2754ZM63.6816 76.3203C61.6119 76.3203 59.9335 74.6427 59.9326 72.5732C59.9688 72.5058 59.9912 72.4296 59.9912 72.3477C59.9912 72.2836 59.9769 72.2229 59.9541 72.167C60.1561 70.2872 61.7482 68.8232 63.6816 68.8232C65.7515 68.8235 67.4293 70.5015 67.4297 72.5713C67.4297 74.6414 65.7517 76.32 63.6816 76.3203ZM63.7256 75.2139C65.1557 75.2138 66.3154 74.0542 66.3154 72.624C66.3153 71.1939 65.1557 70.0343 63.7256 70.0342C62.2954 70.0342 61.1358 71.1939 61.1357 72.624C61.1357 74.0543 62.2954 75.2139 63.7256 75.2139Z" fill="#2837FF"/>
<path d="M18.1162 4.79346C15.6281 4.9199 13.6494 6.97802 13.6494 9.49756L13.6553 9.73975C13.7816 12.2277 15.8392 14.2061 18.3584 14.2065L18.6016 14.2007C20.8532 14.0863 22.6882 12.3902 23.0166 10.2017H28.2393V21.0464C28.2394 21.3116 28.4545 21.5268 28.7197 21.5269C28.985 21.5269 29.2001 21.3117 29.2002 21.0464V9.72119C29.2002 9.45582 28.9851 9.24072 28.7197 9.24072H23.0615C22.9282 6.759 20.8733 4.7876 18.3584 4.7876L18.1162 4.79346ZM18.3584 5.74854C20.4287 5.74854 22.1084 7.42728 22.1084 9.49756C22.0728 9.56464 22.0498 9.63996 22.0498 9.72119C22.0498 9.78533 22.0641 9.84593 22.0869 9.90186C21.885 11.7817 20.2919 13.2456 18.3584 13.2456C16.2887 13.2452 14.6107 11.5673 14.6104 9.49756C14.6104 7.42753 16.2885 5.74895 18.3584 5.74854ZM18.3594 6.90674C16.9294 6.90692 15.7706 8.06655 15.7705 9.49658C15.7705 10.9267 16.9293 12.0862 18.3594 12.0864C19.7896 12.0864 20.9492 10.9268 20.9492 9.49658C20.9491 8.06644 19.7895 6.90674 18.3594 6.90674Z" fill="#2837FF"/>
<path d="M18.1162 77.2754C15.6281 77.149 13.6494 75.0908 13.6494 72.5713L13.6553 72.3291C13.7816 69.8412 15.8392 67.8627 18.3584 67.8623L18.6016 67.8682C20.8532 67.9825 22.6882 69.6786 23.0166 71.8672H28.2393V61.0225C28.2393 60.7571 28.4544 60.5421 28.7197 60.542C28.9851 60.542 29.2002 60.7571 29.2002 61.0225V72.3477C29.2001 72.6129 28.985 72.8281 28.7197 72.8281H23.0615C22.9282 75.3098 20.8733 77.2812 18.3584 77.2812L18.1162 77.2754ZM18.3584 76.3203C20.4287 76.3203 22.1084 74.6416 22.1084 72.5713C22.0727 72.5042 22.0498 72.4289 22.0498 72.3477C22.0498 72.2836 22.0641 72.2229 22.0869 72.167C21.885 70.2871 20.2919 68.8232 18.3584 68.8232C16.2887 68.8237 14.6107 70.5016 14.6104 72.5713C14.6104 74.6413 16.2885 76.3199 18.3584 76.3203ZM18.3975 75.2139C16.9672 75.2139 15.8076 74.0543 15.8076 72.624C15.8077 71.1939 16.9673 70.0342 18.3975 70.0342C19.8275 70.0343 20.9872 71.1939 20.9873 72.624C20.9873 74.0542 19.8276 75.2138 18.3975 75.2139Z" fill="#2837FF"/>
<path d="M0.556641 26.7417C0.682879 24.2534 2.74113 22.275 5.26074 22.2749L5.50293 22.2808C7.9911 22.407 9.96952 24.4644 9.96973 26.9839L9.96387 27.2271C9.84947 29.4784 8.15404 31.3124 5.96582 31.6411L5.96582 36.8647L13.9277 36.8647C14.1929 36.865 14.4082 37.08 14.4082 37.3452C14.408 37.6103 14.1928 37.8254 13.9277 37.8257L5.48535 37.8257C5.2201 37.8257 5.00508 37.6104 5.00488 37.3452L5.00488 31.687C2.52292 31.554 0.55086 29.499 0.550781 26.9839L0.556641 26.7417ZM1.51172 26.9839C1.5118 29.0537 3.19004 30.7323 5.25977 30.7329C5.32713 30.6969 5.40364 30.6753 5.48535 30.6753C5.54942 30.6753 5.61014 30.6886 5.66602 30.7114C7.54552 30.5092 9.00871 28.9171 9.00879 26.9839C9.00858 24.9139 7.33072 23.236 5.26074 23.2358C3.19065 23.2359 1.51193 24.9138 1.51172 26.9839ZM2.71191 27.022C2.7121 25.5919 3.87165 24.4331 5.30176 24.4331C6.73183 24.4332 7.89141 25.5919 7.8916 27.022C7.8916 28.4522 6.73194 29.6118 5.30176 29.6118C3.87153 29.6118 2.71191 28.4522 2.71191 27.022Z" fill="#2837FF"/>
<path d="M82.2432 25.3193C82.1167 22.8312 80.0586 20.8525 77.5391 20.8525L77.2969 20.8584C74.8091 20.9849 72.8305 23.0424 72.8301 25.5615L72.8359 25.8047C72.9503 28.056 74.646 29.8908 76.834 30.2197L76.834 35.4424L68.8721 35.4424C68.6068 35.4425 68.3916 35.6576 68.3916 35.9229C68.3917 36.1881 68.6069 36.4032 68.8721 36.4033L77.3145 36.4033C77.5798 36.4033 77.7948 36.1881 77.7949 35.9229L77.7949 30.2646C80.2772 30.132 82.249 28.0769 82.249 25.5615L82.2432 25.3193ZM81.2881 25.5615C81.2881 27.6318 79.6093 29.3115 77.5391 29.3115C77.4718 29.2757 77.396 29.2529 77.3145 29.2529C77.2501 29.253 77.1889 29.2661 77.1328 29.2891C75.254 29.0861 73.791 27.4942 73.791 25.5615C73.7915 23.4919 75.4695 21.8139 77.5391 21.8135C79.6091 21.8135 81.2876 23.4916 81.2881 25.5615ZM80.1182 25.5449C80.1181 24.1147 78.9585 22.9551 77.5283 22.9551C76.0983 22.9553 74.9395 24.1149 74.9395 25.5449C74.9395 26.975 76.0983 28.1345 77.5283 28.1348C78.9585 28.1348 80.1182 26.9751 80.1182 25.5449Z" fill="#2837FF"/>
<path d="M0.556641 54.9155C0.683069 57.4036 2.74126 59.3823 5.26074 59.3823L5.50293 59.3765C7.99097 59.2502 9.96932 57.1927 9.96973 54.6733L9.96387 54.4302C9.84954 52.1787 8.15413 50.3438 5.96582 50.0151L5.96582 44.7925L13.9277 44.7925C14.1928 44.7922 14.4081 44.5772 14.4082 44.312C14.4082 44.0468 14.1929 43.8318 13.9277 43.8315L5.48535 43.8315C5.21998 43.8315 5.00488 44.0466 5.00488 44.312L5.00488 49.9702C2.52288 50.1032 0.550781 52.1582 0.550781 54.6733L0.556641 54.9155ZM1.51172 54.6733C1.51172 52.6031 3.19052 50.9234 5.26074 50.9233C5.32797 50.9591 5.40388 50.9819 5.48535 50.9819C5.54948 50.9819 5.6101 50.9677 5.66602 50.9448C7.54559 51.147 9.00879 52.74 9.00879 54.6733C9.00837 56.7431 7.33059 58.4212 5.26074 58.4214C3.19078 58.4213 1.51214 56.7432 1.51172 54.6733ZM2.71191 54.6968C2.71191 56.127 3.87153 57.2866 5.30176 57.2866C6.73194 57.2866 7.8916 56.127 7.8916 54.6968C7.89145 53.2667 6.73185 52.107 5.30176 52.1069C3.87162 52.1069 2.71206 53.2667 2.71191 54.6968Z" fill="#2837FF"/>
<path d="M82.2432 54.9155C82.1167 57.4036 80.0586 59.3823 77.5391 59.3823L77.2969 59.3765C74.8091 59.25 72.8305 57.1925 72.8301 54.6733L72.8359 54.4302C72.9503 52.1789 74.646 50.344 76.834 50.0151L76.834 44.7925L68.8721 44.7925C68.6069 44.7923 68.3917 44.5772 68.3916 44.312C68.3916 44.0467 68.6068 43.8317 68.8721 43.8315L77.3145 43.8315C77.5798 43.8315 77.7949 44.0466 77.7949 44.312L77.7949 49.9702C80.2772 50.1029 82.249 52.158 82.249 54.6733L82.2432 54.9155ZM81.2881 54.6733C81.2881 52.6031 79.6093 50.9243 77.5391 50.9243L77.5381 50.9243C77.4711 50.9598 77.3955 50.9819 77.3145 50.9819C77.2506 50.9819 77.1905 50.9674 77.1348 50.9448C75.255 51.1469 73.791 52.7399 73.791 54.6733C73.7914 56.743 75.4694 58.4209 77.5391 58.4214C79.6091 58.4214 81.2877 56.7433 81.2881 54.6733ZM80.167 54.7065C80.167 56.1368 79.0074 57.2964 77.5771 57.2964C76.147 57.2963 74.9873 56.1367 74.9873 54.7065C74.9875 53.2765 76.1471 52.1167 77.5771 52.1167C79.0073 52.1167 80.1668 53.2764 80.167 54.7065Z" fill="#2837FF"/>
<path d="M41.1309 36.0366C50.2436 36.0366 57.6309 33.5742 57.6309 30.5366C57.6309 27.4991 50.2436 25.0366 41.1309 25.0366C32.0182 25.0366 24.6309 27.4991 24.6309 30.5366C24.6309 33.5742 32.0182 36.0366 41.1309 36.0366Z" stroke="#1727FF" stroke-width="1.25" stroke-linecap="round" stroke-linejoin="round"/>
<path d="M24.6309 37.8701C24.6309 40.9868 31.9642 43.3701 41.1309 43.3701C50.2975 43.3701 57.6309 40.9868 57.6309 37.8701M24.6309 45.2035C24.6309 48.3201 31.9642 50.7034 41.1309 50.7034C50.2975 50.7034 57.6309 48.3201 57.6309 45.2035" stroke="#1727FF" stroke-width="1.25" stroke-linecap="round" stroke-linejoin="round"/>
<path d="M24.6309 30.5366V52.5366C24.6309 55.6533 31.9642 58.0366 41.1309 58.0366C50.2975 58.0366 57.6309 55.6533 57.6309 52.5366V30.5366" stroke="#1727FF" stroke-width="1.25" stroke-linecap="round" stroke-linejoin="round"/>
</svg>
