<svg width="65" height="65" viewBox="0 0 65 65" fill="none" xmlns="http://www.w3.org/2000/svg">
<path d="M51.688 10.7173L50.3711 10.7317C50.1693 10.7339 49.9701 10.7766 49.7852 10.8572C49.6002 10.9377 49.4333 11.0546 49.2943 11.2008C49.1553 11.347 49.047 11.5196 48.9759 11.7083C48.9047 11.8971 48.8721 12.0982 48.88 12.2998L49.1361 18.8153C49.1497 19.2054 49.3148 19.5749 49.5962 19.8455C49.8776 20.1161 50.2532 20.2665 50.6436 20.265H50.6543L51.3949 20.2595C51.7803 20.2565 52.15 20.1063 52.4282 19.8395C52.7063 19.5728 52.872 19.2098 52.8912 18.8249L53.211 12.3005C53.2211 12.095 53.189 11.8896 53.1168 11.697C53.0446 11.5043 52.9338 11.3284 52.7911 11.1802C52.6484 11.0319 52.4769 10.9144 52.2871 10.8349C52.0973 10.7554 51.8933 10.7155 51.6876 10.7177L51.688 10.7173ZM51.3706 18.7362L50.6575 18.7414L50.4031 12.2548L51.6891 12.2411L51.3706 18.7362ZM51.0503 20.503C50.635 20.51 50.2311 20.6396 49.8892 20.8754C49.5474 21.1112 49.2828 21.4428 49.1288 21.8285C48.9748 22.2142 48.9381 22.6368 49.0235 23.0433C49.1089 23.4497 49.3124 23.8219 49.6086 24.113C49.9048 24.4041 50.2804 24.6013 50.6882 24.6797C51.0961 24.758 51.518 24.7142 51.901 24.5535C52.284 24.3929 52.611 24.1227 52.8409 23.7769C53.0708 23.431 53.1935 23.025 53.1934 22.6096C53.1879 22.0463 52.9591 21.5081 52.5574 21.1132C52.1556 20.7183 51.6136 20.4988 51.0503 20.503ZM51.0503 23.1927C50.9365 23.1858 50.8273 23.1457 50.736 23.0774C50.6448 23.0091 50.5755 22.9156 50.5368 22.8084C50.498 22.7012 50.4915 22.5851 50.5179 22.4742C50.5444 22.3633 50.6027 22.2627 50.6857 22.1846C50.7687 22.1064 50.8728 22.0543 50.985 22.0346C51.0973 22.015 51.2129 22.0285 51.3175 22.0737C51.4221 22.1189 51.5112 22.1938 51.5739 22.289C51.6365 22.3842 51.6699 22.4957 51.6699 22.6096C51.6647 22.769 51.5966 22.9199 51.4805 23.0292C51.3644 23.1385 51.2097 23.1974 51.0503 23.1929V23.1927ZM63.2478 22.2533L53.591 5.79268C53.0259 4.82936 52.0984 4.27686 51.0461 4.27686C49.9938 4.27686 49.0656 4.82936 48.5012 5.79268L45.2269 11.3738H5.88872C4.66406 11.3752 3.48995 11.8623 2.62398 12.7282C1.75801 13.5942 1.27091 14.7683 1.26953 15.993V46.4561C1.27091 47.6808 1.75801 48.8549 2.62398 49.7209C3.48995 50.5868 4.66406 51.074 5.88872 51.0753H21.3154C21.3885 52.2785 20.9892 53.4628 20.2026 54.3761H17.7074C17.3867 54.3765 17.0792 54.5041 16.8525 54.7309C16.6257 54.9576 16.4981 55.2651 16.4978 55.5858V57.5498C16.4987 58.3913 16.8334 59.198 17.4284 59.793C18.0234 60.3881 18.8302 60.7227 19.6716 60.7236H38.0025C38.844 60.7227 39.6508 60.3881 40.2458 59.793C40.8408 59.198 41.1754 58.3913 41.1764 57.5498V55.5858C41.176 55.2651 41.0485 54.9576 40.8217 54.7309C40.5949 54.5041 40.2875 54.3765 39.9667 54.3761H37.3353C36.5488 53.4627 36.1497 52.2785 36.223 51.0753H51.6491C52.8738 51.074 54.0479 50.5868 54.9138 49.7209C55.7798 48.8549 56.2669 47.6808 56.2683 46.4561V27.3063H60.7029C61.8455 27.3063 62.8442 26.6504 63.375 25.552C63.627 25.0342 63.7473 24.4621 63.7251 23.8866C63.703 23.311 63.5391 22.7499 63.248 22.2529L63.2478 22.2533ZM39.6528 57.5496C39.6523 57.9871 39.4783 58.4066 39.1689 58.716C38.8595 59.0254 38.44 59.1995 38.0024 59.2H19.6715C19.2339 59.1995 18.8144 59.0254 18.505 58.716C18.1956 58.4066 18.0216 57.9871 18.0211 57.5496V55.8992H39.6527L39.6528 57.5496ZM35.488 54.3757H22.0486C22.6203 53.3729 22.8943 52.2279 22.8385 51.075H34.6993C34.6431 52.2278 34.9167 53.3729 35.488 54.3759V54.3757ZM51.6491 49.5515H5.88872C5.06803 49.5506 4.28122 49.2242 3.70087 48.6439C3.12052 48.0636 2.79401 47.2768 2.79297 46.4561V45.1485H54.7449V46.4561C54.7439 47.2769 54.4175 48.0638 53.8371 48.6441C53.2567 49.2245 52.4699 49.551 51.6491 49.5519V49.5515ZM54.7449 43.625H2.79297V15.993C2.79388 15.1722 3.12033 14.3853 3.7007 13.805C4.28107 13.2246 5.06795 12.8981 5.88872 12.8972H44.3332L38.8445 22.2529C38.5534 22.7499 38.3895 23.311 38.3674 23.8866C38.3452 24.4621 38.4655 25.0342 38.7175 25.552C39.2483 26.6504 40.2472 27.3063 41.3895 27.3063H54.745L54.7449 43.625ZM62.0039 24.8892C61.7254 25.4655 61.2635 25.7828 60.7034 25.7828H41.3893C40.8291 25.7828 40.3674 25.4655 40.0889 24.8892C39.9438 24.5972 39.8741 24.2735 39.8863 23.9476C39.8984 23.6218 39.992 23.3042 40.1584 23.0238L49.8153 6.56354C50.0195 6.21543 50.3992 5.80029 51.0461 5.80029C51.6929 5.80029 52.0727 6.21543 52.2775 6.56354L61.9343 23.0238C62.1007 23.3042 62.1943 23.6218 62.2064 23.9476C62.2186 24.2735 62.149 24.5972 62.0039 24.8892ZM29.3876 29.8479L27.5963 28.474C27.4633 28.3721 27.3005 28.3168 27.1329 28.3168C26.9654 28.3168 26.8025 28.3721 26.6696 28.474L24.8777 29.8479C24.785 29.919 24.7099 30.0105 24.6582 30.1153C24.6065 30.2201 24.5796 30.3354 24.5796 30.4523V40.3093C24.5796 40.5113 24.6599 40.7051 24.8027 40.8479C24.9456 40.9908 25.1393 41.071 25.3414 41.071H28.9241C29.1261 41.071 29.3199 40.9908 29.4627 40.8479C29.6056 40.7051 29.6858 40.5113 29.6858 40.3093V30.4523C29.6858 30.3354 29.6589 30.2201 29.6072 30.1153C29.5555 30.0105 29.4804 29.919 29.3876 29.8479ZM28.1624 39.5471H26.1031V30.8281L27.1327 30.0383L28.1624 30.8281V39.5471ZM22.9642 28.377L21.1729 27.0031C21.0399 26.9012 20.877 26.846 20.7095 26.846C20.5419 26.846 20.3791 26.9012 20.2461 27.0031L18.4548 28.377C18.362 28.4481 18.2869 28.5396 18.2352 28.6444C18.1835 28.7492 18.1566 28.8646 18.1566 28.9814V40.3088C18.1566 40.5108 18.2368 40.7046 18.3797 40.8474C18.5225 40.9903 18.7163 41.0705 18.9183 41.0705H22.501C22.7031 41.0705 22.8968 40.9903 23.0397 40.8474C23.1825 40.7046 23.2628 40.5108 23.2628 40.3088V28.9819C23.2627 28.865 23.2358 28.7497 23.184 28.6449C23.1322 28.5401 23.057 28.4486 22.9642 28.3775V28.377ZM21.7389 39.5471H19.6796V29.3577L20.7092 28.5679L21.7389 29.3577V39.5471ZM16.5407 32.9665L14.7494 31.5926C14.6165 31.4906 14.4536 31.4352 14.286 31.4352C14.1185 31.4352 13.9556 31.4906 13.8227 31.5926L12.0313 32.9665C11.9386 33.0376 11.8635 33.1291 11.8118 33.2339C11.76 33.3387 11.7331 33.454 11.7331 33.5709V40.3093C11.7331 40.5113 11.8134 40.7051 11.9562 40.8479C12.0991 40.9908 12.2928 41.071 12.4949 41.071H16.0776C16.2796 41.071 16.4734 40.9908 16.6162 40.8479C16.7591 40.7051 16.8393 40.5113 16.8393 40.3093V33.5709C16.8393 33.454 16.8123 33.3387 16.7605 33.2339C16.7087 33.129 16.6335 33.0376 16.5407 32.9665ZM15.3155 39.5476H13.2562V33.9473L14.2859 33.1575L15.3155 33.9473V39.5476ZM13.4809 28.2952C13.3664 28.1288 13.3226 27.9238 13.3593 27.7251C13.3959 27.5265 13.51 27.3505 13.6764 27.2359L20.5424 22.5088C20.6365 22.444 20.744 22.4012 20.857 22.3836C20.9699 22.3661 21.0853 22.3741 21.1947 22.4073L27.4874 24.3084L31.8981 21.6963L31.5126 21.5335C31.3284 21.4536 31.1832 21.3042 31.1086 21.1178C31.0339 20.9314 31.0359 20.7231 31.1141 20.5382C31.1922 20.3532 31.3402 20.2066 31.5259 20.1302C31.7116 20.0539 31.9199 20.0539 32.1056 20.1303L33.8853 20.8823C34.0584 20.9555 34.1983 21.09 34.2782 21.2601C34.3581 21.4302 34.3723 21.6238 34.3181 21.8037L33.6814 23.9166C33.6231 24.1101 33.4904 24.2724 33.3124 24.368C33.1344 24.4635 32.9257 24.4845 32.7323 24.4262C32.5388 24.3679 32.3765 24.2351 32.2809 24.0571C32.1854 23.8791 32.1644 23.6704 32.2227 23.477L32.297 23.2304L27.9754 25.7892C27.8846 25.8429 27.7837 25.8772 27.6789 25.8899C27.5742 25.9026 27.468 25.8933 27.367 25.8628L21.1047 23.9712L14.5402 28.4908C14.4578 28.5476 14.3651 28.5876 14.2673 28.6085C14.1694 28.6294 14.0684 28.6308 13.97 28.6127C13.8717 28.5945 13.7778 28.5572 13.6939 28.5027C13.6099 28.4483 13.5376 28.3778 13.4809 28.2954V28.2952ZM35.8111 26.5587L34.0196 25.1845C33.8867 25.0826 33.7238 25.0274 33.5563 25.0274C33.3887 25.0274 33.2258 25.0826 33.0929 25.1845L31.3012 26.5587C31.2084 26.6298 31.1333 26.7213 31.0816 26.8261C31.0299 26.9309 31.003 27.0462 31.003 27.1631V40.3093C31.003 40.5113 31.0832 40.7051 31.2261 40.8479C31.3689 40.9908 31.5627 41.071 31.7647 41.071H35.3474C35.5494 41.071 35.7432 40.9908 35.886 40.8479C36.0289 40.7051 36.1091 40.5113 36.1091 40.3093V27.1628C36.1091 27.046 36.0822 26.9308 36.0305 26.826C35.9788 26.7212 35.9038 26.6298 35.8111 26.5587ZM34.5857 39.5479H32.5264V27.5386L33.5561 26.7488L34.5857 27.5386V39.5479ZM10.1806 17.448C10.1806 17.65 10.1004 17.8438 9.95752 17.9866C9.81467 18.1295 9.62093 18.2097 9.41891 18.2097H6.87896C6.67693 18.2097 6.48319 18.1295 6.34034 17.9866C6.19749 17.8438 6.11724 17.65 6.11724 17.448C6.11724 17.246 6.19749 17.0522 6.34034 16.9094C6.48319 16.7665 6.67693 16.6863 6.87896 16.6863H9.41891C9.62093 16.6863 9.81467 16.7665 9.95752 16.9094C10.1004 17.0522 10.1806 17.246 10.1806 17.448ZM10.1806 21.258C10.1806 21.46 10.1004 21.6537 9.95752 21.7966C9.81467 21.9394 9.62093 22.0197 9.41891 22.0197H6.87896C6.67693 22.0197 6.48319 21.9394 6.34034 21.7966C6.19749 21.6537 6.11724 21.46 6.11724 21.258C6.11724 21.056 6.19749 20.8622 6.34034 20.7194C6.48319 20.5765 6.67693 20.4963 6.87896 20.4963H9.41891C9.62093 20.4963 9.81467 20.5765 9.95752 20.7194C10.1004 20.8622 10.1806 21.056 10.1806 21.258ZM10.1806 25.0682C10.1806 25.2702 10.1004 25.464 9.95752 25.6068C9.81467 25.7497 9.62093 25.8299 9.41891 25.8299H6.87896C6.67693 25.8299 6.48319 25.7497 6.34034 25.6068C6.19749 25.464 6.11724 25.2702 6.11724 25.0682C6.11724 24.8662 6.19749 24.6725 6.34034 24.5296C6.48319 24.3868 6.67693 24.3065 6.87896 24.3065H9.41891C9.62093 24.3065 9.81467 24.3868 9.95752 24.5296C10.1004 24.6725 10.1806 24.8662 10.1806 25.0682Z" fill="#1727FF"/>
</svg>
