<svg width="83" height="83" viewBox="0 0 83 83" fill="none" xmlns="http://www.w3.org/2000/svg">
<path d="M28.0459 25.4732C31.1754 25.4732 34.1767 26.7163 36.3896 28.9292C38.6025 31.1421 39.8457 34.1434 39.8457 37.273C39.8457 40.4025 38.6025 43.4038 36.3896 45.6167C34.1767 47.8296 31.1754 49.0728 28.0459 49.0728C24.9164 49.0728 21.9151 47.8296 19.7022 45.6167C17.4893 43.4038 16.2461 40.4025 16.2461 37.273C16.2461 34.1435 17.4893 31.1421 19.7022 28.9292C21.9151 26.7163 24.9164 25.4732 28.0459 25.4732Z" stroke="#1727FF" stroke-width="1.23901"/>
<path d="M28.0451 29.257C30.171 29.257 32.2099 30.1015 33.7131 31.6047C35.2164 33.108 36.0609 35.1468 36.0609 37.2728C36.0609 39.3987 35.2164 41.4375 33.7131 42.9408C32.2099 44.4441 30.171 45.2886 28.0451 45.2886C25.9192 45.2886 23.8803 44.4441 22.3771 42.9408C20.8738 41.4375 20.0293 39.3987 20.0293 37.2728C20.0293 35.1468 20.8738 33.108 22.3771 31.6047C23.8803 30.1015 25.9192 29.257 28.0451 29.257Z" fill="#1727FF" stroke="#1727FF" stroke-width="0.841678"/>
<path d="M49.6813 31.3942C50.6885 35.1193 50.7142 39.0417 49.7561 42.7797C48.4357 42.5852 47.0872 42.7891 45.8833 43.3654C44.6794 43.9416 43.6749 44.864 42.9981 46.0144C42.3214 47.1648 42.0033 48.491 42.0846 49.8232C42.1658 51.1554 42.6427 52.4331 43.4543 53.4927C42.3538 54.5306 41.1508 55.454 39.8638 56.2489C37.8773 57.4785 35.773 58.3604 33.6222 58.9082L33.5728 58.8284C32.9731 57.8589 32.1363 57.0583 31.1414 56.5022C30.1464 55.946 29.026 55.6526 27.8862 55.6497C26.7463 55.6467 25.6245 55.9344 24.6267 56.4854C23.6288 57.0365 22.7879 57.8328 22.1833 58.7991C18.7295 57.8538 15.5533 56.0926 12.922 53.6639C13.564 52.6061 13.9008 51.3913 13.8952 50.154C13.8896 48.9166 13.5418 47.7049 12.8903 46.653C12.2394 45.6007 11.31 44.749 10.205 44.1922C9.1 43.6354 7.86251 43.3951 6.62943 43.4979C5.6291 40.0596 5.46933 36.4313 6.16356 32.9184C7.30613 32.8076 8.40112 32.4054 9.34374 31.7502C10.2864 31.0951 11.045 30.209 11.5472 29.1767C12.0493 28.1444 12.2781 27.0005 12.2116 25.8545C12.1451 24.7085 11.7856 23.5988 11.1675 22.6315C12.6548 20.9105 14.3961 19.4266 16.3312 18.231C17.6429 17.4191 19.0064 16.7592 20.4004 16.246C20.9869 17.4449 21.9178 18.4416 23.0739 19.1085C24.2301 19.7754 25.5589 20.0821 26.8904 19.9895C28.2219 19.8968 29.4955 19.409 30.5481 18.5885C31.6008 17.768 32.3847 16.652 32.7995 15.3834C36.5723 16.1933 40.0711 17.9658 42.9557 20.5287C42.0336 21.6101 41.4786 22.9565 41.3708 24.3737C41.263 25.7908 41.608 27.2056 42.3561 28.4141C43.1041 29.6226 44.2165 30.5624 45.533 31.098C46.8495 31.6335 48.3021 31.7373 49.6813 31.3942Z" stroke="#1727FF" stroke-width="1.23901" stroke-linejoin="round"/>
<path d="M59.4388 60.9006L51.9829 53.4446L43.3115 53.4446M59.4388 60.9006C58.829 61.5104 58.4864 62.3375 58.4864 63.1999C58.4864 64.0623 58.829 64.8894 59.4388 65.4992C60.0486 66.1091 60.8757 66.4517 61.7381 66.4517C62.6006 66.4517 63.4277 66.1091 64.0375 65.4992C64.6473 64.8894 64.9899 64.0623 64.9899 63.1999C64.9899 62.3375 64.6473 61.5104 64.0375 60.9006C63.4277 60.2907 62.6006 59.9481 61.7381 59.9481C60.8757 59.9481 60.0486 60.2907 59.4388 60.9006ZM68.9997 54.1487L61.5438 46.6928L43.381 46.6928M68.9997 54.1487C68.3899 54.7585 68.0473 55.5856 68.0473 56.4481C68.0473 57.3105 68.3899 58.1376 68.9997 58.7474C69.6096 59.3572 70.4367 59.6998 71.2991 59.6998C72.1615 59.6998 72.9886 59.3572 73.5984 58.7474C74.2082 58.1376 74.5508 57.3105 74.5508 56.4481C74.5508 55.5856 74.2082 54.7585 73.5984 54.1487C72.9886 53.5389 72.1615 53.1963 71.2991 53.1963C70.4367 53.1963 69.6096 53.5389 68.9997 54.1487ZM69.5437 36.6928L51.3809 36.6928M70.0472 36.4481C70.0472 35.5856 70.3898 34.7585 70.9996 34.1487C71.6094 33.5389 72.4365 33.1963 73.299 33.1963C74.1614 33.1963 74.9885 33.5389 75.5983 34.1487C76.2081 34.7585 76.5507 35.5856 76.5507 36.4481C76.5507 37.3105 76.2081 38.1376 75.5983 38.7474C74.9885 39.3572 74.1614 39.6998 73.299 39.6998C72.4365 39.6998 71.6094 39.3572 70.9996 38.7474C70.3898 38.1376 70.0472 37.3105 70.0472 36.4481Z" stroke="#2837FF" stroke-width="1.5" stroke-linecap="round" stroke-linejoin="round"/>
<path d="M59.4388 13.342L51.9829 20.798L43.3115 20.798M59.4388 13.342C58.829 12.7322 58.4864 11.9051 58.4864 11.0427C58.4864 10.1802 58.829 9.35315 59.4388 8.74333C60.0486 8.13351 60.8757 7.79091 61.7381 7.79091C62.6006 7.79091 63.4277 8.13351 64.0375 8.74333C64.6473 9.35315 64.9899 10.1802 64.9899 11.0427C64.9899 11.9051 64.6473 12.7322 64.0375 13.342C63.4277 13.9518 62.6006 14.2944 61.7381 14.2944C60.8757 14.2944 60.0486 13.9518 59.4388 13.342ZM68.9997 20.0939L61.5438 27.5498L43.381 27.5498M68.9997 20.0939C68.3899 19.484 68.0473 18.6569 68.0473 17.7945C68.0473 16.9321 68.3899 16.105 68.9997 15.4952C69.6096 14.8854 70.4367 14.5428 71.2991 14.5428C72.1615 14.5428 72.9886 14.8854 73.5984 15.4952C74.2082 16.105 74.5508 16.9321 74.5508 17.7945C74.5508 18.6569 74.2082 19.484 73.5984 20.0939C72.9886 20.7037 72.1615 21.0463 71.2991 21.0463C70.4367 21.0463 69.6096 20.7037 68.9997 20.0939Z" stroke="#2837FF" stroke-width="1.5" stroke-linecap="round" stroke-linejoin="round"/>
</svg>
