<svg width="60" height="61" viewBox="0 0 60 61" fill="none" xmlns="http://www.w3.org/2000/svg">
<path d="M46.5176 2.81787C48.4538 2.81799 50.0242 4.38754 50.0244 6.32373L50.0195 6.50439C49.9256 8.35689 48.3934 9.83045 46.5176 9.83057L46.3379 9.82568C44.6885 9.74226 43.3406 8.51846 43.0645 6.92725H39.2412V18.5562C39.2411 18.7968 39.0453 18.9916 38.8047 18.9917C38.5639 18.9917 38.3683 18.7969 38.3682 18.5562V6.49072C38.3682 6.2499 38.5639 6.0542 38.8047 6.0542H43.0225C43.1602 4.24396 44.6721 2.81805 46.5176 2.81787ZM46.5176 3.68994C45.0631 3.69012 43.884 4.86922 43.8838 6.32373C43.8839 7.77834 45.063 8.95831 46.5176 8.9585C47.9722 8.95837 49.1523 7.77838 49.1523 6.32373C49.1522 4.86919 47.9721 3.69006 46.5176 3.68994ZM46.5498 4.3501C47.6144 4.35022 48.4774 5.21323 48.4775 6.27783C48.4775 7.34254 47.6145 8.20545 46.5498 8.20557C45.485 8.20557 44.6221 7.34261 44.6221 6.27783C44.6222 5.21315 45.4851 4.3501 46.5498 4.3501Z" fill="#2837FF"/>
<path d="M46.5176 56.7881C48.4538 56.788 50.0242 55.2184 50.0244 53.2822L50.0195 53.1016C49.9257 51.249 48.3934 49.7755 46.5176 49.7754L46.3379 49.7803C44.6884 49.8637 43.3406 51.0874 43.0645 52.6787H39.2412V41.0498C39.2411 40.8091 39.0453 40.6144 38.8047 40.6143C38.5639 40.6143 38.3683 40.8091 38.3682 41.0498V53.1152C38.3682 53.356 38.5639 53.5518 38.8047 53.5518H43.0225C43.1603 55.3619 44.6722 56.7879 46.5176 56.7881ZM46.5176 55.916C45.0631 55.9158 43.884 54.7367 43.8838 53.2822C43.8838 51.8276 45.063 50.6476 46.5176 50.6475C47.9723 50.6476 49.1523 51.8275 49.1523 53.2822C49.1521 54.7367 47.9721 55.9159 46.5176 55.916ZM46.5498 55.249C47.6144 55.2489 48.4774 54.3859 48.4775 53.3213C48.4775 52.2566 47.6145 51.3927 46.5498 51.3926C45.485 51.3926 44.6221 52.2565 44.6221 53.3213C44.6222 54.3859 45.4851 55.249 46.5498 55.249Z" fill="#2837FF"/>
<path d="M12.7744 2.81787C10.8381 2.81787 9.26776 4.38747 9.26758 6.32373L9.27246 6.50439C9.36638 8.35695 10.8985 9.83057 12.7744 9.83057L12.9541 9.82568C14.6034 9.74216 15.9514 8.51842 16.2275 6.92725H20.0508V18.5562C20.0509 18.7969 20.2466 18.9917 20.4873 18.9917C20.728 18.9916 20.9237 18.7968 20.9238 18.5562V6.49072C20.9238 6.24998 20.728 6.05432 20.4873 6.0542H16.2686C16.1308 4.24406 14.6198 2.81816 12.7744 2.81787ZM12.7744 3.68994C14.2288 3.69025 15.408 4.8693 15.4082 6.32373C15.4081 7.77827 14.2289 8.95819 12.7744 8.9585C11.3197 8.9585 10.1397 7.77845 10.1396 6.32373C10.1398 4.86911 11.3198 3.68994 12.7744 3.68994ZM12.7744 4.396C11.7096 4.396 10.8467 5.25895 10.8467 6.32373C10.8468 7.38839 11.7097 8.25146 12.7744 8.25146C13.839 8.25135 14.702 7.38831 14.7021 6.32373C14.7021 5.25902 13.8391 4.39612 12.7744 4.396Z" fill="#2837FF"/>
<path d="M33.4111 3.50684C33.4111 1.57053 31.8415 0.000183087 29.9053 -4.1807e-08L29.7246 0.00488277C27.872 0.0987396 26.3984 1.6309 26.3984 3.50684L26.4033 3.68652C26.4868 5.33557 27.7101 6.68242 29.3008 6.95898L29.3008 19.2139C29.3008 19.4547 29.4965 19.6504 29.7373 19.6504C29.9781 19.6504 30.1738 19.4547 30.1738 19.2139L30.1738 7.00098C31.9844 6.8636 33.4109 5.35256 33.4111 3.50684ZM32.5391 3.50684C32.5388 4.96131 31.3598 6.14044 29.9053 6.14062C28.4506 6.14062 27.2707 4.96142 27.2705 3.50684C27.2705 2.05206 28.4505 0.87207 29.9053 0.87207C31.3599 0.872253 32.5391 2.05217 32.5391 3.50684ZM31.834 3.50684C31.8338 2.44225 30.9708 1.57922 29.9063 1.5791C28.8416 1.5791 27.9787 2.44218 27.9785 3.50684C27.9785 4.57162 28.8415 5.43457 29.9063 5.43457C30.9709 5.43445 31.834 4.57154 31.834 3.50684Z" fill="#2837FF"/>
<path d="M4.95508 26.7378C3.01883 26.7378 1.44853 28.3075 1.44824 30.2437L1.45313 30.4243C1.54698 32.2769 3.07914 33.7505 4.95508 33.7505L5.13477 33.7456C6.78429 33.6622 8.13214 32.4385 8.4082 30.8472L15.5752 30.8472C15.8159 30.8471 16.0116 30.6514 16.0117 30.4106C16.0117 30.1698 15.816 29.9742 15.5752 29.9741L8.44922 29.9741C8.31129 28.1641 6.80044 26.738 4.95508 26.7378ZM4.95508 27.6099C6.40952 27.61 7.58858 28.7892 7.58887 30.2437C7.58887 31.6983 6.4097 32.8782 4.95508 32.8784C3.5003 32.8784 2.32031 31.6984 2.32031 30.2437C2.3206 28.7891 3.50048 27.6099 4.95508 27.6099ZM4.95605 28.3159C3.89135 28.3159 3.02844 29.179 3.02832 30.2437C3.02832 31.3084 3.89127 32.1714 4.95605 32.1714C6.02073 32.1713 6.88379 31.3084 6.88379 30.2437C6.88367 29.179 6.02066 28.316 4.95605 28.3159Z" fill="#2837FF"/>
<path d="M33.4111 56.9829C33.4111 58.9192 31.8415 60.4896 29.9053 60.4897L29.7246 60.4849C27.872 60.391 26.3985 58.8588 26.3984 56.9829L26.4033 56.8032C26.4867 55.1541 27.71 53.8063 29.3008 53.5298L29.3008 40.5483C29.3008 40.3075 29.4965 40.1118 29.7373 40.1118C29.9781 40.1118 30.1738 40.3075 30.1738 40.5483L30.1738 53.4888C31.9844 53.6261 33.411 55.1372 33.4111 56.9829ZM32.5391 56.9829C32.5389 55.5284 31.3598 54.3493 29.9053 54.3491C28.4506 54.3491 27.2707 55.5283 27.2705 56.9829C27.2705 58.4377 28.4505 59.6177 29.9053 59.6177C31.3599 59.6175 32.539 58.4376 32.5391 56.9829ZM31.834 56.9829C31.8338 58.0475 30.9708 58.9105 29.9063 58.9106C28.8416 58.9106 27.9787 58.0476 27.9785 56.9829C27.9785 55.9181 28.8415 55.0552 29.9063 55.0552C30.9709 55.0553 31.834 55.9182 31.834 56.9829Z" fill="#2837FF"/>
<path d="M54.8535 26.7378C56.7898 26.7378 58.3602 28.3074 58.3604 30.2437L58.3555 30.4243C58.2616 32.2769 56.7295 33.7505 54.8535 33.7505L54.6738 33.7456C53.0244 33.6622 51.6765 32.4385 51.4004 30.8472L44.2324 30.8472C43.9916 30.8472 43.7959 30.6515 43.7959 30.4106C43.7959 30.1698 43.9916 29.9741 44.2324 29.9741L51.3594 29.9741C51.4972 28.164 53.0081 26.738 54.8535 26.7378ZM54.8535 27.6099C53.399 27.61 52.2199 28.7891 52.2197 30.2437C52.2197 31.6983 53.3989 32.8782 54.8535 32.8784C56.3083 32.8784 57.4883 31.6984 57.4883 30.2437C57.4881 28.789 56.3082 27.6099 54.8535 27.6099ZM54.8535 28.3159C55.9182 28.3159 56.7811 29.179 56.7813 30.2437C56.7813 31.3084 55.9183 32.1714 54.8535 32.1714C53.7888 32.1713 52.9258 31.3084 52.9258 30.2437C52.9259 29.179 53.7889 28.316 54.8535 28.3159Z" fill="#2837FF"/>
<path d="M12.7744 56.7881C10.8381 56.7881 9.2678 55.2185 9.26758 53.2822L9.27246 53.1016C9.36632 51.2489 10.8985 49.7754 12.7744 49.7754L12.9541 49.7803C14.6035 49.8638 15.9515 51.0874 16.2275 52.6787H20.0508V41.0498C20.0509 40.8091 20.2465 40.6143 20.4873 40.6143C20.728 40.6144 20.9237 40.8091 20.9238 41.0498V53.1152C20.9237 53.3559 20.728 53.5516 20.4873 53.5518H16.2686C16.1307 55.3618 14.6197 56.7878 12.7744 56.7881ZM12.7744 55.916C14.2288 55.9157 15.408 54.7366 15.4082 53.2822C15.4082 51.8276 14.2289 50.6478 12.7744 50.6475C11.3196 50.6475 10.1396 51.8275 10.1396 53.2822C10.1399 54.7368 11.3198 55.916 12.7744 55.916ZM12.8027 55.249C11.7381 55.249 10.8752 54.3859 10.875 53.3213C10.875 52.2565 11.738 51.3926 12.8027 51.3926C13.8674 51.3927 14.7305 52.2566 14.7305 53.3213C14.7302 54.3858 13.8673 55.2489 12.8027 55.249Z" fill="#2837FF"/>
<path d="M58.5518 13.3086C58.5518 11.3723 56.9822 9.80194 55.0459 9.80176L54.8652 9.80664C53.0126 9.9005 51.5391 11.4327 51.5391 13.3086L51.5439 13.4883C51.6273 15.137 52.8502 16.4838 54.4404 16.7607L54.4404 20.585L44.958 20.585C44.7173 20.5851 44.5225 20.7807 44.5225 21.0215C44.5225 21.2622 44.7173 21.4579 44.958 21.458L54.877 21.458C55.1178 21.458 55.3135 21.2623 55.3135 21.0215L55.3135 16.8027C57.1246 16.6658 58.5516 15.1547 58.5518 13.3086ZM57.6797 13.3086C57.6795 14.7631 56.5004 15.9422 55.0459 15.9424C53.5912 15.9424 52.4113 14.7632 52.4111 13.3086C52.4111 11.8538 53.5911 10.6738 55.0459 10.6738C56.5005 10.674 57.6797 11.8539 57.6797 13.3086ZM56.9648 13.2959C56.9648 12.2312 56.1018 11.3683 55.0371 11.3682C53.9723 11.3682 53.1094 12.2311 53.1094 13.2959C53.1094 14.3607 53.9723 15.2236 55.0371 15.2236C56.1018 15.2235 56.9648 14.3606 56.9648 13.2959Z" fill="#2837FF"/>
<path d="M1.44824 13.3086C1.44824 11.3723 3.01784 9.80194 4.9541 9.80176L5.13477 9.80664C6.98738 9.9005 8.46094 11.4327 8.46094 13.3086L8.45605 13.4883C8.37265 15.1374 7.14933 16.4842 5.55859 16.7607L5.55859 20.585L15.041 20.585C15.2818 20.585 15.4766 20.7807 15.4766 21.0215C15.4766 21.2623 15.2818 21.458 15.041 21.458L5.12207 21.458C4.88125 21.458 4.68555 21.2623 4.68555 21.0215L4.68555 16.8027C2.87493 16.6654 1.44842 15.1543 1.44824 13.3086ZM2.32031 13.3086C2.3205 14.7631 3.49959 15.9422 4.9541 15.9424C6.40876 15.9424 7.58868 14.7632 7.58887 13.3086C7.58887 11.8538 6.40888 10.6738 4.9541 10.6738C3.49948 10.674 2.32031 11.8539 2.32031 13.3086ZM3.03516 13.2959C3.03516 12.2312 3.89825 11.3683 4.96289 11.3682C6.02767 11.3682 6.8916 12.2311 6.8916 13.2959C6.8916 14.3607 6.02767 15.2236 4.96289 15.2236C3.89825 15.2235 3.03516 14.3606 3.03516 13.2959Z" fill="#2837FF"/>
<path d="M58.5518 47.3354C58.5518 49.2718 56.9822 50.8421 55.0459 50.8423L54.8652 50.8374C53.0126 50.7435 51.5391 49.2114 51.5391 47.3354L51.5439 47.1558C51.6273 45.507 52.8502 44.1602 54.4404 43.8833L54.4404 40.0591L44.958 40.0591C44.7173 40.059 44.5225 39.8633 44.5225 39.6226C44.5226 39.3819 44.7173 39.1861 44.958 39.186L54.877 39.186C55.1177 39.186 55.3134 39.3818 55.3135 39.6226L55.3135 43.8413C57.1246 43.9782 58.5516 45.4894 58.5518 47.3354ZM57.6797 47.3354C57.6795 45.8809 56.5004 44.7018 55.0459 44.7017C53.5912 44.7017 52.4113 45.8808 52.4111 47.3354C52.4111 48.7902 53.5911 49.9702 55.0459 49.9702C56.5005 49.97 57.6797 48.7901 57.6797 47.3354ZM57.001 47.3608C57.001 48.4255 56.1379 49.2884 55.0732 49.2886C54.0085 49.2886 53.1445 48.4256 53.1445 47.3608C53.1446 46.2961 54.0085 45.4331 55.0732 45.4331C56.1379 45.4333 57.0009 46.2962 57.001 47.3608Z" fill="#2837FF"/>
<path d="M1.44824 47.3354C1.44824 49.2718 3.01784 50.8421 4.9541 50.8423L5.13477 50.8374C6.98738 50.7435 8.46094 49.2114 8.46094 47.3354L8.45605 47.1558C8.37265 45.5067 7.14933 44.1599 5.55859 43.8833L5.55859 40.0591L15.041 40.0591C15.2818 40.0591 15.4766 39.8634 15.4766 39.6226C15.4765 39.3818 15.2818 39.186 15.041 39.186L5.12207 39.186C4.88131 39.186 4.68565 39.3818 4.68555 39.6226L4.68555 43.8413C2.87493 43.9787 1.44842 45.4897 1.44824 47.3354ZM2.32031 47.3354C2.3205 45.8809 3.49959 44.7018 4.9541 44.7017C6.40876 44.7017 7.58868 45.8808 7.58887 47.3354C7.58887 48.7902 6.40888 49.9702 4.9541 49.9702C3.49948 49.97 2.32031 48.7901 2.32031 47.3354ZM2.99902 47.3608C2.99902 48.4255 3.86215 49.2884 4.92676 49.2886C5.99154 49.2886 6.85547 48.4256 6.85547 47.3608C6.85541 46.2961 5.9915 45.4331 4.92676 45.4331C3.86218 45.4333 2.99908 46.2962 2.99902 47.3608Z" fill="#2837FF"/>
<rect x="19.298" y="22.4909" width="21.4049" height="15.5068" rx="0.90843" stroke="#1727FF" stroke-width="1.09012"/>
<rect x="21.3507" y="24.3771" width="17.298" height="11.7341" rx="0.90843" stroke="#1727FF" stroke-width="1.09012"/>
</svg>
