<svg width="83" height="83" viewBox="0 0 83 83" fill="none" xmlns="http://www.w3.org/2000/svg">
<path d="M40.5742 19.1748C47.1211 19.175 52.4287 24.4824 52.4287 31.0293V31.7793H28.7197V31.0293C28.7197 24.4822 34.0272 19.1748 40.5742 19.1748Z" stroke="#2837FF" stroke-width="1.8"/>
<circle cx="40.574" cy="10.405" r="5.87124" stroke="#2837FF" stroke-width="1.8"/>
<path d="M50.9312 25.2021H66.0762C66.1921 25.2021 66.286 25.1082 66.286 24.9923V23.7711C66.286 18.6538 62.1376 14.5054 57.0203 14.5054H56.1064C51.9546 14.5054 48.3384 17.3378 47.3438 21.3687" stroke="#2837FF" stroke-width="1.8"/>
<circle cx="56.8143" cy="8.66193" r="4.12814" stroke="#2837FF" stroke-width="1.8"/>
<path d="M29.6548 25.2021H14.5097C14.3939 25.2021 14.2999 25.1082 14.2999 24.9923V23.7711C14.2999 18.6538 18.4483 14.5054 23.5657 14.5054H24.4795C28.6313 14.5054 32.2476 17.3378 33.2422 21.3687" stroke="#2837FF" stroke-width="1.8"/>
<circle cx="5.02814" cy="5.02814" r="4.12814" transform="matrix(-1 0 0 1 28.7998 3.63379)" stroke="#2837FF" stroke-width="1.8"/>
<path d="M37.0929 76.3351L44.4676 71.8792V62.8144L71.3555 44.838V36.3877H10.2051V44.838L37.0929 62.8144V76.3351Z" stroke="#2837FF" stroke-width="1.8" stroke-linecap="round" stroke-linejoin="round"/>
<path d="M28.7633 41.4759C28.766 40.9789 28.3652 40.574 27.8682 40.5717C27.3711 40.5693 26.966 40.9704 26.9633 41.4674L27.8633 41.4717L28.7633 41.4759ZM27.1797 50.1184C27.5293 50.4715 28.0991 50.4742 28.4525 50.1244L34.2112 44.424C34.5646 44.0742 34.5677 43.5043 34.2182 43.1512C33.8686 42.7981 33.2988 42.7954 32.9454 43.1452L27.8265 48.2122L22.7632 43.0971C22.4136 42.744 21.8438 42.7413 21.4904 43.0911C21.137 43.4409 21.1339 44.0107 21.4835 44.3639L27.1797 50.1184ZM27.8633 41.4717L26.9633 41.4674L26.9196 49.4808L27.8196 49.485L28.7196 49.4893L28.7633 41.4759L27.8633 41.4717Z" fill="#2837FF"/>
<path d="M54.2711 41.4759C54.2738 40.9789 53.8731 40.574 53.376 40.5717C52.8789 40.5693 52.4738 40.9704 52.4711 41.4674L53.3711 41.4717L54.2711 41.4759ZM52.6876 50.1184C53.0371 50.4715 53.6069 50.4742 53.9603 50.1244L59.7191 44.424C60.0724 44.0742 60.0755 43.5043 59.726 43.1512C59.3764 42.7981 58.8066 42.7954 58.4532 43.1452L53.3343 48.2122L48.271 43.0971C47.9214 42.744 47.3516 42.7413 46.9982 43.0911C46.6448 43.4409 46.6417 44.0107 46.9913 44.3639L52.6876 50.1184ZM53.3711 41.4717L52.4711 41.4674L52.4274 49.4808L53.3274 49.485L54.2274 49.4893L54.2711 41.4759L53.3711 41.4717Z" fill="#2837FF"/>
<path d="M41.7242 41.4741C41.7258 40.9771 41.3241 40.573 40.8271 40.5717C40.33 40.5703 39.9258 40.9722 39.9242 41.4692L40.8242 41.4717L41.7242 41.4741ZM40.1426 55.8071C40.493 56.1595 41.0628 56.1611 41.4154 55.8106L47.161 50.0987C47.5136 49.7482 47.5154 49.1784 47.165 48.8259C46.8147 48.4735 46.2448 48.4719 45.8922 48.8224L40.785 53.8997L35.7099 48.7946C35.3596 48.4422 34.7897 48.4406 34.4371 48.7911C34.0846 49.1416 34.0828 49.7115 34.4331 50.0639L40.1426 55.8071ZM40.8242 41.4717L39.9242 41.4692L39.881 55.17L40.781 55.1725L41.681 55.1749L41.7242 41.4741L40.8242 41.4717Z" fill="#2837FF"/>
</svg>
