<svg width="60" height="60" viewBox="0 0 60 60" fill="none" xmlns="http://www.w3.org/2000/svg">
<path fill-rule="evenodd" clip-rule="evenodd" d="M18.1684 54.3825C8.37644 50.0466 1.53809 40.2406 1.53809 28.8501C1.53809 23.1135 3.27267 17.7791 6.24526 13.3425C6.06714 12.7915 5.97091 12.2039 5.97091 11.5939C5.97091 8.45529 8.51903 5.90717 11.6575 5.90717C12.2073 5.90717 12.7389 5.98541 13.2419 6.13117C17.8117 2.86458 23.4063 0.941406 29.4467 0.941406C39.6131 0.941406 48.176 6.05223 52.8918 14.0101C55.9883 14.142 58.4618 16.6976 58.4618 19.8265C58.4618 23.0396 55.8533 25.6482 52.6401 25.6482C49.427 25.6482 46.8183 23.0396 46.8183 19.8265C46.8183 18.4959 47.2657 17.2689 48.0181 16.288C44.1767 10.1346 37.4609 6.28188 29.4467 6.28188C24.893 6.28188 20.6524 7.63341 17.1048 9.95717C17.2606 10.4755 17.3442 11.0251 17.3442 11.5939C17.3442 14.7325 14.7961 17.2806 11.6575 17.2806C11.1489 17.2806 10.6556 17.2136 10.1863 17.0881C8.0882 20.5141 6.87856 24.5419 6.87856 28.8501C6.87856 37.8967 12.2131 45.7071 19.9053 49.305C20.9063 48.3836 22.2423 47.8207 23.7087 47.8207C26.0955 47.8207 28.1367 49.3121 28.9506 51.4129C29.1155 51.4165 29.2809 51.4182 29.4467 51.4182C39.1873 51.4182 47.1861 45.914 50.311 37.31H48.6802C48.386 37.31 48.1141 37.1529 47.9669 36.8982C47.8199 36.6434 47.8199 36.3294 47.9669 36.0747L52.3384 28.5032C52.4855 28.2483 52.7574 28.0914 53.0516 28.0914C53.3458 28.0914 53.6176 28.2483 53.7648 28.5032L58.1362 36.0747C58.2833 36.3294 58.2833 36.6434 58.1362 36.8982C57.9891 37.1529 57.7173 37.31 57.423 37.31H55.9234C52.5873 48.9547 42.1874 56.7587 29.4467 56.7587C29.0493 56.7587 28.6537 56.7505 28.2603 56.7339C27.2389 58.1423 25.58 59.0591 23.7087 59.0591C20.9286 59.0591 18.6173 57.0356 18.1684 54.3825ZM7.12126 15.0221C4.6262 19.0391 3.18514 23.7776 3.18514 28.8501C3.18514 39.3041 9.30667 48.3394 18.1575 52.5646C18.2668 51.8671 18.5046 51.2119 18.8458 50.6242C10.7877 46.6903 5.2315 38.414 5.2315 28.8501C5.2315 24.31 6.48373 20.0601 8.66114 16.4269C8.06562 16.0567 7.54326 15.5794 7.12126 15.0221ZM14.9473 6.95599C15.5175 7.36141 16.01 7.86929 16.3976 8.45282C20.1646 6.03658 24.6433 4.63482 29.4467 4.63482C37.936 4.63482 45.0621 8.66917 49.2234 15.1135C49.7784 14.7102 50.4074 14.4026 51.0858 14.2148C46.5834 7.10576 38.7222 2.58846 29.4467 2.58846C24.0887 2.58846 19.1033 4.19647 14.9473 6.95599ZM29.3155 53.0649C29.3237 53.1889 29.3279 53.3139 29.3279 53.4399C29.3279 54.021 29.2395 54.5816 29.0754 55.1092C29.1989 55.1108 29.3227 55.1116 29.4467 55.1116C41.6282 55.1116 51.5467 47.5386 54.4988 36.2776C54.5937 35.9154 54.921 35.6629 55.2954 35.6629H55.9966L53.0516 30.562L50.1066 35.6629H51.4553C51.7166 35.6629 51.9624 35.7869 52.1177 35.9972C52.2729 36.2073 52.3193 36.4788 52.2424 36.7286C49.196 46.6322 40.344 53.0653 29.4467 53.0653C29.4029 53.0653 29.3593 53.0652 29.3155 53.0649ZM52.6401 15.6518C50.336 15.6518 48.4654 17.5223 48.4654 19.8265C48.4654 22.1306 50.336 24.0012 52.6401 24.0012C54.9442 24.0012 56.8148 22.1306 56.8148 19.8265C56.8148 17.5223 54.9442 15.6518 52.6401 15.6518ZM51.8166 20.65H50.4787C50.0242 20.65 49.6551 20.2811 49.6551 19.8265C49.6551 19.372 50.0242 19.0029 50.4787 19.0029H51.8166V17.6651C51.8166 17.2106 52.1856 16.8415 52.6401 16.8415C53.0947 16.8415 53.4636 17.2106 53.4636 17.6651V19.0029H54.8015C55.2561 19.0029 55.625 19.372 55.625 19.8265C55.625 20.2811 55.2561 20.65 54.8015 20.65H53.4636V21.9879C53.4636 22.4425 53.0947 22.8114 52.6401 22.8114C52.1856 22.8114 51.8166 22.4425 51.8166 21.9879V20.65ZM11.6575 7.55423C9.42797 7.55423 7.61797 9.36435 7.61797 11.5939C7.61797 13.8234 9.42797 15.6335 11.6575 15.6335C13.8871 15.6335 15.6971 13.8234 15.6971 11.5939C15.6971 9.36435 13.8871 7.55423 11.6575 7.55423ZM10.834 12.4174H9.56373C9.10915 12.4174 8.7402 12.0485 8.7402 11.5939C8.7402 11.1394 9.10915 10.7703 9.56373 10.7703H10.834V9.49999C10.834 9.04552 11.203 8.67646 11.6575 8.67646C12.1121 8.67646 12.481 9.04552 12.481 9.49999V10.7703H13.7514C14.206 10.7703 14.5749 11.1394 14.5749 11.5939C14.5749 12.0485 14.206 12.4174 13.7514 12.4174H12.481V13.6878C12.481 14.1423 12.1121 14.5113 11.6575 14.5113C11.203 14.5113 10.834 14.1423 10.834 13.6878V12.4174ZM23.7087 49.4678C21.5164 49.4678 19.7367 51.2476 19.7367 53.4399C19.7367 55.6321 21.5164 57.412 23.7087 57.412C25.901 57.412 27.6808 55.6321 27.6808 53.4399C27.6808 51.2476 25.901 49.4678 23.7087 49.4678ZM22.8851 54.2634H21.6149C21.1603 54.2634 20.7914 53.8945 20.7914 53.4399C20.7914 52.9854 21.1603 52.6163 21.6149 52.6163H22.8851V51.346C22.8851 50.8915 23.2542 50.5225 23.7087 50.5225C24.1633 50.5225 24.5322 50.8915 24.5322 51.346V52.6163H25.8026C26.2571 52.6163 26.6261 52.9854 26.6261 53.4399C26.6261 53.8945 26.2571 54.2634 25.8026 54.2634H24.5322V55.5338C24.5322 55.9882 24.1633 56.3573 23.7087 56.3573C23.2542 56.3573 22.8851 55.9882 22.8851 55.5338V54.2634ZM28.932 36.6341L24.8239 42.1308C24.626 42.3956 24.2889 42.5165 23.9679 42.4376C23.6468 42.3588 23.404 42.0956 23.3513 41.7693L22.521 36.6341H19.4643C17.9181 36.6341 16.6557 35.3719 16.6557 33.8256V22.1439C16.6557 20.5976 17.9181 19.3353 19.4643 19.3353H40.6698C42.2161 19.3353 43.4784 20.5976 43.4784 22.1439V33.8256C43.4784 35.3719 42.2161 36.6341 40.6698 36.6341H28.932ZM28.5194 34.9871H40.6698C41.3093 34.9871 41.8314 34.465 41.8314 33.8256V22.1439C41.8314 21.5043 41.3093 20.9823 40.6698 20.9823H19.4643C18.8248 20.9823 18.3028 21.5043 18.3028 22.1439V33.8256C18.3028 34.465 18.8248 34.9871 19.4643 34.9871H23.2222C23.6262 34.9871 23.9707 35.2803 24.0351 35.6792L24.6673 39.5892L27.8597 35.3176C28.0151 35.1096 28.2596 34.9871 28.5194 34.9871ZM23.164 26.3801C22.7095 26.3801 22.3404 26.0111 22.3404 25.5566C22.3404 25.102 22.7095 24.7331 23.164 24.7331H36.9702C37.4247 24.7331 37.7937 25.102 37.7937 25.5566C37.7937 26.0111 37.4247 26.3801 36.9702 26.3801H23.164ZM23.164 31.7219C22.7095 31.7219 22.3404 31.3528 22.3404 30.8983C22.3404 30.4438 22.7095 30.0748 23.164 30.0748H36.9702C37.4247 30.0748 37.7937 30.4438 37.7937 30.8983C37.7937 31.3528 37.4247 31.7219 36.9702 31.7219H23.164Z" fill="#1727FF"/>
</svg>
