<svg width="70" height="70" viewBox="0 0 70 70" fill="none" xmlns="http://www.w3.org/2000/svg">
<path d="M62.3438 48.125H60.1563V39.375C60.1563 38.7948 59.9258 38.2384 59.5156 37.8282C59.1053 37.418 58.5489 37.1875 57.9688 37.1875H55.7813C55.2011 37.1875 54.6447 37.418 54.2345 37.8282C53.8242 38.2384 53.5938 38.7948 53.5938 39.375V48.125H52.5V32.8125C52.5 32.2323 52.2696 31.6759 51.8593 31.2657C51.4491 30.8555 50.8927 30.625 50.3125 30.625H48.125C47.5449 30.625 46.9885 30.8555 46.5782 31.2657C46.168 31.6759 45.9375 32.2323 45.9375 32.8125V48.125H44.8438V36.0938C44.8438 35.5136 44.6133 34.9572 44.2031 34.547C43.7928 34.1367 43.2364 33.9062 42.6563 33.9062H40.4688C39.8886 33.9062 39.3322 34.1367 38.922 34.547C38.5117 34.9572 38.2813 35.5136 38.2813 36.0938V48.125C37.9913 48.1247 37.7132 48.0094 37.5082 47.8043C37.3031 47.5993 37.1878 47.3212 37.1875 47.0312V29.5312C37.1875 29.2412 37.0723 28.963 36.8672 28.7579C36.662 28.5527 36.3839 28.4375 36.0938 28.4375C35.8037 28.4375 35.5255 28.5527 35.3204 28.7579C35.1153 28.963 35 29.2412 35 29.5312V47.0312C35.001 47.9012 35.347 48.7352 35.9621 49.3504C36.5773 49.9655 37.4113 50.3116 38.2813 50.3125H62.3438C62.6339 50.3125 62.912 50.1973 63.1172 49.9921C63.3223 49.787 63.4375 49.5088 63.4375 49.2188C63.4375 48.9287 63.3223 48.6505 63.1172 48.4454C62.912 48.2402 62.6339 48.125 62.3438 48.125ZM40.4688 48.125L40.4672 36.0938H42.6563V48.125H40.4688ZM48.125 48.125L48.1234 32.8125H50.3125V48.125H48.125ZM55.7813 48.125L55.7797 39.375H57.9688V48.125H55.7813ZM50.3125 15.3125C50.3125 15.1689 50.3407 15.0266 50.3957 14.8939C50.4506 14.7612 50.5312 14.6406 50.6328 14.539C50.7344 14.4374 50.8549 14.3569 50.9877 14.3019C51.1204 14.247 51.2626 14.2187 51.4063 14.2188H61.25C61.5401 14.2188 61.8183 14.334 62.0234 14.5391C62.2285 14.7442 62.3438 15.0224 62.3438 15.3125C62.3438 15.6026 62.2285 15.8808 62.0234 16.0859C61.8183 16.291 61.5401 16.4062 61.25 16.4062H51.4063C51.2626 16.4063 51.1204 16.378 50.9877 16.3231C50.8549 16.2681 50.7344 16.1876 50.6328 16.086C50.5312 15.9844 50.4506 15.8638 50.3957 15.7311C50.3407 15.5984 50.3125 15.4561 50.3125 15.3125ZM47.0313 15.3125C47.0313 15.0962 47.0954 14.8847 47.2156 14.7048C47.3358 14.525 47.5066 14.3848 47.7065 14.302C47.9063 14.2192 48.1262 14.1976 48.3384 14.2398C48.5506 14.282 48.7455 14.3861 48.8984 14.5391C49.0514 14.6921 49.1555 14.887 49.1978 15.0991C49.24 15.3113 49.2183 15.5312 49.1355 15.7311C49.0527 15.9309 48.9125 16.1017 48.7327 16.2219C48.5528 16.3421 48.3413 16.4062 48.125 16.4062C47.8349 16.4062 47.5567 16.291 47.3516 16.0859C47.1465 15.8808 47.0313 15.6026 47.0313 15.3125ZM50.3125 19.6875C50.3125 19.5439 50.3407 19.4016 50.3957 19.2689C50.4506 19.1362 50.5312 19.0156 50.6328 18.914C50.7344 18.8124 50.8549 18.7319 50.9877 18.6769C51.1204 18.622 51.2626 18.5937 51.4063 18.5938H61.25C61.5401 18.5938 61.8183 18.709 62.0234 18.9141C62.2285 19.1192 62.3438 19.3974 62.3438 19.6875C62.3438 19.9776 62.2285 20.2558 62.0234 20.4609C61.8183 20.666 61.5401 20.7812 61.25 20.7812H51.4063C51.2626 20.7813 51.1204 20.753 50.9877 20.6981C50.8549 20.6431 50.7344 20.5626 50.6328 20.461C50.5312 20.3594 50.4506 20.2388 50.3957 20.1061C50.3407 19.9734 50.3125 19.8311 50.3125 19.6875ZM50.3125 24.0625C50.3125 23.9189 50.3407 23.7766 50.3957 23.6439C50.4506 23.5112 50.5312 23.3906 50.6328 23.289C50.7344 23.1874 50.8549 23.1069 50.9877 23.0519C51.1204 22.997 51.2626 22.9687 51.4063 22.9688H61.25C61.5401 22.9688 61.8183 23.084 62.0234 23.2891C62.2285 23.4942 62.3438 23.7724 62.3438 24.0625C62.3438 24.3526 62.2285 24.6308 62.0234 24.8359C61.8183 25.041 61.5401 25.1562 61.25 25.1562H51.4063C51.2626 25.1563 51.1204 25.128 50.9877 25.0731C50.8549 25.0181 50.7344 24.9376 50.6328 24.836C50.5312 24.7344 50.4506 24.6138 50.3957 24.4811C50.3407 24.3484 50.3125 24.2061 50.3125 24.0625ZM47.0313 19.6875C47.0313 19.4712 47.0954 19.2597 47.2156 19.0798C47.3358 18.9 47.5066 18.7598 47.7065 18.677C47.9063 18.5942 48.1262 18.5726 48.3384 18.6148C48.5506 18.657 48.7455 18.7611 48.8984 18.9141C49.0514 19.0671 49.1555 19.262 49.1978 19.4741C49.24 19.6863 49.2183 19.9062 49.1355 20.1061C49.0527 20.3059 48.9125 20.4767 48.7327 20.5969C48.5528 20.7171 48.3413 20.7812 48.125 20.7812C47.8349 20.7812 47.5567 20.666 47.3516 20.4609C47.1465 20.2558 47.0313 19.9776 47.0313 19.6875ZM47.0313 24.0625C47.0313 23.8462 47.0954 23.6347 47.2156 23.4548C47.3358 23.275 47.5066 23.1348 47.7065 23.052C47.9063 22.9692 48.1262 22.9476 48.3384 22.9898C48.5506 23.032 48.7455 23.1361 48.8984 23.2891C49.0514 23.4421 49.1555 23.637 49.1978 23.8491C49.24 24.0613 49.2183 24.2812 49.1355 24.4811C49.0527 24.6809 48.9125 24.8517 48.7327 24.9719C48.5528 25.0921 48.3413 25.1562 48.125 25.1562C47.8349 25.1562 47.5567 25.041 47.3516 24.8359C47.1465 24.6308 47.0313 24.3526 47.0313 24.0625ZM64.5313 7.65625H9.84377C8.97382 7.6572 8.13977 8.00321 7.52462 8.61835C6.90948 9.2335 6.56347 10.0675 6.56252 10.9375V25.2115C5.65256 25.339 4.81932 25.791 4.21634 26.4843C3.61336 27.1776 3.28128 28.0655 3.28128 28.9844C3.28128 29.9032 3.61336 30.7911 4.21634 31.4844C4.81932 32.1777 5.65256 32.6298 6.56252 32.7572V37.8885C5.07569 39.3158 3.91723 41.0496 3.16753 42.9695C2.41783 44.8893 2.09483 46.9493 2.22097 49.0065C2.3471 51.0637 2.91933 53.0688 3.89796 54.8827C4.87659 56.6966 6.23817 58.2758 7.88824 59.5108C9.5383 60.7458 11.4373 61.607 13.4535 62.0346C15.4697 62.4622 17.5548 62.446 19.5641 61.9871C21.5735 61.5282 23.4589 60.6376 25.0895 59.3771C26.7202 58.1166 28.0571 56.5164 29.0074 54.6875H64.5313C65.4012 54.6866 66.2353 54.3405 66.8504 53.7254C67.4656 53.1102 67.8116 52.2762 67.8125 51.4062V10.9375C67.8116 10.0675 67.4656 9.2335 66.8504 8.61835C66.2353 8.00321 65.4012 7.6572 64.5313 7.65625ZM5.46877 28.9844C5.46877 28.6599 5.56499 28.3427 5.74526 28.0729C5.92554 27.8031 6.18177 27.5928 6.48155 27.4686C6.78134 27.3445 7.11121 27.312 7.42946 27.3753C7.74771 27.4386 8.04005 27.5948 8.26949 27.8243C8.49894 28.0537 8.65519 28.3461 8.71849 28.6643C8.7818 28.9826 8.74931 29.3124 8.62513 29.6122C8.50096 29.912 8.29068 30.1682 8.02088 30.3485C7.75108 30.5288 7.43388 30.625 7.10939 30.625C6.67442 30.6245 6.2574 30.4515 5.94982 30.1439C5.64225 29.8364 5.46924 29.4193 5.46877 28.9844ZM15.3125 36.1492V47.4712L5.34006 52.8411C4.59573 51.0972 4.27444 49.202 4.40244 47.3102C4.53045 45.4185 5.1041 43.5838 6.07656 41.9561C7.04903 40.3284 8.39271 38.9538 9.99788 37.9446C11.603 36.9354 13.4242 36.3202 15.3125 36.1492ZM17.5 36.1492C20.2986 36.4083 22.9185 37.638 24.9059 39.6254C26.8933 41.6128 28.123 44.2326 28.3821 47.0312H17.5V36.1492ZM16.4063 60.1562C14.4202 60.1552 12.4654 59.6622 10.7163 58.7215C8.96721 57.7807 7.47832 56.4214 6.38261 54.765L16.6828 49.2188H28.3821C28.1066 52.2058 26.7263 54.9826 24.5113 57.0056C22.2963 59.0285 19.406 60.1521 16.4063 60.1562ZM65.625 51.4062C65.6247 51.6962 65.5094 51.9743 65.3043 52.1793C65.0993 52.3844 64.8213 52.4997 64.5313 52.5H29.9292C30.8366 49.7138 30.8597 46.7152 29.9954 43.9153C29.131 41.1155 27.4214 38.6518 25.1013 36.8621C22.7812 35.0723 19.9641 34.0443 17.0366 33.9191C14.1091 33.7939 11.2145 34.5776 8.75002 36.1627V32.4285C9.40269 32.1196 9.95453 31.6322 10.3417 31.0227C10.7288 30.4131 10.9354 29.7064 10.9375 28.9844C10.9343 28.4109 10.8007 27.8456 10.5468 27.3313L16.0814 22.4115C16.5938 22.7199 17.1714 22.9041 17.7678 22.9493C18.3641 22.9946 18.9629 22.8997 19.516 22.6723L24.3359 26.4778C24.1031 27.0615 24.0177 27.6936 24.0872 28.3181C24.1567 28.9427 24.379 29.5405 24.7344 30.0588C25.0898 30.577 25.5674 30.9998 26.125 31.2896C26.6826 31.5794 27.303 31.7274 27.9314 31.7206C28.5598 31.7137 29.1768 31.5521 29.7279 31.2502C30.279 30.9482 30.7473 30.5151 31.0913 29.9892C31.4352 29.4633 31.6444 28.8607 31.7002 28.2348C31.756 27.6089 31.6568 26.9788 31.4113 26.4003L37.7339 21.1773C38.4867 21.6996 39.4023 21.9335 40.3134 21.8364C41.2244 21.7393 42.0701 21.3176 42.6959 20.6483C43.3217 19.9791 43.6858 19.107 43.7216 18.1915C43.7575 17.276 43.4627 16.3781 42.8911 15.662C42.3195 14.9459 41.5094 14.4593 40.6087 14.2913C39.708 14.1233 38.7769 14.2849 37.9856 14.7468C37.1942 15.2086 36.5955 15.9398 36.2988 16.8066C36.0021 17.6735 36.0272 18.6182 36.3696 19.4681L30.0206 24.7128C29.3785 24.2849 28.6221 24.061 27.8506 24.0703C27.079 24.0796 26.3283 24.3218 25.6967 24.765L21.2427 21.2486C21.614 20.6908 21.8323 20.0453 21.8757 19.3766C21.9192 18.7079 21.7863 18.0396 21.4904 17.4384C21.1945 16.8372 20.7459 16.3242 20.1894 15.9508C19.633 15.5774 18.9883 15.3567 18.3198 15.3107C17.6513 15.2647 16.9824 15.395 16.3801 15.6887C15.7778 15.9823 15.2632 16.429 14.8877 16.984C14.5122 17.539 14.289 18.1828 14.2405 18.8512C14.1919 19.5195 14.3197 20.1889 14.6111 20.7923L9.07246 25.7155C8.96785 25.6523 8.86084 25.5933 8.75002 25.5402V10.9375C8.75031 10.6475 8.86563 10.3695 9.07069 10.1644C9.27575 9.95937 9.55378 9.84404 9.84377 9.84375H64.5313C64.8213 9.84404 65.0993 9.95937 65.3043 10.1644C65.5094 10.3695 65.6247 10.6475 65.625 10.9375V51.4062ZM19.207 20.3007C18.9776 20.5302 18.6852 20.6864 18.367 20.7497C18.0487 20.813 17.7189 20.7805 17.4191 20.6564C17.1193 20.5322 16.8631 20.3219 16.6828 20.0521C16.5025 19.7823 16.4063 19.4651 16.4063 19.1406C16.4063 18.8161 16.5025 18.4989 16.6828 18.2291C16.8631 17.9593 17.1193 17.7491 17.4191 17.6249C17.7189 17.5007 18.0487 17.4682 18.367 17.5315C18.6852 17.5948 18.9776 17.7511 19.207 17.9805C19.5142 18.2884 19.6868 18.7057 19.6868 19.1406C19.6868 19.5756 19.5142 19.9928 19.207 20.3007ZM29.0508 29.0507C28.8213 29.2802 28.529 29.4364 28.2107 29.4997C27.8925 29.563 27.5626 29.5305 27.2628 29.4064C26.963 29.2822 26.7068 29.0719 26.5265 28.8021C26.3463 28.5323 26.25 28.2151 26.25 27.8906C26.25 27.5661 26.3463 27.2489 26.5265 26.9791C26.7068 26.7093 26.963 26.4991 27.2628 26.3749C27.5626 26.2507 27.8925 26.2182 28.2107 26.2815C28.529 26.3448 28.8213 26.5011 29.0508 26.7305C29.358 27.0384 29.5305 27.4557 29.5305 27.8906C29.5305 28.3256 29.358 28.7428 29.0508 29.0507ZM38.7618 16.8868C38.9912 16.6573 39.2836 16.5011 39.6018 16.4378C39.9201 16.3745 40.2499 16.407 40.5497 16.5311C40.8495 16.6553 41.1057 16.8656 41.286 17.1354C41.4663 17.4052 41.5625 17.7224 41.5625 18.0469C41.5625 18.3714 41.4663 18.6886 41.286 18.9584C41.1057 19.2282 40.8495 19.4384 40.5497 19.5626C40.2499 19.6868 39.9201 19.7193 39.6018 19.656C39.2836 19.5927 38.9912 19.4364 38.7618 19.207C38.4545 18.8991 38.282 18.4819 38.282 18.0469C38.282 17.6119 38.4545 17.1947 38.7618 16.8868Z" fill="#1727FF"/>
</svg>
