<svg width="65" height="65" viewBox="0 0 65 65" fill="none" xmlns="http://www.w3.org/2000/svg">
<g clip-path="url(#clip0_7379_47841)">
<path d="M47.5976 28.1812L43.789 21.5844L42.9736 22.0553C40.0114 23.7655 36.3086 21.6277 36.3086 18.2072V17.2656H28.6914V18.2072C28.6914 21.6277 24.9886 23.7655 22.0264 22.0553L21.2109 21.5844L17.4023 28.1812L18.2178 28.6519C21.18 30.3621 21.18 34.6378 18.2178 36.3481L17.4023 36.8188L21.2109 43.4156L22.0264 42.9447C24.9886 41.2345 28.6914 43.3723 28.6914 46.7928V47.7344H36.3086V46.7928C36.3086 43.3723 40.0114 41.2345 42.9736 42.9447L43.789 43.4156L47.5976 36.8188L46.7822 36.3481C43.82 34.6379 43.82 30.3622 46.7822 28.6519L47.5976 28.1812Z" stroke="#1727FF" stroke-width="3" stroke-miterlimit="10" stroke-linecap="round" stroke-linejoin="round"/>
<path d="M32.5 36.9434C34.954 36.9434 36.9434 34.954 36.9434 32.5C36.9434 30.046 34.954 28.0566 32.5 28.0566C30.046 28.0566 28.0566 30.046 28.0566 32.5C28.0566 34.954 30.046 36.9434 32.5 36.9434Z" stroke="#1727FF" stroke-width="3" stroke-miterlimit="10" stroke-linecap="round" stroke-linejoin="round"/>
<path d="M36.3086 9.64844L32.5 13.457L28.6914 9.64844" stroke="#1727FF" stroke-width="3" stroke-miterlimit="10" stroke-linecap="round" stroke-linejoin="round"/>
<path d="M32.5 13.457V1.9043" stroke="#1727FF" stroke-width="3" stroke-miterlimit="10" stroke-linecap="round" stroke-linejoin="round"/>
<path d="M36.3086 59.2871L32.5 63.0957L28.6914 59.2871" stroke="#1727FF" stroke-width="3" stroke-miterlimit="10" stroke-linecap="round" stroke-linejoin="round"/>
<path d="M32.5 63.0957V47.7344" stroke="#1727FF" stroke-width="3" stroke-miterlimit="10" stroke-linecap="round" stroke-linejoin="round"/>
<path d="M63.0957 49.0039H56.6211L52.8125 43.9258" stroke="#1727FF" stroke-width="3" stroke-miterlimit="10" stroke-linecap="round" stroke-linejoin="round"/>
<path d="M63.0957 15.9961H56.6211L52.8125 21.0742" stroke="#1727FF" stroke-width="3" stroke-miterlimit="10" stroke-linecap="round" stroke-linejoin="round"/>
<path d="M52.8125 32.5H63.0957" stroke="#1727FF" stroke-width="3" stroke-miterlimit="10" stroke-linecap="round" stroke-linejoin="round"/>
<path d="M1.9043 49.0039H8.37891L12.1875 43.9258" stroke="#1727FF" stroke-width="3" stroke-miterlimit="10" stroke-linecap="round" stroke-linejoin="round"/>
<path d="M1.9043 15.9961H8.37891L12.1875 21.0742" stroke="#1727FF" stroke-width="3" stroke-miterlimit="10" stroke-linecap="round" stroke-linejoin="round"/>
<path d="M12.1875 32.5H1.9043" stroke="#1727FF" stroke-width="3" stroke-miterlimit="10" stroke-linecap="round" stroke-linejoin="round"/>
</g>
<defs>
<clipPath id="clip0_7379_47841">
<rect width="65" height="65" fill="white"/>
</clipPath>
</defs>
</svg>
