<svg width="65" height="65" viewBox="0 0 65 65" fill="none" xmlns="http://www.w3.org/2000/svg">
<path d="M12.1878 26.0679C10.1341 26.0679 8.46387 27.7381 8.46387 29.7918V36.5625C8.46387 37.866 10.4951 37.8846 10.4951 36.5627V34.87H13.8805V36.5626C13.8805 37.881 15.9118 37.8767 15.9118 36.5627V29.7918C15.9118 27.7381 14.2416 26.0679 12.1878 26.0679ZM10.4951 32.8387V29.7918C10.4951 28.8582 11.2542 28.0991 12.1878 28.0991C13.1215 28.0991 13.8805 28.8582 13.8805 29.7918V32.8387H10.4951Z" fill="#1727FF"/>
<path d="M25.3903 29.7918C25.3903 27.7381 23.7201 26.0679 21.6663 26.0679H18.958C18.3973 26.0679 17.9424 26.5228 17.9424 27.0835V36.5625C17.9424 37.8797 19.9736 37.8774 19.9736 36.5627V33.5158H21.6663C23.7201 33.5158 25.3903 31.8456 25.3903 29.7918ZM21.6663 31.4845H19.9736V28.0991H21.6663C22.6 28.0991 23.359 28.8582 23.359 29.7918C23.359 30.7255 22.6 31.4845 21.6663 31.4845Z" fill="#1727FF"/>
<path d="M28.4375 26.1006C27.9297 26.0966 27.4219 26.4202 27.4219 27.0832V36.5621C27.4219 37.867 29.4531 37.8789 29.4531 36.5623C29.4531 36.5623 29.4531 27.1447 29.4531 27.0835C29.4531 26.4362 28.9453 26.1046 28.4375 26.1006Z" fill="#1727FF"/>
<path d="M59.583 7.10938H5.41634C3.36261 7.10938 1.69238 8.7796 1.69238 10.8333V54.1667C1.69238 56.2204 3.36261 57.8906 5.41634 57.8906H59.583C61.6367 57.8906 63.307 56.2204 63.307 54.1667V10.8333C63.307 8.7796 61.6367 7.10938 59.583 7.10938ZM5.41634 9.14062H59.583C60.5166 9.14062 61.2757 9.8997 61.2757 10.8333V17.9427H3.72363V10.8333C3.72363 9.8997 4.48271 9.14062 5.41634 9.14062ZM59.583 55.8594H5.41634C4.48271 55.8594 3.72363 55.1003 3.72363 54.1667V19.974H61.2757V54.1667C61.2757 55.1003 60.5166 55.8594 59.583 55.8594Z" fill="#1727FF"/>
<path d="M54.9522 36.7372C56.0842 36.0833 56.473 34.6313 55.8197 33.4999C55.8197 33.4999 54.0816 30.4907 54.0781 30.4848C53.4398 29.388 51.9395 28.9831 50.8409 29.6172C49.9511 30.1308 48.799 29.4597 48.799 28.4377C48.799 27.1311 47.7357 26.0679 46.4292 26.0679H42.9459C41.6393 26.0679 40.5762 27.131 40.5761 28.4375C40.576 29.467 39.4248 30.1305 38.5344 29.6173C37.4168 28.9732 35.9393 29.3707 35.297 30.4848L33.5553 33.4999C32.9021 34.6312 33.2909 36.0831 34.4227 36.7371C35.3182 37.2545 35.3137 38.5815 34.4228 39.0964C33.2908 39.7504 32.902 41.2024 33.5553 42.3337C33.5553 42.3337 35.2947 45.345 35.297 45.3489C35.9402 46.4623 37.4218 46.8612 38.5342 46.2165C39.4275 45.6986 40.5761 46.3722 40.5761 47.396C40.5761 48.7025 41.6393 49.7658 42.9459 49.7658H46.4292C47.7357 49.7658 48.7989 48.7025 48.799 47.3961C48.799 46.3639 49.9463 45.7007 50.8408 46.2164C51.9577 46.8602 53.4384 46.4683 54.0781 45.3489L55.8197 42.3337C56.473 41.2024 56.0842 39.7505 54.9524 39.0965C54.0561 38.5786 54.0591 37.2535 54.9522 36.7372ZM53.9366 40.8553C54.0979 40.9492 54.1548 41.1561 54.0609 41.3181L52.3193 44.3333C52.2254 44.4933 52.0178 44.5508 51.8564 44.4576C49.6319 43.1724 46.7677 44.8438 46.7677 47.396C46.7677 47.5825 46.6156 47.7345 46.4292 47.7345H42.9459C42.7594 47.7345 42.6074 47.5825 42.6074 47.396C42.607 44.8367 39.742 43.1713 37.5187 44.4576C37.3547 44.5508 37.1497 44.4933 37.0558 44.3333L35.3142 41.3181C35.2203 41.1561 35.2771 40.9492 35.4385 40.8553C37.6533 39.5659 37.6607 36.2611 35.4385 34.9784C35.2771 34.8845 35.2203 34.6775 35.3142 34.5155L37.0558 31.5004C37.1497 31.3397 37.3547 31.2822 37.5187 31.3761C39.7453 32.6647 42.6074 30.9964 42.6074 28.4377C42.6074 28.2512 42.7594 28.0991 42.9459 28.0991H46.4292C46.6156 28.0991 46.7677 28.2512 46.7677 28.4376C46.7679 31.0013 49.6323 32.6617 51.8564 31.3761C52.0178 31.2822 52.2254 31.3397 52.3193 31.5004L54.0609 34.5155C54.1548 34.6775 54.0979 34.8844 53.9367 34.9783C51.7315 36.2623 51.7326 39.5831 53.9366 40.8553Z" fill="#1727FF"/>
<path d="M44.6875 32.8384C41.8879 32.8384 39.6094 35.1163 39.6094 37.9165C39.6094 40.7167 41.8879 42.9946 44.6875 42.9946C47.4871 42.9946 49.7656 40.7167 49.7656 37.9165C49.7656 35.1163 47.4871 32.8384 44.6875 32.8384ZM44.6875 40.9634C43.008 40.9634 41.6406 39.5966 41.6406 37.9165C41.6406 36.2364 43.008 34.8696 44.6875 34.8696C46.367 34.8696 47.7344 36.2364 47.7344 37.9165C47.7344 39.5966 46.367 40.9634 44.6875 40.9634Z" fill="#1727FF"/>
<path d="M43.3329 14.5571H56.8743C58.1733 14.5571 58.1995 12.5259 56.8746 12.5259C56.8746 12.5259 43.4343 12.5259 43.3335 12.5259C42.0382 12.5259 42.0132 14.5571 43.3329 14.5571Z" fill="#1727FF"/>
<path d="M8.125 14.5571C8.68591 14.5571 9.14062 14.1024 9.14062 13.5415C9.14062 12.9806 8.68591 12.5259 8.125 12.5259C7.56409 12.5259 7.10938 12.9806 7.10938 13.5415C7.10938 14.1024 7.56409 14.5571 8.125 14.5571Z" fill="#1727FF"/>
<path d="M12.1875 14.5571C12.7484 14.5571 13.2031 14.1024 13.2031 13.5415C13.2031 12.9806 12.7484 12.5259 12.1875 12.5259C11.6266 12.5259 11.1719 12.9806 11.1719 13.5415C11.1719 14.1024 11.6266 14.5571 12.1875 14.5571Z" fill="#1727FF"/>
<path d="M16.25 14.5571C16.8109 14.5571 17.2656 14.1024 17.2656 13.5415C17.2656 12.9806 16.8109 12.5259 16.25 12.5259C15.6891 12.5259 15.2344 12.9806 15.2344 13.5415C15.2344 14.1024 15.6891 14.5571 16.25 14.5571Z" fill="#1727FF"/>
<path d="M14.2601 48.0317L10.9156 44.6873C10.9156 44.6873 14.2429 41.36 14.2603 41.3426C15.1541 40.4481 13.7414 38.9891 12.8239 39.9067L8.76141 43.9692C8.36468 44.3659 8.36468 45.0086 8.76141 45.4054C8.76141 45.4054 12.8012 49.4451 12.8238 49.4678C13.7227 50.3666 15.2182 48.9898 14.2601 48.0317Z" fill="#1727FF"/>
<path d="M25.0934 39.9068C24.1934 39.0071 22.729 40.4147 23.6572 41.343L27.0016 44.6874C27.0016 44.6874 23.6572 48.0318 23.657 48.0321C22.7533 48.9364 24.177 50.3843 25.0934 49.468L29.1559 45.4055C29.5526 45.0087 29.5526 44.366 29.1559 43.9693C29.1559 43.9693 25.1183 39.9317 25.0934 39.9068Z" fill="#1727FF"/>
<path d="M20.6112 39.7247C20.1326 39.554 19.5542 39.6835 19.3487 40.3037C19.3487 40.3037 16.6653 48.3541 16.6406 48.4282C16.2285 49.6645 18.1504 50.3253 18.5672 49.0714C18.5672 49.0714 21.2416 41.0483 21.2752 40.9473C21.4687 40.3664 21.0898 39.8954 20.6112 39.7247Z" fill="#1727FF"/>
</svg>
