<svg width="65" height="65" viewBox="0 0 65 65" fill="none" xmlns="http://www.w3.org/2000/svg">
<path d="M41.7881 18.1377C41.7881 20.6016 40.8094 22.9646 39.0671 24.7068C37.3249 26.449 34.9619 27.4278 32.4981 27.4278C30.0342 27.4278 27.6712 26.449 25.929 24.7068C24.1868 22.9646 23.208 20.6016 23.208 18.1377C23.208 15.6738 24.1868 13.3109 25.929 11.5687C27.6712 9.82643 30.0342 8.84766 32.4981 8.84766C34.9619 8.84766 37.3249 9.82643 39.0671 11.5687C40.8094 13.3109 41.7881 15.6738 41.7881 18.1377Z" stroke="#1727FF" stroke-width="0.975477"/>
<path d="M38.8083 18.1371C38.8083 19.8108 38.1434 21.416 36.9599 22.5995C35.7764 23.7831 34.1712 24.448 32.4974 24.448C30.8237 24.448 29.2185 23.7831 28.0349 22.5995C26.8514 21.416 26.1865 19.8108 26.1865 18.1371C26.1865 16.4633 26.8514 14.8581 28.0349 13.6746C29.2185 12.4911 30.8237 11.8262 32.4974 11.8262C34.1712 11.8262 35.7764 12.4911 36.9599 13.6746C38.1434 14.8581 38.8083 16.4633 38.8083 18.1371Z" fill="#1727FF" stroke="#1727FF" stroke-width="0.662658"/>
<path d="M37.126 35.1709C34.1932 35.9638 31.1051 35.9841 28.1621 35.2298C28.3152 34.1902 28.1547 33.1285 27.701 32.1807C27.2473 31.2329 26.5211 30.4419 25.6154 29.9092C24.7097 29.3764 23.6656 29.1259 22.6167 29.1899C21.5678 29.2539 20.5619 29.6294 19.7277 30.2683C18.9106 29.4018 18.1835 28.4547 17.5577 27.4414C16.5896 25.8775 15.8953 24.2207 15.464 22.5274L15.5269 22.4885C16.2901 22.0164 16.9204 21.3576 17.3583 20.5742C17.7962 19.7909 18.0272 18.9088 18.0295 18.0114C18.0318 17.114 17.8053 16.2308 17.3715 15.4452C16.9376 14.6596 16.3107 13.9975 15.5499 13.5215C16.2942 10.8023 17.6807 8.30167 19.5929 6.23005C20.4257 6.73547 21.3821 7.00066 22.3563 6.99625C23.3305 6.99185 24.2844 6.71804 25.1126 6.20511C25.9411 5.69258 26.6116 4.96086 27.05 4.0909C27.4884 3.22094 27.6776 2.24666 27.5967 1.27585C30.3036 0.488283 33.1602 0.362494 35.9259 0.909071C36.0132 1.80862 36.3299 2.67071 36.8457 3.41284C37.3615 4.15497 38.0591 4.75229 38.8718 5.14762C39.6845 5.54295 40.5851 5.72306 41.4874 5.67072C42.3896 5.61838 43.2633 5.33533 44.0249 4.84867C45.3798 6.01968 46.5481 7.39063 47.4894 8.91415C48.1286 9.9468 48.6482 11.0203 49.0522 12.1178C48.1083 12.5796 47.3236 13.3125 46.7986 14.2227C46.2736 15.133 46.032 16.1792 46.105 17.2274C46.1779 18.2757 46.562 19.2784 47.208 20.1072C47.854 20.936 48.7326 21.5531 49.7314 21.8797C49.0938 24.85 47.6982 27.6047 45.6805 29.8758C44.829 29.1497 43.769 28.7128 42.6533 28.628C41.5375 28.5431 40.4236 28.8147 39.4722 29.4037C38.5207 29.9926 37.7809 30.8684 37.3592 31.9049C36.9375 32.9414 36.8559 34.085 37.126 35.1709Z" stroke="#1727FF" stroke-width="0.975477" stroke-linejoin="round"/>
<rect x="0.612941" y="54.0265" width="29.4748" height="10.3832" rx="5.19159" stroke="#2837FF" stroke-width="1.18096"/>
<circle cx="7.45168" cy="59.5884" r="1.77865" stroke="#2837FF" stroke-width="1.22496"/>
<circle cx="15.3501" cy="59.5884" r="1.77865" stroke="#2837FF" stroke-width="1.22496"/>
<circle cx="23.2486" cy="59.5884" r="1.77865" stroke="#2837FF" stroke-width="1.22496"/>
<rect x="34.9342" y="54.0265" width="29.4748" height="10.3832" rx="5.19159" stroke="#2837FF" stroke-width="1.18096"/>
<circle cx="41.773" cy="59.5884" r="1.77865" stroke="#2837FF" stroke-width="1.22496"/>
<circle cx="49.6714" cy="59.5884" r="1.77865" stroke="#2837FF" stroke-width="1.22496"/>
<circle cx="57.5698" cy="59.5884" r="1.77865" stroke="#2837FF" stroke-width="1.22496"/>
<rect x="17.7624" y="40.9645" width="29.4748" height="7.66336" rx="3.83168" stroke="#2837FF" stroke-width="1.18096"/>
<path d="M12.1465 53.9775V44.2769H17.6031" stroke="#1727FF" stroke-width="1.18096" stroke-linecap="round" stroke-linejoin="round"/>
<path d="M53.0322 53.9775V44.2769H47.5756" stroke="#1727FF" stroke-width="1.18096" stroke-linecap="round" stroke-linejoin="round"/>
<path d="M32.248 40.9669V36.0259" stroke="#1727FF" stroke-width="1.18096" stroke-linecap="round" stroke-linejoin="round"/>
</svg>
