<svg width="60" height="60" viewBox="0 0 60 60" fill="none" xmlns="http://www.w3.org/2000/svg">
<path d="M54.7062 6.36604H5.29383C4.4352 6.36604 3.73664 7.06459 3.73664 7.92322V35.7174C3.73664 36.2351 4.15641 36.6549 4.67414 36.6549H55.326C55.8437 36.6549 56.2635 36.2351 56.2635 35.7174V7.92322C56.2634 7.06459 55.5648 6.36604 54.7062 6.36604ZM54.3884 34.7799H5.61164V8.24103H54.3885L54.3884 34.7799ZM54.5941 2.62939H5.40586C2.42508 2.62939 0 5.05447 0 8.03525V38.7759C0 41.7568 2.42508 44.1819 5.40586 44.1819H19.9286V49.4062H14.0645C11.4464 49.4062 9.31641 51.1926 9.31641 53.3882V56.4329C9.31641 56.9506 9.73617 57.3704 10.2539 57.3704H49.7461C50.2638 57.3704 50.6836 56.9506 50.6836 56.4329V53.3882C50.6836 51.1925 48.5536 49.4062 45.9355 49.4062H40.0714V44.1819H54.5941C57.575 44.1819 60 41.7568 60 38.7759V8.03525C60 5.05447 57.5749 2.62939 54.5941 2.62939ZM48.8086 53.3883V55.4955H11.1914V53.3883C11.1914 52.2461 12.5072 51.2813 14.0645 51.2813H45.9355C47.4928 51.2812 48.8086 52.2461 48.8086 53.3883ZM38.1964 49.4062H21.8036V44.1819H38.1964V49.4062ZM58.125 38.7759C58.125 40.7228 56.541 42.3069 54.5941 42.3069H5.40586C3.45891 42.3069 1.875 40.7228 1.875 38.7759V8.03525C1.875 6.0883 3.45902 4.50439 5.40586 4.50439H54.5941C56.5411 4.50439 58.125 6.08842 58.125 8.03525V38.7759ZM31.3768 32.7019H38.0099C38.921 32.7019 39.6623 31.9606 39.6623 31.0495V28.9737C39.6623 28.0626 38.921 27.3213 38.0099 27.3213H35.6309V25.6584L38.8412 22.448H44.5648V27.3213H42.1857C41.2746 27.3213 40.5333 28.0626 40.5333 28.9737V31.0495C40.5333 31.9606 41.2746 32.7019 42.1857 32.7019H48.8188C49.7299 32.7019 50.4712 31.9606 50.4712 31.0495V28.9737C50.4712 28.0626 49.7299 27.3213 48.8188 27.3213H46.4398V21.5105C46.4398 20.9928 46.02 20.573 45.5023 20.573H38.8412L35.6309 17.3627V15.6998H38.0099C38.921 15.6998 39.6623 14.9585 39.6623 14.0473V11.9716C39.6623 11.0604 38.921 10.3191 38.0099 10.3191H31.3768C30.4657 10.3191 29.7244 11.0604 29.7244 11.9716V14.0473C29.7244 14.9585 30.4657 15.6998 31.3768 15.6998H33.7559V17.3627L30.2709 20.8476C29.9048 21.2137 29.9048 21.8072 30.2709 22.1733L33.7559 25.6583V27.3212H31.3768C30.4657 27.3212 29.7244 28.0625 29.7244 28.9736V31.0494C29.7244 31.9606 30.4657 32.7019 31.3768 32.7019ZM48.5962 30.8269H42.4084V29.1963H48.5962V30.8269ZM31.5994 12.1941H37.7872V13.8248H31.5994V12.1941ZM34.6934 19.0768L37.1271 21.5105L34.6934 23.9443L32.2596 21.5105L34.6934 19.0768ZM31.5994 29.1963H37.7872V30.8269H31.5994V29.1963ZM43.1029 19.2133H48.2972C49.2507 19.2133 50.0265 18.4375 50.0265 17.484V12.8036C50.0265 11.8501 49.2507 11.0743 48.2972 11.0743H43.1029C42.1493 11.0743 41.3735 11.8501 41.3735 12.8036V17.484C41.3735 18.4375 42.1493 19.2133 43.1029 19.2133ZM43.2485 12.9492H48.1515V17.3383H43.2485V12.9492ZM17.945 25.87C20.3489 25.87 22.3045 23.9144 22.3045 21.5105C22.3045 19.1067 20.3489 17.151 17.945 17.151C15.5412 17.151 13.5855 19.1067 13.5855 21.5105C13.5855 23.9144 15.5412 25.87 17.945 25.87ZM17.945 19.0259C19.315 19.0259 20.4295 20.1405 20.4295 21.5104C20.4295 22.8803 19.315 23.9949 17.945 23.9949C16.5751 23.9949 15.4605 22.8803 15.4605 21.5104C15.4605 20.1405 16.575 19.0259 17.945 19.0259ZM9.2298 23.5941L11.1462 23.9009C11.2331 24.1483 11.3337 24.3908 11.4473 24.6274L10.309 26.1997C10.0389 26.5727 10.0798 27.0867 10.4054 27.4123L12.0431 29.0499C12.3688 29.3756 12.8828 29.4163 13.2558 29.1463L14.828 28.008C15.0647 28.1218 15.3071 28.2223 15.5545 28.3093L15.8612 30.2255C15.934 30.6803 16.3263 31.0149 16.7869 31.0149H19.1029C19.5634 31.0149 19.9557 30.6803 20.0285 30.2256L20.3353 28.3093C20.5827 28.2223 20.8252 28.1218 21.0618 28.0081L22.6341 29.1465C23.0071 29.4165 23.5209 29.3757 23.8467 29.05L25.4844 27.4124C25.8101 27.0868 25.851 26.5728 25.5809 26.1998L24.4426 24.6275C24.5563 24.3909 24.657 24.1483 24.7439 23.901L26.6602 23.5942C27.1148 23.5215 27.4494 23.1291 27.4494 22.6686V20.3526C27.4494 19.892 27.1148 19.4997 26.66 19.4269L24.7437 19.1203C24.6567 18.8729 24.5562 18.6304 24.4425 18.3938L25.5809 16.8215C25.851 16.4485 25.8101 15.9345 25.4844 15.6088L23.8467 13.9712C23.5211 13.6455 23.0071 13.6047 22.6341 13.8747L21.0619 15.0129C20.8253 14.8993 20.5827 14.7986 20.3354 14.7117L20.0286 12.7954C19.9559 12.3407 19.5635 12.0062 19.103 12.0062H16.787C16.3264 12.0062 15.9341 12.3407 15.8613 12.7954L15.5546 14.7117C15.3073 14.7987 15.0648 14.8993 14.8281 15.0129L13.2559 13.8747C12.8828 13.6046 12.3688 13.6454 12.0432 13.9712L10.4055 15.6088C10.0799 15.9345 10.039 16.4485 10.3091 16.8215L11.4475 18.3938C11.3338 18.6304 11.2332 18.8729 11.1463 19.1201L9.22992 19.4269C8.77523 19.4997 8.44066 19.892 8.44066 20.3526V22.6686C8.44055 23.129 8.77512 23.5213 9.2298 23.5941ZM10.3155 21.1518L12.0206 20.8789C12.3895 20.8198 12.6881 20.5474 12.7807 20.1854C12.9053 19.6981 13.0991 19.2308 13.3567 18.7963C13.5472 18.475 13.5287 18.0711 13.3097 17.7685L12.2966 16.3693L12.8038 15.8621L14.2029 16.8749C14.5055 17.0941 14.9094 17.1125 15.2309 16.9219C15.6654 16.6642 16.1327 16.4704 16.62 16.3458C16.982 16.2533 17.2545 15.9547 17.3135 15.5858L17.5864 13.8809H18.3038L18.5766 15.5859C18.6356 15.9548 18.9081 16.2534 19.2701 16.346C19.7572 16.4705 20.2246 16.6644 20.6591 16.922C20.9805 17.1126 21.3844 17.0942 21.6871 16.8751L23.0862 15.862L23.5934 16.3692L22.5803 17.7684C22.3611 18.0711 22.3427 18.475 22.5333 18.7963C22.7907 19.2305 22.9846 19.6979 23.1093 20.1855C23.2018 20.5474 23.5004 20.8198 23.8693 20.8789L25.5743 21.1518V21.8691L23.8695 22.142C23.5005 22.2011 23.202 22.4736 23.1094 22.8356C22.9848 23.3227 22.791 23.7901 22.5333 24.2246C22.3427 24.546 22.3611 24.9499 22.5803 25.2526L23.5934 26.6518L23.0862 27.159L21.6871 26.1459C21.3844 25.9266 20.9804 25.9082 20.6591 26.0989C20.2248 26.3563 19.7575 26.5502 19.27 26.6749C18.9081 26.7674 18.6356 27.066 18.5766 27.4349L18.3036 29.1399H17.5863L17.3134 27.4351C17.2543 27.0662 16.9819 26.7676 16.6199 26.675C16.1327 26.5504 15.6654 26.3566 15.2307 26.0989C14.9094 25.9082 14.5055 25.9267 14.2028 26.1459L12.8037 27.159L12.2965 26.6518L13.3096 25.2526C13.5287 24.9499 13.5471 24.546 13.3566 24.2247C13.099 23.7903 12.9052 23.3228 12.7805 22.8356C12.6879 22.4737 12.3893 22.2012 12.0204 22.1422L10.3154 21.8692L10.3155 21.1518Z" fill="#1727FF"/>
</svg>
