<svg width="60" height="60" viewBox="0 0 60 60" fill="none" xmlns="http://www.w3.org/2000/svg">
<path fill-rule="evenodd" clip-rule="evenodd" d="M4.45998 1.43872H10.3408C11.5247 1.43872 12.5389 2.01813 13.1354 3.04189C13.136 3.04295 13.1367 3.04413 13.1374 3.04531L14.9733 6.22789H26.0777C27.7075 6.22789 29.0317 7.55213 29.0317 9.18189V20.6975C29.0317 22.319 27.7083 23.6453 26.0777 23.6453H4.45998C2.82927 23.6453 1.50586 22.319 1.50586 20.6975V4.38637C1.50586 2.76507 2.82927 1.43872 4.45998 1.43872ZM12.8001 6.22789C12.2074 5.20025 11.5079 3.98766 11.5073 3.98672C11.258 3.56084 10.8343 3.32107 10.3408 3.32107H4.45998C3.86951 3.32107 3.38821 3.79931 3.38821 4.38637V6.22789H12.8001ZM3.38821 8.11025V20.6975C3.38821 21.2847 3.86951 21.763 4.45998 21.763H26.0777C26.6682 21.763 27.1494 21.2847 27.1494 20.6975V9.18189C27.1494 8.59072 26.669 8.11025 26.0777 8.11025H3.38821ZM7.25845 17.7453C6.73904 17.7453 6.31727 17.3235 6.31727 16.8041C6.31727 16.2847 6.73904 15.863 7.25845 15.863H20.8739C21.3933 15.863 21.815 16.2847 21.815 16.8041C21.815 17.3235 21.3933 17.7453 20.8739 17.7453H7.25845ZM7.25845 13.9914C6.73904 13.9914 6.31727 13.5697 6.31727 13.0502C6.31727 12.5307 6.73904 12.1091 7.25845 12.1091H14.372C14.8914 12.1091 15.3132 12.5307 15.3132 13.0502C15.3132 13.5697 14.8914 13.9914 14.372 13.9914H7.25845ZM49.3557 2.81966C50.0955 3.03378 50.8086 3.32919 51.4837 3.70142L52.8481 3.09484C53.204 2.9366 53.6206 3.01389 53.896 3.28931L56.0212 5.4146C56.2962 5.68966 56.3737 6.10554 56.2162 6.46131C56.2162 6.46131 55.6117 7.82601 55.6116 7.82601C55.9844 8.50189 56.2801 9.21601 56.4944 9.95825L57.8856 10.4937C58.2489 10.6334 58.4887 10.9826 58.4887 11.372V14.3782C58.4887 14.7675 58.2489 15.1167 57.8856 15.2566C57.8856 15.2566 56.4939 15.7922 56.4939 15.7921C56.2792 16.5319 55.9824 17.2451 55.6113 17.9201L56.2162 19.2859C56.3737 19.6415 56.2962 20.0575 56.0212 20.3326L53.896 22.4579C53.6209 22.733 53.2049 22.8104 52.8493 22.6528L51.485 22.0486C50.8107 22.421 50.096 22.7166 49.3555 22.9307L48.82 24.3222C48.6801 24.6857 48.3309 24.9253 47.9415 24.9253H44.9354C44.546 24.9253 44.1968 24.6857 44.0569 24.3222L43.5215 22.9308C42.7796 22.7162 42.0659 22.4193 41.3903 22.0479L40.0246 22.6528C39.6689 22.8104 39.2529 22.733 38.9779 22.4579L36.8527 20.3326C36.5773 20.0572 36.5 19.6406 36.6582 19.2847L37.2646 17.921C36.8924 17.247 36.5967 16.5327 36.3812 15.7926L34.9882 15.2566C34.6249 15.1167 34.3852 14.7675 34.3852 14.3782V11.372C34.3852 10.9826 34.6249 10.6334 34.9882 10.4937C34.9882 10.4937 36.3808 9.95766 36.3808 9.95778C36.5964 9.21589 36.8923 8.50225 37.2648 7.82672L36.6582 6.46248C36.5 6.1066 36.5773 5.69001 36.8527 5.4146L38.9779 3.28931C39.2533 3.01389 39.6699 2.9366 40.0257 3.09484L41.3901 3.70142C42.0655 3.32907 42.7789 3.03354 43.5189 2.81942L44.0573 1.42413C44.1973 1.06119 44.5463 0.821777 44.9354 0.821777H47.9415C48.3312 0.821777 48.6803 1.06178 48.8201 1.42542L49.3557 2.81966ZM47.7714 3.94425L47.2949 2.70413H45.5809L45.102 3.94554C44.9903 4.23484 44.7433 4.4506 44.4415 4.52237C43.5582 4.73225 42.7157 5.08131 41.9415 5.55836C41.677 5.72131 41.3492 5.74331 41.0654 5.61707L39.8517 5.07754L38.6408 6.28848L39.1804 7.50201C39.3067 7.78589 39.2847 8.11366 39.1217 8.37813C38.6442 9.15307 38.295 9.99636 38.0822 10.8832C38.0099 11.1844 37.7941 11.4307 37.505 11.5419L36.2675 12.0182V13.732L37.505 14.2082C37.7939 14.3194 38.0096 14.5654 38.082 14.8664C38.2948 15.7501 38.6436 16.5958 39.1209 17.3678C39.2846 17.6324 39.3068 17.9608 39.1804 18.2452L38.6408 19.4587L39.8524 20.6704L41.0666 20.1326C41.3494 20.0073 41.6757 20.029 41.9394 20.1906C42.7143 20.6653 43.5572 21.0177 44.4439 21.2277C44.7462 21.2993 44.9937 21.5155 45.1053 21.8054L45.5816 23.043H47.2953L47.7716 21.8054C47.8832 21.5158 48.1303 21.2997 48.4323 21.2279C49.3152 21.018 50.16 20.6694 50.9312 20.1926C51.1954 20.0292 51.5232 20.0067 51.8073 20.1326L53.0214 20.6704L54.2337 19.458L53.6959 18.2439C53.5707 17.9611 53.5923 17.6348 53.7539 17.3711C54.2287 16.5961 54.581 15.7531 54.7912 14.869C54.8629 14.567 55.079 14.3198 55.3688 14.2082L56.6063 13.732V12.0182L55.3688 11.5419C55.0789 11.4304 54.8627 11.1828 54.791 10.8806C54.5812 9.9946 54.2322 9.15236 53.7552 8.37813C53.5924 8.11413 53.5703 7.78684 53.6959 7.50319L54.2337 6.28907L53.0221 5.07754L51.8084 5.61707C51.5247 5.74331 51.1968 5.72131 50.9323 5.55836C50.1581 5.08131 49.3156 4.73225 48.4323 4.52237C48.1301 4.45048 47.8828 4.23425 47.7714 3.94425ZM46.4369 6.68895C49.8541 6.68895 52.6246 9.45648 52.6246 12.8735C52.6246 16.2906 49.8539 19.0613 46.4369 19.0613C43.0199 19.0613 40.2523 16.2907 40.2523 12.8735C40.2523 9.45637 43.0196 6.68895 46.4369 6.68895ZM46.4369 8.57131C44.0597 8.57131 42.1347 10.4964 42.1347 12.8735C42.1347 15.251 44.0596 17.179 46.4369 17.179C48.8144 17.179 50.7422 15.2511 50.7422 12.8735C50.7422 10.4962 48.8143 8.57131 46.4369 8.57131ZM16.4766 37.069C17.2163 37.2832 17.9294 37.5786 18.6044 37.9508L19.9688 37.3442C20.3247 37.186 20.7413 37.2633 21.0167 37.5387L23.142 39.6639C23.417 39.9391 23.4946 40.3549 23.3369 40.7106L22.7324 42.0754C23.1052 42.7513 23.4009 43.4654 23.6152 44.2075L25.0063 44.743C25.3697 44.8828 25.6095 45.232 25.6095 45.6214V48.6275C25.6095 49.017 25.3697 49.3661 25.0063 49.506C25.0063 49.506 23.6146 50.0417 23.6146 50.0415C23.4 50.7813 23.1032 51.4945 22.732 52.1695L23.3369 53.5353C23.4946 53.8909 23.417 54.3069 23.142 54.582L21.0167 56.7072C20.7416 56.9822 20.3257 57.0598 19.97 56.9022C19.97 56.9022 18.6057 56.298 18.6059 56.298C17.9314 56.6704 17.2167 56.9659 16.4762 57.1801L15.9407 58.5717C15.8008 58.9349 15.4516 59.1747 15.0623 59.1747H12.0561C11.6667 59.1747 11.3175 58.9349 11.1777 58.5717L10.6422 57.1802C9.90045 56.9655 9.18656 56.6687 8.51115 56.2973L7.14539 56.9022C6.78962 57.0598 6.37374 56.9822 6.09868 56.7072L3.97339 54.582C3.69798 54.3066 3.62068 53.89 3.77892 53.5341L4.38527 52.1704C4.01315 51.4964 3.71751 50.782 3.50186 50.042L2.10904 49.506C1.74562 49.3661 1.50586 49.017 1.50586 48.6275V45.6214C1.50586 45.232 1.74562 44.8828 2.10904 44.743L3.50151 44.2071C3.71727 43.4653 4.01304 42.7517 4.38551 42.0761L3.77892 40.7119C3.62068 40.3559 3.69798 39.9393 3.97339 39.6639L6.09868 37.5387C6.37409 37.2633 6.79068 37.186 7.14656 37.3442L8.5108 37.9508C9.18633 37.5785 9.89962 37.283 10.6396 37.0687L11.178 35.6735C11.3181 35.3106 11.667 35.0712 12.0561 35.0712H15.0623C15.4519 35.0712 15.8012 35.3112 15.9408 35.6748L16.4766 37.069ZM14.8922 38.1937L14.4156 36.9535H12.7017L12.2227 38.1948C12.111 38.4842 11.864 38.7 11.5622 38.7718C10.6789 38.9817 9.83657 39.3306 9.06221 39.8078C8.79774 39.9707 8.46998 39.9927 8.18609 39.8665L6.97257 39.3268L5.76162 40.5378L6.30115 41.7514C6.42739 42.0353 6.40539 42.3631 6.24245 42.6275C5.76492 43.4025 5.41574 44.2458 5.20292 45.1326C5.13068 45.4338 4.9148 45.6801 4.62574 45.7913L3.38821 46.2677V47.9813L4.62574 48.4577C4.91457 48.5688 5.13033 48.8148 5.2028 49.1158C5.41551 49.9995 5.76433 50.8452 6.24162 51.6172C6.40527 51.8818 6.42762 52.2102 6.30115 52.4945L5.76162 53.7081L6.97327 54.9198L8.18727 54.382C8.47009 54.2567 8.79645 54.2784 9.06021 54.44C9.83504 54.9147 10.678 55.2669 11.5647 55.4771C11.8669 55.5487 12.1144 55.7649 12.226 56.0548L12.7023 57.2924H14.4161L14.8923 56.0548C15.0039 55.7651 15.251 55.549 15.5532 55.4772C16.436 55.2674 17.2807 54.9188 18.0519 54.442C18.3161 54.2786 18.644 54.2561 18.928 54.382L20.1421 54.9198L21.3544 53.7074L20.8167 52.4933C20.6914 52.2105 20.713 51.8842 20.8747 51.6205C21.3495 50.8455 21.7019 50.0025 21.912 49.1184C21.9837 48.8164 22.1999 48.5692 22.4895 48.4577L23.7272 47.9813V46.2677L22.4895 45.7913C22.1996 45.6798 21.9834 45.4322 21.9117 45.1299C21.7019 44.244 21.3529 43.4017 20.876 42.6275C20.7132 42.3634 20.691 42.0362 20.8167 41.7526L21.3544 40.5385L20.1428 39.3268L18.9293 39.8665C18.6454 39.9927 18.3175 39.9707 18.0532 39.8078C17.2788 39.3306 16.4364 38.9817 15.5532 38.7718C15.2509 38.6999 15.0036 38.4835 14.8922 38.1937ZM13.5576 40.9384C16.9748 40.9384 19.7454 43.7059 19.7454 47.123C19.7454 50.5399 16.9747 53.3106 13.5576 53.3106C10.1406 53.3106 7.37304 50.5401 7.37304 47.123C7.37304 43.7057 10.1404 40.9384 13.5576 40.9384ZM13.5576 42.8207C11.1804 42.8207 9.25539 44.7458 9.25539 47.123C9.25539 49.5004 11.1803 51.4282 13.5576 51.4282C15.9352 51.4282 17.863 49.5005 17.863 47.123C17.863 44.7457 15.935 42.8207 13.5576 42.8207ZM38.1626 31.9492H52.2414C52.7189 31.9492 53.1402 32.1162 53.4823 32.4682L57.9787 36.9646C58.318 37.3038 58.4924 37.7252 58.4924 38.2001V57.4292C58.4924 58.392 57.706 59.1785 56.7432 59.1785H38.1626C37.1997 59.1785 36.4133 58.392 36.4133 57.4292V33.6984C36.4133 32.7357 37.1997 31.9492 38.1626 31.9492ZM51.627 33.839L38.303 33.8388V57.2887H56.6027V38.8145H52.9771C52.2294 38.8145 51.627 38.2121 51.627 37.4644V33.839ZM55.2663 36.9248L53.5168 35.1752V36.9248H55.2663ZM41.7976 38.6961C41.2761 38.6961 40.8527 38.2727 40.8527 37.7512C40.8527 37.2297 41.2761 36.8064 41.7976 36.8064H48.9056C49.4272 36.8064 49.8506 37.2297 49.8506 37.7512C49.8506 38.2727 49.4272 38.6961 48.9056 38.6961H41.7976ZM41.7976 49.1087C41.2761 49.1087 40.8527 48.6853 40.8527 48.1639C40.8527 47.6424 41.2761 47.2189 41.7976 47.2189H53.1081C53.6296 47.2189 54.053 47.6424 54.053 48.1639C54.053 48.6853 53.6296 49.1087 53.1081 49.1087H41.7976ZM41.7976 43.9024C41.2761 43.9024 40.8527 43.4791 40.8527 42.9575C40.8527 42.436 41.2761 42.0126 41.7976 42.0126H53.1081C53.6296 42.0126 54.053 42.436 54.053 42.9575C54.053 43.4791 53.6296 43.9024 53.1081 43.9024H41.7976ZM41.7976 54.3151C41.2761 54.3151 40.8527 53.8917 40.8527 53.3701C40.8527 52.8487 41.2761 52.4253 41.7976 52.4253H53.1081C53.6296 52.4253 54.053 52.8487 54.053 53.3701C54.053 53.8917 53.6296 54.3151 53.1081 54.3151H41.7976ZM12.6164 25.5313C12.6164 25.0119 13.0382 24.5901 13.5576 24.5901C14.0772 24.5901 14.4988 25.0119 14.4988 25.5313V32.894C14.4988 33.4134 14.0772 33.8352 13.5576 33.8352C13.0382 33.8352 12.6164 33.4134 12.6164 32.894V25.5313ZM34.6946 46.1818C35.2141 46.1818 35.6357 46.6035 35.6357 47.123C35.6357 47.6424 35.2141 48.0641 34.6946 48.0641H27.3319C26.8124 48.0641 26.3907 47.6424 26.3907 47.123C26.3907 46.6035 26.8124 46.1818 27.3319 46.1818H34.6946ZM45.4957 26.886C45.4957 26.3666 45.9175 25.9448 46.4369 25.9448C46.9563 25.9448 47.3781 26.3666 47.3781 26.886V30.0261C47.3781 30.5455 46.9563 30.9673 46.4369 30.9673C45.9175 30.9673 45.4957 30.5455 45.4957 30.0261V26.886ZM32.6802 11.6008C33.1996 11.6008 33.6214 12.0225 33.6214 12.542C33.6214 13.0614 33.1996 13.4832 32.6802 13.4832H30.5899C30.0704 13.4832 29.6487 13.0614 29.6487 12.542C29.6487 12.0225 30.0704 11.6008 30.5899 11.6008H32.6802Z" fill="#1727FF"/>
</svg>
