<svg width="70" height="70" viewBox="0 0 70 70" fill="none" xmlns="http://www.w3.org/2000/svg">
<path d="M20.1807 45.4933C20.1855 46.1498 20.3584 46.7941 20.6827 47.3649C21.0071 47.9357 21.4721 48.414 22.0337 48.7542C22.5952 49.0944 23.2344 49.2852 23.8905 49.3084C24.5466 49.3316 25.1978 49.1864 25.7819 48.8868L31.2693 52.9272C31.1501 53.4522 31.1428 53.9963 31.2479 54.5243C31.353 55.0522 31.568 55.5521 31.8791 55.9915C32.1902 56.4308 32.5903 56.7997 33.0534 57.0741C33.5165 57.3485 34.0322 57.5224 34.5669 57.5843C35.1016 57.6462 35.6434 57.5949 36.157 57.4336C36.6705 57.2722 37.1444 57.0046 37.5476 56.648C37.9509 56.2914 38.2745 55.8539 38.4975 55.3639C38.7205 54.874 38.8378 54.3426 38.8417 53.8043C38.8367 53.6169 38.8178 53.43 38.7852 53.2454L44.2447 48.901C44.7796 49.1806 45.3735 49.3286 45.9772 49.3328C46.8972 49.3263 47.7842 48.9894 48.4765 48.3833C49.1687 47.7773 49.62 46.9426 49.7481 46.0315C49.8761 45.1204 49.6723 44.1937 49.1739 43.4203C48.6755 42.647 47.9157 42.0786 47.0331 41.8188L47.0332 37.7329C47.5477 37.5877 48.026 37.3364 48.4373 36.995C48.8487 36.6536 49.1839 36.2298 49.4214 35.7509C49.6589 35.2721 49.7934 34.7487 49.8162 34.2146C49.839 33.6806 49.7496 33.1477 49.5538 32.6503C49.358 32.1529 49.0601 31.7021 48.6794 31.3269C48.2986 30.9517 47.8435 30.6604 47.3433 30.472C46.843 30.2835 46.3089 30.2019 45.7752 30.2326C45.2416 30.2632 44.7202 30.4054 44.2449 30.6499L38.7853 26.3044C39.3929 20.9024 31.3932 20.2917 31.1587 25.7465C31.1614 26.0421 31.1985 26.3365 31.2693 26.6236L25.7817 30.6641C25.2403 30.3753 24.6369 30.2222 24.0233 30.218C23.0977 30.2149 22.2023 30.5472 21.5027 31.1533C20.8032 31.7594 20.3468 32.5983 20.218 33.5149C20.0892 34.4315 20.2967 35.3637 20.8021 36.1392C21.3075 36.9146 22.0766 37.4808 22.9672 37.7329V41.8189C22.167 42.0461 21.4625 42.5275 20.9598 43.1903C20.4571 43.8531 20.1837 44.6614 20.1807 45.4933ZM35.0002 55.5317C34.5461 55.5259 34.1127 55.3414 33.7937 55.0183C33.4747 54.6952 33.2959 54.2594 33.2959 53.8054C33.2959 53.3513 33.4747 52.9155 33.7938 52.5924C34.1128 52.2693 34.5462 52.0849 35.0002 52.079C35.4546 52.0844 35.8885 52.2687 36.2078 52.5919C36.5272 52.915 36.7063 53.3511 36.7063 53.8054C36.7063 54.2598 36.5272 54.6958 36.2078 55.019C35.8884 55.3422 35.4545 55.5264 35.0002 55.5317ZM47.7076 45.4933C47.7003 45.9473 47.5148 46.3802 47.1911 46.6987C46.8675 47.0171 46.4316 47.1956 45.9776 47.1956C45.5235 47.1956 45.0877 47.0171 44.764 46.6986C44.4404 46.3802 44.2549 45.9472 44.2476 45.4932C44.255 45.0392 44.4404 44.6063 44.7641 44.2878C45.0877 43.9694 45.5236 43.7909 45.9776 43.7909C46.4317 43.7909 46.8676 43.9694 47.1912 44.2879C47.5148 44.6064 47.7003 45.0393 47.7076 45.4933ZM47.7076 34.0586C47.7009 34.5141 47.5146 34.9485 47.1894 35.2675C46.8642 35.5866 46.4262 35.7643 45.9707 35.7623C45.5151 35.7602 45.0788 35.5785 44.7564 35.2566C44.4341 34.9347 44.2518 34.4986 44.2492 34.043C44.2559 33.5875 44.4421 33.1531 44.7673 32.8341C45.0926 32.5151 45.5305 32.3373 45.9861 32.3393C46.4416 32.3414 46.878 32.5231 47.2003 32.845C47.5227 33.1669 47.7049 33.603 47.7076 34.0586ZM35.0002 24.019C35.4537 24.0261 35.8863 24.2113 36.2045 24.5346C36.5228 24.8578 36.7011 25.2933 36.7011 25.7469C36.7011 26.2005 36.5227 26.636 36.2045 26.9592C35.8862 27.2825 35.4537 27.4677 35.0001 27.4748C34.5465 27.4677 34.1139 27.2825 33.7957 26.9592C33.4775 26.6359 33.2991 26.2005 33.2991 25.7468C33.2992 25.2932 33.4775 24.8578 33.7958 24.5345C34.114 24.2113 34.5466 24.0261 35.0002 24.019ZM32.3097 28.4809C32.6829 28.8427 33.1254 29.1253 33.6107 29.3115C34.096 29.4978 34.6139 29.5839 35.1334 29.5646C35.6528 29.5453 36.1629 29.421 36.6331 29.1993C37.1032 28.9776 37.5236 28.6629 37.8688 28.2744L42.6862 32.1087C42.4562 32.4879 42.2944 32.9044 42.2083 33.3394L37.9363 35.2127C37.5809 34.7772 37.133 34.4263 36.6252 34.1853C36.1174 33.9443 35.5623 33.8193 35.0002 33.8193C34.4381 33.8193 33.883 33.9443 33.3751 34.1853C32.8673 34.4263 32.4195 34.7772 32.064 35.2127L27.792 33.3394C27.7081 32.9181 27.5532 32.5141 27.3339 32.1447L32.3097 28.4809ZM36.7296 37.6587C36.7228 38.1128 36.5375 38.5461 36.2139 38.8648C35.8903 39.1836 35.4543 39.3622 35.0001 39.3622C34.5459 39.3622 34.1099 39.1835 33.7863 38.8648C33.4627 38.546 33.2775 38.1128 33.2707 37.6586C33.2775 37.2044 33.4628 36.7712 33.7864 36.4524C34.11 36.1337 34.546 35.955 35.0002 35.9551C35.4544 35.9551 35.8904 36.1337 36.214 36.4525C36.5376 36.7713 36.7228 37.2045 36.7296 37.6587ZM27.5642 35.5459L31.2106 37.1448C30.5835 42.8585 39.4191 42.8478 38.7897 37.1447L42.4361 35.5459C42.6615 36.0724 43.0015 36.5419 43.4314 36.9203C43.8613 37.2986 44.3703 37.5762 44.9211 37.7328V41.819C44.1211 42.0465 43.4168 42.5279 42.9144 43.1907C42.4119 43.8534 42.1386 44.6616 42.1356 45.4933C42.1391 46.1808 42.3293 46.8544 42.6858 47.4422L37.8684 51.2757C37.3859 50.7289 36.7571 50.3314 36.0562 50.1301V44.3155C36.052 44.0382 35.9389 43.7737 35.7413 43.5791C35.5437 43.3844 35.2775 43.2753 35.0002 43.2753C34.7228 43.2753 34.4566 43.3844 34.259 43.5791C34.0614 43.7737 33.9483 44.0382 33.9442 44.3155V50.13C33.3296 50.3024 32.7679 50.6254 32.3097 51.0698L27.3341 47.4063C27.6777 46.827 27.8608 46.1667 27.8648 45.4933C27.8618 44.6616 27.5885 43.8534 27.086 43.1907C26.5836 42.5279 25.8793 42.0465 25.0793 41.819V37.7328C25.6301 37.5762 26.1391 37.2986 26.569 36.9203C26.9989 36.5419 27.3389 36.0724 27.5642 35.5459ZM22.2927 34.0585C22.2997 33.6043 22.4851 33.171 22.8088 32.8523C23.1325 32.5336 23.5686 32.355 24.0229 32.3551C24.4772 32.3551 24.9132 32.5339 25.2368 32.8527C25.5605 33.1715 25.7457 33.6048 25.7526 34.059C25.7456 34.5132 25.5602 34.9465 25.2365 35.2652C24.9128 35.5839 24.4767 35.7625 24.0224 35.7624C23.5682 35.7624 23.1321 35.5837 22.8085 35.2649C22.4849 34.946 22.2996 34.5127 22.2927 34.0585ZM24.0232 43.7649C24.4768 43.772 24.9093 43.9572 25.2276 44.2805C25.5458 44.6038 25.7242 45.0392 25.7241 45.4928C25.7241 45.9465 25.5458 46.3819 25.2275 46.7052C24.9093 47.0284 24.4767 47.2136 24.0231 47.2207C23.5696 47.2136 23.137 47.0284 22.8188 46.7051C22.5005 46.3818 22.3222 45.9464 22.3222 45.4928C22.3222 45.0391 22.5006 44.6037 22.8188 44.2804C23.1371 43.9572 23.5696 43.772 24.0232 43.7649Z" fill="#1727FF"/>
<path d="M59.2885 8.08154H10.7112C9.03131 8.08337 7.42075 8.7515 6.23288 9.93935C5.04501 11.1272 4.37685 12.7378 4.375 14.4176V18.8151C4.37493 18.9538 4.40219 19.0911 4.45523 19.2193C4.50828 19.3474 4.58606 19.4639 4.68414 19.562C4.78222 19.66 4.89866 19.7378 5.02682 19.7909C5.15498 19.8439 5.29234 19.8712 5.43104 19.8711H59.5711C59.848 19.8662 60.1118 19.7528 60.3059 19.5553C60.4999 19.3578 60.6087 19.092 60.6087 18.8151C60.6087 18.5382 60.4999 18.2724 60.3058 18.0748C60.1118 17.8773 59.8479 17.7639 59.5711 17.7591H6.48706V14.4177C6.48817 13.2977 6.93357 12.2239 7.72551 11.432C8.51745 10.6401 9.59123 10.1947 10.7112 10.1936H59.2885C60.4085 10.1947 61.4823 10.6401 62.2742 11.432C63.0662 12.2239 63.5116 13.2977 63.5127 14.4177V55.5822C63.5116 56.7022 63.0662 57.776 62.2742 58.5679C61.4823 59.3599 60.4085 59.8053 59.2885 59.8064H10.7112C9.59122 59.8053 8.51744 59.3599 7.7255 58.5679C6.93356 57.776 6.48816 56.7022 6.48706 55.5822V23.6157C6.48234 23.3387 6.369 23.0747 6.17146 22.8805C5.97393 22.6863 5.70802 22.5775 5.43102 22.5775C5.15402 22.5775 4.88811 22.6864 4.69059 22.8806C4.49307 23.0748 4.37974 23.3388 4.37503 23.6157V55.5822C4.37686 57.2621 5.04501 58.8727 6.23288 60.0606C7.42075 61.2485 9.03132 61.9166 10.7112 61.9184H59.2885C60.9684 61.9166 62.579 61.2485 63.7669 60.0606C64.9548 58.8727 65.6229 57.2621 65.6247 55.5822V14.4177C65.6229 12.7378 64.9547 11.1272 63.7669 9.93936C62.579 8.7515 60.9684 8.08337 59.2885 8.08154Z" fill="#1727FF"/>
<path d="M10.7123 42.3008C10.5736 42.3007 10.4362 42.328 10.3081 42.381C10.1799 42.434 10.0634 42.5118 9.96537 42.6099C9.86729 42.708 9.78951 42.8244 9.73647 42.9526C9.68342 43.0808 9.65617 43.2181 9.65625 43.3568V55.5795C9.65618 55.7182 9.68344 55.8555 9.73649 55.9837C9.78953 56.1118 9.86731 56.2283 9.96539 56.3264C10.0635 56.4244 10.1799 56.5022 10.3081 56.5553C10.4362 56.6083 10.5736 56.6356 10.7123 56.6355H23.4919C23.7708 56.6337 24.0376 56.5217 24.2342 56.3238C24.4308 56.126 24.5411 55.8584 24.5411 55.5795C24.5411 55.3006 24.4308 55.033 24.2342 54.8352C24.0376 54.6373 23.7708 54.5253 23.4919 54.5235H11.7683V43.3568C11.7684 43.2181 11.7411 43.0808 11.6881 42.9526C11.6351 42.8244 11.5573 42.708 11.4592 42.6099C11.3611 42.5118 11.2447 42.434 11.1165 42.381C10.9883 42.328 10.851 42.3007 10.7123 42.3008Z" fill="#1727FF"/>
<path d="M11.4565 12.9214C11.1793 12.9258 10.9149 13.039 10.7204 13.2365C10.526 13.4341 10.417 13.7002 10.417 13.9774C10.417 14.2547 10.526 14.5208 10.7205 14.7183C10.915 14.9159 11.1793 15.0291 11.4565 15.0334H30.6971C30.9743 15.029 31.2386 14.9158 31.4331 14.7183C31.6275 14.5207 31.7365 14.2546 31.7365 13.9774C31.7365 13.7001 31.6275 13.434 31.433 13.2365C31.2385 13.0389 30.9742 12.9257 30.697 12.9214H11.4565Z" fill="#1727FF"/>
<path d="M54.5997 12.9214C54.3224 12.9256 54.0579 13.0387 53.8633 13.2363C53.6686 13.4339 53.5596 13.7001 53.5596 13.9774C53.5596 14.2548 53.6687 14.521 53.8633 14.7186C54.0579 14.9161 54.3225 15.0292 54.5998 15.0334H58.5433C58.8207 15.0292 59.0852 14.9161 59.2798 14.7185C59.4744 14.5209 59.5835 14.2547 59.5835 13.9774C59.5835 13.7 59.4744 13.4338 59.2798 13.2362C59.0851 13.0387 58.8206 12.9256 58.5433 12.9214H54.5997Z" fill="#1727FF"/>
<path d="M44.382 12.9214C44.1046 12.9256 43.8401 13.0387 43.6455 13.2363C43.4509 13.4339 43.3418 13.7001 43.3418 13.9774C43.3418 14.2548 43.4509 14.521 43.6455 14.7186C43.8402 14.9162 44.1047 15.0292 44.382 15.0334H48.3256C48.6029 15.0292 48.8674 14.9161 49.062 14.7185C49.2567 14.5209 49.3657 14.2547 49.3657 13.9774C49.3657 13.7 49.2566 13.4338 49.062 13.2362C48.8674 13.0387 48.6028 12.9256 48.3255 12.9214H44.382Z" fill="#1727FF"/>
</svg>
