<svg width="65" height="65" viewBox="0 0 65 65" fill="none" xmlns="http://www.w3.org/2000/svg">
<path d="M47.8688 39.2734L46.7252 37.2954C47.1675 36.4501 47.5327 35.5675 47.8148 34.6617L50.0253 34.0696C50.9987 33.8056 51.6525 32.9523 51.6525 31.9459V27.7714C51.6525 26.7616 50.997 25.9093 50.0232 25.6507L47.8152 25.0592C47.5341 24.1555 47.1689 23.2728 46.7253 22.4253L47.8706 20.4446C48.3729 19.5668 48.2303 18.5008 47.5179 17.7938L44.569 14.8449C43.8588 14.1292 42.7934 13.987 41.9172 14.4916L39.9357 15.6356C39.0882 15.1919 38.2054 14.8265 37.3015 14.5454L36.7105 12.3391C36.4514 11.3636 35.599 10.7082 34.5894 10.7082H30.4149C29.4087 10.7082 28.5551 11.362 28.2906 12.3375L27.6991 14.5458C26.7977 14.8269 25.9152 15.1923 25.0658 15.6357L23.0864 14.4911C22.2131 13.988 21.1471 14.1294 20.4338 14.8428L17.4829 17.7937C16.7695 18.5072 16.6299 19.5737 17.1351 20.4466L18.2759 22.4248C17.8369 23.2646 17.4718 24.1474 17.1866 25.0587L14.9793 25.65C14.0059 25.9085 13.3519 26.7623 13.3519 27.7747V31.9456C13.3519 32.9525 14.0043 33.806 14.9776 34.0698L17.187 34.6617C17.4721 35.5708 17.8373 36.4534 18.2763 37.2951L17.1357 39.2729C16.6321 40.1433 16.7709 41.209 17.4831 41.9268L20.434 44.8777C20.5563 45.0002 20.6917 45.1045 20.8358 45.1919C20.7541 45.3557 20.7315 45.5456 20.7804 45.7277L23.6845 56.5705C23.761 56.8561 23.9961 57.0717 24.2874 57.1231C24.3317 57.131 24.3759 57.1348 24.4198 57.1348C24.6652 57.1348 24.899 57.0158 25.043 56.8104L27.909 52.7201L28.8456 55.5947C28.9477 55.908 29.2398 56.1201 29.5692 56.1201H35.0032C35.333 56.1201 35.6253 55.9077 35.7272 55.5938L36.6616 52.7181L39.5258 56.8102C39.6698 57.0158 39.9037 57.1349 40.1493 57.1349C40.1931 57.1349 40.2372 57.1311 40.2814 57.1234C40.5727 57.0721 40.8079 56.8566 40.8845 56.5709L43.7922 45.7281C43.8233 45.612 43.8244 45.4928 43.8012 45.3789C44.0799 45.2703 44.3411 45.1037 44.5669 44.878L47.5178 41.9271C48.2291 41.2158 48.3709 40.1505 47.8688 39.2734ZM24.7326 54.6007L22.3643 45.7585L24.8903 43.2325C25.1473 46.1033 25.8496 48.8896 26.9609 51.4203L24.7325 54.6007H24.7326ZM36.2485 50.7437H28.324C26.9984 47.6989 26.2998 44.2582 26.2998 40.7592C26.2998 37.6006 26.8744 34.4678 27.9641 31.6493C29.3075 32.2908 30.785 32.628 32.2863 32.628C33.7876 32.628 35.2658 32.2908 36.607 31.6491C37.6975 34.4685 38.2726 37.6014 38.2726 40.7592C38.2726 44.2583 37.574 47.699 36.2485 50.7437ZM28.5593 30.2479C29.5329 28.1633 30.8065 26.2837 32.2862 24.7466C33.7629 26.2812 35.0353 28.1612 36.0098 30.2485C34.8575 30.8111 33.5833 31.1058 32.2862 31.1058C30.9891 31.1058 29.7144 30.8108 28.5593 30.248V30.2479ZM37.7372 30.3823L37.7266 30.3868C37.7172 30.3515 37.7073 30.3162 37.6926 30.2818C36.5001 27.5056 34.8123 25.0297 32.8114 23.122C32.5174 22.8416 32.055 22.8416 31.761 23.122C29.7561 25.0337 28.067 27.5095 26.8762 30.2818C26.862 30.3148 26.8528 30.3486 26.8436 30.3822L26.8352 30.3787C26.2484 31.7628 25.7824 33.2257 25.4431 34.7352C24.4574 33.3129 23.9247 31.6272 23.9247 29.8589C23.9247 25.1293 27.7725 21.2815 32.5021 21.2815C37.2318 21.2815 41.0796 25.1293 41.0796 29.8589C41.0796 31.804 40.4146 33.6803 39.224 35.1849C38.8788 33.518 38.3817 31.9025 37.7373 30.3823H37.7372ZM34.45 54.598H30.1216L29.3618 52.266H35.208L34.4501 54.598H34.45ZM39.837 54.6003L37.6113 51.4206C38.7226 48.8898 39.4249 46.1035 39.6821 43.2325L42.2081 45.7585L39.837 54.6003ZM45.1944 37.6891L46.5494 40.0326C46.7064 40.307 46.6641 40.6282 46.4414 40.8509L43.4905 43.8018C43.2714 44.0209 42.9592 44.0647 42.692 43.9154L42.2086 43.6064L39.7891 41.1869C39.7913 41.0444 39.7947 40.9021 39.7947 40.7594C39.7947 39.5289 39.7101 38.3018 39.5483 37.0924C41.4926 35.1979 42.6017 32.5857 42.6017 29.859C42.6017 24.2901 38.071 19.7594 32.5021 19.7594C26.9332 19.7594 22.4025 24.2901 22.4025 29.859C22.4025 32.4206 23.3502 34.836 25.0764 36.7059C24.8786 38.0395 24.7775 39.3975 24.7775 40.7594C24.7775 40.9021 24.781 41.0445 24.7831 41.1871L21.9877 43.9825C21.8422 43.986 21.6602 43.9519 21.5101 43.8018L18.5613 40.8529C18.3382 40.6282 18.2958 40.3074 18.4535 40.0347L19.8066 37.6884C19.9402 37.4566 19.9424 37.1717 19.8123 36.9379C19.2671 35.9586 18.8343 34.9125 18.5262 33.8289C18.453 33.5713 18.2497 33.3712 17.9911 33.3019L15.3735 32.6007C15.0699 32.5185 14.8738 32.2615 14.8738 31.9463V27.7754C14.8738 27.4584 15.0684 27.2018 15.3712 27.1214L17.991 26.4196C18.2499 26.3503 18.4532 26.1499 18.5264 25.892C18.8343 24.8053 19.2669 23.7598 19.8116 22.7845C19.9423 22.5505 19.9404 22.2651 19.8064 22.033L18.4527 19.6857C18.2948 19.4128 18.3366 19.0929 18.5589 18.8705L21.5099 15.9196C21.7329 15.6963 22.0534 15.6535 22.3252 15.81L24.6715 17.1668C24.9033 17.3008 25.1887 17.3031 25.4227 17.1729C26.4145 16.6208 27.4598 16.1883 28.5298 15.8875C28.7884 15.8147 28.9895 15.6111 29.0589 15.3517L29.7599 12.7342C29.8428 12.4285 30.0998 12.2308 30.4145 12.2308H34.589C34.9032 12.2308 35.1582 12.4269 35.2394 12.7319L35.941 15.3517C36.0106 15.6113 36.2119 15.8151 36.4708 15.8877C37.5438 16.1885 38.5886 16.6206 39.5762 17.1724C39.8102 17.303 40.0958 17.3011 40.3279 17.167L42.6772 15.8108C42.9496 15.6539 43.2679 15.6958 43.49 15.9197L46.443 18.8728C46.665 19.093 46.7065 19.4135 46.5505 19.686L45.1937 22.0324C45.0594 22.2646 45.0573 22.5504 45.1882 22.7846C45.7399 23.7724 46.1722 24.8171 46.4728 25.89C46.5454 26.1488 46.7491 26.3502 47.0088 26.4198L49.6303 27.1219C49.9337 27.2026 50.1297 27.4576 50.1297 27.7718V31.9463C50.1297 32.261 49.9321 32.5178 49.6286 32.6001L47.0088 33.3019C46.7493 33.3713 46.5458 33.5724 46.4731 33.831C46.1704 34.9076 45.738 35.9525 45.1882 36.9369C45.0573 37.1712 45.0594 37.4569 45.1937 37.6891H45.1944ZM32.2863 36.7054C30.0074 36.7054 28.1532 38.561 28.1532 40.842C28.1532 43.123 30.0072 44.9751 32.2863 44.9751C34.5654 44.9751 36.4194 43.1211 36.4194 40.842C36.4194 38.563 34.5654 36.7054 32.2863 36.7054ZM32.2863 43.4528C30.8467 43.4528 29.6755 42.2815 29.6755 40.842C29.6755 39.4025 30.8468 38.2275 32.2863 38.2275C33.7258 38.2275 34.8971 39.4003 34.8971 40.842C34.8971 42.2837 33.7258 43.4528 32.2863 43.4528ZM30.3303 59.3967V61.5775C30.3303 61.9979 29.9896 62.3386 29.5692 62.3386C29.1489 62.3386 28.8082 61.9979 28.8082 61.5775V59.3967C28.8082 58.9764 29.1489 58.6356 29.5692 58.6356C29.9896 58.6356 30.3303 58.9764 30.3303 59.3967ZM35.7643 59.3967V61.5775C35.7643 61.9979 35.4236 62.3386 35.0032 62.3386C34.5829 62.3386 34.2421 61.9979 34.2421 61.5775V59.3967C34.2421 58.9764 34.5829 58.6356 35.0032 58.6356C35.4236 58.6356 35.7643 58.9764 35.7643 59.3967ZM33.0474 58.6733V63.7295C33.0474 64.1498 32.7066 64.4906 32.2863 64.4906C31.866 64.4906 31.5252 64.1498 31.5252 63.7295V58.6733C31.5252 58.253 31.866 57.9123 32.2863 57.9123C32.7066 57.9123 33.0474 58.253 33.0474 58.6733ZM11.5305 9.74675C11.4987 9.51163 11.5785 9.27512 11.7462 9.10716C11.9139 8.93933 12.1505 8.85896 12.3854 8.89058L15.1636 9.26128C15.5803 9.31688 15.8729 9.69965 15.8173 10.1163C15.7617 10.5328 15.3788 10.8258 14.9623 10.77L14.414 10.6969L17.2346 13.5148C17.5319 13.8119 17.5322 14.2938 17.2351 14.5913C17.0865 14.7401 16.8916 14.8145 16.6967 14.8145C16.5018 14.8145 16.3073 14.7403 16.1588 14.5918L13.3402 11.7758L13.4133 12.3178C13.4696 12.7343 13.1774 13.1176 12.7608 13.1738C12.7264 13.1785 12.692 13.1808 12.6581 13.1808C12.2828 13.1808 11.9563 12.9034 11.9047 12.5213L11.5305 9.74675ZM30.1983 3.03702L31.8968 0.809375C32.0408 0.620596 32.2646 0.509766 32.5021 0.509766C32.7397 0.509766 32.9633 0.620596 33.1074 0.809375L34.8059 3.03702C35.0607 3.37129 34.9964 3.84889 34.6622 4.10381C34.5245 4.20893 34.3622 4.25971 34.2013 4.25971C33.9719 4.25971 33.7452 4.15649 33.5954 3.9601L33.2632 3.52439V7.50742C33.2632 7.92776 32.9225 8.26851 32.5021 8.26851C32.0818 8.26851 31.741 7.92776 31.741 7.50742V3.52439L31.4088 3.9601C31.1539 4.29437 30.6763 4.3586 30.342 4.10381C30.0077 3.84889 29.9434 3.37129 30.1983 3.03702ZM53.254 9.1069C53.4217 9.27461 53.5017 9.51087 53.4702 9.74586L53.0995 12.5204C53.0485 12.9029 52.7216 13.1808 52.346 13.1808C52.3124 13.1808 52.2785 13.1785 52.2442 13.174C51.8276 13.1184 51.5349 12.7354 51.5907 12.3188L51.6634 11.7737L48.8454 14.5917C48.6969 14.7403 48.502 14.8146 48.3073 14.8146C48.1125 14.8146 47.9177 14.7403 47.7691 14.5917C47.4719 14.2945 47.4719 13.8125 47.7691 13.5152L50.5871 10.6972L50.042 10.7701C49.625 10.826 49.2424 10.5331 49.1868 10.1166C49.1312 9.6999 49.4238 9.31701 49.8404 9.26141L52.6149 8.8907C52.8504 8.85935 53.0863 8.93933 53.2539 9.1069H53.254ZM61.851 29.8588C61.851 30.0961 61.7404 30.3196 61.5519 30.4637L59.3279 32.1622C59.1901 32.2676 59.0276 32.3185 58.8665 32.3185C58.6373 32.3185 58.4108 32.2154 58.261 32.0194C58.0059 31.6853 58.0698 31.2077 58.4039 30.9525L58.8393 30.6199H54.8534C54.433 30.6199 54.0923 30.2791 54.0923 29.8588C54.0923 29.4384 54.433 29.0977 54.8534 29.0977H58.8393L58.4039 28.7651C58.0698 28.5099 58.0059 28.0323 58.261 27.6982C58.5162 27.364 58.9939 27.3002 59.3279 27.5554L61.5519 29.254C61.7404 29.3979 61.851 29.6216 61.851 29.8589V29.8588ZM53.4702 49.9753C53.5017 50.2105 53.4216 50.4469 53.2536 50.6146C53.1099 50.7581 52.9161 50.8372 52.7159 50.8372C52.682 50.8372 52.6481 50.8349 52.614 50.8303L49.8395 50.456C49.4229 50.3999 49.1307 50.0167 49.1869 49.6C49.243 49.1835 49.6268 48.8913 50.043 48.9475L50.5849 49.0206L47.769 46.202C47.4719 45.9046 47.4722 45.4227 47.7695 45.1255C48.067 44.8285 48.5489 44.8287 48.8459 45.126L51.6635 47.9463L51.5908 47.4022C51.5352 46.9855 51.8278 46.6026 52.2443 46.547C52.6608 46.491 53.0439 46.7841 53.0995 47.2006L53.4702 49.9751V49.9753ZM17.2349 45.1259C17.5321 45.4231 17.5321 45.905 17.2349 46.2024L14.4163 49.021L14.9614 48.9476C15.3783 48.8911 15.7612 49.1837 15.8173 49.6003C15.8734 50.0168 15.5813 50.4001 15.1646 50.4562L12.3864 50.8304C12.3525 50.835 12.3185 50.8373 12.2847 50.8373C12.0842 50.8373 11.8903 50.7581 11.7466 50.6144C11.5787 50.4464 11.4987 50.2098 11.5305 49.9745L11.9047 47.2C11.9608 46.7833 12.3431 46.4908 12.7608 46.5474C13.1774 46.6035 13.4696 46.9868 13.4133 47.4035L13.3403 47.9444L16.1586 45.1262C16.4558 44.8288 16.9378 44.8288 17.235 45.1262L17.2349 45.1259ZM10.9117 29.8588C10.9117 30.2791 10.571 30.6199 10.1506 30.6199H6.16392L6.59962 30.9521C6.93389 31.207 6.99825 31.6846 6.74333 32.0189C6.59353 32.2153 6.36679 32.3185 6.13751 32.3185C5.97653 32.3185 5.81441 32.2677 5.67654 32.1626L3.44902 30.4641C3.26024 30.3201 3.14941 30.0963 3.14941 29.8588C3.14941 29.6213 3.26024 29.3976 3.44902 29.2535L5.67654 27.5548C6.01068 27.2999 6.48828 27.3643 6.74333 27.6986C6.99812 28.0328 6.93376 28.5104 6.59962 28.7653L6.16392 29.0976H10.1506C10.571 29.0976 10.9117 29.4383 10.9117 29.8587V29.8588Z" fill="#1727FF"/>
</svg>
