<svg width="70" height="70" viewBox="0 0 70 70" fill="none" xmlns="http://www.w3.org/2000/svg">
<g clip-path="url(#clip0_7379_47674)">
<path d="M54.5511 21.4538C54.5515 20.0669 54.1831 18.7048 53.4836 17.5072C52.7841 16.3096 51.7788 15.3195 50.5706 14.6384C49.3624 13.9574 47.9948 13.6099 46.6081 13.6316C45.2213 13.6532 43.8653 14.0432 42.6789 14.7617C42.3341 12.9773 41.3789 11.3686 39.9772 10.2118C38.5755 9.05507 36.8148 8.42236 34.9975 8.42236C33.1801 8.42236 31.4194 9.05507 30.0177 10.2118C28.616 11.3686 27.6608 12.9773 27.316 14.7617M54.5511 21.4538C56.2796 21.4538 57.9374 22.1404 59.1596 23.3627C60.3819 24.585 61.0685 26.2427 61.0685 27.9712C61.0685 29.6998 60.3819 31.3575 59.1596 32.5798C57.9374 33.802 56.2796 34.4887 54.5511 34.4887L15.4464 34.4887C13.7179 34.4887 12.0602 33.802 10.8379 32.5797C9.61564 31.3575 8.92898 29.6998 8.92898 27.9712C8.92898 26.2427 9.61564 24.5849 10.8379 23.3627C12.0602 22.1404 13.7179 21.4538 15.4464 21.4538C15.4463 20.0673 15.8148 18.7056 16.5141 17.5084C17.2135 16.3111 18.2185 15.3213 19.4263 14.6404C20.6341 13.9594 22.0012 13.6118 23.3876 13.6331C24.7739 13.6544 26.1297 14.0439 27.316 14.7617M54.5511 21.4538C52.4186 21.4538 50.5259 22.4783 49.3371 24.0608M27.316 14.7617C28.8649 15.6973 30.0414 17.141 30.6451 18.8468M59.2245 53.3893L53.3588 47.5236L53.3588 42.3096M10.7731 53.3893L16.6388 47.5236L16.6388 42.3096M48.6419 62.2644L42.7762 56.3987L42.7762 42.3096M20.2444 62.1445L26.1101 56.2788L26.1101 42.3096M59.2245 51.434C58.7059 51.434 58.2086 51.64 57.8419 52.0067C57.4752 52.3734 57.2692 52.8707 57.2692 53.3893C57.2692 53.9078 57.4752 54.4051 57.8419 54.7718C58.2086 55.1385 58.7059 55.3445 59.2245 55.3445C59.743 55.3445 60.2403 55.1385 60.607 54.7718C60.9737 54.4051 61.1797 53.9078 61.1797 53.3893C61.1797 52.8707 60.9737 52.3734 60.607 52.0067C60.2403 51.64 59.743 51.434 59.2245 51.434ZM10.7731 51.434C11.2916 51.434 11.7889 51.64 12.1556 52.0067C12.5223 52.3734 12.7283 52.8707 12.7283 53.3893C12.7283 53.9078 12.5223 54.4051 12.1556 54.7718C11.7889 55.1385 11.2916 55.3445 10.7731 55.3445C10.2545 55.3445 9.75718 55.1385 9.3905 54.7718C9.02383 54.4051 8.81783 53.9078 8.81783 53.3893C8.81783 52.8707 9.02383 52.3734 9.3905 52.0067C9.75718 51.64 10.2545 51.434 10.7731 51.434ZM48.6419 60.3092C48.1233 60.3092 47.626 60.5152 47.2593 60.8819C46.8926 61.2486 46.6866 61.7459 46.6866 62.2644C46.6866 62.783 46.8926 63.2803 47.2593 63.647C47.626 64.0137 48.1233 64.2197 48.6419 64.2197C49.1604 64.2197 49.6577 64.0137 50.0244 63.647C50.3911 63.2803 50.5971 62.783 50.5971 62.2644C50.5971 61.7459 50.3911 61.2486 50.0244 60.8819C49.6577 60.5152 49.1604 60.3092 48.6419 60.3092ZM20.2444 60.1893C20.763 60.1893 21.2603 60.3953 21.627 60.762C21.9937 61.1286 22.1996 61.626 22.1996 62.1445C22.1996 62.6631 21.9937 63.1604 21.627 63.5271C21.2603 63.8938 20.763 64.0998 20.2444 64.0998C19.7258 64.0998 19.2285 63.8938 18.8619 63.5271C18.4952 63.1604 18.2892 62.6631 18.2892 62.1445C18.2892 61.626 18.4952 61.1286 18.8619 60.762C19.2285 60.3953 19.7259 60.1893 20.2444 60.1893Z" stroke="#1727FF" stroke-width="1.69574" stroke-linecap="round" stroke-linejoin="round"/>
</g>
<defs>
<clipPath id="clip0_7379_47674">
<rect width="62.5675" height="62.5675" fill="white" transform="translate(66.2842 3.20508) rotate(90)"/>
</clipPath>
</defs>
</svg>
