<svg width="185" height="70" viewBox="0 0 185 70" fill="none" xmlns="http://www.w3.org/2000/svg">
<g clip-path="url(#clip0_230_4970)">
<path d="M60.0482 25.9561C56.4634 25.9561 52.4617 27.337 51.6231 31.8826C51.5338 32.3654 51.8535 32.5958 52.1623 32.6663L55.8364 33.1068C56.1766 33.0896 56.407 32.7196 56.4728 32.3717C56.7863 30.8073 58.0732 30.0691 59.5105 30.0691C60.2864 30.0691 61.1579 30.3355 61.6172 31.0487C62.1439 31.8434 62.1063 32.9234 62.1063 33.8404V34.3796C59.9228 34.6304 57.0481 34.7824 55.0041 35.7025C52.6451 36.7511 50.9883 38.8844 50.9883 42.0209C50.9883 46.0399 53.4508 48.0462 56.6217 48.0462C59.2989 48.0462 60.7786 47.4177 62.843 45.2546C63.5279 46.2734 63.7474 46.7358 64.9982 47.8017C65.1365 47.8806 65.2962 47.9137 65.4545 47.8962C65.6127 47.8788 65.7614 47.8117 65.8791 47.7045V47.7531C66.6315 47.0666 67.9999 45.8189 68.7695 45.1574C69.0767 44.9003 69.0093 44.4771 68.7695 44.1292C68.0814 43.1542 67.3494 42.3673 67.3494 40.5538V34.5285C67.3494 31.9767 67.5657 29.6239 65.7334 27.8668C64.2866 26.4451 61.879 25.9561 60.0482 25.9561ZM109.423 25.9561C105.837 25.9561 101.838 27.337 100.998 31.8826C100.909 32.3654 101.227 32.5958 101.537 32.6663L105.211 33.1068C105.551 33.0896 105.783 32.7196 105.848 32.3717C106.163 30.8073 107.448 30.0691 108.885 30.0691C109.663 30.0691 110.533 30.3355 110.992 31.0487C111.517 31.8434 111.433 32.9234 111.433 33.8404V34.3796C109.249 34.6304 106.425 34.7824 104.379 35.7025C102.018 36.7511 100.363 38.8844 100.363 42.0209C100.363 46.0399 102.827 48.0462 105.997 48.0462C108.671 48.0462 110.15 47.4177 112.218 45.2546C112.901 46.2734 113.122 46.7358 114.373 47.8017C114.655 47.9522 115.005 47.9365 115.254 47.7045V47.7531C116.006 47.0666 117.375 45.8189 118.144 45.1574C118.45 44.9003 118.38 44.4771 118.144 44.1292C117.456 43.1542 116.724 42.3673 116.724 40.5538V34.5285C116.724 31.9767 116.889 29.6239 115.06 27.8668C113.611 26.4451 111.254 25.9561 109.423 25.9561ZM81.6493 26.152C79.3326 26.152 77.6147 27.3213 76.7024 29.8261H76.6538V27.2304C76.6414 27.0524 76.5651 26.8849 76.4389 26.7588C76.3128 26.6326 76.1453 26.5563 75.9673 26.5439H72.4405C72.2464 26.5467 72.0611 26.625 71.9238 26.7623C71.7866 26.8996 71.7082 27.0849 71.7054 27.279V47.1167C71.7221 47.2932 71.7998 47.4582 71.9251 47.5836C72.0504 47.7089 72.2155 47.7866 72.3919 47.8033H76.1632C76.3576 47.8012 76.5434 47.7231 76.6808 47.5857C76.8182 47.4483 76.8963 47.2625 76.8984 47.0681V36.5364C76.8984 34.2401 76.7871 31.0989 79.4941 31.0989C82.1666 31.0989 81.7967 34.3263 81.7967 36.5364V47.0681C81.7967 47.4428 82.1023 47.7782 82.4832 47.8033H86.2545C86.4488 47.8012 86.6347 47.7231 86.7721 47.5857C86.9095 47.4483 86.9876 47.2625 86.9896 47.0681V36.5364C86.9896 35.4094 86.9442 33.7683 87.3329 32.7651C87.7201 31.7619 88.6715 31.1005 89.5869 31.1005C90.6779 31.1005 91.5102 31.4813 91.7908 32.8152C91.9663 33.6084 91.888 35.7041 91.888 36.538V47.0697C91.888 47.4443 92.1936 47.7798 92.5745 47.8048H96.3458C96.5401 47.8028 96.7259 47.7247 96.8634 47.5873C97.0008 47.4498 97.0789 47.264 97.0809 47.0697V34.53C97.0809 32.3999 97.2957 29.9813 96.1013 28.3088C95.0464 26.8072 93.3222 26.1536 91.7422 26.1536C89.5258 26.1536 87.4646 27.3229 86.5508 29.8277C85.4943 27.3229 84.0052 26.152 81.6493 26.152ZM145.769 26.152C140.319 26.152 137.296 30.9437 137.296 37.1242C137.296 43.2624 140.286 48.1936 145.769 48.1936C151.044 48.1936 154.39 43.3752 154.39 37.3186C154.39 31.0597 151.359 26.152 145.769 26.152ZM167.272 26.152C164.668 26.152 163.181 27.4545 162.129 30.1678H162.08V27.1301C162.013 26.8229 161.723 26.6097 161.394 26.5909H157.916C157.736 26.5868 157.561 26.6497 157.425 26.7673C157.289 26.885 157.202 27.0489 157.18 27.2273V47.065C157.184 47.2507 157.256 47.4285 157.383 47.5642C157.51 47.6999 157.682 47.7839 157.867 47.8001H161.59C161.784 47.7973 161.969 47.7189 162.106 47.5817C162.244 47.4444 162.322 47.2591 162.325 47.065V36.3875C162.325 35.0489 162.438 33.8278 162.961 32.6162C163.384 31.6553 164.201 31.0487 165.116 31.0487C167.715 31.0487 167.468 34.2166 167.468 36.3875V47.1638C167.492 47.3325 167.573 47.4878 167.698 47.6037C167.823 47.7195 167.984 47.7889 168.154 47.8001H171.925C172.295 47.8001 172.617 47.518 172.661 47.1638V34.6727C172.661 32.7525 172.665 30.0847 171.681 28.5C170.626 26.7899 168.957 26.152 167.272 26.152ZM122.011 26.4953C121.629 26.4953 121.326 26.7993 121.325 27.2304V30.0706C121.326 30.4954 121.619 30.8026 122.011 30.8058H128.477L121.08 41.7294C120.629 42.4332 120.591 43.231 120.591 43.6887V46.5791C120.591 46.996 121.044 47.449 121.472 47.2155C125.687 44.9145 130.739 45.1182 134.551 47.1669C135.013 47.4193 135.482 46.9459 135.482 46.5305V43.4928C135.471 43.2688 135.402 43.0515 135.282 42.8624C135.162 42.6733 134.994 42.5188 134.796 42.4144C132.632 41.1698 130.121 40.7889 127.742 40.8469L134.159 31.4422C134.753 30.5973 135.086 30.0879 135.09 29.6788V27.2304C135.09 26.8088 134.802 26.4953 134.404 26.4953H122.011ZM145.769 30.218C146.964 30.218 147.845 30.7509 148.268 32.1287C148.757 33.7165 148.807 35.6994 148.807 37.3703C148.807 39.9158 148.688 44.1292 145.769 44.1292C142.818 44.1292 142.83 38.9127 142.83 36.4878C142.83 34.0692 142.992 30.218 145.769 30.218ZM62.0561 37.4675V38.2998C62.0561 39.8061 62.111 41.0742 61.3696 42.4144C60.7708 43.5037 59.8303 44.1777 58.7738 44.1777C57.3318 44.1777 56.4713 43.0084 56.4713 41.3375C56.4728 38.0427 59.335 37.4675 62.0561 37.4675ZM111.431 37.4675V38.2998C111.431 39.8061 111.486 41.0742 110.744 42.4144C110.146 43.5037 109.21 44.1777 108.149 44.1777C106.705 44.1777 105.846 43.0084 105.846 41.3375C105.848 38.0427 108.707 37.4675 111.431 37.4675Z" fill="#5F6368"/>
<path d="M135.874 48.4404V51.2807H137.784V48.4404H135.874ZM80.4734 48.9295V69.1591H82.2368V67.3471C82.613 68.065 83.0409 68.6026 83.5598 68.9632C84.077 69.3237 84.6711 69.5024 85.3232 69.5024C86.6179 69.5024 87.7355 68.8409 88.7026 67.4944C89.6697 66.148 90.1729 64.1965 90.1729 61.7137C90.1729 60.0882 89.9644 58.7418 89.5365 57.5991C89.1086 56.4595 88.5364 55.6115 87.8217 55.052C87.1069 54.4924 86.295 54.1711 85.4219 54.1711C84.815 54.1646 84.2193 54.3345 83.7071 54.6601C83.1977 54.9861 82.7854 55.5175 82.3842 56.179V48.9295H80.4734ZM98.598 53.682C97.2687 53.682 96.2138 54.0754 95.463 54.8576C94.7122 55.6382 94.336 56.6461 94.336 57.8953C94.336 58.6211 94.4991 59.2339 94.7765 59.8061C95.0539 60.3782 95.4536 60.8375 95.9521 61.1776C96.4537 61.5177 97.4537 61.9645 98.9397 62.4504C99.9679 62.7811 100.582 63.0632 100.85 63.2827C101.239 63.604 101.438 64.0257 101.438 64.6056C101.438 65.2765 101.206 65.8361 100.752 66.2703C100.299 66.7076 99.6685 66.9066 98.8409 66.9066C98.0133 66.9066 97.3314 66.6747 96.833 66.1715C96.3345 65.6684 96.0649 64.9034 95.9521 63.8689L94.0414 64.2608C94.4724 67.4035 96.0399 68.9647 98.7437 68.9632C100.186 68.9632 101.289 68.554 102.123 67.6904C102.957 66.8267 103.396 65.6605 103.396 64.2608C103.396 63.5053 103.263 62.8501 103.004 62.3015C102.745 61.7528 102.39 61.3469 101.926 61.0287C101.46 60.7121 100.422 60.2888 98.8393 59.7559C97.6888 59.3531 97.0148 59.0584 96.7828 58.875C96.3925 58.5646 96.195 58.1414 96.195 57.6022C96.195 57.0505 96.3769 56.5834 96.7828 56.2307C97.1888 55.878 97.8142 55.6915 98.645 55.6915C100.106 55.6915 100.922 56.494 101.093 58.0913L102.955 57.7966C102.827 56.7856 102.606 55.9877 102.269 55.4454C101.932 54.9031 101.433 54.4454 100.799 54.1225C100.165 53.8011 99.4365 53.682 98.598 53.682ZM110.305 53.682C108.774 53.682 107.482 54.3121 106.484 55.6413C105.485 56.9705 105.014 58.8954 105.014 61.4221C105.014 63.8564 105.495 65.764 106.484 67.0556C107.473 68.3456 108.755 68.9663 110.354 68.9663C111.625 68.9663 112.678 68.5854 113.537 67.7907C114.398 66.996 115.022 65.8267 115.349 64.2639L113.39 63.9206C112.827 65.9223 111.79 66.9051 110.352 66.9082C109.437 66.9082 108.689 66.5195 108.05 65.684C107.41 64.847 107.048 63.6056 106.971 61.9613H115.396V61.2748C115.396 58.8029 114.904 56.947 113.926 55.6413C112.951 54.3356 111.765 53.682 110.305 53.682ZM121.914 53.682C121.456 53.682 121.056 53.8372 120.69 54.1711C120.323 54.5049 119.906 55.1977 119.466 56.2276V53.9736H117.751V68.6199H119.661V60.9801C119.661 59.9142 119.762 58.8891 120.005 57.9424C120.143 57.4 120.403 56.9721 120.74 56.6696C121.077 56.3671 121.461 56.2291 121.867 56.2291C122.317 56.2291 122.763 56.4094 123.238 56.7683L123.875 54.4657C123.207 53.9328 122.553 53.682 121.914 53.682ZM145.327 53.682C143.814 53.682 142.568 54.3184 141.604 55.5927C140.643 56.8655 140.134 58.7778 140.134 61.3234C140.134 63.8485 140.648 65.7624 141.604 67.054C142.559 68.344 143.753 68.9647 145.228 68.9647C146.446 68.9647 147.493 68.5117 148.363 67.5932C149.233 66.6747 149.763 65.3235 149.979 63.5774L148.117 63.2827C147.979 64.532 147.653 65.4301 147.137 66.0257C146.622 66.6182 146.001 66.9066 145.275 66.9066C144.35 66.9066 143.564 66.4756 142.973 65.5837C142.382 64.6918 142.092 63.2654 142.092 61.2732C142.092 59.3421 142.404 57.9486 143.023 57.0599C143.642 56.1711 144.43 55.6884 145.374 55.6884C146.004 55.6884 146.542 55.9329 146.99 56.4235C147.441 56.9125 147.741 57.69 147.921 58.6775L149.783 58.2856C149.559 56.7432 149.064 55.5786 148.264 54.8074C147.465 54.0347 146.495 53.682 145.327 53.682ZM156.251 53.682C154.719 53.682 153.428 54.3121 152.429 55.6413C151.431 56.9705 150.959 58.8954 150.959 61.4221C150.959 63.8564 151.44 65.764 152.429 67.0556C153.42 68.3456 154.7 68.9663 156.299 68.9663C157.567 68.9663 158.622 68.5854 159.483 67.7907C160.342 66.996 160.966 65.8267 161.295 64.2639L159.335 63.9206C158.773 65.9223 157.78 66.9051 156.348 66.9082C155.432 66.9082 154.636 66.5195 153.997 65.684C153.357 64.847 152.997 63.6056 152.918 61.9613H161.343V61.2748C161.343 58.8029 160.851 56.947 159.873 55.6413C158.901 54.3356 157.711 53.682 156.251 53.682ZM167.566 53.682C166.234 53.682 165.182 54.0754 164.431 54.8576C163.679 55.6382 163.304 56.6461 163.304 57.8953C163.304 58.6211 163.419 59.2339 163.696 59.8061C163.972 60.3766 164.37 60.8375 164.872 61.1776C165.37 61.5177 166.375 61.9645 167.859 62.4504C168.884 62.7811 169.55 63.0632 169.819 63.2827C170.207 63.604 170.406 64.0257 170.406 64.6056C170.406 65.2765 170.174 65.8361 169.72 66.2703C169.268 66.7076 168.637 66.9066 167.809 66.9066C166.98 66.9066 166.3 66.6747 165.801 66.1715C165.303 65.6684 164.981 64.9034 164.87 63.8689L162.959 64.2608C163.39 67.4035 164.955 68.9647 167.662 68.9632C169.105 68.9632 170.256 68.554 171.091 67.6904C171.927 66.8267 172.364 65.6605 172.364 64.2608C172.364 63.5053 172.231 62.8501 171.972 62.3015C171.714 61.7528 171.311 61.3469 170.845 61.0287C170.381 60.7121 169.391 60.2888 167.807 59.7559C166.657 59.3531 165.934 59.0584 165.701 58.875C165.311 58.5646 165.113 58.1414 165.113 57.6022C165.113 57.0505 165.343 56.5834 165.749 56.2307C166.155 55.878 166.784 55.6915 167.612 55.6915C169.072 55.6915 169.889 56.494 170.06 58.0913L171.922 57.7966C171.792 56.7856 171.574 55.9877 171.236 55.4454C170.876 54.878 170.367 54.4204 169.765 54.1225C169.137 53.8011 168.403 53.682 167.566 53.682ZM123.873 53.9751L128.135 68.6214H129.947L134.209 53.9751H132.25L129.751 62.9394C129.449 64.0225 129.182 64.9583 129.016 65.7311C128.808 64.7577 128.608 63.7357 128.329 62.7435L125.881 53.9751H123.873ZM135.874 53.9751V68.6214H137.784V53.9751H135.874ZM73.0782 54.1711C71.5624 54.1711 70.343 54.8513 69.3555 56.179C68.3664 57.5082 67.8366 59.433 67.8366 61.9598C67.8366 64.394 68.3256 66.253 69.3069 67.543C70.2881 68.8331 71.5938 69.5024 73.1769 69.5024C74.434 69.5024 75.4607 69.0729 76.3118 68.2782C77.1614 67.4835 77.7492 66.3141 78.0752 64.7514L76.1645 64.4567C75.608 66.4584 74.597 67.4412 73.1769 67.4443C72.2694 67.4443 71.5076 67.0556 70.8743 66.2201C70.2411 65.3831 69.8727 64.1417 69.7959 62.4974H78.1223L78.1708 61.8108C78.1708 59.339 77.6693 57.4345 76.7006 56.1288C75.7319 54.8231 74.5218 54.1711 73.0782 54.1711ZM51.5742 54.5143L55.0038 69.1607H57.0117L59.2657 57.8938L59.6576 60.3923L61.4696 69.1607H63.4289L66.9071 54.5143H65.0951L63.1844 62.988L62.548 65.8282L61.9602 62.988L60.2956 54.5143H58.3362L56.5728 63.0868L55.985 66.1245L55.2985 62.9896L53.5351 54.5159L51.5742 54.5143ZM173.493 54.6617V55.3482H175.355V60.2465H176.09V55.3482H177.952V54.6617H173.493ZM178.686 54.6617V60.245H179.372V55.494L180.988 60.245H181.675L183.291 55.5912V60.245H184.026V54.6617H182.998L181.675 58.5803C181.542 58.9722 181.446 59.2559 181.38 59.4612L181.085 58.6289L179.762 54.6617H178.686ZM110.255 55.6899C111.207 55.6899 111.99 56.1508 112.606 57.0614C113.03 57.6853 113.304 58.6352 113.39 59.9017H107.072C107.131 58.6164 107.495 57.6242 108.1 56.8639C108.705 56.1037 109.401 55.6899 110.255 55.6899ZM156.202 55.6899C157.15 55.6899 157.937 56.1508 158.553 57.0614C158.976 57.6853 159.251 58.6352 159.337 59.9017H153.019C153.078 58.6164 153.442 57.6242 154.047 56.8639C154.65 56.1069 155.346 55.6899 156.202 55.6899ZM73.0782 56.2291C74.0186 56.2291 74.7742 56.69 75.3808 57.6007C75.7993 58.2245 76.0783 59.1744 76.1645 60.4409H69.9433C70.0028 59.1556 70.321 58.1148 70.9229 57.3546C71.5201 56.5959 72.2302 56.2291 73.0782 56.2291ZM85.226 56.2291C86.0755 56.2291 86.7981 56.7009 87.3812 57.6007C87.9643 58.5019 88.2135 59.8907 88.2135 61.814C88.2135 63.6871 87.9377 65.0837 87.3326 66.0273C86.7276 66.9709 86.0066 67.4474 85.226 67.4474C84.6523 67.4474 84.1303 67.2546 83.6585 66.8596C83.1851 66.4646 82.8387 65.8988 82.5801 65.1448C82.3215 64.3909 82.1882 63.231 82.1882 61.7152C82.1882 59.9299 82.5064 58.5929 83.1193 57.6492C83.7322 56.7056 84.4454 56.2291 85.226 56.2291Z" fill="#5F6368"/>
<path d="M24.1173 40.6997L16.8192 43.8346L23.5781 46.725L31.4153 43.8346L24.1173 40.6997ZM13.1451 44.6183L12.9005 58.7254L23.5781 63.4278V48.7815L13.1451 44.6183ZM35.0895 44.6183L25.4402 48.2924V62.1049L35.0895 58.1862V44.6183ZM46.6009 0.729492L39.2526 3.86441L46.0617 6.7548L53.899 3.86441L46.6009 0.729492ZM36.4124 4.89423V19.0013L45.5225 21.6472L45.8172 8.81287L36.4124 4.89423ZM56.7894 5.67796L48.1683 9.35208V23.2147L56.7894 19.296V5.67796ZM12.0917 20.5845L4.79364 23.7194L11.5525 26.6098L19.3898 23.7194L12.0917 20.5845ZM1.11952 24.5031L0.875 38.6102L11.5525 43.3126V28.6663L1.11952 24.5031ZM23.0639 24.5031L13.4147 28.1772V41.9897L23.0639 38.071V24.5031ZM35.6036 20.0641L28.3055 23.199L35.0644 26.0894L42.9017 23.199L35.6036 20.0641ZM24.6314 23.9827L24.3869 38.0898L35.0644 42.7922V28.1475L24.6314 23.9827ZM46.5758 23.9827L36.9265 27.6568V41.4693L46.5758 37.5506V23.9827ZM69.5657 0.729492L62.2676 3.86441L69.0265 6.7548L76.8638 3.86441L69.5657 0.729492ZM58.5935 4.64814L58.349 18.7553L69.0265 23.4576V8.81287L58.5935 4.64814ZM80.5379 4.64814L70.8886 8.32226V22.1347L80.5379 18.2161V4.64814Z" fill="#F7A80D"/>
</g>
<defs>
<clipPath id="clip0_230_4970">
<rect width="183.148" height="68.7904" fill="white" transform="translate(0.875 0.72168)"/>
</clipPath>
</defs>
</svg>
