<svg width="19" height="16" viewBox="0 0 19 16" fill="none" xmlns="http://www.w3.org/2000/svg">
<path d="M17.9607 8.55468L11.5309 15.052C11.3968 15.1875 11.215 15.2636 11.0254 15.2636C10.8358 15.2636 10.654 15.1875 10.5199 15.052C10.3859 14.9166 10.3106 14.7329 10.3106 14.5413C10.3106 14.3497 10.3859 14.166 10.5199 14.0305L15.7308 8.76584H1.73786C1.54839 8.76584 1.36667 8.68978 1.23269 8.5544C1.09871 8.41901 1.02344 8.23538 1.02344 8.04391C1.02344 7.85245 1.09871 7.66882 1.23269 7.53343C1.36667 7.39805 1.54839 7.32199 1.73786 7.32199L15.7308 7.32199L10.5199 2.05731C10.3859 1.92185 10.3106 1.73812 10.3106 1.54655C10.3106 1.35498 10.3859 1.17125 10.5199 1.03578C10.654 0.900321 10.8358 0.824219 11.0254 0.824219C11.215 0.824219 11.3968 0.900321 11.5309 1.03578L17.9607 7.53315C18.0271 7.6002 18.0798 7.67982 18.1158 7.76746C18.1517 7.8551 18.1702 7.94904 18.1702 8.04391C18.1702 8.13879 18.1517 8.23273 18.1158 8.32037C18.0798 8.40801 18.0271 8.48763 17.9607 8.55468Z" fill="white" stroke="white" stroke-width="0.3"/>
</svg>
