<svg width="173" height="51" viewBox="0 0 173 51" fill="none" xmlns="http://www.w3.org/2000/svg">
<g clip-path="url(#clip0_230_4968)">
<path d="M30.4145 47.6233C38.6105 46.1755 45.3799 44.9772 45.4576 44.9608L45.599 44.9307L37.8612 35.727C33.6055 30.665 30.1234 26.5035 30.1234 26.4801C30.1234 26.4345 38.1134 4.43209 38.1583 4.35371C38.1734 4.32758 43.6108 13.7152 51.3389 27.1095C58.5739 39.65 64.5393 49.9893 64.5946 50.0861L64.6954 50.2623L40.1042 50.2593L15.513 50.2563L30.4145 47.624V47.6233ZM124.719 45.3973C120.976 45.1575 118.799 43.0256 118.222 39.036C118.068 37.9747 118.068 37.9473 118.052 31.0573L118.037 24.3888H121.35L121.363 30.8389C121.375 36.6522 121.382 37.3339 121.438 37.7429C121.663 39.4024 122.113 40.5186 122.877 41.3195C123.489 41.9607 124.205 42.3362 125.197 42.5355C125.665 42.6293 126.995 42.6293 127.422 42.5355C128.427 42.3145 129.233 41.877 129.943 41.1668C130.753 40.3568 131.353 39.2081 131.643 37.9087L131.74 37.4709L131.751 30.9662L131.762 24.4615H135.145V44.9126H131.797V43.2903C131.797 42.1882 131.785 41.672 131.759 41.6803C131.738 41.6874 131.653 41.819 131.568 41.9728C130.991 43.0246 130.03 43.9867 128.977 44.5666C127.715 45.2613 126.449 45.5082 124.719 45.3973ZM162.714 45.3806C161.392 45.2814 160.001 44.8272 158.864 44.1237C156.467 42.6411 155.049 40.1974 154.634 36.8341C154.49 35.6704 154.473 34.1073 154.592 33.1181C154.86 30.9086 155.729 28.7392 156.965 27.1909C157.282 26.7936 158.001 26.0748 158.398 25.7579C159.467 24.9034 160.719 24.3061 162.055 24.0123C162.831 23.8424 164.197 23.7627 165.021 23.8391C167.091 24.031 168.989 25.0058 170.278 26.54C171.589 28.0987 172.308 30.2768 172.401 32.9583C172.415 33.3787 172.419 34.1157 172.409 34.5964L172.39 35.4694L165.139 35.4788L157.889 35.4878V35.8114C157.889 36.7963 158.128 37.9185 158.542 38.8728C158.899 39.6959 159.513 40.5946 160.017 41.0298C161.049 41.9215 162.311 42.4555 163.693 42.5841C164.205 42.6317 165.511 42.5811 166.095 42.4917C167.76 42.2357 169.344 41.5825 170.623 40.6235C170.773 40.5109 170.917 40.4057 170.943 40.3893C170.98 40.3659 170.989 40.6606 170.988 41.8997L170.987 43.439L170.644 43.6507C169.197 44.5454 167.54 45.1199 165.786 45.335C165.262 45.3993 163.34 45.4275 162.714 45.3806ZM169.024 32.3983C169.024 30.7485 168.329 28.9154 167.345 27.9718C166.642 27.2985 165.794 26.8864 164.785 26.7303C164.307 26.6566 163.301 26.6848 162.798 26.7866C161.734 27.0017 160.853 27.4693 160.086 28.228C159.278 29.0263 158.672 29.9957 158.291 31.1005C158.154 31.4978 157.994 32.15 157.944 32.5128L157.921 32.6857H169.024L169.024 32.3983ZM70.6695 44.8674C70.6782 44.8426 73.1404 38.3744 76.1411 30.4935L81.597 16.1649H85.1033L85.2487 16.5381C85.6932 17.6777 96.1712 44.8821 96.1712 44.8962C96.1712 44.9056 95.332 44.9129 94.3063 44.9129L92.4411 44.9123L90.931 40.8918L89.4209 36.871H77.2597L77.2067 37.0073C77.1776 37.0823 76.5324 38.8916 75.773 41.0278L74.3919 44.9116L72.523 44.9123C71.0437 44.9126 70.6571 44.9035 70.6695 44.8674ZM88.3111 33.8025C88.3111 33.7961 87.2948 31.0409 86.0527 27.68C83.7289 21.392 83.5989 21.0138 83.4153 20.0042C83.3292 19.5308 83.2853 19.5174 83.2344 19.9496C83.1976 20.2584 83.0395 20.9492 82.9175 21.3324C82.8569 21.5223 81.8104 24.3945 80.5917 27.7148C79.3734 31.0352 78.3765 33.766 78.3765 33.7831C78.3765 33.7998 80.6118 33.8142 83.3436 33.8142C86.0758 33.8142 88.3111 33.8089 88.3111 33.8025ZM97.2994 44.3893V43.8658L103.358 35.5374L109.416 27.2093L103.931 27.1913L98.4457 27.1728L98.436 25.781L98.4266 24.3891H114.293V25.3294L108.235 33.7023C104.902 38.3077 102.176 42.0836 102.176 42.093C102.176 42.1024 104.869 42.1105 108.162 42.1105H114.148V44.9123H97.2994V44.3893ZM141.756 44.8885C141.742 44.8754 141.731 40.2577 141.731 34.6269L141.732 24.3891H145.043V26.4995C145.043 27.6606 145.057 28.6103 145.075 28.6103C145.092 28.6103 145.172 28.4203 145.254 28.1882C145.626 27.1239 146.271 26.1294 147.103 25.3391C147.853 24.6273 148.709 24.2015 149.719 24.0384C150.003 23.9925 150.243 23.9838 150.811 23.9989C151.524 24.0173 151.896 24.0692 152.33 24.2112L152.467 24.2558V27.6927L152.076 27.4971C151.385 27.1514 150.703 27.0147 149.883 27.0569C149.35 27.0847 149 27.1534 148.573 27.3132C147.707 27.6329 146.973 28.2327 146.486 29.0173C145.767 30.1663 145.253 31.6425 145.102 32.9995C145.075 33.2427 145.058 35.2262 145.052 39.1361L145.042 44.9129H143.411C142.514 44.9129 141.769 44.9022 141.756 44.8888V44.8885ZM0.902344 44.8168C0.902344 44.8041 4.54831 38.4749 9.00461 30.7521L17.1069 16.7109L26.5487 8.78622C31.7423 4.42841 36.005 0.857475 36.0221 0.850775C36.0388 0.844075 35.9708 1.01626 35.87 1.23266C35.7695 1.44939 31.1558 11.3458 25.6171 23.2244L15.5479 44.8218L8.2251 44.8309C4.19792 44.8359 0.902344 44.8298 0.902344 44.8168Z" fill="#0089D6"/>
</g>
<defs>
<clipPath id="clip0_230_4968">
<rect width="171.512" height="49.4115" fill="white" transform="translate(0.902344 0.850586)"/>
</clipPath>
</defs>
</svg>
