<svg width="106" height="104" viewBox="0 0 106 104" fill="none" xmlns="http://www.w3.org/2000/svg">
<path fill-rule="evenodd" clip-rule="evenodd" d="M20.2188 51.6002C20.2188 33.7477 34.6911 19.2754 52.5435 19.2754C70.396 19.2754 84.8683 33.7477 84.8683 51.6002C84.8683 69.4527 70.396 83.925 52.5435 83.925C34.6911 83.925 20.2188 69.4527 20.2188 51.6002Z" stroke="#1727FF" stroke-width="1.8" stroke-linecap="round" stroke-linejoin="round"/>
<path fill-rule="evenodd" clip-rule="evenodd" d="M24.667 51.6001C24.667 36.2044 37.1478 23.7236 52.5435 23.7236C67.9393 23.7236 80.42 36.2044 80.42 51.6001C80.42 66.9959 67.9393 79.4767 52.5435 79.4767C37.1478 79.4767 24.667 66.9959 24.667 51.6001Z" stroke="#1727FF" stroke-width="1.2" stroke-linecap="round" stroke-linejoin="round"/>
<path d="M60.9441 46.2341H44.1441C42.8187 46.2341 41.7441 47.7135 41.7441 49.5384V61.1035C41.7441 62.9285 42.8187 64.4079 44.1441 64.4079H60.9441C62.2696 64.4079 63.3441 62.9285 63.3441 61.1035V49.5384C63.3441 47.7135 62.2696 46.2341 60.9441 46.2341Z" stroke="#1727FF" stroke-width="1.8" stroke-linecap="round" stroke-linejoin="round"/>
<path d="M46.5439 46.2341V41.4341C46.5439 39.8428 47.1761 38.3167 48.3013 37.1914C49.4265 36.0662 50.9526 35.4341 52.5439 35.4341C54.1352 35.4341 55.6614 36.0662 56.7866 37.1914C57.9118 38.3167 58.5439 39.8428 58.5439 41.4341V46.2341" stroke="#1727FF" stroke-width="1.8" stroke-linecap="round" stroke-linejoin="round"/>
<circle cx="52.9395" cy="55.3442" r="5.00449" stroke="#1727FF" stroke-width="1.2"/>
<circle cx="52.9396" cy="55.3443" r="2.17354" fill="#1727FF" stroke="#1727FF" stroke-width="1.2"/>
<path d="M41.4651 21.2709C41.0425 19.6812 40.2067 18.2155 39.0235 17.0322C37.2579 15.2666 34.8631 14.2747 32.3661 14.2747C29.8691 14.2747 27.4744 15.2666 25.7087 17.0322C23.9431 18.7979 22.9512 21.1926 22.9512 23.6896C22.9512 26.1866 23.9431 28.5814 25.7087 30.347C26.1645 30.8027 26.6621 31.2069 27.1926 31.5558" stroke="#1727FF" stroke-width="1.54876"/>
<path d="M38.6326 22.4183C38.6326 22.4183 34.4941 24.3592 33.2947 25.5586C32.0953 26.758 29.1051 29.1928 29.1051 29.1928C28.6485 28.9224 28.2236 28.594 27.842 28.2124C26.6426 27.013 25.9688 25.3862 25.9688 23.6899C25.9688 21.9937 26.6426 20.3669 27.842 19.1675C29.0415 17.968 30.6682 17.2942 32.3645 17.2942C34.0607 17.2942 35.6875 17.968 36.887 19.1675C37.7821 20.0626 38.3845 21.1958 38.6326 22.4183ZM38.6326 22.4183C38.7169 22.8338 38.6326 21.988 38.6326 22.4183Z" stroke="#1727FF" stroke-width="1.0521"/>
<path d="M25.3907 35.6197C24.4727 35.0797 23.4146 34.8259 22.3516 34.8907C21.2887 34.9556 20.2692 35.3361 19.4237 35.9836C18.5957 35.1055 17.8588 34.1457 17.2246 33.1188C16.2435 31.5338 15.5399 29.8548 15.1028 28.1387L15.1665 28.0993C15.94 27.6208 16.5788 26.9531 17.0225 26.1592C17.4663 25.3654 17.7004 24.4715 17.7027 23.562C17.7051 22.6525 17.4756 21.7574 17.0359 20.9612C16.5962 20.1651 15.9609 19.4941 15.1898 19.0117C15.9441 16.2559 17.3493 13.7217 19.2872 11.6222C20.1312 12.1344 21.1005 12.4032 22.0877 12.3987C23.075 12.3942 24.0418 12.1168 24.8811 11.5969C25.7207 11.0775 26.4003 10.336 26.8446 9.4543C27.2889 8.57264 27.4806 7.58526 27.3985 6.6014C30.1419 5.80324 33.0369 5.67576 35.8398 6.22969C35.9282 7.14133 36.2492 8.01502 36.7719 8.76712C37.2946 9.51923 38.0017 10.1246 38.8253 10.5252C39.6489 10.9259 40.5616 11.1084 41.476 11.0554C42.3904 11.0023 43.2759 10.7155 44.0476 10.2222C45.4208 11.409 46.6048 12.7984 47.5588 14.3424C48.2065 15.3889 48.7331 16.4769 49.1426 17.5891C48.186 18.0571 47.3907 18.7998 46.8586 19.7223" stroke="#1727FF" stroke-width="1.54876" stroke-linejoin="round"/>
<path d="M64.0114 81.8062C64.434 83.3959 65.2698 84.8617 66.453 86.0449C68.2187 87.8106 70.6134 88.8025 73.1104 88.8025C75.6074 88.8025 78.0022 87.8106 79.7678 86.0449C81.5335 84.2793 82.5254 81.8845 82.5254 79.3875C82.5254 76.8905 81.5335 74.4958 79.7678 72.7301C79.3121 72.2744 78.8145 71.8703 78.284 71.5214" stroke="#1727FF" stroke-width="1.54876"/>
<path d="M66.844 80.6589C66.844 80.6589 70.9824 78.718 72.1819 77.5185C73.3813 76.3191 76.3715 73.8843 76.3715 73.8843C76.8281 74.1547 77.2529 74.4831 77.6345 74.8647C78.834 76.0642 79.5078 77.691 79.5078 79.3872C79.5078 81.0835 78.834 82.7103 77.6345 83.9097C76.4351 85.1091 74.8083 85.783 73.1121 85.783C71.4158 85.783 69.789 85.1091 68.5896 83.9097C67.6944 83.0145 67.092 81.8813 66.844 80.6589ZM66.844 80.6589C66.7597 80.2433 66.844 81.0892 66.844 80.6589Z" stroke="#1727FF" stroke-width="1.0521"/>
<path d="M80.0869 67.4577C81.0048 67.9977 82.0629 68.2515 83.1259 68.1866C84.1889 68.1218 85.2083 67.7413 86.0538 67.0938C86.8819 67.9719 87.6187 68.9317 88.2529 69.9586C89.234 71.5436 89.9377 73.2226 90.3747 74.9387L90.311 74.9781C89.5376 75.4566 88.8988 76.1243 88.455 76.9181C88.0112 77.712 87.7771 78.6059 87.7748 79.5154C87.7725 80.4249 88.002 81.32 88.4416 82.1162C88.8813 82.9123 89.5167 83.5833 90.2877 84.0657C89.5334 86.8214 88.1282 89.3557 86.1903 91.4552C85.3463 90.943 84.3771 90.6742 83.3898 90.6787C82.4025 90.6831 81.4358 90.9606 80.5964 91.4805C79.7568 91.9999 79.0773 92.7414 78.633 93.6231C78.1887 94.5047 77.9969 95.4921 78.079 96.476C75.3356 97.2741 72.4406 97.4016 69.6377 96.8477C69.5493 95.9361 69.2284 95.0624 68.7056 94.3103C68.1829 93.5582 67.4759 92.9528 66.6522 92.5522C65.8286 92.1515 64.9159 91.969 64.0015 92.022C63.0871 92.0751 62.2017 92.3619 61.4299 92.8551C60.0567 91.6684 58.8727 90.279 57.9188 88.735C57.271 87.6885 56.7444 86.6005 56.3349 85.4882C57.2916 85.0203 58.0868 84.2775 58.6189 83.3551" stroke="#1727FF" stroke-width="1.54876" stroke-linejoin="round"/>
<path d="M6.8949 91.9943H24.4972L31.8832 82.9833L33.0303 81.5464M6.8949 91.9943C7.50473 91.3845 7.84733 90.5574 7.84733 89.695C7.84733 88.8325 7.50473 88.0054 6.8949 87.3956C6.28508 86.7858 5.45799 86.4432 4.59557 86.4432C3.73315 86.4432 2.90604 86.7858 2.29622 87.3956C1.6864 88.0054 1.34381 88.8325 1.34381 89.695C1.34381 90.5574 1.6864 91.3845 2.29622 91.9943C2.90604 92.6041 3.73315 92.9467 4.59557 92.9467C5.45799 92.9467 6.28508 92.6041 6.8949 91.9943Z" stroke="#1727FF" stroke-width="1.8" stroke-linecap="round" stroke-linejoin="round"/>
<path d="M98.5912 9.45949L80.9889 9.45949L71.627 20.9465M98.5912 9.45949C97.9814 10.0693 97.6388 10.8964 97.6388 11.7588C97.6388 12.6212 97.9814 13.4483 98.5912 14.0582C99.201 14.668 100.028 15.0106 100.891 15.0106C101.753 15.0106 102.58 14.668 103.19 14.0582C103.8 13.4483 104.142 12.6212 104.142 11.7588C104.142 10.8964 103.8 10.0693 103.19 9.45949C102.58 8.84966 101.753 8.50707 100.891 8.50707C100.028 8.50707 99.201 8.84966 98.5912 9.45949Z" stroke="#1727FF" stroke-width="1.8" stroke-linecap="round" stroke-linejoin="round"/>
<path d="M82.4414 13.9927H91.6418" stroke="#1727FF" stroke-width="1.8" stroke-linecap="round" stroke-linejoin="round"/>
<path d="M12.3936 86.9641H22.8643" stroke="#1727FF" stroke-width="1.8" stroke-linecap="round" stroke-linejoin="round"/>
</svg>
