<svg width="98" height="98" viewBox="0 0 98 98" fill="none" xmlns="http://www.w3.org/2000/svg">
<path fill-rule="evenodd" clip-rule="evenodd" d="M46.8907 61.1785C47.44 61.4291 48.003 61.6569 48.5795 61.862C49.4725 62.1796 50.386 62.4364 51.3136 62.6307C51.6819 62.7073 52.0125 62.9085 52.2499 63.2003C52.4873 63.4921 52.617 63.8568 52.6171 64.2329H52.621V68.9471H58.6749V64.2329C58.6749 63.8365 58.8184 63.4535 59.0789 63.1547C59.3394 62.8559 59.6993 62.6615 60.092 62.6075C62.6211 62.0642 65.0279 61.0578 67.191 59.6392C67.506 59.4332 67.8823 59.3418 68.2567 59.3805C68.6311 59.4192 68.9808 59.5856 69.2471 59.8516L72.5827 63.1874L76.8639 58.9062L73.5283 55.5706C73.253 55.2954 73.0846 54.9312 73.0531 54.5432C73.0216 54.1552 73.1292 53.7686 73.3564 53.4526C74.7754 51.2733 75.7768 48.8492 76.3096 46.3038C76.3862 45.9355 76.5874 45.6049 76.8792 45.3675C77.171 45.1301 77.5357 45.0004 77.9118 45.0003V44.9964H82.626V38.9415H77.9114C77.5153 38.9416 77.1326 38.7983 76.8338 38.5383C76.535 38.2782 76.3404 37.9188 76.286 37.5264C75.7428 34.9973 74.7365 32.5905 73.3179 30.4274C73.1118 30.1124 73.0205 29.7361 73.0592 29.3617C73.0979 28.9873 73.2642 28.6376 73.5303 28.3713L76.8659 25.0359L72.5847 20.7545L69.2491 24.0901C68.9739 24.3653 68.6098 24.5337 68.2218 24.5652C67.8338 24.5967 67.4473 24.4892 67.1313 24.262C64.9522 22.8435 62.5283 21.8425 59.9833 21.3101C59.6151 21.2334 59.2844 21.0323 59.0471 20.7405C58.8097 20.4488 58.68 20.0841 58.6798 19.708H58.6759V14.9914H52.621V19.7051C52.621 20.1015 52.4774 20.4845 52.2169 20.7833C51.9564 21.082 51.5966 21.2764 51.2039 21.3304C48.6747 21.8735 46.2679 22.88 44.1049 24.2989C43.7899 24.5049 43.4136 24.5963 43.0392 24.5576C42.6647 24.5189 42.315 24.3525 42.0488 24.0864H42.0478L38.7122 20.7508L34.431 25.032L37.7666 28.3674C38.0424 28.6427 38.2113 29.0071 38.243 29.3955C38.2747 29.7839 38.1671 30.1708 37.9395 30.4871C36.5204 32.666 35.519 35.0898 34.9863 37.6349C34.9096 38.0032 34.7085 38.3338 34.4167 38.5712C34.1249 38.8086 33.7602 38.9382 33.3841 38.9384V38.9423H28.6699V44.9964H33.3843C33.7807 44.9964 34.1637 45.1399 34.4625 45.4004C34.7613 45.6609 34.9557 46.0208 35.0097 46.4135C35.5528 48.9426 36.5591 51.3493 37.9778 53.5123C38.1839 53.8273 38.2753 54.2036 38.2366 54.5781C38.198 54.9525 38.0316 55.3023 37.7655 55.5686V55.5696L36.2519 57.0833C39.1747 58.0001 42.1976 58.561 45.2548 58.7537H45.2595C45.6946 58.7537 46.1119 58.9265 46.4196 59.2342C46.7273 59.5419 46.9001 59.9592 46.9001 60.3943C46.9001 60.6584 46.8942 60.9176 46.8901 61.1785H46.8907ZM15.241 74.0387C14.9351 73.7311 14.7639 73.3145 14.7651 72.8806C14.7663 72.4467 14.9398 72.0311 15.2475 71.7252C15.5551 71.4192 15.9717 71.248 16.4056 71.2492C16.8395 71.2504 17.2551 71.424 17.561 71.7316L21.096 75.2686L29.3401 67.0245C29.4915 66.8678 29.6725 66.7428 29.8727 66.6568C30.0728 66.5708 30.2881 66.5255 30.5059 66.5237C30.7238 66.5218 30.9398 66.5633 31.1414 66.6458C31.3431 66.7282 31.5263 66.8501 31.6803 67.0041C31.8343 67.1582 31.9562 67.3413 32.0387 67.543C32.1211 67.7446 32.1627 67.9606 32.1608 68.1785C32.1589 68.3963 32.1136 68.6116 32.0276 68.8118C31.9416 69.0119 31.8167 69.193 31.66 69.3443L22.2592 78.7451L22.2559 78.742L22.2528 78.7451C22.1005 78.8966 21.9198 79.0166 21.7211 79.0983C21.5224 79.18 21.3095 79.2217 21.0947 79.2211C20.8798 79.2205 20.6672 79.1776 20.4689 79.0949C20.2706 79.0121 20.0906 78.8911 19.9391 78.7387L15.2412 74.0383L15.241 74.0387ZM23.4507 54.2725C29.3723 58.5512 36.322 61.1841 43.5922 61.903C43.1521 75.3754 35.8938 88.2086 23.4505 94.1823C20.0462 92.5489 4.02117 83.7151 3.30873 61.903C10.5785 61.1818 17.5279 58.5491 23.4507 54.2723V54.2725ZM32.8586 55.8376L34.5317 54.1644C33.9978 53.2409 33.5251 52.2834 33.1166 51.298C32.7093 50.3149 32.3673 49.3059 32.0931 48.2776H27.0293C26.5942 48.2776 26.1769 48.1048 25.8692 47.7971C25.5615 47.4894 25.3887 47.0721 25.3887 46.637V37.3008C25.3887 36.8657 25.5615 36.4484 25.8692 36.1407C26.1769 35.8331 26.5942 35.6602 27.0293 35.6602H32.0927C32.6431 33.5995 33.4631 31.6205 34.5315 29.7745L30.9508 26.1938C30.6432 25.8861 30.4704 25.4689 30.4704 25.0339C30.4704 24.5989 30.6432 24.1816 30.9508 23.874L37.5521 17.2727C37.8597 16.9651 38.277 16.7922 38.7121 16.7922C39.1472 16.7922 39.5644 16.9651 39.8721 17.2727L43.4526 20.8534C45.2991 19.785 47.2785 18.965 49.3395 18.4144V13.351C49.3395 12.9159 49.5124 12.4986 49.8201 12.1909C50.1278 11.8832 50.545 11.7104 50.9802 11.7104H60.3153C60.7504 11.7104 61.1677 11.8832 61.4754 12.1909C61.7831 12.4986 61.9559 12.9159 61.9559 13.351V18.4144C64.0172 18.9648 65.9967 19.785 67.8433 20.8536L71.4236 17.2729C71.7313 16.9653 72.1485 16.7925 72.5836 16.7925C73.0187 16.7925 73.436 16.9653 73.7436 17.2729L80.3447 23.8742C80.6523 24.1818 80.8251 24.5991 80.8251 25.0342C80.8251 25.4693 80.6523 25.8865 80.3447 26.1942L76.7642 29.7745C77.8326 31.6205 78.6526 33.5995 79.203 35.6602H84.2666C84.7017 35.6602 85.119 35.8331 85.4267 36.1407C85.7344 36.4484 85.9072 36.8657 85.9072 37.3008V46.6362C85.9072 47.0713 85.7344 47.4886 85.4267 47.7963C85.119 48.104 84.7017 48.2768 84.2666 48.2768H79.2032C78.6527 50.3379 77.8327 52.3173 76.7644 54.1638L80.3451 57.7443C80.6527 58.0519 80.8256 58.4692 80.8256 58.9043C80.8256 59.3394 80.6527 59.7566 80.3451 60.0643L73.7438 66.6656C73.4362 66.9732 73.0189 67.146 72.5838 67.146C72.1487 67.146 71.7315 66.9732 71.4238 66.6656L67.8433 63.0847C65.9969 64.1532 64.0174 64.9733 61.9564 65.5237V70.5869C61.9564 71.022 61.7835 71.4393 61.4758 71.747C61.1682 72.0546 60.7509 72.2275 60.3157 72.2275H50.9804C50.5452 72.2275 50.1279 72.0546 49.8203 71.747C49.5126 71.4393 49.3397 71.022 49.3397 70.5869V65.5247C48.7108 65.3568 48.0942 65.1654 47.4899 64.9505C47.2284 64.8577 46.9686 64.7604 46.7106 64.6587C46.3147 69.4734 45.0693 74.18 43.0322 78.5605C47.0917 79.9546 51.3551 80.6631 55.6473 80.657C56.0825 80.657 56.4998 80.8299 56.8074 81.1376C57.1151 81.4452 57.288 81.8625 57.288 82.2976C57.288 82.7328 57.1151 83.1501 56.8074 83.4577C56.4998 83.7654 56.0825 83.9383 55.6473 83.9383C50.8257 83.9399 46.0398 83.1105 41.4998 81.4866C34.7683 93.0997 24.1297 97.4636 24.0844 97.4827C23.8836 97.5674 23.6678 97.6111 23.4499 97.6111C23.2319 97.6111 23.0161 97.5674 22.8154 97.4827C22.7505 97.4552 0 88.1272 0 60.3943H0.00369133C0.0036993 59.9768 0.163217 59.575 0.449618 59.2713C0.73602 58.9675 1.12766 58.7846 1.54444 58.76C6.4795 58.4621 11.3092 57.2056 15.7637 55.0606C13.6231 48.5222 13.1212 41.5581 14.302 34.7802C15.4829 28.0024 18.3104 21.6184 22.536 16.1891L16.7813 17.4154C16.3564 17.5055 15.9131 17.4231 15.549 17.1863C15.1848 16.9495 14.9296 16.5778 14.8396 16.1529C14.7495 15.728 14.8319 15.2847 15.0687 14.9205C15.3055 14.5563 15.6772 14.3012 16.1021 14.2111L26.589 11.9757C26.8328 11.9081 27.0889 11.8977 27.3374 11.9454C27.5859 11.993 27.82 12.0975 28.0215 12.2506C28.2229 12.4037 28.3863 12.6012 28.4987 12.8279C28.6112 13.0545 28.6698 13.3041 28.6699 13.5571V22.3398C28.6699 22.7749 28.4971 23.1922 28.1894 23.4999C27.8817 23.8075 27.4644 23.9804 27.0293 23.9804C26.5942 23.9804 26.1769 23.8075 25.8692 23.4999C25.5615 23.1922 25.3887 22.7749 25.3887 22.3398V17.8543C21.4565 22.7994 18.7916 28.6301 17.6258 34.8395C16.4601 41.049 16.8286 47.4492 18.6994 53.4838C19.9925 52.7142 21.2388 51.8688 22.4319 50.9519C22.7182 50.7245 23.0725 50.5996 23.4382 50.5971C23.8038 50.5946 24.1598 50.7147 24.4492 50.9381C27.0307 52.9244 29.8566 54.571 32.8574 55.8376H32.8586ZM85.9072 66.0844C91.3803 59.2401 94.3537 50.7329 94.3359 41.9694C94.3359 20.6024 77.015 3.28125 55.6479 3.28125C55.2128 3.28125 54.7955 3.1084 54.4879 2.80072C54.1802 2.49305 54.0073 2.07575 54.0073 1.64062C54.0073 1.2055 54.1802 0.788205 54.4879 0.480528C54.7955 0.172851 55.2128 0 55.6479 0C78.8265 0 97.6172 18.7905 97.6172 41.9692C97.6254 51.3104 94.5074 60.3857 88.7599 67.7494L94.5146 66.5232C94.725 66.4786 94.9421 66.4759 95.1535 66.5152C95.365 66.5546 95.5666 66.6351 95.7469 66.7524C95.9272 66.8696 96.0827 67.0212 96.2044 67.1985C96.3261 67.3758 96.4117 67.5754 96.4563 67.7858C96.5009 67.9962 96.5037 68.2133 96.4643 68.4248C96.425 68.6362 96.3445 68.8379 96.2272 69.0182C96.11 69.1985 95.9584 69.3539 95.7811 69.4757C95.6037 69.5974 95.4042 69.683 95.1938 69.7276L84.7069 71.9629C84.4631 72.0309 84.207 72.0415 83.9584 71.994C83.7099 71.9465 83.4757 71.8421 83.2741 71.6891C83.0726 71.536 82.9092 71.3385 82.7967 71.1118C82.6843 70.8851 82.6257 70.6355 82.6258 70.3824V61.5991C82.6258 61.164 82.7986 60.7467 83.1063 60.439C83.414 60.1313 83.8313 59.9585 84.2664 59.9585C84.7015 59.9585 85.1188 60.1313 85.4265 60.439C85.7342 60.7467 85.907 61.164 85.907 61.5991V66.0844H85.9072ZM55.6479 26.5822C58.6913 26.5822 61.6662 27.4847 64.1966 29.1754C66.727 30.8662 68.6993 33.2694 69.8639 36.081C71.0285 38.8927 71.3332 41.9865 70.7395 44.9713C70.1458 47.9562 68.6803 50.6979 66.5284 52.8498C64.3764 55.0018 61.6347 56.4673 58.6498 57.061C55.665 57.6547 52.5712 57.35 49.7595 56.1854C46.9479 55.0208 44.5447 53.0485 42.8539 50.5181C41.1632 47.9877 40.2607 45.0127 40.2607 41.9694C40.2609 37.8885 41.8821 33.9748 44.7677 31.0892C47.6534 28.2036 51.5671 26.5824 55.6479 26.5822ZM55.6479 29.8635C58.0423 29.8635 60.3829 30.5735 62.3737 31.9037C64.3645 33.2339 65.9161 35.1246 66.8324 37.3367C67.7487 39.5488 67.9884 41.9829 67.5213 44.3312C67.0542 46.6795 65.9012 48.8366 64.2082 50.5297C62.5151 52.2227 60.358 53.3757 58.0097 53.8428C55.6614 54.3099 53.2273 54.0702 51.0152 53.1539C48.8031 52.2376 46.9124 50.686 45.5822 48.6952C44.252 46.7043 43.542 44.3638 43.542 41.9694C43.542 40.3797 43.8551 38.8054 44.4634 37.3367C45.0718 35.8679 45.9635 34.5333 47.0877 33.4092C48.2118 32.285 49.5464 31.3933 51.0152 30.7849C52.4839 30.1766 54.0582 29.8634 55.6479 29.8635Z" fill="#1727FF"/>
</svg>
