<svg width="99" height="99" viewBox="0 0 99 99" fill="none" xmlns="http://www.w3.org/2000/svg">
<g clip-path="url(#clip0_195_25415)">
<path d="M75.5866 7.41921L90.543 8.5544L91.6782 23.5108C92.0571 28.5069 91.2275 33.7062 89.2566 38.6889C87.2856 43.6717 68.4336 64.0929 64.5372 67.9893L38.0818 73.2221L25.8753 61.0156L31.1085 34.5606C35.0049 30.6637 55.4243 11.8125 60.4073 9.84127C65.3904 7.86999 70.5902 7.0403 75.5866 7.41921Z" stroke="#2837FF" stroke-width="2.4" stroke-linejoin="round"/>
<path d="M51.7002 15.8524L29.1343 14.5827L14.9369 28.7801L30.909 34.1041L51.7002 15.8524ZM83.3765 47.5287L84.5161 69.9644L70.3187 84.1619L64.9946 68.1898L83.3765 47.5287Z" stroke="#2837FF" stroke-width="2.4" stroke-linecap="round" stroke-linejoin="round"/>
<path d="M22.7398 64.9776L17.4158 70.3016M28.4306 70.6683L4.28948 94.8094M34.1213 76.3591L28.7973 81.6831M31.4175 73.6553L18.4593 86.6135M25.7051 67.9428L12.7468 80.901" stroke="#2837FF" stroke-width="1.2" stroke-linecap="round" stroke-linejoin="round"/>
<circle cx="65.5119" cy="31.5165" r="11.06" stroke="#2837FF" stroke-width="1.2"/>
<circle cx="65.5116" cy="31.5162" r="8.63855" fill="#2837FF"/>
<rect x="24.1355" y="55.6582" width="27.3013" height="4.41549" rx="2.20775" transform="rotate(45 24.1355 55.6582)" fill="#2837FF"/>
</g>
<defs>
<clipPath id="clip0_195_25415">
<rect width="98.1498" height="98.1498" fill="white" transform="translate(0.8302 0.115555)"/>
</clipPath>
</defs>
</svg>
