<svg width="106" height="94" viewBox="0 0 106 94" fill="none" xmlns="http://www.w3.org/2000/svg">
<g clip-path="url(#clip0_195_25431)">
<path d="M68.6597 45.6996C68.6597 49.7564 67.0482 53.647 64.1796 56.5156C61.311 59.3842 57.4204 60.9957 53.3636 60.9957C49.3068 60.9957 45.4162 59.3842 42.5476 56.5156C39.6791 53.647 38.0675 49.7564 38.0675 45.6996C38.0675 41.6429 39.6791 37.7522 42.5476 34.8837C45.4162 32.0151 49.3068 30.4035 53.3636 30.4035C57.4204 30.4035 61.311 32.0151 64.1796 34.8837C67.0482 37.7522 68.6597 41.6429 68.6597 45.6996Z" stroke="#2837FF" stroke-width="2.4"/>
<path d="M61.5599 75.8667C56.3656 77.271 50.8963 77.307 45.684 75.971C45.9551 74.1297 45.6708 72.2494 44.8673 70.5707C44.0637 68.892 42.7776 67.4912 41.1735 66.5476C39.5693 65.604 37.7201 65.1604 35.8625 65.2737C34.0048 65.387 32.2232 66.052 30.7457 67.1836C29.2985 65.6491 28.0108 63.9716 26.9024 62.177C25.1879 59.4071 23.9582 56.4728 23.1943 53.4738L23.3057 53.4049C24.6574 52.5687 25.7738 51.4019 26.5493 50.0145C27.3248 48.6271 27.734 47.0649 27.738 45.4755C27.7421 43.886 27.341 42.3218 26.5726 40.9304C25.8042 39.539 24.6939 38.3665 23.3465 37.5234C24.6646 32.7074 27.1204 28.2785 30.507 24.6094C31.982 25.5046 33.6759 25.9742 35.4013 25.9665C37.1266 25.9587 38.8162 25.4737 40.283 24.5652C41.7503 23.6575 42.9379 22.3616 43.7144 20.8208C44.4908 19.28 44.8259 17.5544 44.6825 15.835C49.4769 14.4402 54.5361 14.2174 59.4345 15.1854C59.5891 16.7786 60.1499 18.3055 61.0635 19.6198C61.977 20.9342 63.2126 21.9921 64.652 22.6923C66.0914 23.3925 67.6864 23.7115 69.2844 23.6188C70.8824 23.5261 72.4298 23.0248 73.7786 22.1628C76.1784 24.2368 78.2475 26.6649 79.9147 29.3632C81.0467 31.1922 81.967 33.0935 82.6826 35.0373C81.0108 35.8551 79.621 37.1531 78.6911 38.7653C77.7612 40.3774 77.3335 42.2304 77.4627 44.087C77.5918 45.9436 78.272 47.7194 79.4162 49.1873C80.5604 50.6551 82.1165 51.7482 83.8854 52.3267C82.7561 57.5873 80.2844 62.4662 76.7108 66.4885C75.2028 65.2026 73.3255 64.4287 71.3493 64.2785C69.3732 64.1282 67.4004 64.6092 65.7153 65.6523C64.0302 66.6954 62.7198 68.2466 61.973 70.0823C61.2262 71.918 61.0815 73.9435 61.5599 75.8667Z" stroke="#2837FF" stroke-width="2.4" stroke-linejoin="round"/>
<path d="M81.1254 0.920761C84.3733 0.920761 87.0062 3.55371 87.0062 6.80162C87.0061 10.0494 84.3732 12.6825 81.1254 12.6825C78.1764 12.6823 75.7353 10.5113 75.3109 7.68053H68.7885V17.6229C68.7885 17.9543 68.5202 18.2225 68.1888 18.2225C67.8576 18.2224 67.5892 17.9542 67.5892 17.6229V7.08092C67.5893 6.74969 67.8576 6.48141 68.1888 6.48131H75.2533C75.4195 3.38238 77.985 0.920974 81.1254 0.920761ZM81.1254 2.12096C78.5413 2.12118 76.4462 4.2149 76.4447 6.79869C76.4901 6.88307 76.5179 6.97835 76.5179 7.08092C76.5179 7.16162 76.5009 7.23821 76.472 7.30846C76.7248 9.655 78.7117 11.4821 81.1254 11.4823C83.7105 11.4823 85.8059 9.3867 85.806 6.80162C85.806 4.21645 83.7105 2.12096 81.1254 2.12096ZM81.181 3.49107C82.967 3.49107 84.4144 4.93854 84.4144 6.72447C84.4144 8.51041 82.967 9.95787 81.181 9.95787C79.3951 9.95783 77.9476 8.51038 77.9476 6.72447C77.9476 4.93856 79.3951 3.49111 81.181 3.49107Z" fill="#2837FF"/>
<path d="M81.1254 91.4447C84.3732 91.4447 87.006 88.8116 87.0062 85.5638C87.0062 82.3159 84.3733 79.683 81.1254 79.683C78.1766 79.6832 75.7355 81.8534 75.3109 84.684H68.7885V74.7416C68.7885 74.4102 68.5202 74.142 68.1888 74.142C67.8576 74.1421 67.5892 74.4103 67.5892 74.7416V85.2836C67.5894 85.6147 67.8577 85.8831 68.1888 85.8832H75.2533C75.4193 88.9823 77.9849 91.4445 81.1254 91.4447ZM81.1254 90.2445C78.5411 90.2443 76.4459 88.1498 76.4447 85.5658C76.4901 85.4814 76.5179 85.3861 76.5179 85.2836C76.5179 85.2029 76.5009 85.1262 76.472 85.056C76.725 82.7097 78.7118 80.8834 81.1254 80.8832C83.7105 80.8832 85.806 82.9787 85.806 85.5638C85.8058 88.1489 83.7104 90.2445 81.1254 90.2445ZM81.181 88.8627C82.9668 88.8627 84.4142 87.415 84.4144 85.6293C84.4144 83.8433 82.967 82.3949 81.181 82.3949C79.3951 82.3949 77.9476 83.8434 77.9476 85.6293C77.9478 87.415 79.3953 88.8626 81.181 88.8627Z" fill="#2837FF"/>
<path d="M24.5308 0.920761C21.2828 0.920761 18.6499 3.55371 18.6499 6.80162C18.65 10.0494 21.2829 12.6825 24.5308 12.6825C27.4798 12.6824 29.9208 10.5113 30.3452 7.68053H36.8687V17.6229C36.8687 17.9542 37.137 18.2224 37.4683 18.2225C37.7996 18.2225 38.0679 17.9543 38.0679 17.6229V7.08092C38.0678 6.74963 37.7996 6.48131 37.4683 6.48131H30.4028C30.2366 3.38232 27.6712 0.920872 24.5308 0.920761ZM24.5308 2.12096C27.1156 2.12107 29.211 4.21589 29.2114 6.80064C29.1667 6.88452 29.1392 6.9792 29.1392 7.08092C29.1392 7.16079 29.1558 7.23684 29.1841 7.3065C28.9322 9.65403 26.9452 11.4822 24.5308 11.4823C21.9457 11.4823 19.8502 9.3867 19.8501 6.80162C19.8501 4.21645 21.9456 2.12096 24.5308 2.12096ZM24.5317 3.56725C22.7458 3.56725 21.2983 5.01569 21.2983 6.80162C21.2985 8.58738 22.7459 10.035 24.5317 10.035C26.3175 10.035 27.7649 8.58734 27.7651 6.80162C27.7651 5.01573 26.3176 3.56731 24.5317 3.56725Z" fill="#2837FF"/>
<path d="M24.5308 91.4447C21.283 91.4447 18.6501 88.8116 18.6499 85.5638C18.6499 82.3159 21.2828 79.683 24.5308 79.683C27.4796 79.6831 29.9206 81.8534 30.3452 84.684H36.8687V74.7416C36.8687 74.4103 37.137 74.1421 37.4683 74.142C37.7996 74.142 38.0679 74.4102 38.0679 74.7416V85.2836C38.0677 85.6148 37.7995 85.8832 37.4683 85.8832H30.4028C30.2368 88.9824 27.6713 91.4446 24.5308 91.4447ZM24.5308 90.2445C27.1157 90.2444 29.2122 88.1488 29.2124 85.5638C29.1676 85.4799 29.1392 85.3854 29.1392 85.2836C29.1392 85.2041 29.156 85.1284 29.1841 85.059C28.9325 82.7112 26.9454 80.8833 24.5308 80.8832C21.9456 80.8832 19.8501 82.9787 19.8501 85.5638C19.8503 88.1489 21.9457 90.2445 24.5308 90.2445ZM24.5786 88.8627C22.7928 88.8627 21.3454 87.415 21.3452 85.6293C21.3452 83.8433 22.7927 82.3949 24.5786 82.3949C26.3645 82.395 27.812 83.8434 27.812 85.6293C27.8118 87.415 26.3644 88.8626 24.5786 88.8627Z" fill="#2837FF"/>
<path d="M2.29486 28.6373C2.29503 25.3896 4.92801 22.7565 8.17572 22.7564C11.4235 22.7564 14.0564 25.3895 14.0566 28.6373C14.0566 31.5859 11.8867 34.0277 9.05658 34.4527L9.05658 40.9752L18.999 40.9752C19.3301 40.9753 19.5983 41.2437 19.5986 41.5748C19.5986 41.9061 19.3302 42.1743 18.999 42.1744L8.45697 42.1744C8.1256 42.1744 7.85736 41.9061 7.85736 41.5748L7.85736 34.5093C4.7576 34.3439 2.29487 31.7783 2.29486 28.6373ZM3.49506 28.6373C3.49507 31.2224 5.59065 33.3178 8.17572 33.3179L8.17767 33.3179C8.26132 33.2736 8.35565 33.2457 8.45697 33.2457C8.53667 33.2457 8.61204 33.2633 8.68158 33.2916C11.0289 33.0395 12.8564 31.0516 12.8564 28.6373C12.8562 26.0522 10.7608 23.9566 8.17572 23.9566C5.59075 23.9567 3.49523 26.0523 3.49506 28.6373ZM4.99408 28.6851C4.99421 26.8994 6.44175 25.4519 8.22748 25.4517C10.0133 25.4517 11.4617 26.8993 11.4619 28.6851C11.4619 30.4711 10.0134 31.9195 8.22748 31.9195C6.44167 31.9194 4.99408 30.471 4.99408 28.6851Z" fill="#2837FF"/>
<path d="M104.311 26.8625C104.311 23.6146 101.678 20.9817 98.4304 20.9817C95.1825 20.9817 92.5496 23.6146 92.5496 26.8625C92.5498 29.8109 94.7197 32.2519 97.5496 32.677L97.5496 39.1995L87.6072 39.1995C87.2761 39.1997 87.0078 39.468 87.0076 39.7991C87.0076 40.1303 87.276 40.3985 87.6072 40.3987L98.1492 40.3987C98.4805 40.3987 98.7488 40.1304 98.7488 39.7991L98.7488 32.7346C101.849 32.5693 104.311 30.0035 104.311 26.8625ZM103.111 26.8625C103.111 29.4475 101.015 31.5442 98.4304 31.5442C98.3462 31.4991 98.2514 31.47 98.1492 31.47C98.0695 31.47 97.9941 31.4876 97.9246 31.5159C95.5775 31.2637 93.75 29.2766 93.7498 26.8625C93.7498 24.2774 95.8452 22.1819 98.4304 22.1819C101.016 22.1819 103.111 24.2774 103.111 26.8625ZM101.65 26.8411C101.65 25.0551 100.202 23.6067 98.4158 23.6067C96.63 23.6069 95.1824 25.0553 95.1824 26.8411C95.1825 28.6267 96.6301 30.0742 98.4158 30.0745C100.202 30.0745 101.65 28.6269 101.65 26.8411Z" fill="#2837FF"/>
<path d="M2.29486 63.2124C2.29486 66.4602 4.9279 69.0931 8.17572 69.0932C11.4236 69.0932 14.0566 66.4603 14.0566 63.2124C14.0564 60.2639 11.8866 57.8229 9.05658 57.3979L9.05658 50.8745L18.999 50.8745C19.3302 50.8744 19.5986 50.6062 19.5986 50.2749C19.5985 49.9437 19.3302 49.6754 18.999 49.6752L8.45697 49.6752C8.12567 49.6752 7.85748 49.9436 7.85736 50.2749L7.85736 57.3403C4.75769 57.5058 2.29504 60.0715 2.29486 63.2124ZM3.49506 63.2124C3.49524 60.6274 5.59075 58.5318 8.17572 58.5317L8.1767 58.5317C8.26059 58.5764 8.35524 58.604 8.45697 58.604C8.53663 58.6039 8.61207 58.5872 8.68158 58.559C11.0288 58.8111 12.8562 60.7982 12.8564 63.2124C12.8564 65.7975 10.7609 67.893 8.17572 67.893C5.59064 67.8929 3.49506 65.7975 3.49506 63.2124ZM4.99408 63.2426C4.99408 65.0285 6.44167 66.4769 8.22748 66.477C10.0134 66.477 11.4619 65.0286 11.4619 63.2426C11.4617 61.4569 10.0133 60.0092 8.22748 60.0092C6.44178 60.0094 4.99427 61.4569 4.99408 63.2426Z" fill="#2837FF"/>
<path d="M104.311 63.2124C104.311 66.4603 101.678 69.0932 98.4304 69.0932C95.1825 69.0932 92.5496 66.4603 92.5496 63.2124C92.5497 60.264 94.7196 57.823 97.5496 57.3979L97.5496 50.8745L87.6072 50.8745C87.276 50.8743 87.0076 50.6061 87.0076 50.2749C87.0077 49.9437 87.2761 49.6755 87.6072 49.6752L98.1492 49.6752C98.4805 49.6752 98.7487 49.9436 98.7488 50.2749L98.7488 57.3403C101.849 57.5057 104.311 60.0714 104.311 63.2124ZM103.111 63.2124C103.111 60.6273 101.015 58.5317 98.4304 58.5317L98.4294 58.5317C98.3456 58.5763 98.2508 58.604 98.1492 58.604C98.0695 58.6039 97.9941 58.5873 97.9246 58.559C95.5774 58.8112 93.7499 60.7982 93.7498 63.2124C93.7498 65.7975 95.8452 67.893 98.4304 67.893C101.016 67.893 103.111 65.7975 103.111 63.2124ZM101.711 63.2553C101.711 65.0412 100.263 66.4887 98.4773 66.4887C96.6914 66.4887 95.2439 65.0412 95.2439 63.2553C95.2439 61.4694 96.6914 60.0219 98.4773 60.0219C100.263 60.022 101.711 61.4694 101.711 63.2553Z" fill="#2837FF"/>
</g>
<defs>
<clipPath id="clip0_195_25431">
<rect width="104.75" height="92.3221" fill="white" transform="translate(0.887451 0.891144)"/>
</clipPath>
</defs>
</svg>
