<svg width="337" height="59" viewBox="0 0 337 59" fill="none" xmlns="http://www.w3.org/2000/svg">
<g clip-path="url(#clip0_230_4978)">
<path d="M41.9561 17.8917H43.8429L49.2202 12.5145L49.4844 10.2315C46.4039 7.51254 42.6812 5.6238 38.6678 4.74366C34.6544 3.86352 30.4829 4.02103 26.5474 5.20133C22.6118 6.38162 19.0421 8.54572 16.1755 11.4892C13.3088 14.4327 11.2399 18.0584 10.1641 22.0238C10.7631 21.7782 11.4267 21.7384 12.0508 21.9106L22.8054 20.137C22.8054 20.137 23.3526 19.2314 23.6356 19.288C25.94 16.7572 29.1245 15.2029 32.5374 14.9433C35.9503 14.6838 39.3333 15.7386 41.9939 17.8917H41.9561Z" fill="#EA4335"/>
<path d="M56.8814 22.0225C55.6454 17.4709 53.1077 13.3791 49.5796 10.249L42.0325 17.7961C43.6054 19.0813 44.8659 20.7069 45.719 22.5503C46.572 24.3936 46.9954 26.4067 46.957 28.4375V29.7771C47.8391 29.7771 48.7125 29.9508 49.5275 30.2884C50.3424 30.6259 51.0828 31.1207 51.7066 31.7444C52.3303 32.3682 52.8251 33.1086 53.1626 33.9236C53.5002 34.7385 53.6739 35.6119 53.6739 36.494C53.6739 37.3761 53.5002 38.2495 53.1626 39.0644C52.8251 39.8794 52.3303 40.6198 51.7066 41.2436C51.0828 41.8673 50.3424 42.3621 49.5275 42.6996C48.7125 43.0372 47.8391 43.2109 46.957 43.2109H33.5232L32.1836 44.5694V52.6259L33.5232 53.9655H46.957C50.7083 53.9947 54.3695 52.8157 57.3988 50.6028C60.4281 48.39 62.6647 45.2609 63.7778 41.6783C64.8909 38.0958 64.8212 34.2502 63.5792 30.7103C62.3372 27.1704 59.9888 24.1242 56.8814 22.0225Z" fill="#4285F4"/>
<path d="M20.0705 53.8925H33.5043V43.1379H20.0705C19.1134 43.1377 18.1675 42.9318 17.2969 42.5342L15.4102 43.1191L9.99513 48.4964L9.52344 50.3831C12.5601 52.6762 16.2654 53.9091 20.0705 53.8925Z" fill="#34A853"/>
<path d="M20.0703 19.003C16.4303 19.0248 12.8881 20.1828 9.93829 22.3155C6.98847 24.4481 4.7784 27.4488 3.61674 30.8984C2.45508 34.348 2.39986 38.0744 3.45878 41.5569C4.5177 45.0395 6.63789 48.1043 9.52321 50.3234L17.3156 42.5311C16.3253 42.0837 15.4584 41.4027 14.7892 40.5466C14.12 39.6905 13.6684 38.6849 13.4733 37.6159C13.2782 36.5469 13.3454 35.4466 13.669 34.4093C13.9927 33.372 14.5632 32.4287 15.3315 31.6603C16.0999 30.892 17.0432 30.3215 18.0805 29.9979C19.1178 29.6742 20.2181 29.6071 21.2871 29.8022C22.3561 29.9973 23.3617 30.4488 24.2178 31.118C25.0739 31.7872 25.7549 32.6541 26.2023 33.6444L33.9946 25.852C32.3591 23.7139 30.2511 21.983 27.8355 20.7949C25.4199 19.6067 22.7622 18.9934 20.0703 19.003Z" fill="#FBBC05"/>
<path d="M100.333 46.3817C98.0198 46.4111 95.7247 45.9735 93.585 45.0949C91.4452 44.2163 89.5048 42.9148 87.88 41.2685C86.204 39.6921 84.874 37.7845 83.9743 35.6668C83.0746 33.5491 82.6249 31.2675 82.6536 28.9668C82.626 26.6662 83.0763 24.385 83.9759 22.2674C84.8755 20.1499 86.2049 18.2422 87.88 16.665C89.4969 15.0016 91.4337 13.6828 93.5738 12.7878C95.7139 11.8928 98.013 11.4403 100.333 11.4575C102.543 11.4281 104.737 11.8383 106.787 12.6642C108.838 13.4902 110.703 14.7154 112.276 16.2688L108.917 19.6839C106.618 17.4612 103.531 16.24 100.333 16.2877C98.6737 16.2673 97.0286 16.5922 95.5019 17.2419C93.9753 17.8915 92.6005 18.8516 91.4649 20.0612C90.2846 21.2321 89.3536 22.6297 88.7278 24.1699C88.1019 25.7102 87.7943 27.3611 87.8234 29.0234C87.8096 30.6667 88.1246 32.2961 88.75 33.8158C89.3753 35.3355 90.2984 36.7147 91.4649 37.8723C93.8014 40.2008 96.9544 41.5254 100.253 41.5641C103.551 41.6029 106.734 40.3528 109.125 38.0799C110.605 36.4591 111.513 34.398 111.71 32.212H100.389V27.3819H116.408C116.565 28.3546 116.629 29.3403 116.597 30.3252C116.696 32.3637 116.381 34.4012 115.671 36.3146C114.961 38.228 113.87 39.9774 112.465 41.4572C110.902 43.0842 109.014 44.3637 106.923 45.2122C104.833 46.0607 102.587 46.4592 100.333 46.3817ZM137.578 43.1741C135.428 45.2348 132.565 46.3853 129.587 46.3853C126.609 46.3853 123.746 45.2348 121.597 43.1741C120.527 42.1367 119.684 40.8881 119.122 39.5077C118.56 38.1273 118.291 36.6452 118.332 35.1554C118.292 33.6657 118.562 32.1839 119.124 30.8037C119.685 29.4234 120.528 28.1748 121.597 27.1366C123.749 25.0802 126.611 23.9327 129.587 23.9327C132.564 23.9327 135.426 25.0802 137.578 27.1366C138.647 28.1748 139.489 29.4234 140.051 30.8037C140.612 32.1839 140.882 33.6657 140.842 35.1554C140.88 36.6466 140.609 38.1295 140.043 39.51C139.478 40.8905 138.632 42.1383 137.559 43.1741H137.578ZM125.125 40.0232C125.697 40.6339 126.388 41.1207 127.155 41.4535C127.923 41.7863 128.75 41.958 129.587 41.958C130.424 41.958 131.251 41.7863 132.019 41.4535C132.786 41.1207 133.477 40.6339 134.049 40.0232C134.673 39.3789 135.161 38.6162 135.485 37.7801C135.809 36.9441 135.962 36.0516 135.936 35.1554C135.964 34.2561 135.811 33.3604 135.487 32.5211C135.163 31.6818 134.674 30.9159 134.049 30.2686C133.47 29.6642 132.774 29.1833 132.004 28.8547C131.234 28.5262 130.405 28.3568 129.568 28.3568C128.731 28.3568 127.902 28.5262 127.132 28.8547C126.362 29.1833 125.667 29.6642 125.087 30.2686C124.462 30.9159 123.973 31.6818 123.649 32.5211C123.325 33.3604 123.173 34.2561 123.2 35.1554C123.177 36.0529 123.333 36.9462 123.66 37.7823C123.987 38.6184 124.479 39.3804 125.106 40.0232H125.125ZM162.143 43.1741C159.994 45.2348 157.131 46.3853 154.153 46.3853C151.175 46.3853 148.312 45.2348 146.162 43.1741C145.092 42.1367 144.25 40.8881 143.688 39.5077C143.126 38.1273 142.857 36.6452 142.898 35.1554C142.858 33.6657 143.128 32.1839 143.689 30.8037C144.251 29.4234 145.093 28.1748 146.162 27.1366C148.312 25.0759 151.175 23.9254 154.153 23.9254C157.131 23.9254 159.994 25.0759 162.143 27.1366C163.212 28.1748 164.054 29.4234 164.616 30.8037C165.178 32.1839 165.447 33.6657 165.407 35.1554C165.449 36.6452 165.18 38.1273 164.618 39.5077C164.056 40.8881 163.213 42.1367 162.143 43.1741ZM149.691 40.0232C150.262 40.6339 150.953 41.1207 151.721 41.4535C152.489 41.7863 153.316 41.958 154.153 41.958C154.989 41.958 155.817 41.7863 156.585 41.4535C157.352 41.1207 158.043 40.6339 158.615 40.0232C159.239 39.3789 159.727 38.6162 160.051 37.7801C160.375 36.9441 160.528 36.0516 160.502 35.1554C160.53 34.2561 160.377 33.3604 160.053 32.5211C159.729 31.6818 159.24 30.9159 158.615 30.2686C158.036 29.6642 157.34 29.1833 156.57 28.8547C155.8 28.5262 154.971 28.3568 154.134 28.3568C153.297 28.3568 152.468 28.5262 151.698 28.8547C150.928 29.1833 150.232 29.6642 149.653 30.2686C149.028 30.9159 148.539 31.6818 148.215 32.5211C147.891 33.3604 147.738 34.2561 147.766 35.1554C147.742 36.0529 147.899 36.9462 148.226 37.7823C148.553 38.6184 149.045 39.3804 149.672 40.0232H149.691ZM178.294 56.457C176.033 56.5289 173.815 55.823 172.011 54.457C170.41 53.2531 169.148 51.6537 168.351 49.8156L172.653 48.0231C173.121 49.1216 173.853 50.0874 174.785 50.8344C175.782 51.6382 177.033 52.0597 178.313 52.0231C179.125 52.0725 179.938 51.9464 180.696 51.6533C181.455 51.3603 182.141 50.9072 182.709 50.325C183.846 48.9538 184.407 47.1956 184.275 45.4194V43.7968H184.105C183.386 44.6507 182.478 45.3255 181.453 45.7676C180.428 46.2098 179.314 46.4071 178.2 46.3439C176.783 46.3482 175.381 46.0587 174.082 45.4936C172.783 44.9285 171.615 44.1002 170.653 43.0609C169.608 42.03 168.784 40.7978 168.229 39.4389C167.674 38.0801 167.401 36.6228 167.426 35.1554C167.4 33.6793 167.673 32.2133 168.227 30.8451C168.781 29.4769 169.606 28.2347 170.653 27.1932C171.613 26.1496 172.78 25.3172 174.079 24.7487C175.378 24.1803 176.782 23.8883 178.2 23.8914C179.4 23.8893 180.586 24.1535 181.671 24.6649C182.611 25.0751 183.448 25.6871 184.124 26.4574H184.294V24.6649H188.973V44.759C189.096 46.3486 188.894 47.9466 188.378 49.4552C187.862 50.9637 187.044 52.3512 185.973 53.5325C184.953 54.5081 183.748 55.2696 182.43 55.7719C181.111 56.2742 179.704 56.5071 178.294 56.457ZM178.634 41.9666C179.439 41.9843 180.239 41.8245 180.976 41.4984C181.713 41.1723 182.369 40.688 182.898 40.0798C184.062 38.7458 184.676 37.0192 184.615 35.2497C184.685 33.4503 184.071 31.6911 182.898 30.3252C182.37 29.7161 181.714 29.2311 180.977 28.9049C180.24 28.5787 179.44 28.4195 178.634 28.4385C177.806 28.4215 176.984 28.5809 176.223 28.9063C175.462 29.2316 174.778 29.7153 174.219 30.3252C172.971 31.642 172.293 33.3981 172.332 35.212C172.313 36.1017 172.469 36.9864 172.793 37.8153C173.117 38.6442 173.601 39.401 174.219 40.0421C174.776 40.6579 175.458 41.1481 176.219 41.4799C176.98 41.8117 177.803 41.9776 178.634 41.9666ZM197.294 12.7217V45.7024H192.369V12.7217H197.294ZM210.803 46.3817C209.328 46.4196 207.862 46.1526 206.495 45.5974C205.128 45.0422 203.89 44.2108 202.86 43.1553C201.814 42.1075 200.992 40.858 200.444 39.4828C199.896 38.1076 199.633 36.6353 199.671 35.1554C199.615 33.6718 199.859 32.1922 200.387 30.8048C200.916 29.4174 201.718 28.1506 202.747 27.08C203.716 26.0582 204.888 25.2502 206.187 24.7076C207.487 24.165 208.886 23.8998 210.294 23.9291C211.588 23.9154 212.872 24.1658 214.067 24.6649C215.143 25.0993 216.124 25.7403 216.954 26.5517C217.667 27.2395 218.299 28.0054 218.841 28.8347C219.279 29.5349 219.651 30.2739 219.954 31.0422L220.463 32.3252L205.369 38.5327C205.826 39.5816 206.589 40.4675 207.559 41.0738C208.529 41.68 209.66 41.9782 210.803 41.9289C211.915 41.9319 213.009 41.6467 213.978 41.1011C214.947 40.5555 215.757 39.7681 216.331 38.8157L220.105 41.3628C219.142 42.7406 217.91 43.9088 216.482 44.7968C214.785 45.8691 212.81 46.4202 210.803 46.3817ZM204.501 34.8158L214.539 30.646C214.23 29.9108 213.677 29.3045 212.973 28.929C212.185 28.484 211.293 28.2562 210.388 28.2687C208.853 28.3084 207.395 28.9526 206.331 30.0611C205.695 30.67 205.201 31.4119 204.885 32.2338C204.568 33.0557 204.437 33.9374 204.501 34.8158ZM246.256 46.3817C244.161 46.4178 242.081 46.0304 240.14 45.2427C238.2 44.4549 236.438 43.2831 234.961 41.7976C233.484 40.3121 232.323 38.5435 231.547 36.598C230.771 34.6525 230.396 32.5702 230.444 30.4762C230.396 28.3821 230.771 26.2999 231.547 24.3544C232.323 22.4089 233.484 20.6403 234.961 19.1547C236.438 17.6692 238.2 16.4974 240.14 15.7097C242.081 14.922 244.161 14.5346 246.256 14.5707C248.375 14.5044 250.483 14.918 252.42 15.7805C254.357 16.6431 256.075 17.9323 257.444 19.5518L254.727 22.1933C253.722 20.9289 252.432 19.9197 250.964 19.2476C249.495 18.5755 247.888 18.2595 246.274 18.3254C244.721 18.2904 243.176 18.5698 241.733 19.147C240.29 19.7241 238.979 20.587 237.878 21.6838C236.734 22.8348 235.839 24.21 235.252 25.7231C234.664 27.2361 234.396 28.8544 234.463 30.4762C234.396 32.098 234.664 33.7162 235.252 35.2293C235.839 36.7424 236.734 38.1176 237.878 39.2685C238.979 40.3653 240.29 41.2282 241.733 41.8054C243.176 42.3825 244.721 42.662 246.274 42.627C248.078 42.6472 249.862 42.2608 251.495 41.4964C253.129 40.732 254.569 39.6094 255.708 38.2119L258.425 40.9289C257.003 42.63 255.217 43.9904 253.199 44.91C251.024 45.9142 248.651 46.4171 246.256 46.3817ZM265.727 45.7024H261.821V15.2311H265.727V45.7024ZM272.104 27.363C274.151 25.3306 276.918 24.1899 279.802 24.1899C282.687 24.1899 285.454 25.3306 287.5 27.363C288.501 28.4196 289.283 29.6638 289.801 31.0238C290.319 32.3837 290.563 33.8328 290.519 35.2874C290.563 36.7421 290.319 38.1911 289.801 39.5511C289.283 40.9111 288.501 42.1553 287.5 43.2119C285.454 45.2443 282.687 46.385 279.802 46.385C276.918 46.385 274.151 45.2443 272.104 43.2119C271.104 42.1553 270.322 40.9111 269.803 39.5511C269.285 38.1911 269.041 36.7421 269.085 35.2874C269.041 33.8328 269.285 32.3837 269.803 31.0238C270.322 29.6638 271.104 28.4196 272.104 27.363ZM275.01 40.7591C275.625 41.4094 276.367 41.9274 277.189 42.2815C278.012 42.6355 278.898 42.8181 279.793 42.8181C280.688 42.8181 281.574 42.6355 282.397 42.2815C283.219 41.9274 283.96 41.4094 284.576 40.7591C285.258 40.0266 285.789 39.1655 286.135 38.2262C286.482 37.2868 286.638 36.2878 286.595 35.2874C286.638 34.2871 286.482 33.2881 286.135 32.3487C285.789 31.4093 285.258 30.5483 284.576 29.8158C283.96 29.1655 283.219 28.6475 282.397 28.2934C281.574 27.9394 280.688 27.7568 279.793 27.7568C278.898 27.7568 278.012 27.9394 277.189 28.2934C276.367 28.6475 275.625 29.1655 275.01 29.8158C274.327 30.5483 273.797 31.4093 273.451 32.3487C273.104 33.2881 272.948 34.2871 272.991 35.2874C272.953 36.286 273.113 37.2822 273.463 38.2182C273.813 39.1542 274.345 40.0115 275.029 40.7402L275.01 40.7591ZM312.16 45.7024H308.387V42.8157H308.274C307.602 43.9121 306.651 44.8106 305.519 45.4194C304.344 46.1005 303.009 46.4585 301.651 46.4571C300.548 46.5326 299.443 46.3579 298.417 45.9463C297.391 45.5347 296.471 44.8966 295.727 44.0798C294.297 42.272 293.579 40.0035 293.708 37.7025V24.8725H297.613V36.9855C297.613 40.8723 299.33 42.8157 302.764 42.8157C303.527 42.8395 304.285 42.6806 304.974 42.3525C305.663 42.0243 306.264 41.5362 306.727 40.9289C307.739 39.646 308.279 38.0536 308.255 36.4195V24.8725H312.16V45.7024ZM325.424 46.3817C324.1 46.3861 322.789 46.1033 321.584 45.5528C320.379 45.0024 319.308 44.1973 318.443 43.193C316.487 41.0325 315.44 38.2008 315.519 35.2874C315.44 32.374 316.487 29.5424 318.443 27.3819C319.308 26.3776 320.379 25.5725 321.584 25.0221C322.789 24.4716 324.1 24.1888 325.424 24.1932C326.909 24.1698 328.375 24.5202 329.689 25.2121C330.843 25.7929 331.82 26.6724 332.519 27.7592H332.688L332.519 24.8725V15.2311H336.424V45.7024H332.651V42.8157H332.481C331.782 43.9025 330.805 44.782 329.651 45.3628C328.349 46.0486 326.896 46.3988 325.424 46.3817ZM326.066 42.8157C326.949 42.8285 327.824 42.6535 328.634 42.3022C329.444 41.9508 330.17 41.4313 330.764 40.778C332.091 39.2673 332.769 37.2946 332.651 35.2874C332.769 33.2803 332.091 31.3076 330.764 29.7969C330.166 29.1401 329.438 28.6153 328.626 28.2562C327.813 27.897 326.935 27.7116 326.047 27.7116C325.159 27.7116 324.281 27.897 323.468 28.2562C322.656 28.6153 321.928 29.1401 321.33 29.7969C320.671 30.54 320.165 31.4058 319.841 32.3447C319.518 33.2836 319.382 34.2773 319.443 35.2686C319.382 36.2599 319.518 37.2535 319.841 38.1925C320.165 39.1314 320.671 39.9972 321.33 40.7402C321.925 41.4052 322.655 41.9347 323.472 42.2928C324.289 42.6509 325.174 42.8292 326.066 42.8157Z" fill="#5F6368"/>
</g>
<defs>
<clipPath id="clip0_230_4978">
<rect width="335.886" height="58.8472" fill="white" transform="translate(0.539062 0.135742)"/>
</clipPath>
</defs>
</svg>
