<svg width="137" height="137" viewBox="0 0 137 137" fill="none" xmlns="http://www.w3.org/2000/svg">
<g clip-path="url(#clip0_230_4974)">
<path d="M0.0351562 41.3467V45.0709H26.5216V41.3467H0.0351562ZM30.2629 41.3467V45.0709H67.9986C67.9986 45.0709 64.1425 41.3467 59.0408 41.3467H30.2629ZM75.4046 41.3467V45.0709H98.2348L96.8743 41.3467H75.4046ZM114.603 41.3467L113.242 45.0709H135.86V41.3467H114.603ZM0.0351562 48.5869V52.3111H26.5216V48.5869H0.0351562ZM30.2629 48.5911V52.3111H72.3776C72.3776 52.3111 71.8844 49.4457 71.0299 48.5911H30.2629ZM75.4046 48.5911V52.3111H100.743L99.489 48.5911H75.4046ZM111.895 48.5911L110.64 52.3111H135.873V48.5911H111.895ZM7.68774 55.8271V59.5556H19.1539V55.8271H7.68774ZM37.9154 55.8271V59.5556H49.3518V55.8271H37.9154ZM60.5331 55.8271V59.5556H72.0034C72.0034 59.5556 72.7262 57.5872 72.7262 55.8271H60.5331ZM83.0487 55.8271V59.5556H103.345L101.985 55.8271H83.0487ZM109.429 55.8271L108.068 59.5556H128.428V55.8271H109.429ZM7.68774 63.0715V66.7958H19.1539V63.0715H7.68774ZM37.9154 63.0715V66.7958H67.2503C67.2503 66.7958 69.6992 64.8826 70.4814 63.0715H37.9154ZM83.0572 63.0715V66.7958H94.5233V64.7296L95.246 66.8H116.248L117.03 64.7296V66.8H128.428V63.0758H106.899L105.751 66.2303L104.603 63.0758L83.0572 63.0715ZM7.68774 70.316V74.0402H19.1539V70.316H7.68774ZM37.9154 70.316V74.0402H70.4389C69.6566 72.2334 67.2078 70.316 67.2078 70.316H37.9154ZM83.0572 70.316V74.0402H94.5233V70.316H83.0572ZM96.6107 70.316L97.9967 74.0402H113.748L115.024 70.316H96.6107ZM117.043 70.316V74.0402H128.428V70.316H117.043ZM7.68774 77.5561V81.2804H19.1539V77.5561H7.68774ZM37.9154 77.5561V81.2804H49.3518V77.5561H37.9154ZM60.5331 77.5561V81.2804H72.7347C72.7347 79.5246 72.0119 77.5561 72.0119 77.5561H60.5331ZM83.0487 77.5561V81.2804H94.5148V77.5561H83.0487ZM99.2041 77.5561L100.548 81.2804H111.108L112.469 77.5561H99.2041ZM117.035 77.5561V81.2804H128.428V77.5561H117.035ZM0.247728 84.7963V88.5248H26.7342V84.7963H0.247728ZM30.2756 84.7963V88.5248H71.0469C71.9056 87.6746 72.3946 84.7963 72.3946 84.7963H30.2756ZM75.6214 84.7963V88.5248H94.4978V84.7963H75.6214ZM101.789 84.7963L103.171 88.5248H108.545L109.841 84.7963H101.789ZM117.009 84.7963V88.5248H136.081V84.7963H117.009ZM0.247728 92.0408V95.765H26.7342V92.0408H0.247728ZM30.2756 92.0408V95.7608H59.0578C64.1595 95.7608 68.0198 92.0408 68.0198 92.0408H30.2756ZM75.6214 92.0408V95.765H94.4978V92.0408H75.6214ZM104.404 92.0408L105.734 95.7523L105.964 95.7565L107.316 92.0365L104.404 92.0408ZM117.005 92.0408V95.765H136.081V92.0408H117.005Z" fill="#1F70C1"/>
</g>
<defs>
<clipPath id="clip0_230_4974">
<rect width="136.046" height="136.046" fill="white" transform="translate(0.0351562 0.53418)"/>
</clipPath>
</defs>
</svg>
