<svg width="104" height="104" viewBox="0 0 104 104" fill="none" xmlns="http://www.w3.org/2000/svg">
<path d="M90.8977 65.4338L84.2624 72.3791C84.1602 72.486 84.0351 72.5711 83.8944 72.6266L77.7933 75.1426C77.2602 75.364 76.6416 75.1091 76.4125 74.5687C76.191 74.0357 76.446 73.417 76.9863 73.1879L82.8876 70.7587L89.3696 63.9739C89.8952 63.4238 89.9733 62.5924 89.5553 61.9591C89.3074 61.5762 88.9128 61.3161 88.4626 61.2367C88.0123 61.1573 87.5589 61.2648 87.1915 61.5422L81.4909 65.8877C81.2852 66.0419 81.0329 66.1224 80.7709 66.1059C80.7185 66.0996 75.27 65.7756 71.3283 69.9015C67.3865 74.0274 68.1545 79.5107 68.1635 79.5777C68.1981 79.7862 68.1584 80.0113 68.0656 80.2003L63.9002 90.1942C63.6432 90.7232 63.0052 90.9321 62.4835 90.6675C61.9544 90.4105 61.7455 89.7725 62.0102 89.2507L66.0399 79.5365C65.903 78.1196 65.7051 72.7279 69.8075 68.4339C73.9098 64.1399 79.0103 63.9562 80.5206 63.9815L85.9202 59.8747C86.7429 59.243 87.8058 58.9871 88.8338 59.1654C89.8618 59.3437 90.7725 59.9508 91.3305 60.82C92.2756 62.2782 92.0948 64.1807 90.8904 65.4414L90.8977 65.4338Z" fill="#2837FF"/>
<path d="M91.8847 76.3324C91.3226 76.9208 90.6918 77.4434 90.0141 77.8774L78.2813 85.4622L75.6088 91.166C75.3518 91.6951 74.7291 91.9186 74.2004 91.6765C73.6717 91.4345 73.4478 90.7968 73.6899 90.2681L76.4907 84.2923C76.5763 84.111 76.7073 83.9585 76.8769 83.8575L88.86 76.1025C90.3183 75.1574 91.4525 73.7713 92.0807 72.15L101.549 47.8604C101.796 47.2194 101.757 46.5103 101.444 45.9046C101.132 45.2988 100.554 44.8636 99.8998 44.7066C98.8479 44.4616 97.7532 44.9649 97.2671 45.9327L91.3073 57.586C91.0427 58.1078 90.4047 58.3167 89.8902 58.0444C89.3685 57.7798 89.1596 57.1418 89.4319 56.6273L95.3917 44.974C96.3288 43.1364 98.3774 42.1853 100.391 42.6476C101.653 42.9476 102.726 43.7677 103.335 44.9197C103.944 46.0717 104.02 47.4153 103.547 48.6294L94.0789 72.9191C93.5773 74.1936 92.8486 75.3388 91.9069 76.3245L91.8847 76.3324Z" fill="#2837FF"/>
<path d="M67.3479 95.3204C67.2248 95.7797 66.7962 96.1134 66.3068 96.1026L64.2853 96.0532C63.6986 96.0383 63.2376 95.5537 63.2526 94.967C63.2676 94.3803 63.7521 93.9194 64.3389 93.9344L66.3604 93.9837C66.9472 93.9987 67.4081 94.4833 67.3931 95.07C67.3916 95.1571 67.3799 95.2415 67.3581 95.3232L67.3479 95.3204Z" fill="#2837FF"/>
<path d="M79.5793 91.4378V100.34L59.5688 99.946V90.6497L79.5793 91.4378Z" stroke="#2837FF" stroke-width="1.92" stroke-linecap="round" stroke-linejoin="round"/>
<path d="M13.3555 65.4327L19.9908 72.378C20.093 72.4849 20.2181 72.57 20.3588 72.6255L26.4599 75.1415C26.993 75.363 27.6117 75.108 27.8408 74.5676C28.0622 74.0346 27.8073 73.4159 27.2669 73.1868L21.3656 70.7576L14.8836 63.9728C14.3581 63.4227 14.2799 62.5913 14.6979 61.9581C14.9458 61.5751 15.3404 61.315 15.7907 61.2356C16.2409 61.1562 16.6944 61.2637 17.0617 61.5411L22.7623 65.8866C22.9681 66.0408 23.2204 66.1213 23.4823 66.1048C23.5348 66.0985 28.9832 65.7745 32.9249 69.9004C36.8667 74.0263 36.0988 79.5096 36.0898 79.5766C36.0551 79.7851 36.0948 80.0102 36.1877 80.1992L40.3531 90.1931C40.61 90.7221 41.248 90.931 41.7698 90.6664C42.2988 90.4094 42.5077 89.7714 42.2431 89.2496L38.2133 79.5354C38.3503 78.1185 38.5481 72.7268 34.4458 68.4328C30.3434 64.1388 25.2429 63.9551 23.7326 63.9804L18.333 59.8736C17.5103 59.2419 16.4474 58.986 15.4194 59.1643C14.3914 59.3426 13.4807 59.9497 12.9227 60.8189C11.9776 62.2771 12.1584 64.1796 13.3628 65.4403L13.3555 65.4327Z" fill="#2837FF"/>
<path d="M12.3674 76.3313C12.9294 76.9197 13.5603 77.4423 14.238 77.8763L25.9708 85.4611L28.6433 91.1649C28.9003 91.694 29.523 91.9175 30.0517 91.6754C30.5804 91.4334 30.8042 90.7957 30.5622 90.267L27.7613 84.2912C27.6758 84.1099 27.5447 83.9574 27.3752 83.8564L15.3921 76.1014C13.9338 75.1563 12.7995 73.7702 12.1714 72.1489L2.70327 47.8593C2.45632 47.2183 2.49493 46.5092 2.80771 45.9035C3.1205 45.2977 3.69845 44.8625 4.35227 44.7055C5.40421 44.4605 6.49887 44.9638 6.985 45.9316L12.9448 57.5849C13.2094 58.1067 13.8474 58.3156 14.3618 58.0433C14.8836 57.7787 15.0925 57.1407 14.8202 56.6262L8.86042 44.9729C7.92328 43.1353 5.87471 42.1842 3.86114 42.6465C2.59867 42.9465 1.52613 43.7666 0.916866 44.9186C0.307601 46.0706 0.232089 47.4142 0.705127 48.6283L10.1732 72.918C10.6748 74.1925 11.4035 75.3377 12.3451 76.3234L12.3674 76.3313Z" fill="#2837FF"/>
<path d="M25.9677 91.4367V100.339L45.9782 99.9449V90.6486L25.9677 91.4367Z" stroke="#2837FF" stroke-width="1.92" stroke-linecap="round" stroke-linejoin="round"/>
<path d="M36.9042 95.3193C37.0272 95.7786 37.4558 96.1123 37.9452 96.1015L39.9667 96.0522C40.5535 96.0372 41.0144 95.5526 40.9994 94.9659C40.9844 94.3792 40.4999 93.9183 39.9131 93.9333L37.8916 93.9826C37.3049 93.9976 36.8439 94.4822 36.8589 95.0689C36.8604 95.156 36.8721 95.2404 36.894 95.3221L36.9042 95.3193Z" fill="#2837FF"/>
<path d="M76.5699 10.6811V30.8491C76.3655 35.1963 74.8796 42.1352 71.0787 48.727C67.3099 55.2629 61.2821 61.4276 51.9869 64.4301C44.5033 62.5381 29.3103 53.3072 27.6461 30.8334V10.6801L52.0191 1.41058L76.5699 10.6811Z" stroke="#2837FF" stroke-width="1.60776"/>
<path d="M73.7882 12.6487V31.053C73.6099 35.0187 72.3 41.3336 68.9464 47.3314C65.6115 53.2957 60.2659 58.9283 52.0167 61.6526C45.4075 59.9711 31.899 51.5713 30.4298 31.053V12.6487L52.0304 4.17706L73.7882 12.6487Z" stroke="#2837FF" stroke-width="0.803882"/>
<path d="M43.6693 34.1153L49.2965 39.7425L60.5508 27.6842" stroke="#2837FF" stroke-width="2.41165" stroke-linecap="round" stroke-linejoin="round"/>
</svg>
