<svg width="133" height="53" viewBox="0 0 133 53" fill="none" xmlns="http://www.w3.org/2000/svg">
<g clip-path="url(#clip0_230_4976)">
<path d="M0.414062 1.73839H9.94156V11.2659H0.414062V1.73839ZM9.70422 51.3763V17.0298H0.651402V51.3424H9.70422V51.3763ZM69.6494 51.7153V43.3067C68.3271 43.3067 67.2082 43.2389 66.3945 43.1033C65.4451 42.9677 64.7331 42.6286 64.2584 42.1539C63.7838 41.6793 63.4786 41.0012 63.3091 40.0857C63.1735 39.2381 63.1057 38.1192 63.1057 36.7629V24.7942H69.6494V17.0298H63.1057V3.67101H54.0528V36.8647C54.0528 39.6788 54.2902 42.0522 54.7649 43.9509C55.2395 45.8158 56.0533 47.3415 57.1722 48.4943C58.291 49.6471 59.7829 50.4608 61.5799 50.9694C63.4108 51.478 65.7164 51.7153 68.4627 51.7153H69.6494ZM121.457 51.3763V1.02637H112.404V51.3763H121.457ZM45.3391 20.4204C42.8301 17.708 39.3039 16.3517 34.8283 16.3517C32.6584 16.3517 30.6579 16.7925 28.8948 17.6741C27.0978 18.5556 25.606 19.7762 24.3854 21.3359L23.9107 21.9801V17.0298H14.9935V51.3424H23.9785V33.0672V33.7114C24.0802 30.4904 24.8601 28.117 26.3519 26.5912C27.9455 24.9638 29.8781 24.15 32.082 24.15C34.6927 24.15 36.6931 24.9638 38.0155 26.5234C39.3039 28.0831 39.982 30.287 39.982 33.1011V51.3424H49.1026V31.8805C49.1365 26.9981 47.8481 23.1329 45.3391 20.4204ZM107.726 34.1522C107.726 31.6771 107.285 29.3715 106.437 27.2015C105.556 25.0655 104.335 23.1668 102.809 21.5393C101.25 19.9118 99.3847 18.6573 97.2148 17.7419C95.0448 16.8264 92.6375 16.3856 90.0267 16.3856C87.5516 16.3856 85.2122 16.8603 83.0422 17.7758C80.8722 18.7251 78.9735 19.9796 77.3799 21.5732C75.7864 23.1668 74.498 25.0655 73.5825 27.2355C72.6331 29.4054 72.1924 31.7449 72.1924 34.22C72.1924 36.6951 72.6331 39.0346 73.5147 41.2046C74.3962 43.3745 75.6507 45.2733 77.2104 46.8668C78.7701 48.4604 80.7027 49.7488 82.9405 50.6643C85.1782 51.6136 87.6534 52.0883 90.298 52.0883C97.9607 52.0883 102.707 48.596 105.556 45.3411L99.0457 40.3909C97.6894 42.0183 94.4345 44.2222 90.3658 44.2222C87.8229 44.2222 85.7207 43.6458 84.1272 42.4591C82.5336 41.3063 81.4486 39.6788 80.8722 37.6784L80.7705 37.3732H107.726V34.1522ZM80.8383 30.999C80.8383 28.49 83.7203 24.1161 89.925 24.0822C96.1298 24.0822 99.0457 28.4561 99.0457 30.9651L80.8383 30.999ZM131.765 47.0364C131.595 46.6295 131.358 46.2904 131.053 45.9853C130.747 45.6801 130.408 45.4428 130.002 45.2733C129.595 45.1037 129.154 45.002 128.713 45.002C128.238 45.002 127.832 45.1037 127.425 45.2733C127.018 45.4428 126.679 45.6801 126.374 45.9853C126.068 46.2904 125.831 46.6295 125.662 47.0364C125.492 47.4432 125.39 47.884 125.39 48.3248C125.39 48.7995 125.492 49.2063 125.662 49.6132C125.831 50.0201 126.068 50.3591 126.374 50.6643C126.679 50.9694 127.018 51.2068 127.425 51.3763C127.832 51.5458 128.272 51.6475 128.713 51.6475C129.188 51.6475 129.595 51.5458 130.002 51.3763C130.408 51.2068 130.747 50.9694 131.053 50.6643C131.358 50.3591 131.595 50.0201 131.765 49.6132C131.934 49.2063 132.036 48.7655 132.036 48.3248C132.036 47.884 131.934 47.4432 131.765 47.0364ZM131.222 49.4098C131.087 49.7488 130.883 50.054 130.646 50.2913C130.408 50.5286 130.103 50.7321 129.764 50.8677C129.425 51.0033 129.086 51.0711 128.679 51.0711C128.306 51.0711 127.933 51.0033 127.594 50.8677C127.255 50.7321 126.95 50.5286 126.713 50.2913C126.475 50.054 126.272 49.7488 126.136 49.4098C126.001 49.0707 125.933 48.7316 125.933 48.3248C125.933 47.9518 126.001 47.5788 126.136 47.2398C126.272 46.9007 126.475 46.5956 126.713 46.3582C126.95 46.1209 127.255 45.9175 127.594 45.7819C127.933 45.6462 128.272 45.5784 128.679 45.5784C129.052 45.5784 129.425 45.6462 129.764 45.7819C130.103 45.9175 130.408 46.1209 130.646 46.3582C130.883 46.5956 131.087 46.9007 131.222 47.2398C131.358 47.5788 131.426 47.9179 131.426 48.3248C131.426 48.7316 131.358 49.0707 131.222 49.4098ZM129.323 48.6299C129.595 48.596 129.798 48.4943 129.968 48.3248C130.137 48.1552 130.239 47.9179 130.239 47.5788C130.239 47.2059 130.137 46.9346 129.9 46.7312C129.696 46.5278 129.323 46.4261 128.883 46.4261H127.391V50.2574H128.103V48.6977H128.611L129.561 50.2574H130.307L129.323 48.6299ZM128.95 48.0535H128.103V46.9686H128.95C129.052 46.9686 129.154 47.0025 129.256 47.0364C129.357 47.0703 129.425 47.1381 129.459 47.2059C129.527 47.2737 129.527 47.3754 129.527 47.511C129.527 47.6467 129.493 47.7484 129.459 47.8162C129.391 47.884 129.323 47.9518 129.256 47.9857C129.154 48.0196 129.052 48.0535 128.95 48.0535Z" fill="#00C7FD"/>
</g>
<defs>
<clipPath id="clip0_230_4976">
<rect width="131.622" height="51.9116" fill="white" transform="translate(0.414062 0.600586)"/>
</clipPath>
</defs>
</svg>
