<svg width="107" height="106" viewBox="0 0 107 106" fill="none" xmlns="http://www.w3.org/2000/svg">
<g clip-path="url(#clip0_195_25424)">
<path d="M86.2981 30.4311C86.2988 28.1245 85.6861 25.8592 84.5228 23.8674C83.3595 21.8757 81.6875 20.2291 79.6781 19.0965C77.6688 17.9638 75.3944 17.3859 73.0881 17.4219C70.7817 17.4579 68.5265 18.1066 66.5535 19.3014C65.9801 16.3338 64.3914 13.6584 62.0603 11.7346C59.7291 9.81072 56.8009 8.75847 53.7784 8.75847C50.7559 8.75847 47.8277 9.81072 45.4966 11.7346C43.1654 13.6584 41.5767 16.3338 41.0033 19.3014M86.2981 30.4311C89.1729 30.4311 91.9299 31.5731 93.9626 33.6058C95.9954 35.6385 97.1373 38.3955 97.1373 41.2703C97.1373 44.145 95.9954 46.902 93.9626 48.9347C91.9299 50.9675 89.1729 52.1095 86.2981 52.1095L21.263 52.1095C18.3883 52.1095 15.6313 50.9675 13.5985 48.9347C11.5658 46.902 10.4238 44.145 10.4238 41.2703C10.4238 38.3955 11.5658 35.6385 13.5985 33.6058C15.6313 31.5731 18.3883 30.4311 21.263 30.4311C21.2628 28.1251 21.8756 25.8606 23.0387 23.8695C24.2018 21.8783 25.8733 20.2322 27.882 19.0997C29.8906 17.9672 32.1643 17.389 34.47 17.4245C36.7756 17.4599 39.0304 18.1077 41.0033 19.3014M86.2981 30.4311C82.7516 30.4311 79.6039 32.135 77.6268 34.7668M41.0033 19.3014C43.5793 20.8574 45.536 23.2584 46.54 26.0954M94.0704 83.5431L84.3152 73.7878L84.3152 65.1165M13.4907 83.5431L23.246 73.7878L23.246 65.1165M74.1711 96.0041L66.7152 88.5482L66.7152 65.1165M74.1711 96.0041C74.781 95.3943 75.6081 95.0517 76.4705 95.0517C77.3329 95.0517 78.16 95.3943 78.7698 96.0041C79.3796 96.614 79.7222 97.4411 79.7222 98.3035C79.7222 99.1659 79.3796 99.993 78.7698 100.603C78.16 101.213 77.3329 101.555 76.4705 101.555C75.6081 101.555 74.7809 101.213 74.1711 100.603C73.5613 99.993 73.2187 99.1659 73.2187 98.3035C73.2187 97.4411 73.5613 96.614 74.1711 96.0041ZM29.2425 98.1041L38.9978 88.3488L38.9978 65.1165M94.0704 80.2914C93.208 80.2914 92.3809 80.634 91.7711 81.2438C91.1613 81.8536 90.8187 82.6807 90.8187 83.5431C90.8187 84.4055 91.1613 85.2326 91.7711 85.8425C92.3809 86.4523 93.208 86.7949 94.0704 86.7949C94.9329 86.7949 95.76 86.4523 96.3698 85.8425C96.9796 85.2326 97.3222 84.4055 97.3222 83.5431C97.3222 82.6807 96.9796 81.8536 96.3698 81.2438C95.76 80.634 94.9329 80.2914 94.0704 80.2914ZM13.4907 80.2914C14.3531 80.2914 15.1802 80.634 15.79 81.2438C16.3999 81.8536 16.7425 82.6807 16.7425 83.5431C16.7425 84.4055 16.3999 85.2326 15.79 85.8425C15.1802 86.4523 14.3531 86.7949 13.4907 86.7949C12.6283 86.7949 11.8012 86.4523 11.1914 85.8425C10.5815 85.2326 10.2389 84.4055 10.2389 83.5431C10.2389 82.6807 10.5815 81.8536 11.1914 81.2438C11.8012 80.634 12.6283 80.2914 13.4907 80.2914ZM29.2425 94.8523C30.105 94.8523 30.9321 95.1949 31.5419 95.8047C32.1517 96.4145 32.4943 97.2416 32.4943 98.1041C32.4943 98.9665 32.1517 99.7936 31.5419 100.403C30.9321 101.013 30.105 101.356 29.2425 101.356C28.3801 101.356 27.553 101.013 26.9432 100.403C26.3334 99.7936 25.9908 98.9665 25.9908 98.1041C25.9908 97.2416 26.3334 96.4145 26.9432 95.8047C27.553 95.1949 28.3801 94.8523 29.2425 94.8523Z" stroke="#2837FF" stroke-width="2.4" stroke-linecap="round" stroke-linejoin="round"/>
</g>
<defs>
<clipPath id="clip0_195_25424">
<rect width="105.757" height="105.757" fill="white" transform="translate(0.902466 0.0821533)"/>
</clipPath>
</defs>
</svg>
