<svg width="96" height="94" viewBox="0 0 96 94" fill="none" xmlns="http://www.w3.org/2000/svg">
<path d="M9.97046 19.5864H9.58136C5.80394 19.6189 3.14515 20.3484 1.57258 21.9048C0.551212 22.9261 0 24.2717 0 25.8281V74.124C0 77.8204 -7.73054e-07 83.9972 7.42515 84.0782L11.9483 84.1269H12.0618C12.613 84.1269 13.1642 84.0782 13.683 83.9972C17.3308 83.4135 19.6005 81.0142 19.6005 77.7393V25.8281C19.6167 19.6188 13.3426 19.5864 9.97046 19.5864ZM16.4229 77.7393C16.4229 80.009 14.3964 80.6737 13.1805 80.8682C12.7914 80.9331 12.3861 80.9655 11.9808 80.9493L7.45758 80.9007C3.82606 80.852 3.17758 79.0849 3.17758 74.124V25.8119C3.17758 25.0985 3.37212 24.5635 3.80985 24.142C4.71773 23.2342 6.71182 22.7478 9.43546 22.7478H9.56515H9.97046C14.445 22.764 16.4391 23.2017 16.4391 25.8119V77.7393H16.4229Z" fill="#1727FF"/>
<path d="M32.0169 34.3394C30.0066 34.3394 27.2343 34.3232 25.2888 36.0416C23.084 37.9871 23.2785 40.9701 23.4244 43.3533C23.4569 43.8883 23.4893 44.4071 23.4893 44.8772V76.1342C23.4893 78.8903 23.4893 84.0133 30.2011 84.0782L34.1731 84.1106H34.2866C34.7567 84.1106 35.2431 84.0782 35.697 84.0133C39.0205 83.5594 41.0956 81.5815 41.0956 78.8741V42.7697C41.0956 35.766 37.7884 34.3718 32.0169 34.3394ZM37.9181 78.8903C37.9181 80.3494 36.0699 80.7709 35.2593 80.8844C34.9188 80.933 34.5622 80.9654 34.2055 80.9492L30.2335 80.9168C27.137 80.8844 26.6669 79.8144 26.6669 76.1504V44.8772C26.6669 44.3422 26.6344 43.7586 26.5858 43.1425C26.4723 41.2781 26.3426 39.3327 27.3802 38.4086C28.3205 37.5818 29.9579 37.5007 31.5467 37.5007H32.0655C37.0264 37.5169 37.9019 38.3113 37.9019 42.7535V78.8903H37.9181Z" fill="#1727FF"/>
<path d="M54.8152 46.9363C52.74 46.9201 50.1623 46.9201 48.2817 48.136C45.8498 49.7086 46.0768 52.2863 46.2227 54.0048C46.2552 54.3776 46.2876 54.7343 46.2876 55.0586V77.869C46.2876 80.9169 47.082 84.0458 52.9994 84.0945L56.9714 84.1269H57.0686C57.5226 84.1269 57.9765 84.1107 58.4305 84.062C61.8512 83.7216 63.8777 82.149 63.8777 79.8793V71.2545C63.8777 64.2508 63.8777 55.399 63.8777 53.5184C63.8939 47.4713 59.6301 46.9525 54.8152 46.9363ZM60.7164 71.2545V79.8793C60.7164 80.1387 59.9382 80.7061 58.1224 80.9007C57.7495 80.9331 57.3929 80.9493 57.0038 80.9493L53.0318 80.9169C49.4652 80.8845 49.4652 79.8793 49.4652 77.869V55.0586C49.4652 54.6533 49.4327 54.1993 49.3841 53.7292C49.2382 52.0593 49.2544 51.2811 50.0002 50.811C50.9891 50.1625 52.7724 50.1139 54.3612 50.1139H54.8638C60.7002 50.1301 60.7002 51.2001 60.7002 53.5184C60.7164 55.399 60.7164 64.2346 60.7164 71.2545Z" fill="#1727FF"/>
<path d="M87.6253 66.3587C87.6091 66.0021 87.6253 65.6292 87.6253 65.2401C87.6578 63.5865 87.7064 61.5113 86.3121 59.8739C84.3667 57.588 81.3512 57.6042 79.1626 57.6204H78.5465H78.3358C74.8664 57.6204 70.5053 57.6042 70.0352 63.473C69.7758 66.6992 69.9703 70.1524 70.1649 73.4758C70.2622 75.0322 70.3432 76.5562 70.3918 78.0477C70.5053 82.3115 72.3211 84.0624 76.6659 84.0786L80.6379 84.0948H80.7514C81.1891 84.0948 81.6268 84.0786 82.0646 84.0462C85.534 83.803 87.3821 82.9437 87.7875 78.8583C88.0793 75.8428 87.9334 72.7625 87.7875 69.7795C87.7064 68.6609 87.6578 67.5098 87.6253 66.3587ZM84.5937 78.5827C84.3829 80.6254 84.2532 80.7389 81.8214 80.901C81.4323 80.9334 81.0594 80.9334 80.6055 80.9334L76.6822 80.9172C74.0558 80.901 73.6505 80.5119 73.5694 77.9828C73.5208 76.4589 73.4397 74.8863 73.3425 73.3137C73.1641 70.0875 72.9696 66.7478 73.2128 63.7486C73.4397 61.0249 74.4773 60.8304 77.9953 60.8304H78.3196H78.5303H79.1788C80.9946 60.8142 82.9076 60.798 83.8803 61.9652C84.4964 62.6948 84.464 63.8458 84.4478 65.2077C84.4315 65.6292 84.4315 66.0507 84.4478 66.4722C84.4802 67.6395 84.5288 68.8068 84.5937 69.9902C84.7234 72.8436 84.8693 75.7942 84.5937 78.5827Z" fill="#1727FF"/>
<path d="M82.6138 45.3473C82.711 45.3635 82.8245 45.3797 82.9218 45.3797C83.6676 45.3797 84.3323 44.8447 84.4782 44.099C84.6403 43.2397 84.0891 42.3967 83.2136 42.2346C64.7642 38.6193 35.1771 25.5523 12.5126 0.520787C11.9289 -0.127698 10.9238 -0.176335 10.2591 0.407302C9.61058 0.990938 9.56195 1.99609 10.1456 2.66079C33.3451 28.2597 63.678 41.6509 82.6138 45.3473Z" fill="#1727FF"/>
<path d="M91.4873 46.6285C91.617 46.0773 91.4549 45.5099 91.0496 45.1046C87.3046 41.4569 84.0946 37.2904 81.5331 32.7185C81.0953 31.9566 80.1388 31.681 79.3606 32.1187C78.5987 32.5564 78.3231 33.5129 78.7608 34.2911C81.0305 38.3279 83.7865 42.0892 86.9479 45.4613C83.2515 46.4826 79.5065 47.3581 75.7453 48.039C74.8861 48.2011 74.3024 49.0279 74.4646 49.8872C74.6105 50.6492 75.2752 51.1842 76.0209 51.1842C76.1182 51.1842 76.2155 51.1679 76.3128 51.1517C81.0467 50.2763 85.7806 49.1414 90.3849 47.7634C90.9361 47.6175 91.3576 47.1798 91.4873 46.6285Z" fill="#1727FF"/>
<path d="M4.65095 91.4222C2.23534 89.8496 0.954583 87.8069 0.662765 87.969C0.387159 88.0501 1.34367 90.6116 4.01868 92.3625C6.69368 94.1459 9.41731 94.0324 9.38489 93.7406C9.41731 93.4163 7.03413 93.0272 4.65095 91.4222Z" fill="#1727FF"/>
<path d="M91.0791 89.5253C91.3925 89.5253 91.6466 87.2171 91.6466 84.3698C91.6466 81.5225 91.3925 79.2144 91.0791 79.2144C90.7658 79.2144 90.5117 81.5225 90.5117 84.3698C90.5117 87.2171 90.7658 89.5253 91.0791 89.5253Z" fill="#1727FF"/>
<path d="M95.1492 81.29C95.1006 78.4042 94.5818 76.1183 94.2737 76.1507C93.9495 76.1832 93.9495 78.4853 94.0144 81.3224C94.0792 84.1433 94.1765 86.4454 94.4845 86.4779C94.7925 86.4941 95.1978 84.1757 95.1492 81.29Z" fill="#1727FF"/>
<path d="M5.35267 88.6505C3.32615 87.4183 2.43449 85.5864 2.14267 85.6999C2.01297 85.7485 2.0454 86.2997 2.43449 87.0941C2.82358 87.8885 3.60176 88.8774 4.75282 89.5908C5.90388 90.3203 7.136 90.5959 8.01146 90.5959C8.90312 90.5959 9.4057 90.3852 9.4057 90.2392C9.37328 89.9474 7.34676 89.9474 5.35267 88.6505Z" fill="#1727FF"/>
</svg>
