<svg width="26" height="26" viewBox="0 0 26 26" fill="none" xmlns="http://www.w3.org/2000/svg">
<path d="M24.9866 5.54517C24.0481 4.44768 22.3153 4 19.0061 4H6.99366C3.60872 4 1.84659 4.47655 0.911594 5.645C0 6.78425 0 8.46283 0 10.786V15.214C0 19.7148 1.0816 22 6.99366 22H19.0062C21.8759 22 23.4661 21.605 24.4949 20.6364C25.5499 19.6432 26 18.0216 26 15.214V10.786C26 8.33602 25.9295 6.64753 24.9866 5.54517ZM16.6921 13.6114L11.2373 16.4158C11.1153 16.4785 10.982 16.5096 10.8488 16.5096C10.698 16.5096 10.5475 16.4697 10.4143 16.3903C10.1633 16.2408 10.0101 15.9732 10.0101 15.6846V10.0936C10.0101 9.80553 10.1629 9.53821 10.4133 9.38855C10.6639 9.23888 10.9754 9.22865 11.2354 9.36149L16.6902 12.1479C16.9677 12.2896 17.142 12.5715 17.1424 12.879C17.1427 13.1867 16.9692 13.469 16.6921 13.6114Z" fill="white"/>
</svg>
