<svg width="105" height="105" viewBox="0 0 105 105" fill="none" xmlns="http://www.w3.org/2000/svg">
<path d="M56.3046 53.1561C57.9301 52.3052 59.2235 50.9338 59.9778 49.2612C60.7321 47.5886 60.9039 45.7114 60.4658 43.9297C60.0276 42.148 59.0047 40.5646 57.5607 39.4326C56.1167 38.3007 54.3348 37.6855 52.5 37.6855C50.6652 37.6855 48.8833 38.3007 47.4393 39.4326C45.9953 40.5646 44.9724 42.148 44.5342 43.9297C44.0961 45.7114 44.2679 47.5886 45.0222 49.2612C45.7765 50.9338 47.0699 52.3052 48.6954 53.1561C46.4528 53.9453 44.51 55.4104 43.1346 57.3497C41.7592 59.2889 41.0189 61.6068 41.0156 63.9843C41.0156 64.4194 41.1885 64.8367 41.4962 65.1444C41.8038 65.452 42.2211 65.6249 42.6562 65.6249H62.3438C62.7789 65.6249 63.1962 65.452 63.5038 65.1444C63.8115 64.8367 63.9844 64.4194 63.9844 63.9843C63.9811 61.6068 63.2408 59.2889 61.8654 57.3497C60.49 55.4104 58.5472 53.9453 56.3046 53.1561ZM52.5 41.0155C53.4735 41.0155 54.425 41.3042 55.2344 41.845C56.0438 42.3858 56.6747 43.1545 57.0472 44.0539C57.4197 44.9532 57.5172 45.9429 57.3273 46.8976C57.1374 47.8524 56.6686 48.7294 55.9803 49.4177C55.292 50.106 54.415 50.5748 53.4602 50.7647C52.5055 50.9546 51.5158 50.8571 50.6165 50.4846C49.7171 50.1121 48.9484 49.4812 48.4076 48.6718C47.8668 47.8624 47.5781 46.9109 47.5781 45.9374C47.5781 44.632 48.0967 43.3801 49.0197 42.4571C49.9427 41.5341 51.1946 41.0155 52.5 41.0155ZM44.4609 62.3436C44.8375 60.4893 45.8435 58.8221 47.3086 57.6246C48.7737 56.4271 50.6078 55.7729 52.5 55.7729C54.3922 55.7729 56.2263 56.4271 57.6914 57.6246C59.1565 58.8221 60.1625 60.4893 60.5391 62.3436H44.4609Z" fill="currentColor"/>
<path d="M86.9532 70.547C83.1695 70.5441 79.5021 71.8552 76.5779 74.2565L68.6799 66.3585C71.8012 62.7241 73.6007 58.1404 73.7856 53.3533L90.5396 52.7331C91.0068 54.2476 92.01 55.5399 93.3613 56.3681C94.7126 57.1964 96.3194 57.5037 97.881 57.2327C99.4426 56.9617 100.852 56.1308 101.845 54.8957C102.838 53.6605 103.347 52.1058 103.277 50.5224C103.206 48.9391 102.561 47.4357 101.462 46.2936C100.363 45.1516 98.8858 44.4492 97.3063 44.3179C95.7268 44.1867 94.1536 44.6356 92.8812 45.5806C91.6088 46.5255 90.7244 47.9018 90.3936 49.4519L73.6789 50.0704C73.3209 46.9637 72.2841 43.9737 70.642 41.3123C68.9998 38.6509 66.7925 36.3832 64.1764 34.6698L67.3117 28.9703C69.6453 29.7848 72.1998 29.6929 74.4689 28.7127C76.7379 27.7325 78.5559 25.9355 79.5625 23.678C80.569 21.4205 80.6907 18.8673 79.9034 16.5243C79.1161 14.1813 77.4772 12.2196 75.3117 11.0281C73.1461 9.83655 70.6119 9.50209 68.2114 10.091C65.8108 10.6799 63.7192 12.1493 62.351 14.2078C60.9827 16.2663 60.4378 18.7637 60.8243 21.205C61.2107 23.6463 62.5002 25.8534 64.4373 27.3887L61.3004 33.0915C57.6114 31.4022 53.5148 30.8081 49.4979 31.38C45.4809 31.9518 41.7128 33.6654 38.6417 36.317L30.7438 28.419C33.4124 25.1552 34.7245 20.9904 34.4087 16.7863C34.0928 12.5821 32.1731 8.66022 29.0467 5.83177C25.9203 3.00331 21.8263 1.48472 17.6116 1.5901C13.3969 1.69548 9.38398 3.41677 6.40282 6.39793C3.42165 9.3791 1.70036 13.392 1.59498 17.6067C1.4896 21.8214 3.0082 25.9154 5.83665 29.0418C8.6651 32.1682 12.587 34.0879 16.7912 34.4038C20.9953 34.7197 25.1601 33.4076 28.4239 30.7389L36.3219 38.6368C34.2319 41.0497 32.7168 43.9055 31.8906 46.9889C31.0645 50.0723 30.9489 53.303 31.5526 56.4376L17.143 60.3161C16.2296 58.5436 14.6973 57.1682 12.837 56.4506C10.9766 55.7331 8.91756 55.7234 7.05054 56.4235C5.18352 57.1235 3.63843 58.4845 2.70843 60.2483C1.77843 62.0121 1.52823 64.0559 2.00531 65.9919C2.48239 67.928 3.65356 69.6215 5.29658 70.7512C6.9396 71.881 8.94017 72.3683 10.9187 72.1207C12.8972 71.8731 14.716 70.9078 16.03 69.4081C17.3439 67.9083 18.0617 65.9784 18.047 63.9845C18.047 63.8204 18.0076 63.6564 17.9961 63.4923L32.4156 59.6106C34.0756 64.2713 37.2982 68.2134 41.5358 70.7668L38.0626 77.7001C35.3033 76.776 32.2965 76.9314 29.6472 78.1351C26.9979 79.3387 24.9029 81.5012 23.7838 84.1873C22.6648 86.8734 22.6047 89.8837 23.6158 92.6123C24.6268 95.3408 26.634 97.5852 29.2331 98.8935C31.8323 100.202 34.8306 100.477 37.6245 99.6636C40.4184 98.8503 42.8005 97.0089 44.2914 94.5099C45.7822 92.0109 46.2712 89.04 45.6598 86.1951C45.0483 83.3502 43.382 80.8425 40.996 79.1767L44.461 72.2434C48.0843 73.7288 52.0481 74.182 55.9131 73.5528C59.7782 72.9235 63.3935 71.2364 66.3585 68.6783L74.2564 76.5763C71.9022 79.4606 70.5997 83.0603 70.5629 86.7832C70.5262 90.5061 71.7574 94.1308 74.0542 97.061C76.351 99.9913 79.5766 102.053 83.2006 102.906C86.8245 103.76 90.6311 103.355 93.9943 101.758C97.3574 100.161 100.077 97.4667 101.706 94.1188C103.335 90.7708 103.776 86.9683 102.956 83.3364C102.137 79.7046 100.106 76.4596 97.1976 74.1353C94.2892 71.8109 90.6763 70.5454 86.9532 70.547ZM96.797 47.5783C97.4459 47.5783 98.0803 47.7707 98.6199 48.1312C99.1595 48.4918 99.5801 49.0043 99.8284 49.6038C100.077 50.2034 100.142 50.8631 100.015 51.4996C99.8886 52.1361 99.5761 52.7208 99.1172 53.1797C98.6583 53.6386 98.0736 53.9511 97.4371 54.0777C96.8006 54.2043 96.1409 54.1393 95.5413 53.891C94.9417 53.6426 94.4293 53.2221 94.0687 52.6825C93.7082 52.1429 93.5157 51.5085 93.5157 50.8595C93.5157 49.9893 93.8614 49.1547 94.4768 48.5393C95.0921 47.924 95.9267 47.5783 96.797 47.5783ZM70.547 13.1251C71.8449 13.1251 73.1137 13.51 74.1929 14.2311C75.2721 14.9522 76.1132 15.9771 76.6099 17.1763C77.1066 18.3754 77.2366 19.6949 76.9834 20.9679C76.7302 22.2409 76.1051 23.4102 75.1874 24.328C74.2696 25.2458 73.1003 25.8708 71.8272 26.124C70.5542 26.3773 69.2347 26.2473 68.0356 25.7506C66.8365 25.2539 65.8115 24.4128 65.0905 23.3336C64.3694 22.2544 63.9845 20.9856 63.9845 19.6876C63.9845 17.9471 64.6759 16.2779 65.9066 15.0472C67.1373 13.8165 68.8065 13.1251 70.547 13.1251ZM9.84384 68.9064C8.87039 68.9064 7.91879 68.6177 7.10939 68.0769C6.3 67.5361 5.66915 66.7674 5.29662 65.868C4.9241 64.9687 4.82663 63.979 5.01654 63.0243C5.20645 62.0695 5.67521 61.1926 6.36355 60.5042C7.05189 59.8159 7.92888 59.3471 8.88363 59.1572C9.83838 58.9673 10.828 59.0648 11.7274 59.4373C12.6267 59.8098 13.3954 60.4407 13.9362 61.2501C14.4771 62.0595 14.7657 63.0111 14.7657 63.9845C14.7657 65.2899 14.2472 66.5418 13.3241 67.4648C12.4011 68.3878 11.1492 68.9064 9.84384 68.9064ZM42.6563 88.5939C42.6563 90.2163 42.1752 91.8023 41.2739 93.1513C40.3725 94.5003 39.0913 95.5517 37.5924 96.1726C36.0935 96.7934 34.4441 96.9559 32.8529 96.6394C31.2616 96.3229 29.8 95.5416 28.6527 94.3944C27.5055 93.2471 26.7242 91.7855 26.4077 90.1942C26.0912 88.603 26.2536 86.9536 26.8745 85.4547C27.4954 83.9558 28.5468 82.6746 29.8958 81.7732C31.2448 80.8719 32.8308 80.3908 34.4532 80.3908C36.628 80.3934 38.713 81.2585 40.2508 82.7963C41.7886 84.3341 42.6537 86.4191 42.6563 88.5939ZM4.92197 18.047C4.91687 15.9145 5.43149 13.8128 6.42129 11.9238C7.41109 10.0349 8.84626 8.41559 10.6026 7.20603C12.359 5.99647 14.3836 5.2331 16.5013 4.98196C18.619 4.73083 20.7661 4.9995 22.7566 5.76473C24.7471 6.52996 26.5212 7.76869 27.9254 9.37374C29.3295 10.9788 30.3214 12.9018 30.8152 14.9764C31.309 17.051 31.2899 19.2147 30.7594 21.2802C30.229 23.3458 29.2033 25.2509 27.771 26.8309C27.8466 26.6465 27.8873 26.4495 27.8907 26.2501C27.8949 24.9569 27.6424 23.6758 27.1478 22.4808C26.6533 21.2859 25.9266 20.201 25.0098 19.289C24.356 18.6352 23.6137 18.0763 22.8048 17.6286C23.6915 16.699 24.2858 15.5295 24.5141 14.2652C24.7423 13.0009 24.5945 11.6974 24.0888 10.5164C23.5832 9.33536 22.742 8.32871 21.6696 7.62128C20.5972 6.91385 19.3407 6.53675 18.056 6.53675C16.7713 6.53675 15.5148 6.91385 14.4424 7.62128C13.37 8.32871 12.5288 9.33536 12.0231 10.5164C11.5175 11.6974 11.3696 13.0009 11.5979 14.2652C11.8262 15.5295 12.4205 16.699 13.3072 17.6286C11.7626 18.4772 10.4741 19.7249 9.5763 21.2415C8.67849 22.758 8.2043 24.4878 8.20322 26.2501C8.20656 26.4474 8.24546 26.6425 8.31806 26.826C6.13423 24.4235 4.92351 21.2937 4.92197 18.047ZM18.047 16.4064C17.398 16.4064 16.7636 16.2139 16.224 15.8534C15.6844 15.4928 15.2638 14.9804 15.0155 14.3808C14.7671 13.7812 14.7022 13.1215 14.8288 12.485C14.9554 11.8485 15.2679 11.2638 15.7268 10.8049C16.1857 10.346 16.7703 10.0335 17.4068 9.90693C18.0433 9.78032 18.7031 9.8453 19.3026 10.0937C19.9022 10.342 20.4147 10.7626 20.7752 11.3022C21.1358 11.8418 21.3282 12.4762 21.3282 13.1251C21.3282 13.9954 20.9825 14.83 20.3672 15.4453C19.7518 16.0607 18.9172 16.4064 18.047 16.4064ZM18.047 19.6876C19.5019 19.6876 20.9155 20.1711 22.0657 21.062C23.2159 21.9529 24.0374 23.2008 24.4011 24.6095H11.6912C12.0568 23.2015 12.879 21.9546 14.0291 21.0639C15.1792 20.1733 16.5923 19.6892 18.047 19.6876ZM9.26962 27.7759C9.45247 27.8487 9.64705 27.8877 9.84384 27.8908H26.2501C26.4499 27.888 26.6474 27.8479 26.8325 27.7726C24.4312 29.9573 21.3015 31.1679 18.0552 31.1679C14.8088 31.1679 11.6791 29.9573 9.27783 27.7726L9.26962 27.7759ZM34.4532 52.5001C34.4532 48.9308 35.5116 45.4416 37.4947 42.4738C39.4777 39.506 42.2962 37.1929 45.5938 35.827C48.8915 34.4611 52.5201 34.1037 56.0209 34.8C59.5216 35.4964 62.7373 37.2152 65.2612 39.7391C67.7851 42.263 69.5039 45.4786 70.2002 48.9794C70.8965 52.4801 70.5392 56.1087 69.1732 59.4064C67.8073 62.704 65.4942 65.5225 62.5264 67.5056C59.5586 69.4886 56.0694 70.547 52.5001 70.547C47.7155 70.5414 43.1285 68.6382 39.7453 65.255C36.362 61.8717 34.4589 57.2847 34.4532 52.5001ZM78.1759 96.6822C78.3587 96.755 78.5533 96.7939 78.7501 96.797H95.1563C95.3561 96.7942 95.5537 96.7542 95.7388 96.6789C93.3375 98.8635 90.2078 100.074 86.9614 100.074C83.7151 100.074 80.5854 98.8635 78.1841 96.6789L78.1759 96.6822ZM86.9532 85.3126C86.3043 85.3126 85.6699 85.1202 85.1303 84.7596C84.5907 84.3991 84.1701 83.8866 83.9217 83.2871C83.6734 82.6875 83.6084 82.0277 83.735 81.3912C83.8616 80.7547 84.1741 80.1701 84.633 79.7112C85.0919 79.2523 85.6766 78.9398 86.3131 78.8132C86.9496 78.6866 87.6093 78.7515 88.2089 78.9999C88.8085 79.2483 89.3209 79.6688 89.6815 80.2084C90.042 80.748 90.2345 81.3824 90.2345 82.0314C90.2345 82.9016 89.8888 83.7362 89.2734 84.3516C88.6581 84.9669 87.8235 85.3126 86.9532 85.3126ZM86.9532 88.5939C88.4081 88.5939 89.8217 89.0773 90.9719 89.9683C92.1221 90.8592 92.9436 92.1071 93.3074 93.5158H80.5974C80.963 92.1078 81.7852 90.8608 82.9354 89.9702C84.0855 89.0795 85.4986 88.5955 86.9532 88.5939ZM96.6756 95.7372C96.7518 95.5528 96.793 95.3558 96.797 95.1564C96.8011 93.8632 96.5486 92.582 96.0541 91.3871C95.5596 90.1922 94.8328 89.1073 93.916 88.1952C93.2622 87.5415 92.52 86.9826 91.711 86.5349C92.5977 85.6052 93.1921 84.4357 93.4203 83.1715C93.6486 81.9072 93.5007 80.6037 92.9951 79.4226C92.4895 78.2416 91.6483 77.235 90.5759 76.5275C89.5034 75.8201 88.247 75.443 86.9622 75.443C85.6775 75.443 84.421 75.8201 83.3486 76.5275C82.2762 77.235 81.435 78.2416 80.9294 79.4226C80.4238 80.6037 80.2759 81.9072 80.5042 83.1715C80.7324 84.4357 81.3267 85.6052 82.2135 86.5349C80.6688 87.3835 79.3804 88.6312 78.4826 90.1477C77.5847 91.6643 77.1105 93.394 77.1095 95.1564C77.1128 95.3537 77.1517 95.5488 77.2243 95.7322C75.5183 93.8493 74.3955 91.5117 73.9922 89.003C73.5888 86.4944 73.9223 83.9226 74.9522 81.5999C75.982 79.2771 77.664 77.3031 79.7938 75.9176C81.9237 74.5321 84.4099 73.7946 86.9508 73.7946C89.4916 73.7946 91.9778 74.5321 94.1077 75.9176C96.2375 77.3031 97.9195 79.2771 98.9493 81.5999C99.9792 83.9226 100.313 86.4944 99.9093 89.003C99.506 91.5117 98.3832 93.8493 96.6772 95.7322L96.6756 95.7372Z" fill="currentColor"/>
</svg>
