<svg width="105" height="105" viewBox="0 0 105 105" fill="none" xmlns="http://www.w3.org/2000/svg">
<path d="M34.784 88.1344L47.7244 81.1145L49.0164 83.4955C49.3404 84.0923 50.0869 84.3138 50.6857 83.9897C51.2825 83.6657 51.504 82.9192 51.18 82.3225L49.3015 78.8607C48.9774 78.264 48.231 78.0425 47.6342 78.3665L46.0018 79.2524C45.0666 76.5003 43.9325 73.7256 39.9663 71.9865C39.9253 71.9681 39.8843 71.9517 39.8412 71.9394L24.6347 67.1672C23.4247 66.7878 22.1389 66.9026 21.0089 67.4933C20.6603 67.6758 20.3444 67.8993 20.0553 68.1536L15.7938 59.7557C14.8032 57.8033 12.4079 57.0199 10.4556 58.0125C9.51221 58.4903 8.81084 59.3106 8.48067 60.3217C8.15049 61.3327 8.23252 62.4073 8.71036 63.3507L16.9053 79.4985C16.9319 79.5519 16.9627 79.6031 16.9976 79.6503C19.4339 83.1079 23.3427 83.6637 26.79 84.1559C29.251 84.5065 31.6012 84.8429 33.3648 86.1103L32.5322 86.5614C31.9355 86.8855 31.714 87.6319 32.038 88.2287L39.1193 101.282C39.3429 101.692 39.7653 101.926 40.2022 101.926C40.4011 101.926 40.6021 101.879 40.7887 101.776C41.3855 101.452 41.6069 100.706 41.2829 100.109L34.784 88.1344ZM27.1346 81.7154C23.9231 81.2581 20.8879 80.8254 19.0565 78.2988L10.9047 62.2351C10.7242 61.8782 10.6935 61.4701 10.8186 61.0846C10.9437 60.699 11.2103 60.3873 11.5671 60.2068C12.3095 59.8295 13.22 60.1269 13.5974 60.8692L18.5664 70.6617C18.0271 73.0509 19.4052 75.5016 21.7841 76.248L29.0685 78.5347C29.1915 78.5736 29.3146 78.5921 29.4376 78.5921C29.9606 78.5921 30.4466 78.2558 30.6107 77.7308C30.8137 77.0827 30.4527 76.3916 29.8047 76.1886L22.5203 73.9019C21.3104 73.5226 20.6356 72.2306 21.015 71.0206C21.1976 70.4382 21.5995 69.9604 22.145 69.6753C22.6905 69.3902 23.3119 69.3328 23.8943 69.5153L39.0291 74.2649C42.1565 75.6574 42.9071 77.7738 43.8033 80.4439L35.6904 84.8449C33.3341 82.5973 30.1861 82.1502 27.1346 81.7154ZM94.5438 58.0084C92.5914 57.0179 90.1961 57.7992 89.2056 59.7516L84.944 68.1495C84.6569 67.8952 84.3411 67.6717 83.9904 67.4892C82.8625 66.8985 81.5726 66.7837 80.3647 67.1631L65.1581 71.9352C65.115 71.9496 65.072 71.964 65.033 71.9824C61.0668 73.7215 59.9327 76.4962 58.9976 79.2483L57.3651 78.3624C56.7704 78.0404 56.028 78.2578 55.6999 78.8505L43.9899 100.097C43.6618 100.691 43.8792 101.44 44.4739 101.768C45.0687 102.096 45.8172 101.879 46.1453 101.284L57.2646 81.1084L70.2133 88.1323L63.7185 100.105C63.3944 100.702 63.6159 101.448 64.2127 101.772C64.3993 101.873 64.6003 101.922 64.7992 101.922C65.236 101.922 65.6585 101.688 65.882 101.278L72.9634 88.2246C73.2874 87.6278 73.0659 86.8813 72.4691 86.5573L71.6365 86.1061C73.4002 84.8367 75.7504 84.5024 78.2113 84.1518C81.6587 83.6616 85.5654 83.1038 88.0038 79.6462C88.0387 79.597 88.0694 79.5478 88.0961 79.4944L96.291 63.3466C97.2795 61.3942 96.4961 58.9989 94.5438 58.0084ZM94.0926 62.233L85.9407 78.2968C84.1094 80.8254 81.0742 81.2561 77.8627 81.7134C74.8091 82.1481 71.6632 82.5973 69.3048 84.8408L61.1919 80.4398C62.0881 77.7697 62.8387 75.6533 65.9682 74.2608L81.1029 69.5112C81.6833 69.3287 82.3067 69.3861 82.8522 69.6712C83.3998 69.9563 83.7997 70.4341 83.9822 71.0165C84.3616 72.2265 83.6869 73.5185 82.477 73.8979L75.1926 76.1845C74.5445 76.3875 74.1836 77.0786 74.3866 77.7267C74.5507 78.2517 75.0367 78.59 75.5597 78.59C75.6827 78.59 75.8058 78.5716 75.9288 78.5326L83.2132 76.246C85.59 75.4995 86.9702 73.0488 86.4309 70.6597L91.3999 60.8672C91.7773 60.1248 92.6878 59.8274 93.4302 60.2048C94.1726 60.5801 94.4699 61.4906 94.0926 62.233ZM37.4767 41.9877C37.37 42.2297 37.2675 42.4737 37.1731 42.7178L30.6947 43.7698C30.1 43.8662 29.6611 44.381 29.6611 44.9839V52.2867C29.6611 52.8896 30.098 53.4044 30.6947 53.5008L37.1731 54.5528C37.2675 54.7989 37.37 55.043 37.4767 55.2829L33.6397 60.6088C33.2869 61.0989 33.3402 61.7716 33.7689 62.1981L38.9327 67.362C39.3593 67.7886 40.0319 67.8419 40.5221 67.4912L45.848 63.6542C46.0899 63.7608 46.334 63.8634 46.578 63.9577L47.6301 70.4382C47.7265 71.0329 48.2412 71.4718 48.8441 71.4718H56.147C56.7499 71.4718 57.2646 71.035 57.361 70.4382L58.4131 63.9577C58.6592 63.8634 58.9032 63.7608 59.1432 63.6542L64.469 67.4912C64.9592 67.8439 65.6318 67.7906 66.0584 67.362L71.2223 62.1981C71.6488 61.7716 71.7042 61.0989 71.3515 60.6088L67.5145 55.2829C67.6211 55.0409 67.7236 54.7969 67.818 54.5528L74.2964 53.5008C74.8911 53.4044 75.33 52.8896 75.33 52.2867V44.9839C75.33 44.381 74.8932 43.8662 74.2964 43.7698L67.818 42.7178C67.7236 42.4717 67.6211 42.2276 67.5145 41.9877L71.3515 36.6618C71.7042 36.1717 71.6509 35.499 71.2223 35.0725L66.0584 29.9086C65.6318 29.482 64.9592 29.4267 64.469 29.7794L59.1432 33.6164C58.9012 33.5098 58.6571 33.4072 58.411 33.3129L57.359 26.8324C57.2626 26.2377 56.7479 25.7988 56.1449 25.7988H48.8421C48.2392 25.7988 47.7244 26.2356 47.628 26.8324L46.576 33.3129C46.3299 33.4072 46.0858 33.5098 45.8459 33.6164L40.5221 29.7773C40.0319 29.4246 39.3593 29.4779 38.9327 29.9065L33.7689 35.0704C33.3423 35.497 33.2869 36.1696 33.6397 36.6598L37.4767 41.9877ZM39.9314 32.3859L44.9969 36.0343C45.3681 36.3009 45.8562 36.3419 46.2663 36.1368C46.8487 35.8456 47.4537 35.5954 48.0669 35.3903C48.4996 35.2447 48.8175 34.8715 48.8913 34.4203L49.8921 28.2598H55.1031L56.1039 34.4203C56.1777 34.8715 56.4956 35.2447 56.9283 35.3903C57.5395 35.5954 58.1465 35.8456 58.7289 36.1368C59.1391 36.3419 59.6272 36.3009 59.9983 36.0343L65.0638 32.3859L68.747 36.0691L65.0986 41.1346C64.832 41.5058 64.791 41.9938 64.9961 42.404C65.2873 42.9844 65.5375 43.5914 65.7446 44.2066C65.8902 44.6394 66.2635 44.9572 66.7147 45.0311L72.8752 46.0318V51.2429L66.7147 52.2437C66.2635 52.3175 65.8902 52.6353 65.7446 53.0681C65.5396 53.6812 65.2894 54.2862 64.9981 54.8686C64.7931 55.2788 64.8341 55.7669 65.1007 56.1381L68.749 61.2035L65.0658 64.8867L60.0004 61.2384C59.6292 60.9718 59.1411 60.9308 58.731 61.1358C58.1506 61.427 57.5436 61.6772 56.9304 61.8823C56.4977 62.0279 56.1798 62.4012 56.106 62.8523L55.1052 69.0129H49.8941L48.8934 62.8523C48.8195 62.4012 48.5017 62.0279 48.0689 61.8823C47.4558 61.6772 46.8508 61.425 46.2684 61.1358C45.8582 60.9308 45.3701 60.9718 44.9989 61.2384L39.9335 64.8867L36.2503 61.2035L39.8986 56.1381C40.1652 55.7669 40.2063 55.2788 40.0012 54.8686C39.71 54.2883 39.4598 53.6813 39.2526 53.066C39.107 52.6333 38.7338 52.3154 38.2826 52.2416L32.1221 51.2408V46.0298L38.2826 45.029C38.7338 44.9552 39.107 44.6373 39.2526 44.2046C39.4577 43.5914 39.7079 42.9864 39.9991 42.404C40.2042 41.9938 40.1632 41.5058 39.8966 41.1346L36.2482 36.0691L39.9314 32.3859ZM52.4986 58.4411C57.9045 58.4411 62.3014 54.0442 62.3014 48.6384C62.3014 43.2325 57.9045 38.8356 52.4986 38.8356C47.0928 38.8356 42.6959 43.2325 42.6959 48.6384C42.6959 54.0442 47.0928 58.4411 52.4986 58.4411ZM52.4986 41.2945C56.5469 41.2945 59.8404 44.5881 59.8404 48.6363C59.8404 52.6846 56.5469 55.9781 52.4986 55.9781C48.4504 55.9781 45.1568 52.6846 45.1568 48.6363C45.1568 44.5881 48.4504 41.2945 52.4986 41.2945ZM12.2992 52.7297V39.7031C12.2992 36.1184 14.5961 32.9663 18.0148 31.8568C18.6218 31.66 19.2801 31.9594 19.5282 32.548C20.2132 34.1681 21.7923 35.214 23.5519 35.214C25.3114 35.214 26.8905 34.1681 27.5755 32.548C27.8236 31.9594 28.4819 31.66 29.089 31.8568C29.9585 32.1398 30.7727 32.5623 31.5089 33.1181C32.0523 33.5262 32.159 34.2993 31.7509 34.8407C31.3428 35.3842 30.5696 35.4929 30.0282 35.0827C29.7842 34.9002 29.5299 34.7361 29.2633 34.5946C28.0164 36.4978 25.8856 37.677 23.5539 37.677C21.2201 37.677 19.0894 36.4978 17.8425 34.5926C15.966 35.5852 14.7622 37.5313 14.7622 39.7031V51.4992H26.8536C27.5324 51.4992 28.0841 52.0509 28.0841 52.7297C28.0841 53.4085 27.5324 53.9602 26.8536 53.9602H13.5297C12.8509 53.9602 12.2992 53.4105 12.2992 52.7297ZM23.5519 32.6382C27.315 32.6382 30.3769 29.5764 30.3769 25.8132C30.3769 22.05 27.315 18.9882 23.5519 18.9882C19.7887 18.9882 16.7269 22.05 16.7269 25.8132C16.7248 29.5764 19.7866 32.6382 23.5519 32.6382ZM23.5519 21.4471C25.9595 21.4471 27.9159 23.4056 27.9159 25.8111C27.9159 28.2188 25.9574 30.1752 23.5519 30.1752C21.1463 30.1752 19.1878 28.2167 19.1878 25.8111C19.1857 23.4056 21.1442 21.4471 23.5519 21.4471ZM41.246 27.7245V23.7932C41.246 20.2084 43.5429 17.0563 46.9615 15.9469C47.5686 15.75 48.2269 16.0494 48.475 16.638C49.16 18.2581 50.7391 19.304 52.4986 19.304C54.2582 19.304 55.8373 18.2581 56.5223 16.638C56.7704 16.0494 57.4287 15.75 58.0357 15.9469C61.4544 17.0563 63.7513 20.2084 63.7513 23.7932V27.7245C63.7513 28.4033 63.1996 28.955 62.5208 28.955C61.842 28.955 61.2903 28.4033 61.2903 27.7245V23.7932C61.2903 21.6214 60.0865 19.6752 58.2101 18.6826C56.9632 20.5878 54.8324 21.767 52.4986 21.767C50.1648 21.767 48.0341 20.5878 46.7872 18.6826C44.9107 19.6752 43.7069 21.6214 43.7069 23.7932V27.7245C43.7069 28.4033 43.1553 28.955 42.4765 28.955C41.7977 28.955 41.246 28.4033 41.246 27.7245ZM52.4986 16.7282C56.2618 16.7282 59.3236 13.6664 59.3236 9.90322C59.3236 6.13799 56.2618 3.07617 52.4986 3.07617C48.7355 3.07617 45.6736 6.13799 45.6736 9.90117C45.6736 13.6664 48.7355 16.7282 52.4986 16.7282ZM52.4986 5.53711C54.9063 5.53711 56.8627 7.49561 56.8627 9.90117C56.8627 12.3088 54.9042 14.2652 52.4986 14.2652C50.0931 14.2652 48.1346 12.3067 48.1346 9.90117C48.1346 7.49561 50.091 5.53711 52.4986 5.53711ZM73.2505 34.8407C72.8403 34.2973 72.949 33.5262 73.4925 33.1181C74.2267 32.5644 75.0408 32.1398 75.9124 31.8568C76.5194 31.66 77.1777 31.9594 77.4259 32.548C78.1108 34.1681 79.6899 35.214 81.4495 35.214C83.2091 35.214 84.7882 34.1681 85.4732 32.548C85.7213 31.9594 86.3796 31.66 86.9866 31.8568C90.4053 32.9663 92.7022 36.1184 92.7022 39.7031V52.7297C92.7022 53.4085 92.1505 53.9602 91.4717 53.9602H78.1498C77.471 53.9602 76.9193 53.4085 76.9193 52.7297C76.9193 52.0509 77.471 51.4992 78.1498 51.4992H90.2412V39.7031C90.2412 37.5313 89.0374 35.5852 87.1609 34.5926C85.9141 36.4978 83.7833 37.677 81.4495 37.677C79.1157 37.677 76.987 36.4998 75.7401 34.5946C75.4735 34.7361 75.2192 34.9002 74.9772 35.0827C74.4297 35.4929 73.6586 35.3842 73.2505 34.8407ZM81.4454 32.6382C85.2086 32.6382 88.2704 29.5764 88.2704 25.8132C88.2704 22.05 85.2086 18.9882 81.4454 18.9882C77.6822 18.9882 74.6204 22.05 74.6204 25.8132C74.6204 29.5764 77.6822 32.6382 81.4454 32.6382ZM81.4454 21.4471C83.853 21.4471 85.8095 23.4056 85.8095 25.8111C85.8095 28.2188 83.851 30.1752 81.4454 30.1752C79.0398 30.1752 77.0814 28.2167 77.0814 25.8111C77.0814 23.4056 79.0398 21.4471 81.4454 21.4471Z" fill="currentColor"/>
</svg>
