<svg width="100" height="100" viewBox="0 0 100 100" fill="none" xmlns="http://www.w3.org/2000/svg">
<path d="M85.2681 44.1139C84.1265 43.2137 82.6277 43.0928 81.3566 43.7999L76.7277 46.3745C75.9068 46.8311 75.3844 47.6292 75.2941 48.5635C75.2853 48.6543 75.2844 48.7442 75.284 48.834L73.0387 50.0829C69.9074 51.8243 66.5517 52.1249 63.0644 50.9752C58.6597 49.5237 53.9429 50.3358 49.0445 53.3895L48.9129 53.4715C44.9662 50.9706 41.4254 51.277 37.9943 51.5747C34.3838 51.8879 30.6511 52.2116 25.7646 49.4629L24.7178 48.8741C24.7187 48.7713 24.7164 48.6678 24.7062 48.5633C24.6156 47.6286 24.0929 46.8307 23.2724 46.3743L18.6433 43.7995C17.3726 43.0932 15.8738 43.2133 14.732 44.1137C7.15017 50.0938 2.93201 60.7215 4.70213 69.3842C4.93904 70.5422 5.69861 71.4711 6.78611 71.9329L10.4158 73.4743C10.7769 73.6274 11.1519 73.7034 11.5238 73.7034C12.058 73.7034 12.5863 73.5467 13.0578 73.2383C13.2013 73.1444 13.3299 73.0366 13.4511 72.9229L22.0551 77.3585L24.5924 80.0889L24.4621 80.3145C23.7814 81.4936 23.6015 82.8711 23.9556 84.1932C24.3099 85.5153 25.1545 86.6182 26.3338 87.2991C27.1033 87.7432 27.958 87.9739 28.8271 87.9815C28.5388 88.8979 28.5164 89.8811 28.772 90.8352C29.1263 92.1573 29.9709 93.2602 31.1502 93.9411C32.7842 94.8844 34.7281 94.8207 36.2582 93.9426C36.6886 94.9602 37.432 95.8053 38.4015 96.3651C39.5795 97.045 40.957 97.2247 42.2799 96.87C42.7945 96.7321 43.276 96.5202 43.7121 96.2432C44.1496 97.2034 44.8705 98.0008 45.7988 98.5368C46.5816 98.9885 47.4523 99.2196 48.3367 99.2194C48.7832 99.2194 49.2334 99.1606 49.6771 99.0416C51 98.6873 52.1033 97.8432 52.7834 96.6653L52.8142 96.612L53.8033 97.1682C54.9353 97.8217 56.0017 98.0981 56.9611 98.0981C58.7877 98.0981 60.2248 97.0957 60.9801 95.7874C61.3562 95.136 61.5777 94.377 61.6051 93.5977C63.5679 93.9172 65.6158 93.0217 66.6679 91.1999C67.2142 90.2536 67.4094 89.1995 67.2947 88.1889C69.049 88.1612 70.7474 87.2418 71.6867 85.6149C72.2906 84.5688 72.4838 83.3969 72.3187 82.2858C72.7095 82.2721 73.1019 82.2166 73.4894 82.1125C74.8224 81.7555 75.9347 80.904 76.6211 79.7151C77.0982 78.8885 77.3289 77.9319 77.2994 76.9754L86.3916 72.7688C86.5517 72.9444 86.7351 73.1028 86.9426 73.2385C87.4137 73.5467 87.9416 73.7034 88.4762 73.7034C88.8482 73.7034 89.2232 73.6274 89.5845 73.4743L93.214 71.9329C94.3013 71.4709 95.0611 70.542 95.298 69.384C97.0681 60.7215 92.8502 50.0938 85.2681 44.1137V44.1139ZM11.5601 70.9504C11.5254 70.9731 11.5224 70.9737 11.4844 70.9573L7.85486 69.4159C7.58943 69.3032 7.43884 69.119 7.38103 68.8366C5.80623 61.1307 9.60974 51.6362 16.4252 46.2606C16.5779 46.1401 16.7451 46.0793 16.9158 46.0793C17.0482 46.0793 17.1826 46.1159 17.3144 46.1891L21.9433 48.7637C21.9685 48.7778 21.9758 48.7872 21.9758 48.7872C21.9758 48.7872 21.9816 48.7979 21.9844 48.8262C21.9873 48.8547 21.9836 48.8661 21.9836 48.8661C21.9836 48.8661 21.9781 48.8768 21.9556 48.8956C15.2672 54.5266 11.6847 62.1301 11.5963 70.8834C11.5959 70.925 11.5945 70.9278 11.5599 70.9502L11.5601 70.9504ZM27.7012 84.9309C27.1545 84.6153 26.7623 84.102 26.5972 83.4854C26.432 82.869 26.5148 82.2282 26.8304 81.6817L29.5226 77.0184C29.8375 76.4729 30.351 76.0815 30.9683 75.9159C31.5863 75.75 32.2265 75.8327 32.7719 76.1479C33.9076 76.8036 34.2982 78.2608 33.6429 79.3967L30.9498 84.0612C30.2937 85.1967 28.8365 85.5866 27.701 84.9309H27.7012ZM35.7672 90.7022C35.1109 91.8383 33.6529 92.2288 32.5174 91.5731C31.9707 91.2575 31.5785 90.7442 31.4135 90.1276C31.2482 89.5112 31.331 88.8704 31.6467 88.3239L33.2676 85.5159L33.3152 85.4333C33.3164 85.4315 33.3174 85.4295 33.3185 85.4276C33.3185 85.4274 33.3187 85.427 33.3189 85.4266L36.0101 80.7653C36.0101 80.7653 36.0105 80.7649 36.0105 80.7645C36.3254 80.2188 36.839 79.8272 37.4564 79.6618C38.0748 79.4958 38.7144 79.5786 39.2597 79.8936C40.3955 80.5493 40.7861 82.0065 40.1308 83.1426C40.1308 83.1426 40.1308 83.143 40.1304 83.1432C40.1303 83.1436 40.1301 83.1442 40.1297 83.1448L36.3474 89.6958L35.7666 90.7022H35.7672ZM41.5724 94.2291C40.9543 94.395 40.3142 94.3124 39.7689 93.9971C39.2222 93.6815 38.8301 93.1682 38.665 92.5516C38.4998 91.9352 38.5826 91.2944 38.8982 90.7479C39.2138 90.2014 42.5031 84.504 42.5031 84.504C42.8183 83.962 43.3301 83.5727 43.9453 83.4081C44.5623 83.2426 45.2033 83.3249 45.7486 83.6397C46.8838 84.2954 47.2748 85.7518 46.6205 86.8876C46.6201 86.8881 46.6197 86.8889 46.6193 86.8895C46.6189 86.8901 46.6187 86.8909 46.6183 86.8915L43.5838 92.1475L43.0183 93.1268C42.7035 93.6723 42.1898 94.0639 41.5724 94.2295V94.2291ZM50.4154 95.2985C50.1006 95.844 49.5871 96.2354 48.9697 96.401C48.3517 96.5668 47.7115 96.4842 47.1662 96.169C46.6195 95.8534 46.2273 95.3401 46.0623 94.7235C45.897 94.1071 45.9799 93.4663 46.2955 92.9198C46.2955 92.9196 46.2957 92.9192 46.2959 92.919L48.9887 88.2547C49.6449 87.1204 51.1015 86.7305 52.2369 87.386C52.7836 87.7016 53.1758 88.2149 53.3408 88.8315C53.5062 89.4481 53.4232 90.0889 53.1076 90.6354L50.4154 95.2985ZM74.2533 78.3481C73.932 78.9045 73.4097 79.3036 72.7822 79.4717C72.1545 79.6399 71.5027 79.5559 70.9461 79.2342L69.8029 78.5743C69.8019 78.5737 69.801 78.5731 69.8 78.5725C69.7994 78.5723 69.799 78.5721 69.7984 78.5717L66.9713 76.9395C66.317 76.5624 65.4812 76.7862 65.1037 77.4399C64.7262 78.0938 64.9504 78.9299 65.6041 79.3075L68.4342 80.9415C69.5892 81.6092 69.9861 83.092 69.3189 84.2479C68.6515 85.4042 67.1678 85.801 66.0115 85.1342L64.8724 84.4764C64.8701 84.4751 64.8678 84.4735 64.8654 84.4721C64.8631 84.4708 63.548 83.7116 63.548 83.7116C62.8941 83.3338 62.058 83.5579 61.6804 84.212C61.3027 84.8659 61.5267 85.702 62.1808 86.0795L63.4982 86.8403C64.5443 87.4442 64.9041 88.7868 64.3 89.8327C63.6959 90.8788 62.3535 91.2383 61.3078 90.6346L59.172 89.4014C58.5181 89.0243 57.682 89.2477 57.3045 89.9018C56.9267 90.5557 57.1508 91.3918 57.8047 91.7694L57.8109 91.7731C59.0099 92.4692 59.0674 93.6327 58.6125 94.4206C58.117 95.2792 56.9523 95.8291 55.1574 94.7928L54.182 94.2444L55.4762 92.0028C56.8859 89.561 56.0463 86.4276 53.6045 85.0178C52.324 84.2788 50.8539 84.1583 49.542 84.5622C49.2359 83.2237 48.3961 82.011 47.1162 81.2717C45.9381 80.5917 44.5607 80.4129 43.2377 80.7668C43.1763 80.7834 43.1152 80.801 43.0545 80.8196C42.7492 79.4797 41.909 78.2655 40.6277 77.5258C39.4498 76.8459 38.0728 76.6672 36.7494 77.0209C36.6873 77.0377 36.6256 77.0555 36.5644 77.0741C36.55 77.0114 36.5345 76.9485 36.5177 76.886C36.1635 75.5637 35.3189 74.4608 34.1396 73.7799C32.9617 73.1 31.5844 72.9202 30.2613 73.275C28.9385 73.6293 27.8351 74.4735 27.1551 75.6514L26.0236 77.6114L23.8963 75.3221C23.7887 75.2063 23.6617 75.1102 23.5211 75.0377L14.3449 70.3073C14.5709 62.6723 17.6135 56.2713 23.3941 51.2666L24.4248 51.8463C30.0476 55.0086 34.3953 54.6315 38.231 54.2989C41.1672 54.0442 43.5984 53.8344 46.2683 55.1208L36.8728 60.9788C35.6736 61.7264 34.966 62.8434 34.8801 64.1239C34.7865 65.5141 35.4646 66.9874 36.6494 67.9686C40.7865 71.394 44.6039 69.529 47.9719 67.8834C50.0806 66.8534 52.2613 65.7879 54.6574 65.7737H54.707C57.3256 65.7737 59.4506 67.003 61.6992 68.304L73.306 75.0053C74.1012 75.5879 74.2654 75.9551 74.5053 76.5737C74.6478 77.1795 74.5576 77.8227 74.2541 78.3483L74.2533 78.3481ZM74.7344 72.6725L63.0681 65.937C60.589 64.5028 58.0304 63.0124 54.641 63.0393C51.6209 63.0573 49.0443 64.3159 46.7711 65.4266C43.1941 67.1741 41.0414 68.0557 38.3929 65.8624C37.881 65.4385 37.5728 64.828 37.6078 64.3071C37.6344 63.9106 37.867 63.5809 38.3189 63.2993L50.4912 55.71C54.7271 53.069 58.5601 52.3694 62.2086 53.5723C66.391 54.9506 70.5957 54.5706 74.368 52.4723L76.5789 51.2426C82.3252 56.2055 85.375 62.5436 85.65 70.0997L76.4535 74.3545C76.1269 73.854 75.6449 73.3196 74.8492 72.7469C74.8123 72.7202 74.7736 72.6954 74.7342 72.6725H74.7344ZM92.6191 68.8366C92.5613 69.1192 92.4109 69.3034 92.1453 69.4161L88.5162 70.9573C88.4773 70.9741 88.4754 70.9737 88.4402 70.9508C88.4054 70.9282 88.4041 70.9254 88.4037 70.8842C88.3152 62.1305 84.7328 54.527 78.0439 48.8958C78.0252 48.8799 78.0178 48.869 78.0166 48.8666C78.0156 48.8639 78.0135 48.851 78.0158 48.8266C78.0181 48.8022 78.0228 48.7899 78.0242 48.7875C78.026 48.7852 78.0355 48.7758 78.0566 48.7641L82.6853 46.1897C82.8174 46.1163 82.9517 46.0799 83.0842 46.0799C83.2549 46.0799 83.4219 46.1407 83.5748 46.2612C90.3902 51.6366 94.1937 61.1313 92.6189 68.837L92.6191 68.8366ZM37.3103 29.111C39.0857 31.5877 40.6187 33.7266 40.6187 36.8825V40.726C40.6187 42.8795 42.2529 44.6571 44.3461 44.8874V46.5364C44.3461 48.4805 45.9279 50.0624 47.872 50.0624H52.1277C54.0719 50.0624 55.6537 48.4805 55.6537 46.5364V44.8874C57.7469 44.6571 59.381 42.8795 59.381 40.726V36.8825C59.381 33.7268 60.9142 31.5879 62.6894 29.1112C64.8951 26.034 67.3951 22.5465 67.3951 16.5059C67.3951 11.6391 65.4849 7.54536 61.8709 4.66763C58.7228 2.16099 54.507 0.780518 50 0.780518C45.4929 0.780518 41.2771 2.16099 38.1293 4.66763C34.5152 7.54536 32.6051 11.6391 32.6051 16.5059C32.6051 22.5465 35.1049 26.034 37.3103 29.111ZM52.1277 47.328H47.872C47.4429 47.328 47.0804 46.9657 47.0804 46.5364V44.9139H52.9193V46.5364C52.9193 46.9655 52.557 47.328 52.1277 47.328ZM55.193 42.1797H44.8066C44.0051 42.1797 43.3531 41.5276 43.3531 40.7262V39.3288H56.6465V40.7262C56.6465 41.5278 55.9943 42.1797 55.193 42.1797ZM51.249 36.5942H48.7506V26.5541C49.5697 26.6438 50.4301 26.6438 51.249 26.5541V36.5942ZM49.9998 3.51489C57.0607 3.51489 64.6605 7.58013 64.6605 16.5061C64.6605 21.668 62.5287 24.642 60.4668 27.5184C58.6338 30.0756 56.7408 32.7184 56.6508 36.5944H53.9832V26.2448C53.9832 26.1254 53.9838 26.0075 53.9851 25.8905C56.3004 24.9903 58.1748 23.3 59.2226 21.0532C60.4648 18.3899 60.4552 16.0036 59.1965 14.6692C58.3685 13.7917 57.1584 13.5518 55.9603 14.028C53.9435 14.8293 51.8041 17.81 51.3406 23.7782C50.8812 23.8528 50.4297 23.8875 49.9998 23.8875C49.5699 23.8875 49.1181 23.8528 48.659 23.7782C48.1955 17.81 46.056 14.8293 44.0392 14.028C42.8408 13.5518 41.6306 13.7917 40.8031 14.6692C39.5445 16.0034 39.5347 18.3899 40.7769 21.0532C41.8248 23.3 43.6994 24.9901 46.0144 25.8905C46.0158 26.0077 46.0164 26.1254 46.0164 26.2448V36.5944H43.3488C43.2588 32.7184 41.3656 30.0754 39.5328 27.5182C37.4711 24.642 35.3392 21.668 35.3392 16.5061C35.3392 7.58032 42.9388 3.51489 49.9998 3.51489ZM54.1959 22.7407C54.6494 19.2813 55.749 17.3495 56.7228 16.7022C56.9515 16.55 57.1011 16.5237 57.1597 16.5237C57.1734 16.5237 57.1822 16.5252 57.1861 16.5268C57.1976 16.5317 57.2566 16.5844 57.3133 16.7338C57.5099 17.2522 57.4638 18.3555 56.7447 19.8973C56.1449 21.1836 55.2312 22.1077 54.1959 22.7407ZM45.8035 22.7407C44.7679 22.1079 43.8547 21.1836 43.2547 19.8971C42.5355 18.3551 42.4894 17.252 42.6861 16.7336C42.7428 16.5842 42.8019 16.5317 42.8133 16.5266C42.8172 16.525 42.8258 16.5235 42.8396 16.5235C42.8984 16.5235 43.0478 16.5499 43.2765 16.702C44.2502 17.3493 45.3498 19.2813 45.8035 22.7407ZM67.0695 6.30552C66.692 5.65142 66.9162 4.81548 67.5699 4.43794L70.7683 2.59145C71.4224 2.21411 72.2584 2.43794 72.6359 3.09185C73.0135 3.74595 72.7892 4.58188 72.1355 4.95942L68.9371 6.80591C68.7217 6.93013 68.4867 6.98911 68.2549 6.98911C67.7822 6.98911 67.3228 6.74419 67.0695 6.30552ZM71.3242 15.7147H75.0174C75.7724 15.7147 76.3845 16.3268 76.3845 17.0819C76.3845 17.837 75.7724 18.4491 75.0174 18.4491H71.3242C70.5691 18.4491 69.957 17.837 69.957 17.0819C69.957 16.3268 70.5691 15.7147 71.3242 15.7147ZM72.1355 29.2041C72.7894 29.5819 73.0135 30.418 72.6359 31.0717C72.3826 31.5104 71.923 31.7555 71.4506 31.7555C71.2185 31.7555 70.9836 31.6963 70.7683 31.5723L67.5699 29.7256C66.916 29.3479 66.692 28.5118 67.0695 27.8581C67.4472 27.204 68.2834 26.9807 68.9371 27.3577L72.1355 29.2043V29.2041ZM27.3637 3.09165C27.7412 2.43794 28.5771 2.21392 29.2312 2.59126L32.4297 4.43774C33.0836 4.81548 33.3076 5.65142 32.9301 6.30532C32.6767 6.7438 32.2172 6.98911 31.7447 6.98911C31.5127 6.98911 31.2777 6.93013 31.0625 6.80591L27.864 4.95942C27.2101 4.58169 26.9861 3.74556 27.3637 3.09165ZM23.6152 17.0817C23.6152 16.3266 24.2273 15.7145 24.9824 15.7145H28.6756C29.4306 15.7145 30.0428 16.3266 30.0428 17.0817C30.0428 17.8368 29.4306 18.4489 28.6756 18.4489H24.9824C24.2273 18.4489 23.6152 17.8368 23.6152 17.0817ZM32.9303 27.8579C33.3078 28.5118 33.0836 29.3479 32.4299 29.7254L29.2314 31.5721C29.016 31.6963 28.781 31.7553 28.5492 31.7553C28.0765 31.7553 27.6172 31.5102 27.3638 31.0715C26.9863 30.4176 27.2105 29.5815 27.8642 29.204L31.0627 27.3573C31.717 26.9799 32.5527 27.2038 32.9303 27.8577V27.8579Z" fill="currentColor"/>
</svg>
