<svg width="110" height="110" viewBox="0 0 110 110" fill="none" xmlns="http://www.w3.org/2000/svg">
<path fill-rule="evenodd" clip-rule="evenodd" d="M21.6426 39.1862C20.9805 41.5928 18.7749 43.3627 16.159 43.3627C13.0206 43.3627 10.4727 40.8148 10.4727 37.6764C10.4727 34.5379 13.0206 31.9898 16.159 31.9898C18.7749 31.9898 20.9805 33.76 21.6426 36.1666H39.5286C39.6142 35.0841 39.7879 34.0261 40.0426 33.0003L37.9839 32.9783C37.1565 32.9695 36.4902 32.2961 36.4902 31.4685V24.8271H28.4777C27.8156 27.2337 25.61 29.0036 22.9941 29.0036C19.8557 29.0036 17.3078 26.4557 17.3078 23.3173C17.3078 20.1788 19.8557 17.6307 22.9941 17.6307C25.61 17.6307 27.8156 19.4009 28.4777 21.8075H38C38.8339 21.8075 39.5099 22.4834 39.5099 23.3173V29.9749L41.057 29.9913C43.0441 25.3805 46.7535 21.6852 51.3748 19.7158C51.3748 17.4972 51.3748 12.4562 51.3748 12.4562H38.4191C37.757 14.8628 35.5514 16.633 32.9355 16.633C29.7971 16.633 27.2492 14.0848 27.2492 10.9464C27.2492 7.80816 29.7971 5.26004 32.9355 5.26004C35.5514 5.26004 37.757 7.02996 38.4191 9.43659H52.8846C53.7184 9.43659 54.3944 10.1125 54.3944 10.9464V18.712C55.8843 18.349 57.4407 18.1564 59.0422 18.1564C69.8476 18.1564 78.6127 26.9214 78.6127 37.7269C78.6127 42.3958 77.3869 44.9616 75.8301 47.4662C73.8825 50.5997 71.3337 53.6197 70.4701 61.6965C72.2374 62.3037 73.5162 63.9858 73.5162 65.9527V72.398C73.5162 74.8657 71.4933 76.891 69.0187 76.891H67.4624V78.3781C67.4624 80.7539 65.5108 82.7054 63.135 82.7054H54.945C52.5692 82.7054 50.6177 80.7539 50.6177 78.3781V76.891H49.0613C46.5865 76.891 44.5636 74.8657 44.5636 72.398V65.9527C44.5636 63.9858 45.8426 62.3037 47.61 61.6965C46.9219 55.2563 45.1677 52.0461 43.5 49.4201L38.2518 49.4764V52.9703C38.2518 53.8041 37.5758 54.4801 36.742 54.4801H27.2194C26.5575 56.8867 24.3519 58.6566 21.736 58.6566C18.5976 58.6566 16.0497 56.1087 16.0497 52.9703C16.0497 49.8318 18.5976 47.2837 21.736 47.2837C24.3519 47.2837 26.5575 49.0538 27.2194 51.4605H35.2321V47.9825C35.2321 47.1549 35.8984 46.4816 36.7258 46.4727L41.6262 46.4203C40.5341 44.4923 39.7029 42.3762 39.5099 39.1862H21.6426ZM18.826 37.6764C18.826 36.2045 17.6309 35.0094 16.159 35.0094C14.6872 35.0094 13.4923 36.2045 13.4923 37.6764C13.4923 39.1482 14.6872 40.3431 16.159 40.3431C17.6309 40.3431 18.826 39.1482 18.826 37.6764ZM67.4587 61.4549C68.2276 54.0938 70.271 50.5479 72.1602 47.5984C73.9293 44.8365 75.5931 42.6835 75.5931 37.7269C75.5931 28.5887 68.1804 21.176 59.0422 21.176C57.0607 21.176 55.1605 21.5239 53.3992 22.1625C48.8137 23.825 45.1714 27.4555 43.4931 32.0319C42.8474 33.7927 42.4928 35.6936 42.487 37.6764V37.6805V37.7269C42.487 42.3736 43.9487 44.5466 45.587 47.082C47.5651 50.1426 49.8069 53.6546 50.6214 61.4549H57.5324V41.9638L50.539 37.9249C49.8175 37.5079 49.5699 36.5839 49.9868 35.8623C50.4035 35.1408 51.3277 34.8932 52.0492 35.3099L59.042 39.3486L66.0304 35.3101C66.7519 34.8932 67.6761 35.1404 68.093 35.862C68.5099 36.5835 68.2628 37.5077 67.5413 37.9246L60.552 41.9636V61.4549H67.4587ZM25.6609 23.3173C25.6609 21.8455 24.466 20.6503 22.9941 20.6503C21.5223 20.6503 20.3274 21.8455 20.3274 23.3173C20.3274 24.7891 21.5223 25.984 22.9941 25.984C24.466 25.984 25.6609 24.7891 25.6609 23.3173ZM35.6025 10.9464C35.6025 9.47455 34.4074 8.27965 32.9355 8.27965C31.4637 8.27965 30.2688 9.47455 30.2688 10.9464C30.2688 12.4182 31.4637 13.6134 32.9355 13.6134C34.4074 13.6134 35.6025 12.4182 35.6025 10.9464ZM24.4028 52.9703C24.4028 51.4984 23.2079 50.3033 21.736 50.3033C20.2642 50.3033 19.0693 51.4984 19.0693 52.9703C19.0693 54.4421 20.2642 55.637 21.736 55.637C23.2079 55.637 24.4028 54.4421 24.4028 52.9703ZM49.0613 64.4746C48.2482 64.4746 47.5832 65.1395 47.5832 65.9527V72.398C47.5832 73.2081 48.2488 73.8714 49.0613 73.8714H52.1275C52.9613 73.8714 53.6373 74.5473 53.6373 75.3812V78.3781C53.6373 79.0961 54.227 79.6858 54.945 79.6858H63.135C63.8531 79.6858 64.4428 79.0961 64.4428 78.3781V75.3812C64.4428 74.5473 65.1187 73.8714 65.9526 73.8714H69.0187C69.831 73.8714 70.4966 73.2081 70.4966 72.398V65.9527C70.4966 65.1395 69.8317 64.4746 69.0187 64.4746H49.0613ZM77.5338 63.2958H98.0201C98.854 63.2958 99.5299 63.9718 99.5299 64.8056V71.6819C99.5299 73.9292 97.7147 75.7517 95.4604 75.7517C89.1285 75.7517 85.9493 83.4243 90.4276 87.9026C92.0154 89.4905 92.0154 92.0733 90.4276 93.6612L84.9166 99.1722C83.3287 100.76 80.7458 100.76 79.1579 99.1722C74.6796 94.6939 67.007 97.8731 67.007 104.205C67.007 106.459 65.1845 108.275 62.9373 108.275H55.1426C52.8956 108.275 51.073 106.459 51.073 104.205C51.073 97.8656 43.4041 94.69 38.9221 99.1722C37.3336 100.761 34.7566 100.761 33.1685 99.1727L27.6525 93.6612C26.0646 92.0733 26.0646 89.4905 27.6525 87.9026C32.1308 83.4243 28.9552 75.7517 22.6197 75.7517C20.3727 75.7517 18.5501 73.9292 18.5501 71.6819V64.8056C18.5501 63.9718 19.2261 63.2958 20.0599 63.2958H40.5508C40.9931 63.2958 41.4133 63.4897 41.7001 63.8264C41.987 64.1633 42.1117 64.6089 42.0414 65.0455C41.8975 65.9386 41.8229 66.8542 41.8229 67.7868C41.8229 77.2686 49.5563 85.0064 59.0422 85.0064C68.524 85.0064 76.2617 77.2686 76.2617 67.7868C76.2617 66.8544 76.1871 65.9386 76.0432 65.0457C75.9727 64.6089 76.0976 64.1633 76.3844 63.8264C76.6713 63.4897 77.0915 63.2958 77.5338 63.2958ZM79.2283 66.3154C79.2634 66.8014 79.2813 67.2921 79.2813 67.7868C79.2813 78.9314 70.1867 88.026 59.0422 88.026C47.8929 88.026 38.8033 78.9314 38.8033 67.7868C38.8033 67.2921 38.8212 66.8014 38.8563 66.3154H21.5697V71.6819C21.5697 72.2617 22.0399 72.7321 22.6197 72.7321C31.6431 72.7321 36.1656 83.6596 29.7876 90.0377C29.3773 90.4481 29.3773 91.1157 29.7876 91.5259L35.3033 97.0369C35.7129 97.4465 36.3772 97.4465 36.7868 97.0369C43.1705 90.6535 54.0926 95.1762 54.0926 104.205C54.0926 104.787 54.5628 105.255 55.1426 105.255H62.9373C63.517 105.255 63.9874 104.787 63.9874 104.205C63.9874 95.187 74.915 90.6589 81.293 97.0369C81.7035 97.4474 82.371 97.4474 82.7813 97.0369L88.2923 91.5259C88.7027 91.1157 88.7027 90.4481 88.2923 90.0377C81.9142 83.6596 86.4423 72.7321 95.4604 72.7321C96.0419 72.7321 96.5103 72.2617 96.5103 71.6819V66.3154H79.2283ZM76.541 14.1375C76.1241 14.8589 75.1999 15.1063 74.4784 14.6894C73.757 14.2725 73.5096 13.3483 73.9265 12.6268L76.8316 7.59937C77.2485 6.8779 78.1727 6.63072 78.8942 7.04743C79.6156 7.46435 79.8628 8.38878 79.4461 9.11025L76.541 14.1375ZM60.552 9.04533C60.552 9.87874 59.8756 10.5551 59.0422 10.5551C58.209 10.5551 57.5324 9.87874 57.5324 9.04533V3.23539C57.5324 2.40219 58.209 1.72559 59.0422 1.72559C59.8756 1.72559 60.552 2.40219 60.552 3.23539V9.04533ZM87.8438 26.5442C87.1224 26.9609 86.1982 26.7137 85.7812 25.9922C85.3643 25.2708 85.6117 24.3465 86.3332 23.9296L91.3604 21.0245C92.0819 20.6076 93.0061 20.855 93.423 21.5765C93.8399 22.298 93.5928 23.2222 92.8713 23.6391L87.8438 26.5442ZM91.4298 42.9428C90.5967 42.9428 89.92 42.2662 89.92 41.433C89.92 40.5996 90.5967 39.9232 91.4298 39.9232H97.2353C98.0685 39.9232 98.7451 40.5996 98.7451 41.433C98.7451 42.2662 98.0685 42.9428 97.2353 42.9428H91.4298Z" fill="currentColor"/>
</svg>
