<svg width="100" height="100" viewBox="0 0 100 100" fill="none" xmlns="http://www.w3.org/2000/svg">
<path d="M49.3866 24.3516C35.0632 24.3516 23.4101 36.0047 23.4101 50.3281C23.4101 64.6516 35.0632 76.3047 49.3866 76.3047C63.7101 76.3047 75.3632 64.6516 75.3632 50.3281C75.3632 36.0047 63.7101 24.3516 49.3866 24.3516ZM49.3866 73.1797C36.7863 73.1797 26.5351 62.9285 26.5351 50.3281C26.5351 37.7277 36.7863 27.4766 49.3866 27.4766C61.987 27.4766 72.2382 37.7277 72.2382 50.3281C72.2382 62.9285 61.9868 73.1797 49.3866 73.1797ZM65.0995 38.0977L61.6167 34.615C61.1599 34.158 60.4687 34.0303 59.8779 34.292L57.6527 35.2805C56.5499 34.6732 55.3876 34.1914 54.1814 33.841L53.3074 31.5705C53.0753 30.9674 52.4956 30.5693 51.8491 30.5693H46.924C46.2775 30.5693 45.698 30.9674 45.4657 31.5705L44.5917 33.841C43.3853 34.1914 42.2228 34.6734 41.1202 35.2805L38.895 34.292C38.3042 34.0299 37.6128 34.158 37.156 34.6152L33.6734 38.098C33.2163 38.5551 33.088 39.2463 33.3503 39.8369L34.3386 42.0617C33.7314 43.1645 33.2495 44.327 32.8992 45.5336L30.629 46.4074C30.0259 46.6395 29.6279 47.2191 29.6279 47.8656V52.7908C29.6279 53.4373 30.0259 54.0168 30.629 54.249L32.8986 55.1229C33.2493 56.3305 33.7314 57.4932 34.3382 58.5955L33.3503 60.8195C33.088 61.4102 33.2163 62.1014 33.6736 62.5586L37.1564 66.0412C37.6132 66.498 38.3042 66.6262 38.8952 66.3643L41.1204 65.376C42.2232 65.983 43.3855 66.4648 44.5917 66.8152L45.4657 69.0857C45.6978 69.6889 46.2775 70.0869 46.924 70.0869H51.8491C52.4956 70.0869 53.0751 69.6889 53.3074 69.0857L54.181 66.816C55.3884 66.4656 56.5511 65.9836 57.6538 65.3764L59.8781 66.3643C60.4685 66.6268 61.1597 66.498 61.6171 66.0412L65.0997 62.5586C65.5568 62.1014 65.6851 61.4102 65.4228 60.8195L64.4343 58.5943C65.0413 57.4918 65.5232 56.3295 65.8738 55.1231L68.1441 54.249C68.7472 54.017 69.1452 53.4373 69.1452 52.7908V47.8656C69.1452 47.2191 68.7472 46.6396 68.1441 46.4074L65.8745 45.5338C65.5239 44.3262 65.0419 43.1633 64.4349 42.0609L65.4228 39.8367C65.6851 39.2461 65.5568 38.5549 65.0995 38.0977ZM66.0204 48.9385V51.7178L64.0064 52.4932C63.5257 52.6781 63.1669 53.0883 63.0478 53.5895C62.7036 55.0346 62.1331 56.4107 61.3519 57.6793C61.0818 58.118 61.0454 58.6617 61.2544 59.1326L62.1314 61.107L60.1659 63.0723L58.1925 62.1959C57.7216 61.9869 57.1781 62.0232 56.739 62.2936C55.4704 63.0748 54.0941 63.6453 52.6484 63.9893C52.1472 64.1086 51.7368 64.4672 51.5519 64.948L50.7767 66.9617H47.9974L47.222 64.9477C47.037 64.467 46.6269 64.1082 46.1257 63.9891C44.681 63.6451 43.305 63.0744 42.0359 62.2932C41.597 62.0229 41.0531 61.9867 40.5825 62.1957L38.6081 63.0725L36.6427 61.1072L37.5193 59.1338C37.7284 58.6629 37.6919 58.1189 37.4216 57.6803C36.6408 56.4125 36.07 55.0361 35.7255 53.5895C35.6064 53.0883 35.2476 52.6781 34.7669 52.4932L32.7534 51.718V48.9387L34.7675 48.1633C35.2484 47.9783 35.607 47.568 35.7263 47.0668C36.07 45.6219 36.6406 44.2459 37.422 42.9768C37.6921 42.5381 37.7284 41.9943 37.5195 41.5234L36.6427 39.5494L38.6079 37.584L40.5824 38.4609C41.0529 38.6699 41.597 38.6338 42.0357 38.3635C43.3046 37.582 44.6808 37.0115 46.1255 36.6676C46.6267 36.5484 47.037 36.1898 47.222 35.709L47.9974 33.6947H50.7767L51.5521 35.709C51.737 36.1898 52.1474 36.5484 52.6486 36.6676C54.0931 37.0115 55.4691 37.582 56.7382 38.3635C57.1769 38.6338 57.721 38.6699 58.1915 38.4609L60.1659 37.584L62.1314 39.5492L61.2548 41.5229C61.0456 41.9937 61.0822 42.5377 61.3525 42.9766C62.1337 44.2445 62.7042 45.6207 63.0486 47.067C63.1677 47.5682 63.5263 47.9785 64.0072 48.1635L66.0204 48.9385ZM49.3866 40.1762C43.789 40.1762 39.2347 44.7303 39.2347 50.3281C39.2347 55.926 43.7888 60.4801 49.3866 60.4801C54.9845 60.4801 59.5386 55.926 59.5386 50.3281C59.5386 44.7303 54.9843 40.1762 49.3866 40.1762ZM49.3866 57.3549C45.512 57.3549 42.3597 54.2025 42.3597 50.3279C42.3597 46.4533 45.512 43.301 49.3866 43.301C53.2613 43.301 56.4136 46.4533 56.4136 50.3279C56.4136 54.2025 53.2613 57.3549 49.3866 57.3549ZM70.7478 26.2244C70.7005 26.6652 70.8427 27.1055 71.1392 27.4352C71.4357 27.7648 71.8581 27.9531 72.3013 27.9531H96.2617C96.705 27.9531 97.1275 27.7648 97.4238 27.4352C97.72 27.1055 97.8624 26.6652 97.8152 26.2244C97.2708 21.1387 93.9876 16.9742 89.521 15.1186C91.0062 13.7215 91.9365 11.7406 91.9365 9.54531C91.9365 5.32461 88.5025 1.89062 84.2818 1.89062C80.0611 1.89062 76.6267 5.32461 76.6267 9.54531C76.6267 11.7404 77.5568 13.7213 79.0421 15.1186C74.5753 16.9742 71.2921 21.1385 70.7478 26.2244ZM79.7517 9.54531C79.7517 7.04766 81.7837 5.01562 84.2814 5.01562C86.779 5.01562 88.8111 7.04766 88.8111 9.54531C88.8111 12.0418 86.781 14.073 84.2853 14.0752C84.2839 14.0752 84.2827 14.0752 84.2814 14.0752C84.28 14.0752 84.2788 14.0752 84.2775 14.0752C81.7818 14.073 79.7517 12.042 79.7517 9.54531ZM84.2775 17.2002H84.2816C84.2816 17.2002 84.2843 17.2002 84.2857 17.2002C89.0589 17.202 93.1284 20.3785 94.3761 24.8281H74.1867C75.4345 20.3785 79.5042 17.202 84.2775 17.2002ZM89.5208 85.9309C91.006 84.5338 91.9363 82.5529 91.9363 80.3578C91.9363 76.1371 88.5023 72.7031 84.2816 72.7031C80.0609 72.7031 76.6269 76.1371 76.6269 80.3578C76.6269 82.5529 77.5572 84.5338 79.0423 85.9309C74.5755 87.7865 71.2921 91.951 70.7478 97.0367C70.7005 97.4775 70.8427 97.9178 71.1392 98.2475C71.4357 98.5771 71.8581 98.7654 72.3013 98.7654H96.2617C96.705 98.7654 97.1275 98.5771 97.4238 98.2475C97.72 97.9178 97.8624 97.4775 97.8152 97.0367C97.2708 91.951 93.9876 87.7865 89.5208 85.9309ZM79.7517 80.3578C79.7517 77.8602 81.7837 75.8281 84.2814 75.8281C86.779 75.8281 88.8111 77.8602 88.8111 80.3578C88.8111 82.8555 86.779 84.8875 84.2814 84.8875C81.7837 84.8875 79.7517 82.8555 79.7517 80.3578ZM74.1867 95.6406C75.4349 91.1897 79.5064 88.0125 84.2816 88.0125C89.0568 88.0125 93.1281 91.1897 94.3763 95.6406H74.1867ZM2.51165 27.9531H26.472C26.9154 27.9531 27.3378 27.7648 27.6341 27.4352C27.9304 27.1055 28.0728 26.6652 28.0255 26.2244C27.4812 21.1387 24.198 16.9742 19.7312 15.1186C21.2163 13.7213 22.1466 11.7404 22.1466 9.54531C22.1466 5.32461 18.7126 1.89062 14.4919 1.89062C10.271 1.89062 6.83704 5.32461 6.83704 9.54531C6.83704 11.7404 7.76712 13.7213 9.25247 15.1186C4.78567 16.9742 1.50247 21.1387 0.958328 26.2244C0.911062 26.6652 1.05325 27.1055 1.34973 27.4352C1.64622 27.7648 2.06829 27.9531 2.51165 27.9531ZM9.96184 9.54531C9.96184 7.04766 11.9939 5.01562 14.4917 5.01562C16.9894 5.01562 19.0214 7.04766 19.0214 9.54531C19.0214 12.0418 16.9913 14.073 14.4954 14.0752C14.4941 14.0752 14.4927 14.0752 14.4913 14.0752C14.49 14.0752 14.4888 14.0752 14.4874 14.0752C11.9919 14.073 9.96184 12.042 9.96184 9.54531ZM14.4876 17.2002H14.4917H14.4958C19.2691 17.2021 23.3386 20.3785 24.5865 24.8281H4.397C5.64485 20.3785 9.71438 17.202 14.4876 17.2002ZM19.7312 85.9311C21.2165 84.534 22.1466 82.5531 22.1466 80.3578C22.1466 76.1371 18.7126 72.7031 14.4919 72.7031C10.271 72.7031 6.83704 76.1371 6.83704 80.3578C6.83704 82.5529 7.76731 84.5338 9.25247 85.9309C4.78567 87.7865 1.50247 91.951 0.958132 97.0367C0.910867 97.4775 1.05305 97.9178 1.34954 98.2475C1.64602 98.5771 2.06848 98.7654 2.51165 98.7654H26.472C26.9154 98.7654 27.3378 98.5771 27.6341 98.2475C27.9304 97.9178 28.0728 97.4775 28.0255 97.0367C27.4812 91.951 24.1978 87.7867 19.7312 85.9311ZM14.4919 75.8281C16.9896 75.8281 19.0216 77.8602 19.0216 80.3578C19.0216 82.8555 16.9896 84.8875 14.4919 84.8875C11.9941 84.8875 9.96204 82.8555 9.96204 80.3578C9.96204 77.8602 11.9941 75.8281 14.4919 75.8281ZM4.397 95.6406C5.64524 91.1897 9.71653 88.0125 14.4917 88.0125C19.2669 88.0125 23.3384 91.1897 24.5866 95.6406H4.397ZM27.9411 16.4744C27.5074 15.7285 27.7605 14.7721 28.5068 14.3383C34.8216 10.667 42.0417 8.72656 49.3866 8.72656C55.2255 8.72656 60.9734 9.95 66.2574 12.293L65.4964 10.909C65.0806 10.1527 65.3566 9.20273 66.1126 8.78711C66.8687 8.3709 67.8187 8.64707 68.2345 9.40332L71.4833 15.3121C71.7329 15.766 71.7413 16.3141 71.506 16.7752C71.2704 17.2365 70.8218 17.5512 70.3077 17.6154L63.6169 18.4512C63.5513 18.4594 63.4859 18.4633 63.4214 18.4633C62.6447 18.4633 61.9716 17.8848 61.8728 17.0941C61.7659 16.2379 62.3732 15.457 63.2296 15.35L64.9476 15.1354C60.0726 12.9807 54.7726 11.8514 49.3865 11.8514C42.5927 11.8514 35.9156 13.6455 30.0771 17.0396C29.3312 17.4738 28.3749 17.2203 27.9411 16.4744ZM85.7894 62.8223C87.165 58.8262 87.8632 54.6418 87.8632 50.3281C87.8632 44.3471 86.5288 38.616 83.8968 33.2943C83.5142 32.5207 83.8312 31.5836 84.6046 31.201C85.3788 30.8188 86.3156 31.1353 86.698 31.9088C89.5447 37.665 90.9882 43.8621 90.9882 50.3281C90.9882 55.0428 90.2173 59.6156 88.6968 63.9801L90.0562 63.0875C90.7775 62.6131 91.7464 62.8145 92.2198 63.5357C92.6937 64.257 92.4927 65.2258 91.7716 65.6994L86.1353 69.4008C85.8767 69.5705 85.5779 69.6572 85.2773 69.6572C85.0745 69.6572 84.871 69.6178 84.6782 69.5379C84.2001 69.3391 83.8513 68.9164 83.747 68.4092L82.3904 61.8041C82.2165 60.9588 82.7611 60.1328 83.6066 59.9594C84.4525 59.7836 85.2779 60.3301 85.4513 61.1756L85.7894 62.8223ZM12.9837 37.8336C11.6081 41.8295 10.9101 46.0141 10.9101 50.3281C10.9101 56.3096 12.2445 62.0404 14.8765 67.3617C15.2591 68.1354 14.9421 69.0725 14.1687 69.4551C13.9458 69.565 13.7097 69.6174 13.4771 69.6174C12.9017 69.6174 12.3478 69.298 12.0753 68.7473C9.22864 62.9914 7.78509 56.7943 7.78509 50.3281C7.78509 45.6133 8.55598 41.0402 10.0765 36.676L8.71731 37.5686C7.99544 38.0428 7.02708 37.8414 6.55364 37.1203C6.07981 36.399 6.28079 35.4303 7.00188 34.9566L12.6382 31.2553C13.0712 30.9711 13.6165 30.9197 14.0952 31.1182C14.5734 31.317 14.9222 31.7397 15.0265 32.2469L16.3831 38.852C16.557 39.6973 16.0124 40.5232 15.1669 40.6967C15.0609 40.7186 14.9552 40.7291 14.8511 40.7291C14.1245 40.7291 13.474 40.2199 13.3222 39.4805L12.9837 37.8336ZM70.2665 86.3178C63.9517 89.9891 56.7316 91.9295 49.3866 91.9295C43.5478 91.9295 37.7999 90.7061 32.5159 88.3631L33.2769 89.7469C33.6927 90.5029 33.4169 91.4529 32.6607 91.8688C32.4218 92.0002 32.1638 92.0623 31.9091 92.0623C31.3577 92.0625 30.823 91.7699 30.5386 91.2525L27.2896 85.3438C27.04 84.89 27.0316 84.342 27.2669 83.8807C27.5025 83.4193 27.9511 83.1047 28.4652 83.0404L35.1564 82.2049C36.0132 82.099 36.7935 82.7055 36.9005 83.5617C37.0074 84.418 36.4001 85.1988 35.5437 85.3059L33.8257 85.5205C38.7009 87.6752 44.0009 88.8045 49.3868 88.8045C56.1806 88.8045 62.8577 87.0104 68.6962 83.6162C69.4423 83.1822 70.3986 83.4359 70.8324 84.1818C71.2657 84.9275 71.0126 85.884 70.2665 86.3178Z" fill="#1727FF"/>
</svg>
