<svg width="104" height="104" viewBox="0 0 104 104" fill="none" xmlns="http://www.w3.org/2000/svg">
<path d="M42.8259 20.6921C42.8857 20.9667 42.8756 21.2519 42.7965 21.5215C42.7174 21.7912 42.5718 22.0367 42.3731 22.2354C42.1743 22.4341 41.9289 22.5797 41.6592 22.6588C41.3896 22.7379 41.1044 22.748 40.8298 22.6882C40.5104 22.6336 40.182 22.6726 39.8843 22.8006C39.5866 22.9286 39.3324 23.1401 39.1524 23.4095C38.0712 25.0287 37.3084 26.839 36.9046 28.7437C36.8447 29.0582 36.8761 29.3832 36.995 29.6804C37.1139 29.9777 37.3153 30.2347 37.5756 30.4211C37.811 30.5732 38.0046 30.7818 38.1386 31.0279C38.2726 31.2741 38.3429 31.5499 38.3429 31.8301C38.3429 32.1104 38.2726 32.3862 38.1386 32.6323C38.0046 32.8785 37.811 33.0871 37.5756 33.2392C37.3153 33.4256 37.1139 33.6826 36.995 33.9798C36.8761 34.2771 36.8447 34.6021 36.9046 34.9166C37.3084 36.8212 38.0712 38.6316 39.1524 40.2508C39.3324 40.5202 39.5866 40.7317 39.8843 40.8597C40.182 40.9877 40.5104 41.0267 40.8298 40.9721C41.1044 40.9122 41.3896 40.9223 41.6592 41.0015C41.9289 41.0806 42.1743 41.2262 42.3731 41.4249C42.5718 41.6236 42.7174 41.8691 42.7965 42.1387C42.8756 42.4084 42.8857 42.6936 42.8259 42.9682C42.7713 43.2876 42.8103 43.616 42.9383 43.9137C43.0663 44.2113 43.2778 44.4656 43.5472 44.6456C45.1613 45.7504 46.9719 46.5362 48.8814 46.9605C49.1959 47.0203 49.5209 46.989 49.8181 46.8701C50.1154 46.7512 50.3724 46.5497 50.5588 46.2895C50.7249 46.0737 50.9383 45.899 51.1826 45.7787C51.4269 45.6585 51.6955 45.5959 51.9678 45.5959C52.2401 45.5959 52.5088 45.6585 52.7531 45.7787C52.9974 45.899 53.2108 46.0737 53.3769 46.2895C53.5312 46.5063 53.7349 46.6832 53.9712 46.8057C54.2074 46.9282 54.4695 46.9928 54.7356 46.994H55.0878C56.9832 46.576 58.7819 45.8018 60.3885 44.7127C60.6579 44.5327 60.8694 44.2784 60.9974 43.9808C61.1254 43.6831 61.1644 43.3547 61.1098 43.0353C61.0499 42.7607 61.06 42.4755 61.1392 42.2058C61.2183 41.9362 61.3639 41.6907 61.5626 41.492C61.7613 41.2933 62.0068 41.1477 62.2764 41.0686C62.5461 40.9894 62.8313 40.9793 63.1059 41.0392C63.4253 41.0938 63.7537 41.0548 64.0514 40.9268C64.349 40.7988 64.6033 40.5873 64.7833 40.3179C65.8881 38.7038 66.6739 36.8931 67.0982 34.9837C67.158 34.6692 67.1267 34.3442 67.0078 34.0469C66.8889 33.7497 66.6874 33.4927 66.4272 33.3063C66.1918 33.1542 65.9982 32.9456 65.8642 32.6994C65.7301 32.4533 65.6599 32.1775 65.6599 31.8972C65.6599 31.617 65.7301 31.3412 65.8642 31.095C65.9982 30.8489 66.1918 30.6403 66.4272 30.4882C66.6874 30.3018 66.8889 30.0448 67.0078 29.7475C67.1267 29.4503 67.158 29.1253 67.0982 28.8108C66.6944 26.9061 65.9316 25.0958 64.8504 23.4766C64.6704 23.2072 64.4161 22.9957 64.1184 22.8677C63.8208 22.7397 63.4924 22.7007 63.173 22.7553C62.8984 22.8151 62.6132 22.805 62.3435 22.7259C62.0739 22.6468 61.8284 22.5012 61.6297 22.3025C61.431 22.1037 61.2854 21.8583 61.2063 21.5886C61.1271 21.319 61.117 21.0338 61.1769 20.7592C61.2315 20.4398 61.1925 20.1114 61.0645 19.8137C60.9365 19.516 60.725 19.2618 60.4556 19.0818C58.8415 17.9769 57.0308 17.1912 55.1214 16.7669C54.8069 16.707 54.4819 16.7384 54.1846 16.8573C53.8874 16.9762 53.6304 17.1776 53.444 17.4379C53.2779 17.6537 53.0645 17.8284 52.8202 17.9487C52.5759 18.0689 52.3072 18.1314 52.0349 18.1314C51.7626 18.1314 51.494 18.0689 51.2497 17.9487C51.0054 17.8284 50.792 17.6537 50.6259 17.4379C50.4395 17.1776 50.1825 16.9762 49.8852 16.8573C49.588 16.7384 49.263 16.707 48.9485 16.7669C47.0438 17.1707 45.2335 17.9335 43.6143 19.0147C43.3326 19.1859 43.1076 19.4363 42.9674 19.7346C42.8272 20.0329 42.778 20.3659 42.8259 20.6921ZM46.1807 21.3463C46.9617 20.9095 47.7887 20.5607 48.6465 20.3063C49.5863 21.0955 50.7742 21.5281 52.0014 21.5281C53.2286 21.5281 54.4165 21.0955 55.3562 20.3063C56.2256 20.5583 57.064 20.9072 57.8556 21.3463C57.9345 22.566 58.4547 23.7153 59.319 24.5796C60.1833 25.4439 61.3326 25.9641 62.5524 26.043C62.9776 26.8254 63.3151 27.6524 63.5588 28.5089C62.7336 29.4315 62.2774 30.6259 62.2774 31.8637C62.2774 33.1015 62.7336 34.2959 63.5588 35.2185C63.3068 36.0879 62.9579 36.9263 62.5188 37.7179C61.2991 37.7968 60.1497 38.317 59.2854 39.1813C58.4211 40.0456 57.901 41.1949 57.822 42.4147C57.0305 42.8538 56.1921 43.2026 55.3227 43.4547C54.4001 42.6294 53.2057 42.1732 51.9678 42.1732C50.73 42.1732 49.5356 42.6294 48.613 43.4547C47.7436 43.2026 46.9052 42.8538 46.1136 42.4147C46.0347 41.1949 45.5145 40.0456 44.6502 39.1813C43.7859 38.317 42.6366 37.7968 41.4169 37.7179C41.0009 36.9234 40.6746 36.0851 40.444 35.2185C41.2692 34.2959 41.7254 33.1015 41.7254 31.8637C41.7254 30.6259 41.2692 29.4315 40.444 28.5089C40.696 27.6394 41.0449 26.8011 41.484 26.0095C42.7037 25.9306 43.853 25.4104 44.7173 24.5461C45.5816 23.6818 46.1018 22.5325 46.1807 21.3127V21.3463Z" fill="#1727FF"/>
<path d="M51.9987 38.5737C53.3258 38.5737 54.623 38.1801 55.7264 37.4429C56.8298 36.7056 57.6898 35.6577 58.1977 34.4317C58.7055 33.2056 58.8384 31.8565 58.5795 30.555C58.3206 29.2534 57.6816 28.0579 56.7432 27.1195C55.8048 26.1812 54.6093 25.5421 53.3077 25.2832C52.0062 25.0243 50.6571 25.1572 49.4311 25.665C48.205 26.1729 47.1571 27.0329 46.4198 28.1363C45.6826 29.2397 45.2891 30.5369 45.2891 31.864C45.2891 33.6435 45.996 35.3501 47.2543 36.6084C48.5126 37.8667 50.2192 38.5737 51.9987 38.5737ZM51.9987 28.5091C52.6623 28.5091 53.3109 28.7059 53.8626 29.0745C54.4143 29.4432 54.8443 29.9671 55.0982 30.5801C55.3521 31.1932 55.4186 31.8677 55.2891 32.5185C55.1597 33.1693 54.8402 33.767 54.371 34.2362C53.9018 34.7054 53.304 35.0249 52.6532 35.1544C52.0025 35.2838 51.3279 35.2174 50.7149 34.9634C50.1019 34.7095 49.5779 34.2795 49.2093 33.7278C48.8407 33.1761 48.6439 32.5275 48.6439 31.864C48.6439 30.9742 48.9974 30.1209 49.6265 29.4917C50.2557 28.8626 51.109 28.5091 51.9987 28.5091Z" fill="#1727FF"/>
<path d="M26.8372 57.0261H50.321V63.7358H41.9339C40.4502 63.7406 39.0098 64.2371 37.8383 65.1477C36.6667 66.0582 35.83 67.3314 35.4591 68.768H23.4823C23.0374 68.768 22.6108 68.9448 22.2962 69.2593C21.9816 69.5739 21.8049 70.0006 21.8049 70.4455V80.51H25.1597V72.1229H35.4591C35.83 73.5595 36.6667 74.8327 37.8383 75.7433C39.0098 76.6538 40.4502 77.1503 41.9339 77.1551H62.063C63.5467 77.1503 64.9871 76.6538 66.1586 75.7433C67.3302 74.8327 68.1669 73.5595 68.5378 72.1229H78.8372V80.51H82.192V70.4455C82.192 70.0006 82.0153 69.5739 81.7007 69.2593C81.3861 68.9448 80.9595 68.768 80.5146 68.768H68.5378C68.1669 67.3314 67.3302 66.0582 66.1586 65.1477C64.9871 64.2371 63.5467 63.7406 62.063 63.7358H53.6759V57.0261H77.1597C81.6572 57.0122 85.9947 55.3562 89.357 52.3694C92.7194 49.3825 94.8751 45.2704 95.419 40.806C95.9629 36.3416 94.8575 31.8322 92.3106 28.1254C89.7637 24.4186 85.9507 21.7697 81.5881 20.6764C80.6085 17.1405 78.4965 14.0234 75.5758 11.8026C72.6552 9.58176 69.0869 8.37983 65.4178 8.38095C63.9908 8.38215 62.5699 8.56821 61.1907 8.9345C58.526 5.2906 54.7961 2.5635 50.5157 1.12949C46.2352 -0.304523 41.6152 -0.374751 37.2932 0.92849C32.9711 2.23173 29.1601 4.8442 26.3859 8.40542C23.6117 11.9666 22.011 16.3011 21.8049 20.8106C17.5102 22.0171 13.7981 24.7387 11.3555 28.4715C8.91297 32.2043 7.90543 36.6956 8.51939 41.1141C9.13335 45.5325 11.3272 49.579 14.695 52.5044C18.0627 55.4299 22.3762 57.0362 26.8372 57.0261ZM62.063 67.0906C62.9527 67.0906 63.806 67.4441 64.4352 68.0732C65.0644 68.7024 65.4178 69.5557 65.4178 70.4455C65.4178 71.3352 65.0644 72.1885 64.4352 72.8177C63.806 73.4468 62.9527 73.8003 62.063 73.8003H41.9339C41.0442 73.8003 40.1909 73.4468 39.5617 72.8177C38.9325 72.1885 38.5791 71.3352 38.5791 70.4455C38.5791 69.5557 38.9325 68.7024 39.5617 68.0732C40.1909 67.4441 41.0442 67.0906 41.9339 67.0906H62.063ZM23.8346 23.7797C24.2192 23.7012 24.5641 23.4904 24.8093 23.1839C25.0545 22.8774 25.1844 22.4947 25.1765 22.1022L25.1597 21.8003C25.1483 17.8127 26.4289 13.9288 28.8098 10.73C31.1908 7.53129 34.5439 5.18994 38.367 4.0566C42.1901 2.92326 46.2775 3.05893 50.0171 4.44329C53.7567 5.82765 56.9471 8.3862 59.1107 11.7358C59.3144 12.0479 59.6163 12.2833 59.9686 12.4048C60.3209 12.5263 60.7037 12.527 61.0565 12.4068C62.8567 11.7884 64.7678 11.56 66.663 11.7368C68.5582 11.9137 70.3941 12.4917 72.0488 13.4325C73.7035 14.3732 75.1391 15.6553 76.2603 17.1934C77.3816 18.7316 78.1627 20.4906 78.552 22.3538C78.6171 22.6838 78.7798 22.9866 79.0191 23.2229C79.2584 23.4592 79.5632 23.6181 79.8939 23.679C83.6613 24.2959 87.055 26.3171 89.3919 29.3357C91.7288 32.3544 92.8354 36.1462 92.4888 39.948C92.1422 43.7497 90.3682 47.279 87.524 49.8253C84.6798 52.3715 80.9765 53.7458 77.1597 53.6713H26.8372C23.0947 53.6709 19.4859 52.2804 16.7107 49.7697C13.9354 47.259 12.1916 43.807 11.8176 40.0834C11.4436 36.3597 12.4659 32.6298 14.6864 29.6173C16.9068 26.6048 20.167 24.5244 23.8346 23.7797Z" fill="#1727FF"/>
<path d="M43.6124 10.058V6.70312C39.6085 6.70313 35.7686 8.29367 32.9374 11.1249C30.1062 13.9561 28.5156 17.796 28.5156 21.7999H31.8705C31.8705 18.6857 33.1076 15.6991 35.3096 13.4971C37.5116 11.2951 40.4982 10.058 43.6124 10.058Z" fill="#1727FF"/>
<path d="M1.67742 103.993H46.9677C47.4126 103.993 47.8393 103.817 48.1539 103.502C48.4684 103.187 48.6452 102.761 48.6452 102.316V85.5417C48.6452 85.0968 48.4684 84.6701 48.1539 84.3556C47.8393 84.041 47.4126 83.8643 46.9677 83.8643H1.67742C1.23254 83.8643 0.805882 84.041 0.491305 84.3556C0.176728 84.6701 0 85.0968 0 85.5417V102.316C0 102.761 0.176728 103.187 0.491305 103.502C0.805882 103.817 1.23254 103.993 1.67742 103.993ZM3.35484 87.2191H45.2903V100.638H3.35484V87.2191Z" fill="#1727FF"/>
<path d="M6.71094 92.251H10.0658V95.6058H6.71094V92.251Z" fill="#1727FF"/>
<path d="M13.4219 92.251H16.7767V95.6058H13.4219V92.251Z" fill="#1727FF"/>
<path d="M20.1289 92.251H40.2579V95.6058H20.1289V92.251Z" fill="#1727FF"/>
<path d="M102.323 83.8643H57.0329C56.588 83.8643 56.1613 84.041 55.8468 84.3556C55.5322 84.6701 55.3555 85.0968 55.3555 85.5417V102.316C55.3555 102.761 55.5322 103.187 55.8468 103.502C56.1613 103.817 56.588 103.993 57.0329 103.993H102.323C102.768 103.993 103.195 103.817 103.509 103.502C103.824 103.187 104.001 102.761 104.001 102.316V85.5417C104.001 85.0968 103.824 84.6701 103.509 84.3556C103.195 84.041 102.768 83.8643 102.323 83.8643ZM100.646 100.638H58.7103V87.2191H100.646V100.638Z" fill="#1727FF"/>
<path d="M93.9336 92.251H97.2884V95.6058H93.9336V92.251Z" fill="#1727FF"/>
<path d="M87.2266 92.251H90.5814V95.6058H87.2266V92.251Z" fill="#1727FF"/>
<path d="M63.7422 92.251H83.8712V95.6058H63.7422V92.251Z" fill="#1727FF"/>
<path d="M43.6133 68.7666H46.9681V72.1214H43.6133V68.7666Z" fill="#1727FF"/>
<path d="M50.3242 68.7666H53.6791V72.1214H50.3242V68.7666Z" fill="#1727FF"/>
<path d="M57.0312 68.7666H60.3861V72.1214H57.0312V68.7666Z" fill="#1727FF"/>
</svg>
