<svg width="75" height="76" viewBox="0 0 75 76" fill="none" xmlns="http://www.w3.org/2000/svg">
<path d="M21.2853 15.6306C21.2853 13.8042 19.8028 12.3218 17.9765 12.3218H9.93575C8.10939 12.3218 6.62695 13.8042 6.62695 15.6306V23.6713C6.62695 25.4977 8.10939 26.9801 9.93575 26.9801H17.9765C19.8028 26.9801 21.2853 25.4977 21.2853 23.6713V15.6306ZM19.2336 23.6713C19.2336 24.371 18.6643 24.9403 17.9646 24.9403H9.93575C9.23604 24.9403 8.66678 24.371 8.66678 23.6713V15.6306C8.66678 14.9309 9.23604 14.3616 9.93575 14.3616H17.9765C18.6762 14.3616 19.2454 14.9309 19.2454 15.6306V23.6713H19.2336Z" fill="#1727FF"/>
<path d="M21.2853 35.3767C21.2853 33.5503 19.8028 32.0679 17.9765 32.0679H9.93575C8.10939 32.0679 6.62695 33.5503 6.62695 35.3767V43.4174C6.62695 45.2437 8.10939 46.7262 9.93575 46.7262H17.9765C19.8028 46.7262 21.2853 45.2437 21.2853 43.4174V35.3767ZM19.2336 43.4174C19.2336 44.1171 18.6643 44.6863 17.9646 44.6863H9.93575C9.23604 44.6863 8.66678 44.1171 8.66678 43.4174V35.3767C8.66678 34.677 9.23604 34.1077 9.93575 34.1077H17.9765C18.6762 34.1077 19.2454 34.677 19.2454 35.3767V43.4174H19.2336Z" fill="#1727FF"/>
<path d="M17.9765 51.814H9.93575C8.10939 51.814 6.62695 53.2964 6.62695 55.1228V63.1635C6.62695 64.9898 8.10939 66.4723 9.93575 66.4723H17.9765C19.8028 66.4723 21.2853 64.9898 21.2853 63.1635V55.1228C21.2853 53.2964 19.8028 51.814 17.9765 51.814ZM19.2336 63.1635C19.2336 63.8632 18.6643 64.4324 17.9646 64.4324H9.93575C9.23604 64.4324 8.66678 63.8632 8.66678 63.1635V55.1228C8.66678 54.423 9.23604 53.8538 9.93575 53.8538H17.9765C18.6762 53.8538 19.2454 54.423 19.2454 55.1228V63.1635H19.2336Z" fill="#1727FF"/>
<path d="M44.5446 17.4568H25.8422C25.2729 17.4568 24.8223 17.9193 24.8223 18.4767C24.8223 19.046 25.2848 19.4966 25.8422 19.4966H44.5327C45.102 19.4966 45.5526 19.0341 45.5526 18.4767C45.5645 17.9193 45.102 17.4568 44.5446 17.4568Z" fill="#1727FF"/>
<path d="M25.8422 24.1221H39.7059C40.2752 24.1221 40.7258 23.6596 40.7258 23.1022C40.7258 22.5329 40.2633 22.0823 39.7059 22.0823H25.8422C25.2729 22.0823 24.8223 22.5448 24.8223 23.1022C24.8223 23.6714 25.2729 24.1221 25.8422 24.1221Z" fill="#1727FF"/>
<path d="M45.5645 38.2228C45.5645 37.6535 45.102 37.2029 44.5446 37.2029H25.8422C25.2729 37.2029 24.8223 37.6654 24.8223 38.2228C24.8223 38.7921 25.2848 39.2427 25.8422 39.2427H44.5327C45.102 39.2427 45.5645 38.7921 45.5645 38.2228Z" fill="#1727FF"/>
<path d="M40.7258 42.848C40.7258 42.2788 40.2633 41.8281 39.7059 41.8281H25.8422C25.2729 41.8281 24.8223 42.2906 24.8223 42.848C24.8223 43.4054 25.2848 43.868 25.8422 43.868H39.7059C40.2752 43.868 40.7258 43.4054 40.7258 42.848Z" fill="#1727FF"/>
<path d="M38.852 57.9689C38.852 57.3996 38.3895 56.949 37.8321 56.949H25.8422C25.2729 56.949 24.8223 57.4115 24.8223 57.9689C24.8223 58.5381 25.2848 58.9888 25.8422 58.9888H37.8321C38.4014 58.9888 38.852 58.5381 38.852 57.9689Z" fill="#1727FF"/>
<path d="M25.8422 61.5623C25.2729 61.5623 24.8223 62.0248 24.8223 62.5822C24.8223 63.1514 25.2848 63.6021 25.8422 63.6021H33.2781C33.8473 63.6021 34.298 63.1396 34.298 62.5822C34.298 62.0129 33.8355 61.5623 33.2781 61.5623H25.8422Z" fill="#1727FF"/>
<path d="M16.0331 17.2197L13.1157 20.1371L12.3567 19.3781C11.9535 18.9749 11.3131 18.9749 10.9098 19.3781C10.5066 19.7813 10.5066 20.4217 10.9098 20.8249L12.3923 22.3074C12.582 22.4971 12.8429 22.6039 13.1157 22.6039C13.3885 22.6039 13.6494 22.4971 13.8391 22.3074L17.48 18.6665C17.8832 18.2633 17.8832 17.6229 17.48 17.2197C17.0768 16.8164 16.4364 16.8164 16.0331 17.2197Z" fill="#1727FF"/>
<path d="M16.0331 36.776L13.1157 39.6935L12.3567 38.9345C11.9535 38.5313 11.3131 38.5313 10.9098 38.9345C10.5066 39.3377 10.5066 39.9781 10.9098 40.3813L12.3923 41.8638C12.582 42.0535 12.8429 42.1603 13.1157 42.1603C13.3885 42.1603 13.6494 42.0535 13.8391 41.8638L17.48 38.2229C17.8832 37.8197 17.8832 37.1793 17.48 36.776C17.0768 36.3728 16.4364 36.3728 16.0331 36.776Z" fill="#1727FF"/>
<path d="M16.0331 56.3324L13.1157 59.2499L12.3567 58.4909C11.9535 58.0876 11.3131 58.0876 10.9098 58.4909C10.5066 58.8941 10.5066 59.5345 10.9098 59.9377L12.3923 61.4202C12.582 61.6099 12.8429 61.7166 13.1157 61.7166C13.3885 61.7166 13.6494 61.6099 13.8391 61.4202L17.48 57.7793C17.8832 57.3761 17.8832 56.7357 17.48 56.3324C17.0768 55.9292 16.4364 55.9292 16.0331 56.3324Z" fill="#1727FF"/>
<path d="M67.5408 44.8049L69.0113 42.2788L72.8182 41.6028C73.3756 41.508 73.7433 40.9743 73.6484 40.4169C73.5535 39.8595 73.0198 39.4919 72.4625 39.5867L69.1892 40.1678L68.6081 36.8946C68.5132 36.3372 67.9796 35.9696 67.4222 36.0645C66.8648 36.1593 66.4971 36.693 66.592 37.2504L67.2917 41.1522L65.7737 43.785C63.4967 42.6228 60.9232 41.9586 58.1955 41.9586C48.9333 41.9586 41.3906 49.5012 41.3906 58.7635C41.3906 68.0257 48.9333 75.5684 58.1955 75.5684C67.4578 75.5684 75.0004 68.0257 75.0004 58.7635C75.0004 52.9524 72.0355 47.8291 67.5408 44.8049ZM58.1955 73.5285C50.0599 73.5285 43.4305 66.911 43.4305 58.7635C43.4305 50.616 50.048 44.0103 58.1836 44.0103C60.5318 44.0103 62.7495 44.5796 64.7182 45.552L63.2121 48.1255C61.6822 47.4021 59.9744 46.9752 58.1718 46.9752C51.6728 46.9752 46.3835 52.2645 46.3835 58.7635C46.3835 65.2625 51.6728 70.5518 58.1718 70.5518C64.6708 70.5518 69.9601 65.2625 69.9601 58.7635C69.9601 54.8024 67.9914 51.292 64.9791 49.1573L66.4853 46.5838C70.3752 49.2403 72.9368 53.7114 72.9368 58.7754C72.9487 66.911 66.3311 73.5285 58.1955 73.5285ZM57.6737 59.653C57.8397 59.7478 58.0176 59.7953 58.1836 59.7953C58.5394 59.7953 58.8834 59.6174 59.0731 59.2853L61.3383 55.4073C62.2396 56.2493 62.8088 57.4471 62.8088 58.7754C62.8088 61.3251 60.7334 63.4006 58.1836 63.4006C55.6339 63.4006 53.5584 61.3251 53.5584 58.7754C53.5584 56.2256 55.6339 54.1502 58.1836 54.1502C58.6699 54.1502 59.1324 54.245 59.5712 54.3874L57.306 58.2654C57.0214 58.7398 57.1874 59.3683 57.6737 59.653ZM58.1955 52.0985C54.5191 52.0985 51.5186 55.0871 51.5186 58.7754C51.5186 62.4518 54.5072 65.4522 58.1955 65.4522C61.8838 65.4522 64.8724 62.4637 64.8724 58.7754C64.8724 56.6881 63.9118 54.8262 62.4056 53.6046L63.9592 50.9481C66.3667 52.727 67.9321 55.5733 67.9321 58.7872C67.9321 64.1596 63.5678 68.5238 58.1955 68.5238C52.8232 68.5238 48.4589 64.1596 48.4589 58.7872C48.4589 53.4149 52.8232 49.0506 58.1955 49.0506C59.6186 49.0506 60.9706 49.3708 62.1921 49.9163L60.6267 52.5847C59.8795 52.2645 59.0612 52.0985 58.1955 52.0985Z" fill="#1727FF"/>
<path d="M45.3743 73.6592H5.12329C3.42739 73.6592 2.03983 72.2835 2.03983 70.5876V5.12329C2.03983 3.42739 3.42739 2.05169 5.12329 2.05169H43.4887C43.5361 2.05169 43.5954 2.05169 43.6429 2.03983H54.9924C55.9649 2.03983 56.7594 2.83441 56.7594 3.81875V38.3298C56.7594 38.8991 57.222 39.3497 57.7794 39.3497C58.3486 39.3497 58.7993 38.8872 58.7993 38.3298V3.83061C58.7993 1.71962 57.0915 0 54.9805 0H43.4768C43.4294 0 43.3701 -1.1045e-08 43.3227 0.0118595H5.12329C2.30074 0.0118595 0 2.30074 0 5.12329V70.5876C0 73.4101 2.30074 75.699 5.12329 75.699H45.3743C45.9436 75.699 46.3943 75.2365 46.3943 74.6791C46.3943 74.1217 45.9317 73.6592 45.3743 73.6592Z" fill="#1727FF"/>
</svg>
