<svg width="104" height="104" viewBox="0 0 104 104" fill="none" xmlns="http://www.w3.org/2000/svg">
<path d="M40.5693 59.5996L46.6172 43.8516H48.8623L55.3076 59.5996H52.9336L51.0967 54.8301H44.5117L42.7822 59.5996H40.5693ZM45.1133 53.1328H50.4521L48.8086 48.7715C48.3073 47.4466 47.9349 46.3581 47.6914 45.5059C47.4909 46.5156 47.208 47.5182 46.8428 48.5137L45.1133 53.1328ZM58.2071 59.5996V43.8516H60.2911V59.5996H58.2071Z" fill="#1727FF"/>
<path d="M79.4648 5.46875C82.7128 5.46875 85.3457 8.1017 85.3457 11.3496C85.3457 14.5975 82.7128 17.2305 79.4648 17.2305C76.5156 17.2305 74.0737 15.0595 73.6494 12.2285H67.1289V25.7705C67.1289 26.1019 66.8607 26.3711 66.5293 26.3711C66.1979 26.3711 65.9297 26.1019 65.9297 25.7705V11.6289C65.9297 11.2975 66.1979 11.0293 66.5293 11.0293H73.5928C73.7591 7.93035 76.3244 5.46876 79.4648 5.46875ZM79.4648 6.66895C76.881 6.66895 74.7863 8.76234 74.7842 11.3457C74.8299 11.4304 74.8584 11.5259 74.8584 11.6289C74.8584 11.7104 74.8409 11.7876 74.8115 11.8584C75.0651 14.2042 77.0516 16.0303 79.4648 16.0303C82.05 16.0303 84.1455 13.9348 84.1455 11.3496C84.1455 8.76444 82.05 6.66895 79.4648 6.66895Z" fill="#1727FF"/>
<path d="M79.4648 95.9912C82.7128 95.9912 85.3457 93.3583 85.3457 90.1104C85.3457 86.8624 82.7128 84.2295 79.4648 84.2295C76.516 84.2295 74.0741 86.3999 73.6494 89.2305H67.1289V75.6885C67.1289 75.3571 66.8607 75.0879 66.5293 75.0879C66.1979 75.0879 65.9297 75.3571 65.9297 75.6885V89.8301C65.9297 90.1614 66.1979 90.4297 66.5293 90.4297H73.5928C73.7586 93.5291 76.3241 95.9912 79.4648 95.9912ZM79.4648 94.791C76.8807 94.791 74.7858 92.6971 74.7842 90.1133C74.8299 90.0286 74.8584 89.9331 74.8584 89.8301C74.8584 89.7487 74.8418 89.6713 74.8125 89.6006C75.0665 87.2553 77.052 85.4297 79.4648 85.4297C82.05 85.4297 84.1455 87.5252 84.1455 90.1104C84.1455 92.6955 82.05 94.791 79.4648 94.791Z" fill="#1727FF"/>
<path d="M22.8691 5.46875C19.6212 5.46875 16.9883 8.1017 16.9883 11.3496C16.9883 14.5975 19.6212 17.2305 22.8691 17.2305C25.8183 17.2305 28.2603 15.0595 28.6846 12.2285H35.207V25.7705C35.207 26.1019 35.4753 26.3711 35.8066 26.3711C36.1379 26.371 36.4062 26.1018 36.4062 25.7705V11.6289C36.4062 11.2977 36.1379 11.0294 35.8066 11.0293H28.7412C28.5749 7.93035 26.0096 5.46876 22.8691 5.46875ZM22.8691 6.66895C25.454 6.66895 27.5493 8.76392 27.5498 11.3486C27.5051 11.4325 27.4776 11.5271 27.4775 11.6289C27.4775 11.7088 27.4941 11.7848 27.5225 11.8545C27.2707 14.2022 25.2837 16.0303 22.8691 16.0303C20.284 16.0303 18.1885 13.9348 18.1885 11.3496C18.1885 8.76444 20.284 6.66895 22.8691 6.66895Z" fill="#1727FF"/>
<path d="M57.4805 6.62207C57.4805 3.37416 54.8475 0.74122 51.5996 0.741211C48.3517 0.741211 45.7188 3.37415 45.7188 6.62207C45.7188 9.57128 47.8897 12.0132 50.7207 12.4375L50.7207 19.5605C50.7208 19.8918 50.989 20.1602 51.3203 20.1602C51.6515 20.1601 51.9198 19.8918 51.9199 19.5605L51.9199 12.4941C55.0189 12.3278 57.4805 9.7625 57.4805 6.62207ZM56.2803 6.62207C56.2803 9.20723 54.1848 11.3027 51.5996 11.3027L51.5986 11.3027C51.5152 11.2586 51.4213 11.2315 51.3203 11.2314C51.2412 11.2314 51.1658 11.2476 51.0967 11.2754C48.7481 11.0245 46.919 9.03731 46.9189 6.62207C46.9189 4.03689 49.0144 1.94141 51.5996 1.94141C54.1848 1.94142 56.2803 4.0369 56.2803 6.62207Z" fill="#1727FF"/>
<path d="M9.75195 45.5898C6.50404 45.5898 3.8711 48.2228 3.87109 51.4707C3.87109 54.7186 6.50403 57.3516 9.75195 57.3516C12.7012 57.3516 15.1431 55.1806 15.5674 52.3496L22.6895 52.3496C23.0207 52.3495 23.2891 52.0813 23.2891 51.75C23.289 51.4188 23.0207 51.1505 22.6895 51.1504L15.624 51.1504C15.4577 48.0514 12.8924 45.5899 9.75195 45.5898ZM9.75195 46.79C12.3368 46.79 14.4321 48.885 14.4326 51.4697C14.3879 51.5536 14.3604 51.6482 14.3604 51.75C14.3604 51.8299 14.3769 51.9059 14.4053 51.9756C14.1535 54.3233 12.1665 56.1514 9.75195 56.1514C7.16678 56.1514 5.07129 54.0559 5.07129 51.4707C5.0713 48.8855 7.16678 46.79 9.75195 46.79Z" fill="#1727FF"/>
<path d="M57.4805 96.3193C57.4805 99.5672 54.8475 102.2 51.5996 102.2C48.3517 102.2 45.7188 99.5673 45.7188 96.3193C45.7188 93.3701 47.8897 90.9282 50.7207 90.5039L50.7207 83.3809C50.7208 83.0496 50.989 82.7813 51.3203 82.7813C51.6515 82.7813 51.9198 83.0496 51.9199 83.3809L51.9199 90.4473C55.0189 90.6136 57.4805 93.1789 57.4805 96.3193ZM56.2803 96.3193C56.2803 93.7342 54.1848 91.6387 51.5996 91.6387L51.5986 91.6387C51.5152 91.6828 51.4213 91.7099 51.3203 91.71C51.2412 91.71 51.1658 91.6939 51.0967 91.666C48.7481 91.9169 46.919 93.9041 46.9189 96.3193C46.9189 98.9045 49.0144 101 51.5996 101C54.1848 101 56.2803 98.9045 56.2803 96.3193Z" fill="#1727FF"/>
<path d="M93.4473 45.5898C96.6952 45.5898 99.3281 48.2228 99.3281 51.4707C99.3281 54.7186 96.6952 57.3516 93.4473 57.3516C90.4981 57.3516 88.0561 55.1806 87.6318 52.3496L80.5098 52.3496C80.1785 52.3495 79.9102 52.0813 79.9102 51.75C79.9102 51.4188 80.1785 51.1505 80.5098 51.1504L87.5752 51.1504C87.7415 48.0514 90.3068 45.5899 93.4473 45.5898ZM93.4473 46.79C90.8624 46.79 88.7671 48.885 88.7666 51.4697C88.8113 51.5536 88.8388 51.6482 88.8389 51.75C88.8389 51.8299 88.8223 51.9059 88.7939 51.9756C89.0457 54.3233 91.0327 56.1514 93.4473 56.1514C96.0324 56.1514 98.1279 54.0559 98.1279 51.4707C98.1279 48.8855 96.0324 46.79 93.4473 46.79Z" fill="#1727FF"/>
<path d="M22.8691 95.9922C19.6212 95.9922 16.9883 93.3592 16.9883 90.1113C16.9883 86.8634 19.6212 84.2305 22.8691 84.2305C25.8183 84.2305 28.2603 86.4014 28.6846 89.2324H35.207V75.6904C35.207 75.3591 35.4753 75.0898 35.8066 75.0898C36.138 75.0898 36.4062 75.3591 36.4062 75.6904V89.832C36.4062 90.1634 36.138 90.4316 35.8066 90.4316H28.7412C28.5749 93.5306 26.0096 95.9922 22.8691 95.9922ZM22.8691 94.792C25.454 94.792 27.5493 92.697 27.5498 90.1123C27.5051 90.0284 27.4775 89.9338 27.4775 89.832C27.4775 89.7521 27.4941 89.6762 27.5225 89.6064C27.2707 87.2588 25.2837 85.4307 22.8691 85.4307C20.284 85.4307 18.1885 87.5262 18.1885 90.1113C18.1885 92.6965 20.284 94.792 22.8691 94.792Z" fill="#1727FF"/>
<path d="M99.6484 23.0625C99.6484 19.8146 97.0155 17.1817 93.7676 17.1816C90.5197 17.1816 87.8867 19.8146 87.8867 23.0625C87.8867 26.011 90.0567 28.4529 92.8867 28.8779L92.8867 35.4004L82.9443 35.4004C82.613 35.4004 82.3447 35.6686 82.3447 36C82.3447 36.3314 82.613 36.5996 82.9443 36.5996L93.4863 36.5996C93.8177 36.5996 94.0859 36.3314 94.0859 36L94.0859 28.9346C97.1858 28.7692 99.6484 26.2036 99.6484 23.0625ZM98.4482 23.0625C98.4482 25.6477 96.3527 27.7432 93.7676 27.7432L93.7666 27.7432C93.6827 27.6985 93.5881 27.6709 93.4863 27.6709C93.4067 27.6709 93.3312 27.6877 93.2617 27.7158C90.9145 27.4636 89.0869 25.4767 89.0869 23.0625C89.0869 20.4773 91.1824 18.3818 93.7676 18.3818C96.3527 18.3818 98.4482 20.4773 98.4482 23.0625Z" fill="#1727FF"/>
<path d="M3.87109 23.0625C3.87109 19.8146 6.50404 17.1817 9.75195 17.1816C12.9999 17.1816 15.6328 19.8146 15.6328 23.0625C15.6328 26.011 13.4629 28.4529 10.6328 28.8779L10.6328 35.4004L20.5752 35.4004C20.9066 35.4004 21.1748 35.6686 21.1748 36C21.1748 36.3314 20.9066 36.5996 20.5752 36.5996L10.0332 36.5996C9.70183 36.5996 9.43359 36.3314 9.43359 36L9.43359 28.9346C6.33373 28.7692 3.8711 26.2036 3.87109 23.0625ZM5.07129 23.0625C5.0713 25.6477 7.16679 27.7432 9.75195 27.7432L9.75293 27.7432C9.83684 27.6985 9.93144 27.6709 10.0332 27.6709C10.1128 27.6709 10.1883 27.6877 10.2578 27.7158C12.605 27.4636 14.4326 25.4767 14.4326 23.0625C14.4326 20.4773 12.3371 18.3818 9.75195 18.3818C7.16678 18.3818 5.07129 20.4773 5.07129 23.0625Z" fill="#1727FF"/>
<path d="M99.6484 80.1367C99.6484 83.3846 97.0155 86.0176 93.7676 86.0176C90.5197 86.0176 87.8867 83.3846 87.8867 80.1367C87.8867 77.1882 90.0567 74.7464 92.8867 74.3213L92.8867 67.7988L82.9443 67.7988C82.613 67.7988 82.3447 67.5306 82.3447 67.1992C82.3447 66.8678 82.613 66.5996 82.9443 66.5996L93.4863 66.5996C93.8177 66.5996 94.0859 66.8678 94.0859 67.1992L94.0859 74.2646C97.1858 74.43 99.6484 76.9956 99.6484 80.1367ZM98.4482 80.1367C98.4482 77.5516 96.3527 75.4561 93.7676 75.4561L93.7666 75.4561C93.6827 75.5007 93.5881 75.5283 93.4863 75.5283C93.4067 75.5283 93.3312 75.5116 93.2617 75.4834C90.9145 75.7356 89.0869 77.7225 89.0869 80.1367C89.0869 82.7219 91.1824 84.8174 93.7676 84.8174C96.3527 84.8174 98.4482 82.7219 98.4482 80.1367Z" fill="#1727FF"/>
<path d="M3.87109 80.1367C3.87109 83.3846 6.50404 86.0176 9.75195 86.0176C12.9999 86.0176 15.6328 83.3846 15.6328 80.1367C15.6328 77.1882 13.4629 74.7464 10.6328 74.3213L10.6328 67.7988L20.5752 67.7988C20.9066 67.7988 21.1748 67.5306 21.1748 67.1992C21.1748 66.8678 20.9066 66.5996 20.5752 66.5996L10.0332 66.5996C9.70183 66.5996 9.43359 66.8678 9.43359 67.1992L9.43359 74.2646C6.33373 74.43 3.8711 76.9956 3.87109 80.1367ZM5.07129 80.1367C5.0713 77.5516 7.16679 75.4561 9.75195 75.4561L9.75293 75.4561C9.83684 75.5007 9.93144 75.5283 10.0332 75.5283C10.1128 75.5283 10.1883 75.5116 10.2578 75.4834C12.605 75.7356 14.4326 77.7225 14.4326 80.1367C14.4326 82.7219 12.3371 84.8174 9.75195 84.8174C7.16678 84.8174 5.07129 82.7219 5.07129 80.1367Z" fill="#1727FF"/>
<path d="M50.0146 25.4531C51.0201 24.8727 52.2582 24.8727 53.2637 25.4531L73.4707 37.1191C74.4762 37.6997 75.0957 38.7725 75.0957 39.9336V63.2666C75.0957 64.4277 74.4762 65.5005 73.4707 66.0811L53.2646 77.7471C52.2591 78.3276 51.0192 78.3276 50.0137 77.7471L29.8076 66.0811C28.8021 65.5005 28.1826 64.4277 28.1826 63.2666V39.9336C28.1826 38.7725 28.8021 37.6997 29.8076 37.1191L50.0146 25.4531Z" stroke="#1727FF" stroke-width="1.5"/>
<path d="M50.0137 28.6953C51.0192 28.1148 52.2581 28.1148 53.2637 28.6953L70.6621 38.7402C71.6677 39.3208 72.2871 40.3936 72.2871 41.5547V61.6445C72.2871 62.8056 71.6677 63.8784 70.6621 64.459L53.2637 74.5039C52.2581 75.0845 51.0192 75.0845 50.0137 74.5039L32.6152 64.459C31.6097 63.8784 30.9902 62.8056 30.9902 61.6445V41.5547C30.9902 40.3936 31.6097 39.3208 32.6152 38.7402L50.0137 28.6953Z" stroke="#1727FF" stroke-width="1.5"/>
</svg>
