<svg width="95" height="95" viewBox="0 0 95 95" fill="none" xmlns="http://www.w3.org/2000/svg">
<g clip-path="url(#clip0_554_4704)">
<path d="M82.5357 9.61458H71.5448L65.7734 15.3857V20.8008" stroke="#1727FF" stroke-width="2.77344" stroke-miterlimit="10" stroke-linecap="round" stroke-linejoin="round"/>
<mask id="mask0_554_4704" style="mask-type:luminance" maskUnits="userSpaceOnUse" x="0" y="0" width="95" height="95">
<path d="M0 0.000312805H94.6667V94.667H0V0.000312805Z" fill="white"/>
</mask>
<g mask="url(#mask0_554_4704)">
<path d="M60.2266 20.9854V14.2367C60.2266 13.5011 60.5189 12.7958 61.039 12.2756L68.4348 4.87981C68.9549 4.3597 69.6603 4.06738 70.3958 4.06738H82.5357" stroke="#1727FF" stroke-width="2.77344" stroke-miterlimit="10" stroke-linecap="round" stroke-linejoin="round"/>
<path d="M82.4751 85.0518H71.5448L65.7734 79.2806V73.6213" stroke="#1727FF" stroke-width="2.77344" stroke-miterlimit="10" stroke-linecap="round" stroke-linejoin="round"/>
<path d="M60.2266 73.5607V80.4294C60.2266 81.1649 60.5189 81.8704 61.039 82.3906L68.4348 89.7864C68.9549 90.3065 69.6603 90.5986 70.3958 90.5986H82.4751" stroke="#1727FF" stroke-width="2.77344" stroke-miterlimit="10" stroke-linecap="round" stroke-linejoin="round"/>
<path d="M82.5377 29.1211H68.3242" stroke="#1727FF" stroke-width="2.77344" stroke-miterlimit="10" stroke-linecap="round" stroke-linejoin="round"/>
<path d="M68.2383 23.5742H82.1373" stroke="#1727FF" stroke-width="2.77344" stroke-miterlimit="10" stroke-linecap="round" stroke-linejoin="round"/>
<path d="M82.4785 71.0928H68.2266" stroke="#1727FF" stroke-width="2.77344" stroke-miterlimit="10" stroke-linecap="round" stroke-linejoin="round"/>
<path d="M68.2852 65.5459H82.1381" stroke="#1727FF" stroke-width="2.77344" stroke-miterlimit="10" stroke-linecap="round" stroke-linejoin="round"/>
<path d="M57.6331 65.6758L51.8828 58.0314" stroke="#1727FF" stroke-width="2.77344" stroke-miterlimit="10" stroke-linecap="round" stroke-linejoin="round"/>
<path d="M56.1211 54.437L62.3706 62.7451" stroke="#1727FF" stroke-width="2.77344" stroke-miterlimit="10" stroke-linecap="round" stroke-linejoin="round"/>
<path d="M62.3706 31.9564L56.1211 40.3379" stroke="#1727FF" stroke-width="2.77344" stroke-miterlimit="10" stroke-linecap="round" stroke-linejoin="round"/>
<path d="M51.8828 36.7441L57.6357 29.0286" stroke="#1727FF" stroke-width="2.77344" stroke-miterlimit="10" stroke-linecap="round" stroke-linejoin="round"/>
<path d="M57.5469 26.3477C57.5469 23.2843 60.0304 20.8008 63.0938 20.8008C66.1571 20.8008 68.6406 23.2843 68.6406 26.3477C68.6406 29.411 66.1571 31.8945 63.0938 31.8945C60.0304 31.8945 57.5469 29.411 57.5469 26.3477Z" stroke="#1727FF" stroke-width="2.77344" stroke-miterlimit="10" stroke-linecap="round" stroke-linejoin="round"/>
<path d="M57.5469 68.3193C57.5469 65.256 60.0304 62.7725 63.0938 62.7725C66.1571 62.7725 68.6406 65.256 68.6406 68.3193C68.6406 71.3827 66.1571 73.8662 63.0938 73.8662C60.0304 73.8662 57.5469 71.3827 57.5469 68.3193Z" stroke="#1727FF" stroke-width="2.77344" stroke-miterlimit="10" stroke-linecap="round" stroke-linejoin="round"/>
<path d="M52.2535 15.1597L47.7254 26.8698C47.4654 27.5426 46.8375 28.0037 46.1175 28.0468C36.0405 28.6496 28.0547 37.0128 28.0547 47.2412C28.0547 57.4684 36.0387 65.8306 46.1138 66.4352C46.8357 66.4787 47.4647 66.9419 47.7235 67.6169L55.9969 89.185C56.1102 89.4805 56.1481 89.8007 56.1017 90.1138C55.8358 91.9054 54.2912 93.2803 52.4258 93.2803H50.4271M43.9557 93.2803H42.1419C40.0892 93.2803 38.4253 91.6164 38.4253 89.5639V85.5609C38.4253 83.9597 37.3993 82.5378 35.8793 82.0349C34.1877 81.4747 32.5495 80.7941 30.9759 80.0029C29.5429 79.2818 27.8106 79.5573 26.677 80.6907L23.8446 83.5233C22.393 84.9748 20.0393 84.9748 18.5878 83.5233L11.1846 76.1219C9.73521 74.6705 9.73521 72.3168 11.1846 70.8654L14.0191 68.0327C15.1525 66.8993 15.4282 65.1669 14.7071 63.7339C13.9157 62.1605 13.2353 60.5223 12.6749 58.8305C12.1721 57.3106 10.7503 56.2845 9.14909 56.2845H5.14609C3.09356 56.2845 1.42969 54.6206 1.42969 52.5681V42.0993C1.42969 40.0467 3.09356 38.3828 5.14609 38.3828H9.14909C10.7503 38.3828 12.1721 37.3567 12.6749 35.8368C13.2353 34.145 13.9157 32.5069 14.7071 30.9334C15.4282 29.5005 15.1525 27.768 14.0191 26.6346L11.1846 23.802C9.73521 22.3505 9.73521 19.9968 11.1846 18.5454L18.5878 11.1421C20.0393 9.69256 22.393 9.69256 23.8446 11.1421L26.677 13.9766C27.8106 15.1098 29.5429 15.3855 30.9759 14.6644C32.5495 13.8731 34.1877 13.1926 35.8793 12.6324C37.3993 12.1295 38.4253 10.7076 38.4253 9.10643V5.10344C38.4253 3.05091 40.0892 1.38703 42.1419 1.38703H52.4258C54.2905 1.38703 55.8347 2.76063 56.1014 4.55134C56.1483 4.86585 56.1095 5.18775 55.9947 5.48451L54.5889 9.12012" stroke="#1727FF" stroke-width="2.77344" stroke-miterlimit="10" stroke-linecap="round" stroke-linejoin="round"/>
<path d="M30.1562 68.9118C34.8589 72.6498 40.8112 74.8828 47.2854 74.8828C48.2363 74.8828 49.1761 74.8347 50.1021 74.7406" stroke="#1727FF" stroke-width="2.77344" stroke-miterlimit="10" stroke-linecap="round" stroke-linejoin="round"/>
<path d="M49.6801 19.8868C48.8904 19.8188 48.0911 19.784 47.2839 19.784C32.0688 19.784 19.7344 32.1184 19.7344 47.3335C19.7344 53.7372 21.9191 59.6305 25.5839 64.3086" stroke="#1727FF" stroke-width="2.77344" stroke-miterlimit="10" stroke-linecap="round" stroke-linejoin="round"/>
<path d="M36.1914 47.333C36.1914 41.2061 41.1583 36.2393 47.2852 36.2393C53.4121 36.2393 58.3789 41.2061 58.3789 47.333C58.3789 53.4599 53.4121 58.4268 47.2852 58.4268C41.1583 58.4268 36.1914 53.4599 36.1914 47.333Z" stroke="#1727FF" stroke-width="2.77344" stroke-miterlimit="10" stroke-linecap="round" stroke-linejoin="round"/>
<path d="M82.1367 47.333C82.1367 44.2697 84.6202 41.7861 87.6836 41.7861C90.7469 41.7861 93.2305 44.2697 93.2305 47.333C93.2305 50.3964 90.7469 52.8799 87.6836 52.8799C84.6202 52.8799 82.1367 50.3964 82.1367 47.333Z" stroke="#1727FF" stroke-width="2.77344" stroke-miterlimit="10" stroke-linecap="round" stroke-linejoin="round"/>
<path d="M82.1367 26.3477C82.1367 23.2843 84.6202 20.8008 87.6836 20.8008C90.7469 20.8008 93.2305 23.2843 93.2305 26.3477C93.2305 29.411 90.7469 31.8945 87.6836 31.8945C84.6202 31.8945 82.1367 29.411 82.1367 26.3477Z" stroke="#1727FF" stroke-width="2.77344" stroke-miterlimit="10" stroke-linecap="round" stroke-linejoin="round"/>
<path d="M82.1367 6.93359C82.1367 3.87024 84.6202 1.38672 87.6836 1.38672C90.7469 1.38672 93.2305 3.87024 93.2305 6.93359C93.2305 9.99695 90.7469 12.4805 87.6836 12.4805C84.6202 12.4805 82.1367 9.99695 82.1367 6.93359Z" stroke="#1727FF" stroke-width="2.77344" stroke-miterlimit="10" stroke-linecap="round" stroke-linejoin="round"/>
<path d="M82.1367 68.3193C82.1367 65.256 84.6202 62.7725 87.6836 62.7725C90.7469 62.7725 93.2305 65.256 93.2305 68.3193C93.2305 71.3827 90.7469 73.8662 87.6836 73.8662C84.6202 73.8662 82.1367 71.3827 82.1367 68.3193Z" stroke="#1727FF" stroke-width="2.77344" stroke-miterlimit="10" stroke-linecap="round" stroke-linejoin="round"/>
<path d="M82.1367 87.7334C82.1367 84.67 84.6202 82.1865 87.6836 82.1865C90.7469 82.1865 93.2305 84.67 93.2305 87.7334C93.2305 90.7968 90.7469 93.2803 87.6836 93.2803C84.6202 93.2803 82.1367 90.7968 82.1367 87.7334Z" stroke="#1727FF" stroke-width="2.77344" stroke-miterlimit="10" stroke-linecap="round" stroke-linejoin="round"/>
<path d="M57.5469 26.3477C57.5469 23.2843 60.0304 20.8008 63.0938 20.8008C66.1571 20.8008 68.6406 23.2843 68.6406 26.3477C68.6406 29.411 66.1571 31.8945 63.0938 31.8945C60.0304 31.8945 57.5469 29.411 57.5469 26.3477Z" stroke="#1727FF" stroke-width="2.77344" stroke-miterlimit="10" stroke-linecap="round" stroke-linejoin="round"/>
<path d="M57.5469 68.3193C57.5469 65.256 60.0304 62.7725 63.0938 62.7725C66.1571 62.7725 68.6406 65.256 68.6406 68.3193C68.6406 71.3827 66.1571 73.8662 63.0938 73.8662C60.0304 73.8662 57.5469 71.3827 57.5469 68.3193Z" stroke="#1727FF" stroke-width="2.77344" stroke-miterlimit="10" stroke-linecap="round" stroke-linejoin="round"/>
<path d="M58.3789 44.5596H67.4388" stroke="#1727FF" stroke-width="2.77344" stroke-miterlimit="10" stroke-linecap="round" stroke-linejoin="round"/>
<path d="M82.138 50.1064H58.3789" stroke="#1727FF" stroke-width="2.77344" stroke-miterlimit="10" stroke-linecap="round" stroke-linejoin="round"/>
<path d="M74.0898 44.5596H82.1389" stroke="#1727FF" stroke-width="2.77344" stroke-miterlimit="10" stroke-linecap="round" stroke-linejoin="round"/>
<path d="M36.1914 47.333C36.1914 41.2061 41.1583 36.2393 47.2852 36.2393C53.4121 36.2393 58.3789 41.2061 58.3789 47.333C58.3789 53.4599 53.4121 58.4268 47.2852 58.4268C41.1583 58.4268 36.1914 53.4599 36.1914 47.333Z" stroke="#1727FF" stroke-width="2.77344" stroke-miterlimit="10" stroke-linecap="round" stroke-linejoin="round"/>
<path d="M82.1367 47.333C82.1367 44.2697 84.6202 41.7861 87.6836 41.7861C90.7469 41.7861 93.2305 44.2697 93.2305 47.333C93.2305 50.3964 90.7469 52.8799 87.6836 52.8799C84.6202 52.8799 82.1367 50.3964 82.1367 47.333Z" stroke="#1727FF" stroke-width="2.77344" stroke-miterlimit="10" stroke-linecap="round" stroke-linejoin="round"/>
<path d="M82.1367 26.3477C82.1367 23.2843 84.6202 20.8008 87.6836 20.8008C90.7469 20.8008 93.2305 23.2843 93.2305 26.3477C93.2305 29.411 90.7469 31.8945 87.6836 31.8945C84.6202 31.8945 82.1367 29.411 82.1367 26.3477Z" stroke="#1727FF" stroke-width="2.77344" stroke-miterlimit="10" stroke-linecap="round" stroke-linejoin="round"/>
<path d="M82.1367 6.93359C82.1367 3.87024 84.6202 1.38672 87.6836 1.38672C90.7469 1.38672 93.2305 3.87024 93.2305 6.93359C93.2305 9.99695 90.7469 12.4805 87.6836 12.4805C84.6202 12.4805 82.1367 9.99695 82.1367 6.93359Z" stroke="#1727FF" stroke-width="2.77344" stroke-miterlimit="10" stroke-linecap="round" stroke-linejoin="round"/>
<path d="M82.1367 68.3193C82.1367 65.256 84.6202 62.7725 87.6836 62.7725C90.7469 62.7725 93.2305 65.256 93.2305 68.3193C93.2305 71.3827 90.7469 73.8662 87.6836 73.8662C84.6202 73.8662 82.1367 71.3827 82.1367 68.3193Z" stroke="#1727FF" stroke-width="2.77344" stroke-miterlimit="10" stroke-linecap="round" stroke-linejoin="round"/>
<path d="M82.1367 87.7334C82.1367 84.67 84.6202 82.1865 87.6836 82.1865C90.7469 82.1865 93.2305 84.67 93.2305 87.7334C93.2305 90.7968 90.7469 93.2803 87.6836 93.2803C84.6202 93.2803 82.1367 90.7968 82.1367 87.7334Z" stroke="#1727FF" stroke-width="2.77344" stroke-miterlimit="10" stroke-linecap="round" stroke-linejoin="round"/>
</g>
</g>
<defs>
<clipPath id="clip0_554_4704">
<rect width="94.6667" height="94.6667" fill="white"/>
</clipPath>
</defs>
</svg>
