<svg width="73" height="78" viewBox="0 0 73 78" fill="none" xmlns="http://www.w3.org/2000/svg">
<path fill-rule="evenodd" clip-rule="evenodd" d="M52.8577 54.9136C51.3268 56.4537 48.8449 56.4537 47.314 54.9136L44.2818 51.8631V73.2081C44.2818 75.8889 42.296 78 39.9311 78H39.9302C38.6511 78 37.483 77.3825 36.6799 76.3912C36.6369 76.4446 36.5926 76.497 36.5472 76.5485C35.7208 77.4853 34.5944 78 33.4256 78C32.2568 78 31.1306 77.4853 30.3041 76.5485C29.5217 75.6616 29.0744 74.4617 29.0744 73.2076V51.8631L26.0422 54.9136C24.5114 56.4537 22.0294 56.4537 20.4988 54.9136L20.4983 54.9133C20.2028 54.6159 19.9593 54.276 19.7738 53.9078C16.3554 54.5531 13.4999 54.5885 11.4566 54.0283C10.5964 55.8139 8.57009 56.7941 6.59509 56.2617C4.35798 55.6585 3.02833 53.3417 3.62787 51.0911C4.13057 49.2032 5.83201 47.9577 7.68774 47.9612C8.17113 45.7241 9.78203 42.9728 12.3818 40.0131C13.5357 38.6995 14.884 37.3352 16.4039 35.9455C13.3171 33.4423 10.7115 30.9537 8.71197 28.6194C6.24039 25.7338 4.69369 23.0416 4.19962 20.8183C2.34546 20.8198 0.646212 19.5748 0.143829 17.6883C-0.455704 15.4377 0.87394 13.1207 3.1112 12.5177C4.98623 12.0122 6.90772 12.8702 7.83339 14.4865C10.059 13.7856 13.2723 13.8093 17.1425 14.5833C20.2483 15.2045 23.8017 16.2946 27.6082 17.8124C27.8926 16.4942 28.2035 15.2477 28.5383 14.0823C29.6611 10.1741 31.0753 7.15626 32.6274 5.32753C32.5324 4.97511 32.4817 4.60437 32.4817 4.22179C32.4817 1.89174 34.3621 0 36.6781 0C38.9942 0 40.8745 1.89174 40.8745 4.22179C40.8745 4.60437 40.8239 4.97511 40.7289 5.32753C42.2809 7.15626 43.6952 10.1741 44.818 14.0823C45.1521 15.2455 45.4625 16.4894 45.7463 17.8047C49.4538 16.3119 52.9143 15.2218 55.947 14.5748C59.8223 13.7481 63.0378 13.6655 65.2586 14.3079C66.2153 12.7911 68.0737 12.0028 69.8888 12.492C72.1261 13.0952 73.4557 15.4121 72.8562 17.6627C72.3547 19.5455 70.6613 20.7892 68.8115 20.7927C68.2132 22.9904 66.5758 25.6491 64.0382 28.4994C62.0319 30.753 59.4612 33.1508 56.4407 35.5664C58.06 37.0407 59.4918 38.4913 60.71 39.8891C63.3112 42.8739 64.9383 45.6617 65.4477 47.9514C67.3019 47.9496 69.0013 49.1948 69.5037 51.0812C70.103 53.3319 68.7735 55.6487 66.5363 56.2519C64.6611 56.7573 62.7398 55.8993 61.8141 54.2831C59.7482 54.9336 56.8314 54.96 53.3284 54.3414C53.1907 54.545 53.0336 54.7366 52.858 54.9133L52.8577 54.9136ZM8.39447 16.6183C8.38678 18.1056 7.592 19.4908 6.31541 20.2412C6.6836 22.1943 8.14037 24.5659 10.3764 27.1764C12.3666 29.4998 14.9779 31.9767 18.0771 34.4649C20.4261 32.4508 23.1111 30.4029 26.0637 28.3959C26.3232 25.4132 26.6983 22.5992 27.1707 20.0141C23.3638 18.4743 19.8109 17.3708 16.714 16.7514C13.2047 16.0495 10.3189 15.9411 8.39447 16.6183ZM33.8442 7.33437C32.6291 9.00205 31.5571 11.5353 30.6492 14.6961C30.2947 15.9303 29.9681 17.2579 29.6727 18.6669C31.9501 19.644 34.3026 20.7649 36.6907 22.0216C39.0723 20.7676 41.4162 19.6462 43.6834 18.6662C43.3882 17.2573 43.0616 15.93 42.7072 14.6961C41.7991 11.5353 40.7273 9.00205 39.5121 7.33437C38.7654 8.0231 37.7702 8.44358 36.6781 8.44358C35.5861 8.44358 34.5911 8.0231 33.8442 7.33437ZM64.6085 16.4103C62.6825 15.8348 59.8427 16.0034 56.4028 16.7373C53.3714 17.3841 49.9022 18.4898 46.1845 20.0079C46.6577 22.596 47.0333 25.4138 47.293 28.4005C50.0359 30.2773 52.5436 32.1932 54.7617 34.0869C57.8082 31.6746 60.3963 29.2772 62.4015 27.0246C64.6713 24.4751 66.1962 22.1514 66.6967 20.2225C65.3609 19.4435 64.549 17.9708 64.6085 16.4103ZM63.3322 48.5283C62.9529 46.5129 61.4166 44.0531 59.0578 41.3465C57.8167 39.9223 56.3461 38.4428 54.6767 36.9404C52.5067 38.5869 50.1386 40.2308 47.6085 41.8317C47.563 42.5826 47.5025 43.2613 47.4281 43.8736L52.858 49.3363C53.5931 50.0758 54.006 51.0788 54.006 52.1247C54.006 52.1556 54.0057 52.1864 54.0051 52.2172C57.0312 52.734 59.5282 52.7583 61.253 52.1514C61.2606 50.6638 62.0556 49.2786 63.3322 48.5283ZM51.3044 53.3501C51.6274 53.0252 51.8088 52.5843 51.8088 52.1247C51.8088 51.665 51.6274 51.2244 51.3044 50.8993L44.6063 44.1608C43.8276 43.3773 42.7714 42.9373 41.6701 42.9373H31.6862C30.5849 42.9373 29.5288 43.3773 28.75 44.1608L22.052 50.8993C21.7289 51.2244 21.5475 51.665 21.5475 52.1247C21.5475 52.5843 21.7289 53.0252 22.0494 53.3476C22.0503 53.3484 22.0511 53.3493 22.052 53.3503C22.053 53.3512 22.0539 53.3522 22.0555 53.3537C22.7285 54.0273 23.8169 54.0264 24.4885 53.3506L29.3963 48.4132C29.7105 48.0971 30.1829 48.0025 30.5935 48.1735C31.0041 48.3447 31.2717 48.7476 31.2717 49.1946V56.5655H42.0846V49.1946C42.0846 48.7476 42.3522 48.3447 42.7628 48.1735C43.1733 48.0025 43.6459 48.0971 43.9601 48.4132L48.8678 53.3506C49.5405 54.0273 50.6312 54.0273 51.3039 53.3506M19.3692 51.7366C19.458 50.8331 19.8548 49.9836 20.4983 49.3363L25.78 44.0226C25.7541 43.5774 25.7321 43.095 25.7139 42.5728C22.9951 40.863 20.4614 39.0985 18.157 37.3285C16.5894 38.7458 15.2045 40.1378 14.0283 41.4769C11.6687 44.1632 10.1408 46.5826 9.80196 48.5398C10.9889 49.2387 11.7589 50.4867 11.8656 51.8548C13.6383 52.4286 16.2267 52.3394 19.3692 51.7366ZM28.4094 41.643C29.3905 41.0484 30.5218 40.7267 31.6862 40.7267H41.6701C42.5788 40.7267 43.4673 40.9227 44.28 41.2912C44.6803 41.0509 45.0769 40.8092 45.4698 40.5665C45.4963 39.831 45.5099 39.0324 45.5099 38.166C45.5099 35.2206 45.3991 32.3634 45.1909 29.6409C43.405 28.4471 41.5231 27.2717 39.56 26.1316C38.6004 25.5742 37.6432 25.0378 36.691 24.5231C35.7082 25.0543 34.7199 25.6082 33.7287 26.1838C31.7916 27.309 29.9323 28.4664 28.1656 29.6405C27.9571 32.3629 27.8465 35.2205 27.8465 38.166C27.8465 39.3346 27.8565 40.3819 27.8768 41.3184C28.0537 41.4268 28.2312 41.535 28.4094 41.643ZM25.8558 31.2215C23.676 32.759 21.663 34.3127 19.8495 35.8484C21.6525 37.2178 23.5959 38.5825 25.6576 39.9191C25.6519 39.3668 25.6492 38.7829 25.6492 38.166C25.6492 35.7873 25.7203 33.4647 25.8558 31.2215ZM29.2457 20.886C28.9156 22.7593 28.6378 24.7521 28.4189 26.8407C29.7761 25.9699 31.1819 25.1106 32.63 24.2695C33.2027 23.9368 33.7745 23.6114 34.345 23.2933C32.6159 22.4151 30.9108 21.6114 29.2457 20.886ZM44.1108 20.8866C42.4544 21.6134 40.7575 22.4168 39.0356 23.2929C39.5757 23.5944 40.1168 23.9026 40.6586 24.2173C42.1314 25.0727 43.5594 25.9478 44.9369 26.8358C44.7182 24.7492 44.4405 22.7583 44.1108 20.8866ZM52.9774 35.4617C51.3075 34.0544 49.4739 32.6364 47.5013 31.2336C47.6361 33.4731 47.7072 35.7916 47.7072 38.166C47.7072 38.5036 47.7051 38.8314 47.7011 39.1497C49.5632 37.9348 51.3276 36.6996 52.9774 35.4617ZM37.7768 73.2081C37.7768 74.5994 38.7012 75.788 39.928 75.7895H39.931C41.1591 75.7895 42.0846 74.6002 42.0846 73.2081V58.776H31.2717V73.2076C31.2717 73.9093 31.5098 74.5851 31.9475 75.0812C32.3409 75.5272 32.8692 75.7895 33.4256 75.7895C33.9821 75.7895 34.5104 75.5272 34.9039 75.0812C35.3405 74.5862 35.5786 73.9123 35.5795 73.2122V73.2081V63.5062C35.5795 62.8963 36.0719 62.4009 36.6781 62.4009C37.2846 62.4009 37.7768 62.8963 37.7768 63.5062V73.2076V73.2081ZM8.1986 50.241C7.13294 49.9536 6.03573 50.5909 5.75025 51.6632C5.4646 52.7354 6.09804 53.8391 7.16386 54.1265C8.22952 54.4138 9.32673 53.7766 9.61237 52.7043C9.89785 51.6321 9.26442 50.5282 8.1986 50.241ZM64.9328 50.2312C63.8669 50.5184 63.2335 51.6223 63.5192 52.6945C63.8048 53.7666 64.9018 54.4039 65.9677 54.1167C67.0335 53.8293 67.6669 52.7256 67.3813 51.6534C67.0958 50.5811 65.9986 49.9438 64.9328 50.2312ZM36.6781 2.21053C35.5748 2.21053 34.679 3.11179 34.679 4.22179C34.679 5.33179 35.5748 6.23305 36.6781 6.23305C37.7816 6.23305 38.6773 5.33179 38.6773 4.22179C38.6773 3.11179 37.7816 2.21053 36.6781 2.21053ZM69.3202 14.6272C68.2544 14.34 67.1573 14.9773 66.8717 16.0495C66.5862 17.1216 67.2195 18.2255 68.2853 18.5128C69.3511 18.8001 70.4483 18.1628 70.7338 17.0905C71.0194 16.0184 70.386 14.9146 69.3202 14.6272ZM36.6781 27.6548C39.969 27.6548 42.6407 30.3426 42.6407 33.6534C42.6407 36.9639 39.969 39.6518 36.6781 39.6518C33.3875 39.6518 30.7158 36.9639 30.7158 33.6534C30.7158 30.3426 33.3875 27.6548 36.6781 27.6548ZM36.6781 29.8653C34.6 29.8653 32.913 31.5627 32.913 33.6534C32.913 35.7439 34.6 37.4413 36.6781 37.4413C38.7563 37.4413 40.4434 35.7439 40.4434 33.6534C40.4434 31.5627 38.7563 29.8653 36.6781 29.8653ZM3.67982 14.6529C2.614 14.9402 1.98057 16.044 2.26621 17.1163C2.55169 18.1884 3.6489 18.8256 4.71472 18.5384C5.78054 18.2511 6.41381 17.1474 6.12833 16.0751C5.84269 15.0028 4.74564 14.3656 3.67982 14.6529Z" fill="#1727FF"/>
</svg>
