<svg width="80" height="80" viewBox="0 0 80 80" fill="none" xmlns="http://www.w3.org/2000/svg">
<path d="M74.8594 15.3403H75.5437C77.314 15.3403 78.75 16.7748 78.75 18.5466V54.9194H0.75V18.5466C0.75 16.7748 2.18602 15.3403 3.95632 15.3403H42.6194" stroke="#1727FF" stroke-width="1.5" stroke-miterlimit="10" stroke-linecap="round" stroke-linejoin="round"/>
<path d="M59.4221 27.5239C66.8155 27.5239 72.8091 21.5304 72.8091 14.137C72.8091 6.74355 66.8155 0.75 59.4221 0.75C52.0287 0.75 46.0352 6.74355 46.0352 14.137C46.0352 21.5304 52.0287 27.5239 59.4221 27.5239Z" stroke="#1727FF" stroke-width="1.5" stroke-miterlimit="10" stroke-linecap="round" stroke-linejoin="round"/>
<path d="M78.75 54.9197H0.75V59.2748C0.75 61.0456 2.18555 62.4811 3.95632 62.4811H75.5437C77.3145 62.4811 78.75 61.0456 78.75 59.2748V54.9197Z" stroke="#1727FF" stroke-width="1.5" stroke-miterlimit="10" stroke-linecap="round" stroke-linejoin="round"/>
<path d="M55.0825 68.0032V78.6547H24.418V62.4812H55.0825" stroke="#1727FF" stroke-width="1.5" stroke-miterlimit="10" stroke-linecap="round" stroke-linejoin="round"/>
<path d="M50.8457 74.4172V62.4812L28.656 62.4812L28.656 74.4172H50.8457Z" stroke="#1727FF" stroke-width="1.5" stroke-miterlimit="10" stroke-linecap="round" stroke-linejoin="round"/>
<path d="M18.9102 78.6545H60.5873" stroke="#1727FF" stroke-width="1.5" stroke-miterlimit="10" stroke-linecap="round" stroke-linejoin="round"/>
<path d="M31.6563 47.3515C37.3864 47.3515 42.0314 42.7064 42.0314 36.9764C42.0314 31.2464 37.3864 26.6013 31.6563 26.6013C25.9263 26.6013 21.2812 31.2464 21.2812 36.9764C21.2812 42.7064 25.9263 47.3515 31.6563 47.3515Z" stroke="#1727FF" stroke-width="1.5" stroke-miterlimit="10" stroke-linecap="round" stroke-linejoin="round"/>
<path d="M31.6572 43.1141C28.2729 43.1141 25.5195 40.3607 25.5195 36.9764C25.5195 33.5923 28.2729 30.8389 31.6572 30.8389C35.0413 30.8389 37.7947 33.5923 37.7947 36.9764C37.7947 40.3607 35.0413 43.1141 31.6572 43.1141Z" stroke="#1727FF" stroke-width="1.5" stroke-miterlimit="10" stroke-linecap="round" stroke-linejoin="round"/>
<path d="M53.6531 36.9764C53.6531 36.9764 47.6278 47.3515 31.6566 47.3515C15.6855 47.3515 9.66016 36.9764 9.66016 36.9764C9.66016 36.9764 15.6855 26.6013 31.6566 26.6013C47.6278 26.6013 53.6531 36.9764 53.6531 36.9764Z" stroke="#1727FF" stroke-width="1.5" stroke-miterlimit="10" stroke-linecap="round" stroke-linejoin="round"/>
<path d="M52.4961 18.5199L56.4014 8.26611C56.4813 8.07104 56.7574 8.07072 56.8376 8.26564L60.7074 18.5199" stroke="#1727FF" stroke-width="1.5" stroke-miterlimit="10" stroke-linecap="round" stroke-linejoin="round"/>
<path d="M53.7129 15.9661H59.508" stroke="#1727FF" stroke-width="1.5" stroke-miterlimit="10" stroke-linecap="round" stroke-linejoin="round"/>
<path d="M65.0273 8.11938V18.5197" stroke="#1727FF" stroke-width="1.5" stroke-miterlimit="10" stroke-linecap="round" stroke-linejoin="round"/>
</svg>
